<?xml version="1.0" encoding="UTF-8"?>
<svg xmlns="http://www.w3.org/2000/svg" xmlns:xlink="http://www.w3.org/1999/xlink" width="112.5pt" height="112.499997pt" viewBox="0 0 112.5 112.499997" version="1.2">
<defs>
<clipPath id="clip1">
  <path d="M 70 33 L 112.003906 33 L 112.003906 87 L 70 87 Z M 70 33 "/>
</clipPath>
<clipPath id="clip2">
  <path d="M 86 33 L 112.003906 33 L 112.003906 51 L 86 51 Z M 86 33 "/>
</clipPath>
<clipPath id="clip3">
  <path d="M 89 48 L 93 48 L 93 99.867188 L 89 99.867188 Z M 89 48 "/>
</clipPath>
<clipPath id="clip4">
  <path d="M 20 12.867188 L 55 12.867188 L 55 57 L 20 57 Z M 20 12.867188 "/>
</clipPath>
<clipPath id="clip5">
  <path d="M 32 12.867188 L 55 12.867188 L 55 27 L 32 27 Z M 32 12.867188 "/>
</clipPath>
<clipPath id="clip6">
  <path d="M 14 61 L 18 61 L 18 99.867188 L 14 99.867188 Z M 14 61 "/>
</clipPath>
<clipPath id="clip7">
  <path d="M 22 97 L 88 97 L 88 99.867188 L 22 99.867188 Z M 22 97 "/>
</clipPath>
</defs>
<g id="surface1">
<g clip-path="url(#clip1)" clip-rule="nonzero">
<path style=" stroke:none;fill-rule:nonzero;fill:rgb(29.019165%,75.689697%,62.348938%);fill-opacity:1;" d="M 111.972656 57.355469 C 111.972656 54.914062 110.558594 52.808594 108.515625 51.804688 C 110.824219 50.390625 112.371094 47.84375 112.371094 44.925781 C 112.371094 40.472656 108.78125 36.863281 104.351562 36.863281 C 102.738281 36.863281 101.242188 37.34375 99.984375 38.167969 C 98.847656 35.332031 96.09375 33.328125 92.867188 33.328125 C 89.703125 33.328125 86.984375 35.257812 85.8125 38.007812 C 85.171875 37.742188 84.472656 37.59375 83.738281 37.59375 C 80.730469 37.59375 78.296875 40.046875 78.296875 43.066406 C 78.296875 43.300781 78.3125 43.527344 78.34375 43.753906 C 74.070312 44.6875 70.871094 48.507812 70.871094 53.082031 C 70.871094 57.175781 73.4375 60.667969 77.039062 62.027344 C 73.675781 64.496094 71.492188 68.488281 71.492188 72.996094 C 71.492188 80.5 77.542969 86.582031 85.003906 86.582031 C 89.980469 86.582031 94.328125 83.871094 96.671875 79.839844 C 96.890625 79.796875 97.105469 79.746094 97.316406 79.691406 C 98.753906 80.585938 100.449219 81.105469 102.261719 81.105469 C 107.453125 81.105469 111.660156 76.878906 111.660156 71.660156 C 111.660156 68.132812 109.734375 65.054688 106.882812 63.433594 C 109.769531 62.929688 111.972656 60.40625 111.972656 57.355469 "/>
</g>
<path style=" stroke:none;fill-rule:nonzero;fill:rgb(52.549744%,83.139038%,73.728943%);fill-opacity:1;" d="M 107.363281 53.429688 C 109.410156 54.433594 110.820312 56.539062 110.820312 58.980469 C 110.820312 59.953125 110.59375 60.871094 110.195312 61.691406 C 111.292969 60.574219 111.972656 59.046875 111.972656 57.355469 C 111.972656 55.117188 110.785156 53.167969 109.015625 52.085938 C 108.527344 52.601562 107.972656 53.054688 107.363281 53.429688 "/>
<g clip-path="url(#clip2)" clip-rule="nonzero">
<path style=" stroke:none;fill-rule:nonzero;fill:rgb(52.549744%,83.139038%,73.728943%);fill-opacity:1;" d="M 91.71875 34.953125 C 94.945312 34.953125 97.699219 36.957031 98.832031 39.792969 C 100.089844 38.96875 101.589844 38.484375 103.199219 38.484375 C 107.628906 38.484375 111.21875 42.097656 111.21875 46.550781 C 111.21875 47.929688 110.871094 49.222656 110.261719 50.355469 C 111.570312 48.921875 112.371094 47.019531 112.371094 44.925781 C 112.371094 40.472656 108.78125 36.863281 104.351562 36.863281 C 102.738281 36.863281 101.242188 37.34375 99.984375 38.167969 C 98.847656 35.332031 96.09375 33.328125 92.867188 33.328125 C 89.929688 33.328125 87.382812 34.988281 86.09375 37.425781 C 87.496094 35.90625 89.492188 34.953125 91.71875 34.953125 "/>
</g>
<path style=" stroke:none;fill-rule:nonzero;fill:rgb(23.529053%,63.529968%,63.529968%);fill-opacity:1;" d="M 103.511719 76.898438 C 101.695312 76.898438 100 76.378906 98.5625 75.484375 C 98.351562 75.539062 98.136719 75.589844 97.917969 75.632812 C 95.574219 79.664062 91.226562 82.375 86.25 82.375 C 78.789062 82.375 72.738281 76.292969 72.738281 68.789062 C 72.738281 68.210938 72.777344 67.640625 72.847656 67.078125 C 71.980469 68.867188 71.492188 70.871094 71.492188 72.996094 C 71.492188 80.5 77.542969 86.582031 85.003906 86.582031 C 89.980469 86.582031 94.328125 83.871094 96.671875 79.839844 C 96.890625 79.796875 97.105469 79.746094 97.316406 79.691406 C 98.753906 80.585938 100.449219 81.105469 102.261719 81.105469 C 107.277344 81.105469 111.375 77.152344 111.644531 72.179688 C 110.019531 75 106.984375 76.898438 103.511719 76.898438 "/>
<path style=" stroke:none;fill-rule:nonzero;fill:rgb(29.019165%,75.689697%,62.348938%);fill-opacity:1;" d="M 79.585938 39.53125 C 79.582031 39.535156 79.574219 39.542969 79.566406 39.554688 C 79.574219 39.550781 79.582031 39.550781 79.589844 39.546875 C 79.585938 39.542969 79.585938 39.535156 79.585938 39.53125 "/>
<path style=" stroke:none;fill-rule:nonzero;fill:rgb(29.019165%,75.689697%,62.348938%);fill-opacity:1;" d="M 78.285156 57.820312 C 74.683594 56.460938 72.117188 52.972656 72.117188 48.875 C 72.117188 48.691406 72.125 48.503906 72.136719 48.320312 C 71.332031 49.722656 70.871094 51.347656 70.871094 53.082031 C 70.871094 56.414062 72.570312 59.347656 75.148438 61.054688 C 76.007812 59.808594 77.070312 58.710938 78.285156 57.820312 "/>
<g clip-path="url(#clip3)" clip-rule="nonzero">
<path style=" stroke:none;fill-rule:nonzero;fill:rgb(41.569519%,22.349548%,9.408569%);fill-opacity:1;" d="M 91.367188 48.757812 L 89.867188 100.101562 L 92.867188 100.101562 Z M 91.367188 48.757812 "/>
</g>
<path style=" stroke:none;fill-rule:nonzero;fill:rgb(41.569519%,22.349548%,9.408569%);fill-opacity:1;" d="M 83.738281 54.171875 C 83.738281 54.171875 84.339844 54.300781 85.21875 54.609375 C 85.433594 54.695312 85.675781 54.773438 85.921875 54.878906 C 86.167969 54.984375 86.429688 55.09375 86.691406 55.222656 C 86.957031 55.34375 87.222656 55.492188 87.492188 55.640625 C 87.765625 55.785156 88.027344 55.964844 88.296875 56.128906 C 88.550781 56.316406 88.816406 56.492188 89.058594 56.691406 C 89.292969 56.902344 89.546875 57.085938 89.75 57.3125 C 89.957031 57.53125 90.179688 57.730469 90.34375 57.960938 C 90.507812 58.1875 90.695312 58.382812 90.816406 58.597656 C 90.945312 58.8125 91.0625 59.007812 91.167969 59.179688 C 91.261719 59.359375 91.324219 59.527344 91.386719 59.660156 C 91.503906 59.933594 91.570312 60.085938 91.570312 60.085938 L 90.988281 61.757812 C 90.988281 61.757812 90.449219 60.277344 90.378906 60.042969 C 90.339844 59.925781 90.304688 59.777344 90.242188 59.613281 C 90.167969 59.457031 90.085938 59.277344 89.996094 59.082031 C 89.914062 58.882812 89.769531 58.695312 89.648438 58.476562 C 89.527344 58.253906 89.347656 58.058594 89.183594 57.832031 C 89.023438 57.605469 88.804688 57.414062 88.613281 57.191406 C 88.410156 56.980469 88.179688 56.789062 87.960938 56.582031 C 87.722656 56.398438 87.492188 56.199219 87.25 56.027344 C 87.003906 55.859375 86.765625 55.683594 86.519531 55.539062 C 86.277344 55.382812 86.039062 55.246094 85.808594 55.117188 C 85.582031 54.984375 85.355469 54.882812 85.152344 54.773438 C 84.324219 54.371094 83.738281 54.171875 83.738281 54.171875 "/>
<path style=" stroke:none;fill-rule:nonzero;fill:rgb(41.569519%,22.349548%,9.408569%);fill-opacity:1;" d="M 82.375 64.019531 C 82.375 64.019531 83.023438 64.054688 83.984375 64.234375 C 84.222656 64.289062 84.484375 64.328125 84.753906 64.402344 C 85.027344 64.46875 85.316406 64.542969 85.609375 64.636719 C 85.90625 64.714844 86.207031 64.828125 86.511719 64.9375 C 86.820312 65.046875 87.117188 65.1875 87.425781 65.316406 C 87.71875 65.46875 88.023438 65.609375 88.308594 65.777344 C 88.582031 65.960938 88.878906 66.109375 89.125 66.3125 C 89.375 66.507812 89.636719 66.675781 89.84375 66.890625 C 90.050781 67.097656 90.277344 67.269531 90.4375 67.476562 C 90.605469 67.679688 90.757812 67.863281 90.894531 68.027344 C 91.019531 68.199219 91.113281 68.359375 91.199219 68.488281 C 91.363281 68.753906 91.457031 68.902344 91.457031 68.902344 L 91.117188 70.734375 C 91.117188 70.734375 90.324219 69.28125 90.210938 69.046875 C 90.152344 68.933594 90.089844 68.785156 90 68.625 C 89.898438 68.472656 89.785156 68.300781 89.664062 68.113281 C 89.546875 67.914062 89.363281 67.742188 89.203125 67.539062 C 89.042969 67.324219 88.820312 67.152344 88.617188 66.945312 C 88.414062 66.734375 88.160156 66.570312 87.921875 66.371094 C 87.679688 66.183594 87.40625 66.019531 87.148438 65.839844 C 86.871094 65.6875 86.601562 65.519531 86.316406 65.382812 C 86.035156 65.242188 85.761719 65.101562 85.484375 64.988281 C 85.207031 64.867188 84.9375 64.761719 84.675781 64.667969 C 84.417969 64.566406 84.167969 64.496094 83.9375 64.414062 C 83.015625 64.128906 82.375 64.019531 82.375 64.019531 "/>
<path style=" stroke:none;fill-rule:nonzero;fill:rgb(41.569519%,22.349548%,9.408569%);fill-opacity:1;" d="M 98.914062 57.269531 C 98.914062 57.269531 98.3125 57.398438 97.433594 57.707031 C 97.214844 57.792969 96.976562 57.871094 96.730469 57.976562 C 96.484375 58.078125 96.222656 58.191406 95.960938 58.320312 C 95.695312 58.441406 95.429688 58.589844 95.15625 58.738281 C 94.886719 58.882812 94.625 59.0625 94.355469 59.226562 C 94.101562 59.414062 93.835938 59.589844 93.59375 59.789062 C 93.359375 60 93.105469 60.179688 92.902344 60.40625 C 92.695312 60.628906 92.472656 60.824219 92.308594 61.054688 C 92.144531 61.28125 91.957031 61.476562 91.835938 61.695312 C 91.707031 61.910156 91.589844 62.105469 91.484375 62.277344 C 91.390625 62.457031 91.328125 62.625 91.265625 62.757812 C 91.148438 63.027344 91.082031 63.183594 91.082031 63.183594 L 91.667969 64.855469 C 91.667969 64.855469 92.203125 63.375 92.273438 63.140625 C 92.3125 63.023438 92.347656 62.875 92.410156 62.710938 C 92.484375 62.554688 92.566406 62.375 92.65625 62.179688 C 92.734375 61.976562 92.882812 61.789062 93.007812 61.570312 C 93.125 61.351562 93.304688 61.152344 93.46875 60.929688 C 93.628906 60.703125 93.84375 60.511719 94.039062 60.289062 C 94.242188 60.078125 94.472656 59.882812 94.691406 59.679688 C 94.929688 59.496094 95.160156 59.292969 95.402344 59.125 C 95.648438 58.953125 95.886719 58.78125 96.132812 58.632812 C 96.375 58.480469 96.613281 58.34375 96.84375 58.214844 C 97.070312 58.082031 97.296875 57.980469 97.5 57.871094 C 98.328125 57.464844 98.914062 57.269531 98.914062 57.269531 "/>
<path style=" stroke:none;fill-rule:nonzero;fill:rgb(41.569519%,22.349548%,9.408569%);fill-opacity:1;" d="M 100.277344 67.117188 C 100.277344 67.117188 99.628906 67.152344 98.667969 67.332031 C 98.429688 67.382812 98.167969 67.425781 97.898438 67.5 C 97.625 67.566406 97.335938 67.636719 97.042969 67.730469 C 96.746094 67.8125 96.445312 67.925781 96.140625 68.035156 C 95.832031 68.140625 95.535156 68.285156 95.226562 68.414062 C 94.933594 68.566406 94.628906 68.707031 94.347656 68.875 C 94.070312 69.058594 93.773438 69.203125 93.527344 69.40625 C 93.277344 69.605469 93.015625 69.773438 92.808594 69.984375 C 92.601562 70.191406 92.375 70.367188 92.214844 70.574219 C 92.046875 70.773438 91.894531 70.957031 91.757812 71.121094 C 91.628906 71.292969 91.539062 71.457031 91.453125 71.585938 C 91.289062 71.847656 91.195312 72 91.195312 72 L 91.535156 73.832031 C 91.535156 73.832031 92.328125 72.378906 92.441406 72.144531 C 92.5 72.027344 92.558594 71.882812 92.652344 71.722656 C 92.75 71.570312 92.867188 71.398438 92.988281 71.207031 C 93.105469 71.011719 93.289062 70.839844 93.449219 70.632812 C 93.609375 70.421875 93.832031 70.246094 94.035156 70.042969 C 94.238281 69.828125 94.492188 69.664062 94.730469 69.46875 C 94.972656 69.277344 95.246094 69.117188 95.507812 68.9375 C 95.78125 68.785156 96.050781 68.613281 96.335938 68.476562 C 96.613281 68.339844 96.890625 68.195312 97.171875 68.085938 C 97.445312 67.960938 97.714844 67.859375 97.976562 67.765625 C 98.234375 67.660156 98.484375 67.589844 98.714844 67.511719 C 99.636719 67.226562 100.277344 67.117188 100.277344 67.117188 "/>
<g clip-path="url(#clip4)" clip-rule="nonzero">
<path style=" stroke:none;fill-rule:nonzero;fill:rgb(29.019165%,75.689697%,62.348938%);fill-opacity:1;" d="M 53.691406 32.449219 C 53.691406 30.457031 52.539062 28.742188 50.871094 27.925781 C 52.753906 26.769531 54.015625 24.695312 54.015625 22.316406 C 54.015625 18.683594 51.089844 15.742188 47.476562 15.742188 C 46.164062 15.742188 44.941406 16.136719 43.917969 16.808594 C 42.992188 14.496094 40.746094 12.863281 38.117188 12.863281 C 35.535156 12.863281 33.320312 14.433594 32.367188 16.679688 C 31.84375 16.460938 31.273438 16.339844 30.671875 16.339844 C 28.222656 16.339844 26.238281 18.335938 26.238281 20.800781 C 26.238281 20.992188 26.253906 21.175781 26.277344 21.359375 C 22.792969 22.121094 20.1875 25.238281 20.1875 28.964844 C 20.1875 32.304688 22.277344 35.148438 25.214844 36.253906 C 22.472656 38.269531 20.691406 41.523438 20.691406 45.199219 C 20.691406 51.316406 25.621094 56.273438 31.707031 56.273438 C 35.765625 56.273438 39.308594 54.0625 41.21875 50.777344 C 41.394531 50.742188 41.570312 50.699219 41.742188 50.65625 C 42.914062 51.386719 44.296875 51.808594 45.777344 51.808594 C 50.007812 51.808594 53.4375 48.363281 53.4375 44.109375 C 53.4375 41.234375 51.863281 38.726562 49.539062 37.402344 C 51.898438 36.992188 53.691406 34.933594 53.691406 32.449219 "/>
</g>
<path style=" stroke:none;fill-rule:nonzero;fill:rgb(52.549744%,83.139038%,73.728943%);fill-opacity:1;" d="M 49.933594 29.25 C 51.601562 30.066406 52.753906 31.78125 52.753906 33.773438 C 52.753906 34.566406 52.566406 35.316406 52.242188 35.980469 C 53.136719 35.074219 53.691406 33.828125 53.691406 32.449219 C 53.691406 30.625 52.722656 29.035156 51.28125 28.152344 C 50.882812 28.574219 50.429688 28.945312 49.933594 29.25 "/>
<g clip-path="url(#clip5)" clip-rule="nonzero">
<path style=" stroke:none;fill-rule:nonzero;fill:rgb(52.549744%,83.139038%,73.728943%);fill-opacity:1;" d="M 37.179688 14.1875 C 39.808594 14.1875 42.054688 15.820312 42.980469 18.128906 C 44.003906 17.460938 45.226562 17.066406 46.539062 17.066406 C 50.152344 17.066406 53.078125 20.007812 53.078125 23.640625 C 53.078125 24.761719 52.792969 25.820312 52.296875 26.742188 C 53.363281 25.574219 54.015625 24.023438 54.015625 22.316406 C 54.015625 18.683594 51.089844 15.742188 47.476562 15.742188 C 46.164062 15.742188 44.941406 16.136719 43.917969 16.808594 C 42.992188 14.496094 40.746094 12.863281 38.117188 12.863281 C 35.722656 12.863281 33.644531 14.214844 32.59375 16.203125 C 33.738281 14.964844 35.367188 14.1875 37.179688 14.1875 "/>
</g>
<path style=" stroke:none;fill-rule:nonzero;fill:rgb(23.529053%,63.529968%,63.529968%);fill-opacity:1;" d="M 46.792969 48.378906 C 45.3125 48.378906 43.929688 47.957031 42.761719 47.226562 C 42.585938 47.273438 42.410156 47.3125 42.234375 47.347656 C 40.324219 50.632812 36.78125 52.84375 32.722656 52.84375 C 26.636719 52.84375 21.707031 47.886719 21.707031 41.769531 C 21.707031 41.296875 21.738281 40.832031 21.796875 40.375 C 21.089844 41.832031 20.691406 43.46875 20.691406 45.199219 C 20.691406 51.316406 25.621094 56.273438 31.707031 56.273438 C 35.765625 56.273438 39.308594 54.0625 41.21875 50.777344 C 41.394531 50.742188 41.570312 50.699219 41.742188 50.65625 C 42.914062 51.386719 44.296875 51.808594 45.777344 51.808594 C 49.863281 51.808594 53.203125 48.589844 53.421875 44.53125 C 52.097656 46.832031 49.625 48.378906 46.792969 48.378906 "/>
<path style=" stroke:none;fill-rule:nonzero;fill:rgb(29.019165%,75.689697%,62.348938%);fill-opacity:1;" d="M 27.289062 17.917969 C 27.285156 17.921875 27.277344 17.929688 27.273438 17.9375 C 27.28125 17.933594 27.285156 17.933594 27.292969 17.933594 C 27.292969 17.925781 27.292969 17.921875 27.289062 17.917969 "/>
<path style=" stroke:none;fill-rule:nonzero;fill:rgb(29.019165%,75.689697%,62.348938%);fill-opacity:1;" d="M 26.230469 32.828125 C 23.292969 31.71875 21.203125 28.875 21.203125 25.535156 C 21.203125 25.382812 21.207031 25.234375 21.21875 25.085938 C 20.5625 26.226562 20.1875 27.550781 20.1875 28.964844 C 20.1875 31.683594 21.570312 34.074219 23.671875 35.464844 C 24.371094 34.449219 25.238281 33.554688 26.230469 32.828125 "/>
<path style=" stroke:none;fill-rule:nonzero;fill:rgb(41.569519%,22.349548%,9.408569%);fill-opacity:1;" d="M 36.894531 25.441406 L 35.667969 67.296875 L 38.117188 67.296875 Z M 36.894531 25.441406 "/>
<path style=" stroke:none;fill-rule:nonzero;fill:rgb(41.569519%,22.349548%,9.408569%);fill-opacity:1;" d="M 30.671875 29.855469 C 30.671875 29.855469 31.167969 29.957031 31.882812 30.210938 C 32.058594 30.28125 32.253906 30.34375 32.453125 30.433594 C 32.65625 30.515625 32.867188 30.605469 33.082031 30.710938 C 33.296875 30.808594 33.515625 30.929688 33.734375 31.050781 C 33.957031 31.167969 34.171875 31.316406 34.390625 31.449219 C 34.597656 31.601562 34.816406 31.746094 35.011719 31.910156 C 35.203125 32.082031 35.410156 32.226562 35.578125 32.414062 C 35.746094 32.59375 35.925781 32.753906 36.058594 32.941406 C 36.195312 33.125 36.34375 33.285156 36.445312 33.460938 C 36.550781 33.636719 36.644531 33.796875 36.730469 33.9375 C 36.808594 34.082031 36.859375 34.21875 36.910156 34.328125 C 37.003906 34.550781 37.058594 34.675781 37.058594 34.675781 L 36.582031 36.039062 C 36.582031 36.039062 36.144531 34.832031 36.085938 34.640625 C 36.054688 34.542969 36.027344 34.421875 35.976562 34.292969 C 35.917969 34.160156 35.851562 34.015625 35.777344 33.855469 C 35.710938 33.691406 35.589844 33.539062 35.492188 33.363281 C 35.394531 33.179688 35.246094 33.019531 35.113281 32.839844 C 34.984375 32.652344 34.804688 32.496094 34.648438 32.316406 C 34.484375 32.140625 34.296875 31.984375 34.117188 31.816406 C 33.921875 31.667969 33.734375 31.503906 33.535156 31.367188 C 33.335938 31.226562 33.140625 31.085938 32.941406 30.96875 C 32.746094 30.839844 32.550781 30.730469 32.363281 30.625 C 32.175781 30.515625 31.992188 30.433594 31.828125 30.34375 C 31.152344 30.015625 30.671875 29.855469 30.671875 29.855469 "/>
<path style=" stroke:none;fill-rule:nonzero;fill:rgb(41.569519%,22.349548%,9.408569%);fill-opacity:1;" d="M 29.5625 37.878906 C 29.5625 37.878906 30.089844 37.910156 30.875 38.054688 C 31.070312 38.101562 31.28125 38.132812 31.503906 38.191406 C 31.726562 38.246094 31.960938 38.308594 32.199219 38.382812 C 32.441406 38.449219 32.6875 38.542969 32.933594 38.628906 C 33.183594 38.71875 33.429688 38.835938 33.679688 38.9375 C 33.921875 39.0625 34.167969 39.175781 34.398438 39.316406 C 34.625 39.464844 34.863281 39.585938 35.066406 39.75 C 35.269531 39.910156 35.484375 40.046875 35.652344 40.222656 C 35.820312 40.390625 36.003906 40.53125 36.136719 40.699219 C 36.273438 40.863281 36.398438 41.015625 36.507812 41.148438 C 36.613281 41.285156 36.6875 41.421875 36.757812 41.527344 C 36.890625 41.738281 36.96875 41.863281 36.96875 41.863281 L 36.691406 43.355469 C 36.691406 43.355469 36.042969 42.171875 35.953125 41.980469 C 35.902344 41.886719 35.855469 41.765625 35.78125 41.636719 C 35.699219 41.511719 35.605469 41.371094 35.503906 41.21875 C 35.410156 41.054688 35.261719 40.917969 35.128906 40.75 C 35 40.578125 34.820312 40.433594 34.652344 40.265625 C 34.488281 40.09375 34.277344 39.960938 34.085938 39.796875 C 33.886719 39.644531 33.664062 39.511719 33.453125 39.367188 C 33.226562 39.242188 33.007812 39.101562 32.777344 38.992188 C 32.546875 38.878906 32.324219 38.761719 32.097656 38.671875 C 31.871094 38.570312 31.652344 38.488281 31.441406 38.410156 C 31.230469 38.328125 31.023438 38.269531 30.839844 38.203125 C 30.085938 37.96875 29.5625 37.878906 29.5625 37.878906 "/>
<path style=" stroke:none;fill-rule:nonzero;fill:rgb(41.569519%,22.349548%,9.408569%);fill-opacity:1;" d="M 43.046875 32.378906 C 43.046875 32.378906 42.554688 32.484375 41.839844 32.734375 C 41.664062 32.804688 41.464844 32.867188 41.265625 32.957031 C 41.066406 33.039062 40.851562 33.128906 40.640625 33.234375 C 40.421875 33.332031 40.207031 33.453125 39.984375 33.574219 C 39.761719 33.691406 39.550781 33.839844 39.328125 33.972656 C 39.121094 34.125 38.90625 34.269531 38.707031 34.433594 C 38.519531 34.605469 38.308594 34.753906 38.144531 34.9375 C 37.976562 35.117188 37.796875 35.277344 37.660156 35.464844 C 37.527344 35.648438 37.375 35.808594 37.277344 35.988281 C 37.171875 36.160156 37.074219 36.320312 36.988281 36.460938 C 36.914062 36.609375 36.863281 36.746094 36.8125 36.851562 C 36.714844 37.074219 36.660156 37.199219 36.660156 37.199219 L 37.136719 38.5625 C 37.136719 38.5625 37.574219 37.355469 37.632812 37.164062 C 37.664062 37.066406 37.695312 36.949219 37.746094 36.816406 C 37.804688 36.6875 37.871094 36.539062 37.945312 36.378906 C 38.011719 36.214844 38.128906 36.0625 38.230469 35.886719 C 38.328125 35.707031 38.476562 35.542969 38.609375 35.363281 C 38.738281 35.175781 38.914062 35.019531 39.070312 34.839844 C 39.238281 34.667969 39.425781 34.507812 39.605469 34.339844 C 39.796875 34.191406 39.984375 34.03125 40.183594 33.890625 C 40.382812 33.75 40.578125 33.609375 40.777344 33.492188 C 40.976562 33.363281 41.171875 33.253906 41.359375 33.148438 C 41.542969 33.039062 41.726562 32.957031 41.894531 32.867188 C 42.566406 32.539062 43.046875 32.378906 43.046875 32.378906 "/>
<path style=" stroke:none;fill-rule:nonzero;fill:rgb(41.569519%,22.349548%,9.408569%);fill-opacity:1;" d="M 44.160156 40.40625 C 44.160156 40.40625 43.628906 40.433594 42.847656 40.582031 C 42.652344 40.625 42.4375 40.660156 42.214844 40.71875 C 41.992188 40.769531 41.757812 40.832031 41.519531 40.90625 C 41.277344 40.972656 41.035156 41.066406 40.785156 41.152344 C 40.535156 41.242188 40.292969 41.359375 40.039062 41.460938 C 39.800781 41.589844 39.550781 41.703125 39.320312 41.839844 C 39.097656 41.988281 38.855469 42.109375 38.65625 42.273438 C 38.453125 42.433594 38.238281 42.570312 38.070312 42.746094 C 37.898438 42.914062 37.714844 43.054688 37.585938 43.222656 C 37.449219 43.386719 37.324219 43.539062 37.210938 43.671875 C 37.109375 43.8125 37.035156 43.945312 36.964844 44.050781 C 36.828125 44.265625 36.753906 44.386719 36.753906 44.386719 L 37.03125 45.878906 C 37.03125 45.878906 37.675781 44.695312 37.769531 44.503906 C 37.816406 44.410156 37.867188 44.289062 37.941406 44.160156 C 38.023438 44.035156 38.113281 43.894531 38.214844 43.742188 C 38.3125 43.582031 38.460938 43.441406 38.59375 43.273438 C 38.722656 43.101562 38.902344 42.957031 39.070312 42.789062 C 39.234375 42.617188 39.441406 42.484375 39.632812 42.324219 C 39.832031 42.167969 40.054688 42.035156 40.265625 41.890625 C 40.492188 41.765625 40.710938 41.628906 40.941406 41.515625 C 41.171875 41.402344 41.394531 41.285156 41.625 41.195312 C 41.847656 41.097656 42.070312 41.011719 42.28125 40.933594 C 42.488281 40.851562 42.695312 40.792969 42.882812 40.726562 C 43.636719 40.496094 44.160156 40.40625 44.160156 40.40625 "/>
<path style=" stroke:none;fill-rule:nonzero;fill:rgb(29.019165%,75.689697%,62.348938%);fill-opacity:1;" d="M 0.402344 67.910156 C 0.402344 66.074219 1.464844 64.488281 3.007812 63.734375 C 1.265625 62.667969 0.101562 60.75 0.101562 58.550781 C 0.101562 55.199219 2.804688 52.480469 6.140625 52.480469 C 7.355469 52.480469 8.484375 52.84375 9.429688 53.464844 C 10.285156 51.328125 12.359375 49.820312 14.789062 49.820312 C 17.171875 49.820312 19.21875 51.273438 20.101562 53.34375 C 20.582031 53.144531 21.109375 53.03125 21.664062 53.03125 C 23.925781 53.03125 25.761719 54.875 25.761719 57.152344 C 25.761719 57.328125 25.75 57.5 25.726562 57.667969 C 28.941406 58.375 31.351562 61.25 31.351562 64.695312 C 31.351562 67.777344 29.421875 70.40625 26.707031 71.429688 C 29.238281 73.289062 30.886719 76.296875 30.886719 79.691406 C 30.886719 85.339844 26.332031 89.917969 20.710938 89.917969 C 16.960938 89.917969 13.6875 87.878906 11.925781 84.84375 C 11.761719 84.808594 11.597656 84.773438 11.4375 84.730469 C 10.355469 85.40625 9.082031 85.796875 7.714844 85.796875 C 3.804688 85.796875 0.640625 82.613281 0.640625 78.683594 C 0.640625 76.027344 2.089844 73.710938 4.234375 72.488281 C 2.058594 72.113281 0.402344 70.207031 0.402344 67.910156 "/>
<path style=" stroke:none;fill-rule:nonzero;fill:rgb(52.549744%,83.139038%,73.728943%);fill-opacity:1;" d="M 3.871094 64.957031 C 2.332031 65.710938 1.269531 67.296875 1.269531 69.136719 C 1.269531 69.867188 1.4375 70.558594 1.742188 71.175781 C 0.914062 70.335938 0.402344 69.1875 0.402344 67.910156 C 0.402344 66.230469 1.296875 64.757812 2.628906 63.945312 C 2.996094 64.332031 3.414062 64.675781 3.871094 64.957031 "/>
<path style=" stroke:none;fill-rule:nonzero;fill:rgb(52.549744%,83.139038%,73.728943%);fill-opacity:1;" d="M 15.65625 51.042969 C 13.226562 51.042969 11.152344 52.550781 10.296875 54.6875 C 9.347656 54.066406 8.222656 53.703125 7.007812 53.703125 C 3.671875 53.703125 0.96875 56.421875 0.96875 59.773438 C 0.96875 60.8125 1.230469 61.789062 1.691406 62.640625 C 0.707031 61.5625 0.101562 60.128906 0.101562 58.550781 C 0.101562 55.199219 2.804688 52.480469 6.140625 52.480469 C 7.355469 52.480469 8.484375 52.84375 9.429688 53.464844 C 10.285156 51.328125 12.359375 49.820312 14.789062 49.820312 C 17 49.820312 18.917969 51.070312 19.890625 52.90625 C 18.835938 51.761719 17.328125 51.042969 15.65625 51.042969 "/>
<path style=" stroke:none;fill-rule:nonzero;fill:rgb(23.529053%,63.529968%,63.529968%);fill-opacity:1;" d="M 6.773438 82.628906 C 8.140625 82.628906 9.417969 82.238281 10.5 81.5625 C 10.660156 81.605469 10.820312 81.644531 10.984375 81.675781 C 12.75 84.710938 16.023438 86.75 19.773438 86.75 C 25.390625 86.75 29.945312 82.171875 29.945312 76.523438 C 29.945312 76.085938 29.917969 75.65625 29.867188 75.234375 C 30.515625 76.582031 30.886719 78.089844 30.886719 79.691406 C 30.886719 85.339844 26.332031 89.917969 20.710938 89.917969 C 16.960938 89.917969 13.6875 87.878906 11.925781 84.84375 C 11.761719 84.808594 11.597656 84.773438 11.4375 84.730469 C 10.355469 85.40625 9.082031 85.796875 7.714844 85.796875 C 3.9375 85.796875 0.851562 82.820312 0.648438 79.074219 C 1.875 81.199219 4.15625 82.628906 6.773438 82.628906 "/>
<path style=" stroke:none;fill-rule:nonzero;fill:rgb(29.019165%,75.689697%,62.348938%);fill-opacity:1;" d="M 24.789062 54.488281 C 24.792969 54.496094 24.800781 54.5 24.804688 54.507812 C 24.800781 54.503906 24.792969 54.503906 24.789062 54.503906 C 24.789062 54.496094 24.789062 54.492188 24.789062 54.488281 "/>
<path style=" stroke:none;fill-rule:nonzero;fill:rgb(29.019165%,75.689697%,62.348938%);fill-opacity:1;" d="M 25.769531 68.261719 C 28.480469 67.238281 30.414062 64.609375 30.414062 61.527344 C 30.414062 61.386719 30.40625 61.25 30.398438 61.109375 C 31.003906 62.164062 31.351562 63.386719 31.351562 64.695312 C 31.351562 67.203125 30.070312 69.414062 28.132812 70.699219 C 27.484375 69.761719 26.6875 68.933594 25.769531 68.261719 "/>
<g clip-path="url(#clip6)" clip-rule="nonzero">
<path style=" stroke:none;fill-rule:nonzero;fill:rgb(41.569519%,22.349548%,9.408569%);fill-opacity:1;" d="M 15.917969 61.4375 L 17.050781 100.101562 L 14.789062 100.101562 Z M 15.917969 61.4375 "/>
</g>
<path style=" stroke:none;fill-rule:nonzero;fill:rgb(41.569519%,22.349548%,9.408569%);fill-opacity:1;" d="M 21.664062 65.515625 C 21.664062 65.515625 21.207031 65.613281 20.546875 65.84375 C 20.386719 65.910156 20.203125 65.96875 20.019531 66.046875 C 19.832031 66.125 19.636719 66.207031 19.441406 66.308594 C 19.238281 66.398438 19.039062 66.507812 18.835938 66.621094 C 18.628906 66.730469 18.433594 66.863281 18.230469 66.988281 C 18.039062 67.128906 17.839844 67.261719 17.65625 67.414062 C 17.480469 67.570312 17.289062 67.707031 17.136719 67.878906 C 16.980469 68.046875 16.8125 68.191406 16.691406 68.367188 C 16.566406 68.539062 16.425781 68.683594 16.332031 68.847656 C 16.238281 69.007812 16.148438 69.15625 16.070312 69.289062 C 16 69.421875 15.949219 69.546875 15.90625 69.648438 C 15.816406 69.851562 15.765625 69.96875 15.765625 69.96875 L 16.207031 71.226562 C 16.207031 71.226562 16.609375 70.113281 16.664062 69.9375 C 16.691406 69.847656 16.71875 69.734375 16.765625 69.613281 C 16.820312 69.492188 16.882812 69.359375 16.949219 69.210938 C 17.011719 69.0625 17.121094 68.917969 17.214844 68.753906 C 17.304688 68.585938 17.441406 68.441406 17.5625 68.273438 C 17.683594 68.101562 17.847656 67.957031 17.992188 67.789062 C 18.144531 67.628906 18.320312 67.484375 18.484375 67.328125 C 18.664062 67.191406 18.835938 67.039062 19.019531 66.914062 C 19.203125 66.785156 19.382812 66.652344 19.570312 66.542969 C 19.75 66.425781 19.929688 66.324219 20.105469 66.226562 C 20.277344 66.128906 20.445312 66.050781 20.597656 65.96875 C 21.222656 65.664062 21.664062 65.515625 21.664062 65.515625 "/>
<path style=" stroke:none;fill-rule:nonzero;fill:rgb(41.569519%,22.349548%,9.408569%);fill-opacity:1;" d="M 22.691406 72.929688 C 22.691406 72.929688 22.203125 72.957031 21.480469 73.09375 C 21.300781 73.132812 21.101562 73.164062 20.898438 73.21875 C 20.691406 73.269531 20.476562 73.324219 20.253906 73.394531 C 20.03125 73.453125 19.804688 73.539062 19.574219 73.621094 C 19.34375 73.703125 19.121094 73.8125 18.886719 73.90625 C 18.667969 74.023438 18.4375 74.128906 18.222656 74.253906 C 18.015625 74.390625 17.792969 74.503906 17.609375 74.65625 C 17.417969 74.804688 17.222656 74.929688 17.066406 75.089844 C 16.910156 75.246094 16.742188 75.378906 16.621094 75.535156 C 16.492188 75.683594 16.375 75.824219 16.273438 75.949219 C 16.179688 76.074219 16.109375 76.199219 16.046875 76.296875 C 15.921875 76.496094 15.851562 76.609375 15.851562 76.609375 L 16.105469 77.988281 C 16.105469 77.988281 16.703125 76.894531 16.789062 76.71875 C 16.832031 76.628906 16.878906 76.519531 16.949219 76.398438 C 17.023438 76.285156 17.109375 76.152344 17.203125 76.011719 C 17.289062 75.863281 17.425781 75.734375 17.550781 75.578125 C 17.667969 75.421875 17.835938 75.289062 17.988281 75.132812 C 18.140625 74.972656 18.335938 74.851562 18.511719 74.699219 C 18.695312 74.558594 18.902344 74.4375 19.097656 74.300781 C 19.304688 74.1875 19.507812 74.058594 19.722656 73.957031 C 19.933594 73.851562 20.140625 73.746094 20.351562 73.660156 C 20.554688 73.566406 20.761719 73.488281 20.957031 73.417969 C 21.152344 73.339844 21.339844 73.289062 21.511719 73.226562 C 22.207031 73.011719 22.691406 72.929688 22.691406 72.929688 "/>
<path style=" stroke:none;fill-rule:nonzero;fill:rgb(41.569519%,22.349548%,9.408569%);fill-opacity:1;" d="M 10.234375 67.847656 C 10.234375 67.847656 10.691406 67.945312 11.351562 68.175781 C 11.511719 68.242188 11.695312 68.300781 11.878906 68.378906 C 12.066406 68.457031 12.261719 68.539062 12.457031 68.640625 C 12.660156 68.730469 12.859375 68.839844 13.0625 68.953125 C 13.269531 69.0625 13.464844 69.195312 13.667969 69.320312 C 13.859375 69.460938 14.058594 69.59375 14.242188 69.746094 C 14.417969 69.902344 14.609375 70.039062 14.761719 70.210938 C 14.917969 70.378906 15.085938 70.523438 15.207031 70.699219 C 15.335938 70.871094 15.472656 71.015625 15.566406 71.179688 C 15.660156 71.339844 15.75 71.488281 15.828125 71.617188 C 15.902344 71.753906 15.949219 71.878906 15.996094 71.980469 C 16.082031 72.183594 16.132812 72.300781 16.132812 72.300781 L 15.695312 73.5625 C 15.695312 73.5625 15.289062 72.445312 15.234375 72.265625 C 15.207031 72.179688 15.179688 72.066406 15.132812 71.945312 C 15.078125 71.828125 15.015625 71.691406 14.949219 71.542969 C 14.886719 71.390625 14.777344 71.25 14.683594 71.085938 C 14.59375 70.921875 14.457031 70.773438 14.335938 70.601562 C 14.214844 70.433594 14.050781 70.289062 13.90625 70.121094 C 13.753906 69.960938 13.578125 69.816406 13.414062 69.660156 C 13.234375 69.523438 13.0625 69.371094 12.878906 69.246094 C 12.695312 69.117188 12.515625 68.984375 12.328125 68.875 C 12.148438 68.757812 11.96875 68.65625 11.792969 68.558594 C 11.625 68.457031 11.453125 68.382812 11.300781 68.300781 C 10.675781 67.996094 10.234375 67.847656 10.234375 67.847656 "/>
<path style=" stroke:none;fill-rule:nonzero;fill:rgb(41.569519%,22.349548%,9.408569%);fill-opacity:1;" d="M 9.207031 75.261719 C 9.207031 75.261719 9.695312 75.289062 10.421875 75.425781 C 10.597656 75.464844 10.796875 75.496094 11 75.550781 C 11.207031 75.601562 11.425781 75.65625 11.644531 75.726562 C 11.867188 75.785156 12.09375 75.871094 12.324219 75.953125 C 12.554688 76.035156 12.78125 76.144531 13.011719 76.238281 C 13.234375 76.355469 13.460938 76.460938 13.675781 76.585938 C 13.882812 76.722656 14.105469 76.835938 14.292969 76.988281 C 14.480469 77.136719 14.675781 77.261719 14.832031 77.421875 C 14.988281 77.578125 15.160156 77.710938 15.28125 77.867188 C 15.40625 78.015625 15.523438 78.15625 15.625 78.277344 C 15.71875 78.40625 15.789062 78.53125 15.855469 78.628906 C 15.976562 78.828125 16.046875 78.9375 16.046875 78.9375 L 15.792969 80.320312 C 15.792969 80.320312 15.195312 79.226562 15.109375 79.050781 C 15.066406 78.960938 15.019531 78.851562 14.953125 78.730469 C 14.875 78.617188 14.789062 78.484375 14.695312 78.34375 C 14.609375 78.195312 14.472656 78.066406 14.347656 77.910156 C 14.230469 77.753906 14.0625 77.621094 13.910156 77.464844 C 13.757812 77.304688 13.566406 77.183594 13.386719 77.03125 C 13.203125 76.890625 13 76.769531 12.800781 76.632812 C 12.59375 76.519531 12.390625 76.390625 12.179688 76.285156 C 11.964844 76.183594 11.757812 76.074219 11.546875 75.992188 C 11.34375 75.898438 11.136719 75.820312 10.941406 75.75 C 10.75 75.671875 10.558594 75.621094 10.386719 75.558594 C 9.691406 75.34375 9.207031 75.261719 9.207031 75.261719 "/>
<path style=" stroke:none;fill-rule:nonzero;fill:rgb(72.549438%,20.388794%,13.328552%);fill-opacity:1;" d="M 70.050781 35.117188 L 80.625 35.117188 L 80.625 56.042969 L 70.050781 56.042969 L 70.050781 35.117188 "/>
<path style=" stroke:none;fill-rule:nonzero;fill:rgb(72.549438%,20.388794%,13.328552%);fill-opacity:1;" d="M 69.40625 35.117188 L 69.40625 33.609375 L 81.269531 33.609375 L 81.269531 35.117188 L 69.40625 35.117188 "/>
<path style=" stroke:none;fill-rule:nonzero;fill:rgb(72.549438%,20.388794%,13.328552%);fill-opacity:1;" d="M 70.320312 35.414062 L 72.328125 35.414062 L 72.328125 55.75 L 70.320312 55.75 L 70.320312 35.414062 "/>
<path style=" stroke:none;fill-rule:nonzero;fill:rgb(86.669922%,26.269531%,14.509583%);fill-opacity:1;" d="M 70.671875 35.414062 L 71.976562 35.414062 L 71.976562 55.75 L 70.671875 55.75 L 70.671875 35.414062 "/>
<path style=" stroke:none;fill-rule:nonzero;fill:rgb(72.549438%,20.388794%,13.328552%);fill-opacity:1;" d="M 72.328125 35.414062 L 74.332031 35.414062 L 74.332031 55.75 L 72.328125 55.75 L 72.328125 35.414062 "/>
<path style=" stroke:none;fill-rule:nonzero;fill:rgb(86.669922%,26.269531%,14.509583%);fill-opacity:1;" d="M 72.675781 35.414062 L 73.980469 35.414062 L 73.980469 55.75 L 72.675781 55.75 L 72.675781 35.414062 "/>
<path style=" stroke:none;fill-rule:nonzero;fill:rgb(72.549438%,20.388794%,13.328552%);fill-opacity:1;" d="M 74.332031 35.414062 L 76.335938 35.414062 L 76.335938 55.75 L 74.332031 55.75 L 74.332031 35.414062 "/>
<path style=" stroke:none;fill-rule:nonzero;fill:rgb(86.669922%,26.269531%,14.509583%);fill-opacity:1;" d="M 74.683594 35.414062 L 75.984375 35.414062 L 75.984375 55.75 L 74.683594 55.75 L 74.683594 35.414062 "/>
<path style=" stroke:none;fill-rule:nonzero;fill:rgb(72.549438%,20.388794%,13.328552%);fill-opacity:1;" d="M 76.335938 35.414062 L 78.34375 35.414062 L 78.34375 55.75 L 76.335938 55.75 L 76.335938 35.414062 "/>
<path style=" stroke:none;fill-rule:nonzero;fill:rgb(86.669922%,26.269531%,14.509583%);fill-opacity:1;" d="M 76.6875 35.414062 L 77.992188 35.414062 L 77.992188 55.75 L 76.6875 55.75 L 76.6875 35.414062 "/>
<path style=" stroke:none;fill-rule:nonzero;fill:rgb(72.549438%,20.388794%,13.328552%);fill-opacity:1;" d="M 78.34375 35.414062 L 80.347656 35.414062 L 80.347656 55.75 L 78.34375 55.75 L 78.34375 35.414062 "/>
<path style=" stroke:none;fill-rule:nonzero;fill:rgb(86.669922%,26.269531%,14.509583%);fill-opacity:1;" d="M 78.695312 35.414062 L 79.996094 35.414062 L 79.996094 55.75 L 78.695312 55.75 L 78.695312 35.414062 "/>
<g clip-path="url(#clip7)" clip-rule="nonzero">
<path style=" stroke:none;fill-rule:nonzero;fill:rgb(72.549438%,20.388794%,13.328552%);fill-opacity:1;" d="M 22.332031 100.101562 L 87.230469 100.101562 L 87.230469 97.796875 L 22.332031 97.796875 L 22.332031 100.101562 "/>
</g>
<path style=" stroke:none;fill-rule:nonzero;fill:rgb(72.549438%,20.388794%,13.328552%);fill-opacity:1;" d="M 54.78125 28.394531 L 54.78125 44.417969 L 54.78125 28.394531 L 16.511719 62.046875 L 23.242188 62.046875 L 25.308594 60.441406 L 84.257812 60.441406 L 86.320312 62.046875 L 93.050781 62.046875 L 54.78125 28.394531 "/>
<path style=" stroke:none;fill-rule:nonzero;fill:rgb(86.669922%,26.269531%,14.509583%);fill-opacity:1;" d="M 20.261719 62.046875 L 54.78125 31.691406 L 54.78125 28.394531 L 16.511719 62.046875 L 20.261719 62.046875 "/>
<path style=" stroke:none;fill-rule:nonzero;fill:rgb(86.669922%,26.269531%,14.509583%);fill-opacity:1;" d="M 54.78125 28.394531 L 54.78125 31.691406 L 89.304688 62.046875 L 93.050781 62.046875 L 54.78125 28.394531 "/>
<path style=" stroke:none;fill-rule:nonzero;fill:rgb(95.689392%,78.42865%,59.21936%);fill-opacity:1;" d="M 25.308594 97.796875 L 25.308594 60.441406 L 54.78125 34.566406 L 84.257812 60.441406 L 84.257812 97.796875 L 25.308594 97.796875 "/>
<path style=" stroke:none;fill-rule:nonzero;fill:rgb(90.979004%,70.979309%,50.979614%);fill-opacity:1;" d="M 84.257812 75.351562 L 25.308594 75.351562 L 25.308594 67.921875 L 84.257812 67.921875 L 84.257812 75.351562 "/>
<path style=" stroke:none;fill-rule:nonzero;fill:rgb(95.689392%,78.42865%,59.21936%);fill-opacity:1;" d="M 84.257812 74.417969 L 25.308594 74.417969 L 25.308594 68.855469 L 84.257812 68.855469 L 84.257812 74.417969 "/>
<path style=" stroke:none;fill-rule:nonzero;fill:rgb(90.979004%,70.979309%,50.979614%);fill-opacity:1;" d="M 84.257812 82.832031 L 25.308594 82.832031 L 25.308594 75.402344 L 84.257812 75.402344 L 84.257812 82.832031 "/>
<path style=" stroke:none;fill-rule:nonzero;fill:rgb(95.689392%,78.42865%,59.21936%);fill-opacity:1;" d="M 84.257812 81.898438 L 25.308594 81.898438 L 25.308594 76.339844 L 84.257812 76.339844 L 84.257812 81.898438 "/>
<path style=" stroke:none;fill-rule:nonzero;fill:rgb(90.979004%,70.979309%,50.979614%);fill-opacity:1;" d="M 84.257812 90.316406 L 25.308594 90.316406 L 25.308594 82.886719 L 84.257812 82.886719 L 84.257812 90.316406 "/>
<path style=" stroke:none;fill-rule:nonzero;fill:rgb(95.689392%,78.42865%,59.21936%);fill-opacity:1;" d="M 84.257812 89.378906 L 25.308594 89.378906 L 25.308594 83.820312 L 84.257812 83.820312 L 84.257812 89.378906 "/>
<path style=" stroke:none;fill-rule:nonzero;fill:rgb(90.979004%,70.979309%,50.979614%);fill-opacity:1;" d="M 84.257812 97.796875 L 25.308594 97.796875 L 25.308594 90.367188 L 84.257812 90.367188 L 84.257812 97.796875 "/>
<path style=" stroke:none;fill-rule:nonzero;fill:rgb(95.689392%,78.42865%,59.21936%);fill-opacity:1;" d="M 84.257812 96.863281 L 25.308594 96.863281 L 25.308594 91.300781 L 84.257812 91.300781 L 84.257812 96.863281 "/>
<path style=" stroke:none;fill-rule:nonzero;fill:rgb(90.979004%,70.979309%,50.979614%);fill-opacity:1;" d="M 25.308594 60.441406 L 25.304688 60.441406 L 25.304688 61.375 L 84.257812 61.375 L 84.257812 60.441406 L 25.308594 60.441406 "/>
<path style=" stroke:none;fill-rule:nonzero;fill:rgb(90.979004%,70.979309%,50.979614%);fill-opacity:1;" d="M 25.304688 67.871094 L 84.257812 67.871094 L 84.257812 66.933594 L 25.304688 66.933594 L 25.304688 67.871094 "/>
<path style=" stroke:none;fill-rule:nonzero;fill:rgb(95.689392%,78.42865%,59.21936%);fill-opacity:1;" d="M 25.304688 66.933594 L 84.257812 66.933594 L 84.257812 61.375 L 25.304688 61.375 L 25.304688 66.933594 "/>
<path style=" stroke:none;fill-rule:nonzero;fill:rgb(90.979004%,70.979309%,50.979614%);fill-opacity:1;" d="M 32.707031 53.945312 L 76.859375 53.945312 L 75.792969 53.011719 L 33.769531 53.011719 L 32.707031 53.945312 "/>
<path style=" stroke:none;fill-rule:nonzero;fill:rgb(90.979004%,70.979309%,50.979614%);fill-opacity:1;" d="M 25.308594 60.441406 L 84.257812 60.441406 L 83.191406 59.503906 L 26.371094 59.503906 L 25.308594 60.441406 "/>
<path style=" stroke:none;fill-rule:nonzero;fill:rgb(95.689392%,78.42865%,59.21936%);fill-opacity:1;" d="M 26.371094 59.503906 L 83.191406 59.503906 L 76.859375 53.945312 L 32.707031 53.945312 L 26.371094 59.503906 "/>
<path style=" stroke:none;fill-rule:nonzero;fill:rgb(90.979004%,70.979309%,50.979614%);fill-opacity:1;" d="M 41.167969 46.515625 L 68.394531 46.515625 L 67.328125 45.582031 L 42.234375 45.582031 L 41.167969 46.515625 "/>
<path style=" stroke:none;fill-rule:nonzero;fill:rgb(90.979004%,70.979309%,50.979614%);fill-opacity:1;" d="M 33.769531 53.011719 L 75.792969 53.011719 L 74.726562 52.074219 L 34.835938 52.074219 L 33.769531 53.011719 "/>
<path style=" stroke:none;fill-rule:nonzero;fill:rgb(95.689392%,78.42865%,59.21936%);fill-opacity:1;" d="M 34.835938 52.074219 L 74.726562 52.074219 L 68.394531 46.515625 L 41.167969 46.515625 L 34.835938 52.074219 "/>
<path style=" stroke:none;fill-rule:nonzero;fill:rgb(90.979004%,70.979309%,50.979614%);fill-opacity:1;" d="M 49.632812 39.085938 L 59.929688 39.085938 L 58.863281 38.148438 L 50.699219 38.148438 L 49.632812 39.085938 "/>
<path style=" stroke:none;fill-rule:nonzero;fill:rgb(90.979004%,70.979309%,50.979614%);fill-opacity:1;" d="M 42.234375 45.582031 L 67.328125 45.582031 L 66.261719 44.644531 L 43.300781 44.644531 L 42.234375 45.582031 "/>
<path style=" stroke:none;fill-rule:nonzero;fill:rgb(95.689392%,78.42865%,59.21936%);fill-opacity:1;" d="M 43.300781 44.644531 L 66.261719 44.644531 L 59.929688 39.085938 L 49.632812 39.085938 L 43.300781 44.644531 "/>
<path style=" stroke:none;fill-rule:nonzero;fill:rgb(90.979004%,70.979309%,50.979614%);fill-opacity:1;" d="M 58.863281 38.148438 L 57.800781 37.214844 L 51.765625 37.214844 L 50.699219 38.148438 L 58.863281 38.148438 "/>
<path style=" stroke:none;fill-rule:nonzero;fill:rgb(95.689392%,78.42865%,59.21936%);fill-opacity:1;" d="M 54.78125 34.566406 L 51.765625 37.214844 L 57.800781 37.214844 Z M 54.78125 34.566406 "/>
<path style=" stroke:none;fill-rule:nonzero;fill:rgb(72.549438%,20.388794%,13.328552%);fill-opacity:1;" d="M 31.460938 59.296875 L 50.917969 59.296875 L 50.917969 97.796875 L 31.460938 97.796875 L 31.460938 59.296875 "/>
<path style=" stroke:none;fill-rule:nonzero;fill:rgb(72.549438%,20.388794%,13.328552%);fill-opacity:1;" d="M 31.957031 59.835938 L 34.265625 59.835938 L 34.265625 97.253906 L 31.957031 97.253906 L 31.957031 59.835938 "/>
<path style=" stroke:none;fill-rule:nonzero;fill:rgb(86.669922%,26.269531%,14.509583%);fill-opacity:1;" d="M 32.363281 59.835938 L 33.863281 59.835938 L 33.863281 97.253906 L 32.363281 97.253906 L 32.363281 59.835938 "/>
<path style=" stroke:none;fill-rule:nonzero;fill:rgb(72.549438%,20.388794%,13.328552%);fill-opacity:1;" d="M 34.265625 59.835938 L 36.574219 59.835938 L 36.574219 97.253906 L 34.265625 97.253906 L 34.265625 59.835938 "/>
<path style=" stroke:none;fill-rule:nonzero;fill:rgb(86.669922%,26.269531%,14.509583%);fill-opacity:1;" d="M 34.667969 59.835938 L 36.167969 59.835938 L 36.167969 97.253906 L 34.667969 97.253906 L 34.667969 59.835938 "/>
<path style=" stroke:none;fill-rule:nonzero;fill:rgb(72.549438%,20.388794%,13.328552%);fill-opacity:1;" d="M 36.574219 59.835938 L 38.882812 59.835938 L 38.882812 97.253906 L 36.574219 97.253906 L 36.574219 59.835938 "/>
<path style=" stroke:none;fill-rule:nonzero;fill:rgb(86.669922%,26.269531%,14.509583%);fill-opacity:1;" d="M 36.976562 59.835938 L 38.476562 59.835938 L 38.476562 97.253906 L 36.976562 97.253906 L 36.976562 59.835938 "/>
<path style=" stroke:none;fill-rule:nonzero;fill:rgb(72.549438%,20.388794%,13.328552%);fill-opacity:1;" d="M 38.882812 59.835938 L 41.1875 59.835938 L 41.1875 97.253906 L 38.882812 97.253906 L 38.882812 59.835938 "/>
<path style=" stroke:none;fill-rule:nonzero;fill:rgb(86.669922%,26.269531%,14.509583%);fill-opacity:1;" d="M 39.285156 59.835938 L 40.785156 59.835938 L 40.785156 97.253906 L 39.285156 97.253906 L 39.285156 59.835938 "/>
<path style=" stroke:none;fill-rule:nonzero;fill:rgb(72.549438%,20.388794%,13.328552%);fill-opacity:1;" d="M 41.1875 59.835938 L 43.496094 59.835938 L 43.496094 97.253906 L 41.1875 97.253906 L 41.1875 59.835938 "/>
<path style=" stroke:none;fill-rule:nonzero;fill:rgb(86.669922%,26.269531%,14.509583%);fill-opacity:1;" d="M 41.589844 59.835938 L 43.089844 59.835938 L 43.089844 97.253906 L 41.589844 97.253906 L 41.589844 59.835938 "/>
<path style=" stroke:none;fill-rule:nonzero;fill:rgb(72.549438%,20.388794%,13.328552%);fill-opacity:1;" d="M 43.496094 59.835938 L 45.800781 59.835938 L 45.800781 97.253906 L 43.496094 97.253906 L 43.496094 59.835938 "/>
<path style=" stroke:none;fill-rule:nonzero;fill:rgb(86.669922%,26.269531%,14.509583%);fill-opacity:1;" d="M 43.898438 59.835938 L 45.398438 59.835938 L 45.398438 97.253906 L 43.898438 97.253906 L 43.898438 59.835938 "/>
<path style=" stroke:none;fill-rule:nonzero;fill:rgb(72.549438%,20.388794%,13.328552%);fill-opacity:1;" d="M 45.800781 59.835938 L 48.109375 59.835938 L 48.109375 97.253906 L 45.800781 97.253906 L 45.800781 59.835938 "/>
<path style=" stroke:none;fill-rule:nonzero;fill:rgb(86.669922%,26.269531%,14.509583%);fill-opacity:1;" d="M 46.207031 59.835938 L 47.707031 59.835938 L 47.707031 97.253906 L 46.207031 97.253906 L 46.207031 59.835938 "/>
<path style=" stroke:none;fill-rule:nonzero;fill:rgb(72.549438%,20.388794%,13.328552%);fill-opacity:1;" d="M 48.109375 59.835938 L 50.417969 59.835938 L 50.417969 97.253906 L 48.109375 97.253906 L 48.109375 59.835938 "/>
<path style=" stroke:none;fill-rule:nonzero;fill:rgb(86.669922%,26.269531%,14.509583%);fill-opacity:1;" d="M 48.511719 59.835938 L 50.011719 59.835938 L 50.011719 97.253906 L 48.511719 97.253906 L 48.511719 59.835938 "/>
<path style=" stroke:none;fill-rule:nonzero;fill:rgb(27.839661%,60.389709%,61.959839%);fill-opacity:1;" d="M 78.101562 83.09375 L 56.148438 83.09375 L 56.148438 59.296875 L 78.101562 59.296875 L 78.101562 83.09375 "/>
<path style=" stroke:none;fill-rule:nonzero;fill:rgb(52.549744%,83.139038%,73.728943%);fill-opacity:1;" d="M 77.53125 82.476562 L 56.71875 82.476562 L 56.71875 59.914062 L 77.53125 59.914062 L 77.53125 82.476562 "/>
<path style=" stroke:none;fill-rule:nonzero;fill:rgb(52.549744%,83.139038%,73.728943%);fill-opacity:1;" d="M 56.71875 71.429688 L 56.71875 82.476562 L 66.894531 82.476562 L 66.894531 71.429688 L 56.71875 71.429688 "/>
<path style=" stroke:none;fill-rule:nonzero;fill:rgb(37.649536%,73.329163%,62.348938%);fill-opacity:1;" d="M 66.894531 59.914062 L 56.71875 59.914062 L 56.71875 70.960938 L 66.894531 70.960938 L 66.894531 59.914062 "/>
<path style=" stroke:none;fill-rule:nonzero;fill:rgb(52.549744%,83.139038%,73.728943%);fill-opacity:1;" d="M 77.53125 70.960938 L 77.53125 59.914062 L 67.359375 59.914062 L 67.359375 70.960938 L 77.53125 70.960938 "/>
<path style=" stroke:none;fill-rule:nonzero;fill:rgb(37.649536%,73.329163%,62.348938%);fill-opacity:1;" d="M 67.359375 82.476562 L 77.53125 82.476562 L 77.53125 71.429688 L 67.359375 71.429688 L 67.359375 82.476562 "/>
<path style=" stroke:none;fill-rule:nonzero;fill:rgb(27.839661%,60.389709%,61.959839%);fill-opacity:1;" d="M 67.359375 70.960938 L 67.359375 59.914062 L 66.894531 59.914062 L 66.894531 70.960938 L 56.71875 70.960938 L 56.71875 71.429688 L 66.894531 71.429688 L 66.894531 82.476562 L 67.359375 82.476562 L 67.359375 71.429688 L 77.53125 71.429688 L 77.53125 70.960938 L 67.359375 70.960938 "/>
<path style=" stroke:none;fill-rule:nonzero;fill:rgb(80.389404%,61.178589%,9.408569%);fill-opacity:1;" d="M 48.203125 79.46875 C 47.554688 79.46875 47.015625 78.996094 46.910156 78.375 C 46.898438 78.445312 46.890625 78.519531 46.890625 78.597656 C 46.890625 79.324219 47.476562 79.917969 48.203125 79.917969 C 48.925781 79.917969 49.515625 79.324219 49.515625 78.597656 C 49.515625 78.519531 49.507812 78.445312 49.496094 78.375 C 49.386719 78.996094 48.851562 79.46875 48.203125 79.46875 "/>
<path style=" stroke:none;fill-rule:nonzero;fill:rgb(93.328857%,77.249146%,11.759949%);fill-opacity:1;" d="M 48.203125 79.46875 C 48.851562 79.46875 49.386719 78.996094 49.496094 78.375 C 49.386719 77.75 48.851562 77.277344 48.203125 77.277344 C 47.554688 77.277344 47.015625 77.75 46.910156 78.375 C 47.015625 78.996094 47.554688 79.46875 48.203125 79.46875 "/>
<path style=" stroke:none;fill-rule:nonzero;fill:rgb(98.429871%,92.549133%,47.44873%);fill-opacity:1;" d="M 47.734375 77.941406 C 47.734375 77.765625 47.878906 77.621094 48.054688 77.621094 C 48.230469 77.621094 48.375 77.765625 48.375 77.941406 C 48.375 78.121094 48.230469 78.265625 48.054688 78.265625 C 47.878906 78.265625 47.734375 78.121094 47.734375 77.941406 "/>
</g>
</svg>
