<?xml version="1.0" encoding="UTF-8"?>
<svg xmlns="http://www.w3.org/2000/svg" xmlns:xlink="http://www.w3.org/1999/xlink" width="375pt" height="374.999991pt" viewBox="0 0 375 374.999991" version="1.2">
<defs>
<clipPath id="clip1">
  <path d="M 4 2.046875 L 363 2.046875 L 363 366 L 4 366 Z M 4 2.046875 "/>
</clipPath>
<clipPath id="clip2">
  <path d="M 20.050781 17.503906 L 374.691406 17.503906 L 374.691406 349 L 20.050781 349 Z M 20.050781 17.503906 "/>
</clipPath>
<clipPath id="clip3">
  <path d="M 0.335938 24.375 L 374.691406 24.375 L 374.691406 373.296875 L 0.335938 373.296875 Z M 0.335938 24.375 "/>
</clipPath>
</defs>
<g id="surface1">
<g clip-path="url(#clip1)" clip-rule="nonzero">
<path style=" stroke:none;fill-rule:nonzero;fill:rgb(32.159424%,76.078796%,50.19989%);fill-opacity:1;" d="M 362.4375 114.339844 C 362.4375 210.632812 360.929688 365.523438 255 365.523438 C 149.074219 365.523438 4.289062 314.0625 4.289062 217.769531 C 4.289062 121.476562 66.402344 2.046875 172.332031 2.046875 C 278.261719 2.046875 362.4375 18.046875 362.4375 114.339844 "/>
</g>
<path style=" stroke:none;fill-rule:nonzero;fill:rgb(96.859741%,79.219055%,7.449341%);fill-opacity:1;" d="M 52.546875 47.617188 L 41.761719 59.695312 L 28.175781 68.488281 C 25.421875 70.265625 24.988281 74.117188 27.265625 76.476562 C 35.210938 84.722656 53.015625 100.746094 68.960938 97.871094 C 71.851562 97.351562 74.199219 95.339844 75.164062 92.558594 C 80.480469 77.226562 67.457031 57.113281 60.566406 47.960938 C 58.59375 45.339844 54.734375 45.171875 52.546875 47.617188 Z M 348.339844 322.359375 C 348.265625 322.328125 348.183594 322.304688 348.097656 322.320312 C 347.519531 322.410156 346.988281 322.410156 346.675781 322.410156 C 342.707031 322.410156 334.816406 320.742188 326.09375 318.0625 C 320.332031 316.292969 315 314.320312 311.070312 312.503906 C 308.296875 311.222656 306.582031 310.21875 305.519531 309.246094 C 305.445312 309.179688 305.351562 309.148438 305.261719 309.144531 C 305.136719 309.132812 305.007812 309.171875 304.914062 309.277344 C 304.753906 309.453125 304.765625 309.722656 304.941406 309.878906 C 304.996094 309.929688 305.058594 309.980469 305.113281 310.027344 C 306.253906 311.015625 307.988281 312.027344 310.714844 313.285156 C 314.675781 315.113281 320.042969 317.101562 325.839844 318.886719 C 334.644531 321.589844 342.625 323.269531 346.675781 323.269531 C 346.964844 323.269531 347.425781 323.261719 347.953125 323.203125 C 348.042969 323.191406 348.132812 323.183594 348.226562 323.167969 C 348.460938 323.132812 348.621094 322.910156 348.585938 322.679688 C 348.566406 322.53125 348.464844 322.417969 348.339844 322.359375 Z M 363.414062 273.125 C 363.289062 273.132812 363.167969 273.160156 363.042969 273.199219 L 363.453125 271.859375 C 363.453125 271.859375 340.933594 295.507812 309.902344 281.136719 C 308.257812 280.375 306.589844 279.515625 304.902344 278.53125 C 301.546875 276.5 301.464844 271.648438 301.464844 271.648438 C 299.355469 280.050781 303.484375 282.65625 306.402344 284.457031 C 307.300781 285.011719 308.199219 285.527344 309.097656 286.003906 C 336.40625 300.5625 361.042969 279.75 361.042969 279.75 L 361.550781 278.074219 C 361.761719 278.210938 362.007812 278.277344 362.289062 278.257812 C 363.339844 278.175781 364.445312 276.964844 364.75 275.546875 C 365.0625 274.128906 364.464844 273.046875 363.414062 273.125 Z M 373.273438 267.964844 C 373.195312 267.925781 373.117188 267.898438 373.023438 267.90625 C 372.433594 267.96875 371.894531 267.96875 371.535156 267.96875 C 366.035156 267.96875 355.191406 265.6875 343.246094 262.015625 C 335.261719 259.5625 327.878906 256.824219 322.453125 254.292969 C 318.976562 252.671875 316.691406 251.355469 315.261719 250.144531 C 315.199219 250.089844 315.125 250.066406 315.050781 250.054688 C 314.910156 250.03125 314.757812 250.074219 314.652344 250.195312 C 314.503906 250.375 314.527344 250.644531 314.707031 250.796875 C 314.769531 250.851562 314.839844 250.902344 314.902344 250.957031 C 316.402344 252.171875 318.6875 253.484375 322.089844 255.070312 C 327.550781 257.617188 334.976562 260.375 342.996094 262.839844 C 355.019531 266.53125 365.953125 268.828125 371.535156 268.828125 C 371.867188 268.828125 372.351562 268.824219 372.898438 268.78125 C 372.96875 268.773438 373.039062 268.769531 373.113281 268.761719 C 373.347656 268.734375 373.519531 268.527344 373.496094 268.289062 C 373.476562 268.144531 373.390625 268.03125 373.273438 267.964844 Z M 46.746094 284.710938 L 69.582031 281.707031 C 69.589844 281.703125 69.597656 281.703125 69.601562 281.703125 C 69.824219 281.65625 69.980469 281.453125 69.953125 281.226562 C 69.921875 280.992188 69.703125 280.824219 69.46875 280.855469 L 69.359375 280.871094 L 46.816406 283.835938 L 46.632812 283.859375 C 46.417969 283.890625 46.269531 284.074219 46.269531 284.289062 C 46.269531 284.304688 46.265625 284.320312 46.265625 284.339844 C 46.296875 284.554688 46.480469 284.714844 46.691406 284.714844 C 46.707031 284.714844 46.726562 284.714844 46.746094 284.710938 Z M 109.078125 286.089844 L 105.183594 282.96875 L 105.15625 282.945312 C 104.972656 282.796875 104.703125 282.828125 104.554688 283.011719 C 104.414062 283.1875 104.4375 283.4375 104.601562 283.589844 C 104.605469 283.597656 104.609375 283.609375 104.621094 283.617188 L 108.59375 286.804688 C 108.613281 286.816406 108.636719 286.8125 108.660156 286.824219 C 108.726562 286.859375 108.792969 286.898438 108.863281 286.898438 C 108.988281 286.898438 109.113281 286.839844 109.199219 286.734375 C 109.34375 286.550781 109.316406 286.28125 109.128906 286.132812 Z M 70.324219 285.609375 C 70.542969 285.570312 70.703125 285.363281 70.671875 285.136719 C 70.640625 284.902344 70.421875 284.734375 70.191406 284.769531 L 70.167969 284.769531 L 20.953125 291.132812 L 20.929688 291.136719 C 20.695312 291.164062 20.527344 291.378906 20.558594 291.617188 C 20.585938 291.832031 20.769531 291.992188 20.980469 291.992188 C 20.992188 291.992188 21.003906 291.992188 21.015625 291.988281 C 21.023438 291.988281 21.03125 291.988281 21.039062 291.988281 L 70.300781 285.621094 C 70.308594 285.617188 70.316406 285.613281 70.324219 285.609375 Z M 71.496094 291.847656 L 71.472656 291.847656 L 21.484375 298.3125 L 21.460938 298.3125 C 21.226562 298.34375 21.058594 298.5625 21.09375 298.792969 C 21.121094 299.011719 21.304688 299.167969 21.515625 299.167969 C 21.523438 299.167969 21.539062 299.167969 21.546875 299.167969 C 21.554688 299.167969 21.566406 299.167969 21.570312 299.164062 L 71.605469 292.699219 C 71.613281 292.699219 71.617188 292.691406 71.625 292.691406 C 71.851562 292.652344 72.003906 292.445312 71.976562 292.21875 C 71.945312 291.984375 71.730469 291.8125 71.496094 291.847656 Z M 110.476562 277.355469 C 110.613281 277.761719 110.785156 278.167969 111.027344 278.5625 C 111.421875 279.207031 111.914062 279.726562 112.441406 280.125 C 113.597656 281 114.945312 281.257812 115.953125 280.640625 L 111.425781 273.222656 C 110.234375 273.949219 109.90625 275.648438 110.476562 277.355469 Z M 193.667969 368.910156 C 193.632812 369.207031 193.605469 369.496094 193.570312 369.792969 C 193.484375 370.59375 193.417969 371.386719 193.417969 372.164062 L 205.671875 372.164062 L 205.953125 370.289062 L 211.5 370.289062 L 211.996094 372.164062 L 227.777344 372.164062 L 227.777344 369.300781 C 227.777344 369.300781 227.742188 369.148438 227.664062 368.910156 Z M 146.871094 368.910156 L 145.917969 368.910156 L 145.917969 372.164062 L 167.109375 372.164062 L 167.109375 368.910156 Z M 144.347656 338.058594 L 173.148438 338.058594 L 173.148438 325.289062 L 144.347656 325.289062 Z M 217.550781 325.289062 L 187.546875 325.289062 L 187.546875 338.058594 L 217.550781 338.058594 Z M 159.0625 49.246094 C 161.539062 48.773438 163.933594 48.042969 166.207031 47.167969 C 174.242188 45.355469 189.742188 41.894531 199.3125 40.050781 C 212.6875 37.472656 245.144531 27.800781 238.117188 27.96875 C 231.085938 28.140625 197.675781 33.550781 197.675781 33.550781 C 191.40625 34.25 186.640625 36.800781 182.304688 37.742188 C 184.171875 36.257812 185.238281 35.238281 185.238281 35.238281 C 185.238281 35.238281 180.972656 37.382812 174.898438 39.675781 C 173.289062 40.179688 171.867188 40.6875 170.609375 41.195312 C 162.304688 43.773438 140.488281 46.953125 135.230469 52.222656 C 131.433594 56.027344 159.0625 49.246094 159.0625 49.246094 Z M 267.0625 112.378906 C 266.5625 121.171875 239.871094 137.546875 232.515625 135.792969 C 231.027344 135.4375 230.046875 134.640625 229.464844 133.554688 C 224.453125 130.082031 216.480469 121.96875 211.476562 116.667969 C 210.347656 126.980469 209.039062 136.125 209.039062 136.125 L 168.722656 136.125 C 168.722656 136.125 165.875 124.164062 163.550781 111.652344 C 160.761719 114.664062 155.558594 120.175781 150.605469 124.835938 C 154.933594 127.527344 162.121094 132.53125 164.234375 137.269531 C 167.328125 144.199219 165.605469 151.242188 156.921875 152.613281 C 148.230469 153.988281 126.597656 131.328125 126.75 123.761719 C 123.378906 117.222656 156.960938 87.738281 162.320312 83.089844 C 162.539062 82.890625 162.777344 82.683594 163.035156 82.472656 L 163.035156 82.46875 C 165.488281 80.441406 169.472656 77.941406 173.273438 75.726562 C 173.972656 75.316406 174.699219 74.964844 175.429688 74.644531 L 174.328125 74.027344 L 176.832031 69.839844 C 176.832031 69.839844 183.324219 71.660156 184.800781 71.773438 C 185.222656 71.804688 185.628906 72.277344 186 72.929688 C 186 72.929688 186 72.929688 186.003906 72.929688 C 186.015625 72.953125 186.027344 72.980469 186.042969 73 C 186.09375 73.101562 186.148438 73.203125 186.203125 73.308594 C 186.226562 73.359375 186.253906 73.410156 186.277344 73.460938 C 186.328125 73.570312 186.378906 73.683594 186.433594 73.800781 C 186.453125 73.851562 186.476562 73.902344 186.496094 73.953125 C 186.546875 74.074219 186.597656 74.195312 186.648438 74.316406 C 186.667969 74.367188 186.683594 74.414062 186.703125 74.464844 C 186.753906 74.589844 186.796875 74.714844 186.84375 74.839844 C 186.863281 74.890625 186.878906 74.9375 186.894531 74.984375 C 186.941406 75.109375 186.980469 75.234375 187.027344 75.359375 C 187.039062 75.398438 187.050781 75.441406 187.070312 75.484375 C 187.109375 75.609375 187.148438 75.730469 187.1875 75.851562 C 187.195312 75.886719 187.210938 75.921875 187.21875 75.960938 C 187.257812 76.082031 187.292969 76.199219 187.328125 76.3125 C 187.332031 76.335938 187.339844 76.359375 187.347656 76.382812 C 187.382812 76.507812 187.417969 76.625 187.449219 76.730469 C 187.449219 76.730469 187.449219 76.730469 187.449219 76.734375 C 188.175781 76.667969 188.757812 76.554688 189.15625 76.449219 L 189.769531 70.328125 C 189.769531 70.328125 192.5625 70.199219 193.546875 71.445312 C 194.535156 72.6875 195.136719 74.75 195.136719 74.75 L 193.636719 74.707031 C 193.636719 74.707031 193.542969 74.832031 193.382812 75.03125 C 193.511719 75.09375 193.644531 75.152344 193.777344 75.222656 C 199.976562 78.433594 205.917969 81.578125 209.464844 84.84375 L 209.472656 84.796875 C 209.472656 84.796875 227.796875 100.484375 238.488281 112.8125 C 242.003906 109.15625 248.511719 103.039062 253.652344 101.957031 C 261.066406 100.402344 267.570312 103.582031 267.0625 112.378906 "/>
<g clip-path="url(#clip2)" clip-rule="nonzero">
<path style=" stroke:none;fill-rule:nonzero;fill:rgb(25.878906%,59.21936%,85.099792%);fill-opacity:1;" d="M 205.609375 114.730469 L 204.660156 111.195312 C 204.144531 109.277344 202.761719 107.714844 200.929688 106.964844 L 199.898438 106.898438 C 198.351562 106.800781 196.832031 107.140625 195.496094 107.84375 L 191.964844 104.648438 C 191.316406 104.0625 190.3125 104.128906 189.75 104.800781 C 189.207031 105.449219 189.285156 106.421875 189.9375 106.972656 L 192.632812 110.015625 L 194.015625 110.015625 C 194.671875 110.542969 194.976562 111.445312 194.691406 112.304688 L 193.535156 115.75 C 193.34375 116.34375 193.546875 116.992188 194.042969 117.371094 C 194.730469 117.894531 195.722656 117.710938 196.171875 116.972656 L 198.394531 113.363281 L 198.847656 118.28125 C 198.925781 119.128906 199.636719 119.773438 200.484375 119.773438 C 201.433594 119.773438 202.1875 118.964844 202.121094 118.015625 L 201.820312 113.757812 L 203.320312 115.824219 C 203.738281 116.394531 204.535156 116.527344 205.109375 116.117188 C 205.546875 115.800781 205.75 115.25 205.609375 114.730469 Z M 209.039062 136.125 C 209.039062 136.125 222.523438 209.867188 213.609375 325.289062 L 190.75 325.289062 L 186.402344 191.5 L 170.066406 325.289062 L 147.207031 325.289062 C 146.203125 209.871094 168.722656 136.128906 168.722656 136.125 L 163.035156 113.222656 L 165.625 110.90625 C 170.664062 106.394531 173.152344 99.671875 172.238281 92.964844 C 171.835938 90.019531 171.226562 87.214844 170.351562 85.097656 C 169.480469 82.992188 168.394531 80.980469 167.078125 79.542969 L 171.480469 76.789062 C 171.480469 76.789062 177.089844 81.933594 178.378906 95.472656 L 202.320312 95.472656 C 202.320312 95.472656 203.378906 85 200.742188 79.09375 L 207.464844 83.300781 C 207.792969 85.21875 208.265625 87.386719 208.460938 90.046875 C 208.75 93.9375 209.914062 97.710938 211.738281 101.15625 L 215.074219 107.460938 Z M 36.480469 63.105469 L 36.484375 63.109375 L 33.765625 64.867188 C 40.8125 69.96875 48.480469 67.574219 48.480469 67.574219 C 48.480469 67.574219 52.039062 60.351562 48.109375 52.585938 L 45.949219 55.003906 C 42.214844 58.203125 34.8125 45.910156 34.8125 45.910156 C 33.582031 48.109375 31.613281 49.796875 29.253906 50.671875 C 29.253906 50.671875 40.21875 59.910156 36.480469 63.105469 Z M 342.996094 262.839844 C 334.976562 260.375 327.550781 257.617188 322.089844 255.070312 C 318.6875 253.484375 316.402344 252.171875 314.902344 250.957031 L 309.902344 281.136719 C 340.933594 295.507812 363.453125 271.859375 363.453125 271.859375 L 363.042969 273.199219 C 363.167969 273.160156 363.289062 273.132812 363.414062 273.125 C 364.464844 273.046875 365.0625 274.128906 364.75 275.546875 C 364.445312 276.964844 363.339844 278.175781 362.289062 278.257812 C 362.007812 278.277344 361.761719 278.210938 361.550781 278.074219 L 361.042969 279.75 C 361.042969 279.75 336.40625 300.5625 309.097656 286.003906 L 305.261719 309.144531 C 305.351562 309.148438 305.445312 309.179688 305.519531 309.246094 C 306.582031 310.21875 308.296875 311.222656 311.070312 312.503906 C 315 314.320312 320.332031 316.292969 326.09375 318.0625 C 334.816406 320.742188 342.707031 322.410156 346.675781 322.410156 C 346.988281 322.410156 347.519531 322.410156 348.097656 322.320312 C 348.183594 322.304688 348.265625 322.328125 348.339844 322.359375 L 372.898438 268.78125 C 372.351562 268.824219 371.867188 268.828125 371.535156 268.828125 C 365.953125 268.828125 355.019531 266.53125 342.996094 262.839844 Z M 315.59375 246.785156 L 315.050781 250.054688 C 315.125 250.066406 315.199219 250.089844 315.261719 250.144531 C 316.691406 251.355469 318.976562 252.671875 322.453125 254.292969 C 327.878906 256.824219 335.261719 259.5625 343.246094 262.015625 C 355.191406 265.6875 366.035156 267.96875 371.535156 267.96875 C 371.894531 267.96875 372.433594 267.96875 373.023438 267.90625 C 373.117188 267.898438 373.195312 267.925781 373.273438 267.964844 L 374.664062 264.933594 Z M 325.839844 318.886719 C 320.042969 317.101562 314.675781 315.113281 310.714844 313.285156 C 307.988281 312.027344 306.253906 311.015625 305.113281 310.027344 L 304.863281 311.542969 C 304.378906 313.132812 313.484375 317.339844 325.210938 320.941406 C 336.933594 324.542969 346.832031 326.175781 347.316406 324.585938 L 347.953125 323.203125 C 347.425781 323.261719 346.964844 323.269531 346.675781 323.269531 C 342.625 323.269531 334.644531 321.589844 325.839844 318.886719 Z M 111.027344 278.5625 C 110.785156 278.167969 110.613281 277.761719 110.476562 277.355469 L 105.183594 282.96875 L 109.078125 286.089844 L 112.441406 280.125 C 111.914062 279.726562 111.421875 279.207031 111.027344 278.5625 Z M 69.601562 281.703125 C 69.597656 281.703125 69.589844 281.703125 69.582031 281.707031 L 46.746094 284.710938 C 46.726562 284.714844 46.707031 284.714844 46.691406 284.714844 C 46.480469 284.714844 46.296875 284.554688 46.265625 284.339844 C 46.265625 284.320312 46.269531 284.304688 46.269531 284.289062 L 20.691406 287.59375 L 20.953125 291.132812 L 70.167969 284.769531 Z M 69.359375 280.871094 C 68.386719 278.023438 62.714844 262.921875 52.164062 264.289062 L 46.816406 283.835938 Z M 70.324219 285.609375 C 70.316406 285.613281 70.308594 285.617188 70.300781 285.621094 L 21.039062 291.988281 C 21.03125 291.988281 21.023438 291.988281 21.015625 291.988281 L 21.484375 298.3125 L 71.472656 291.847656 Z M 108.59375 286.804688 L 104.621094 283.617188 C 104.609375 283.609375 104.605469 283.597656 104.601562 283.589844 L 75.609375 314.324219 L 71.625 292.691406 C 71.617188 292.691406 71.613281 292.699219 71.605469 292.699219 L 21.570312 299.164062 C 21.566406 299.167969 21.554688 299.167969 21.546875 299.167969 L 25.214844 348.582031 L 80.601562 341.425781 L 79.921875 337.746094 L 108.660156 286.824219 C 108.636719 286.8125 108.613281 286.816406 108.59375 286.804688 Z M 221.0625 27.488281 C 214.503906 28.09375 198.914062 31.980469 198.914062 31.980469 C 198.914062 31.980469 193.085938 19.726562 190.230469 18.464844 C 187.371094 17.207031 174.609375 17.777344 170.304688 20.296875 C 166 22.816406 168.859375 36.980469 168.859375 36.980469 C 168.859375 36.980469 167.371094 38.925781 160.398438 41.0625 C 153.429688 43.199219 139.574219 45.988281 135.230469 52.222656 C 135.230469 52.222656 172.46875 40.679688 185.238281 37.703125 C 198 34.726562 236.507812 27.445312 239.597656 27.96875 C 239.597656 27.96875 237.976562 25.925781 221.0625 27.488281 Z M 168.34375 60.402344 C 168.324219 59.5 168.480469 58.816406 168.699219 58.308594 C 168.921875 57.804688 169.210938 57.46875 169.460938 57.25 C 169.585938 57.433594 169.695312 57.625 169.828125 57.808594 C 170.066406 58.125 170.332031 58.425781 170.59375 58.730469 C 171.488281 59.761719 172.511719 60.683594 173.636719 61.460938 C 174.179688 61.835938 174.746094 62.175781 175.332031 62.480469 C 175.09375 62.84375 174.816406 63.132812 174.628906 63.3125 C 174.503906 63.429688 174.417969 63.5 174.417969 63.5 C 171.960938 64.492188 168.34375 60.402344 168.34375 60.402344 "/>
</g>
<path style=" stroke:none;fill-rule:nonzero;fill:rgb(97.648621%,82.348633%,56.858826%);fill-opacity:1;" d="M 272.066406 91.117188 C 271.492188 90.746094 266.066406 88 265.351562 88.257812 C 264.636719 88.515625 260.152344 90.289062 259.980469 90.71875 C 259.808594 91.148438 259.867188 91.804688 260.351562 91.949219 C 260.835938 92.089844 260.835938 92.089844 260.835938 92.089844 C 260.835938 92.089844 260.40625 93.667969 261.894531 94.066406 C 261.894531 94.066406 261.378906 95.929688 262.582031 96.359375 C 262.582031 96.359375 262.210938 97.589844 262.609375 97.988281 C 263.007812 98.390625 263.40625 98.53125 263.40625 98.53125 C 263.40625 98.53125 261.4375 100.25 261.410156 101.140625 C 261.378906 102.023438 261.523438 103.429688 261.523438 103.429688 L 259.007812 104.71875 C 259.007812 104.71875 257.066406 111.5 264.523438 109.8125 L 271.566406 101.019531 C 272.136719 100.3125 272.453125 99.433594 272.460938 98.527344 C 272.492188 96.105469 272.492188 91.394531 272.066406 91.117188 Z M 199.921875 44.175781 C 199.917969 42.925781 199.898438 41.792969 199.808594 40.769531 C 196.28125 40.371094 192.871094 38.90625 190.070312 36.632812 L 186.617188 37.386719 C 185.953125 39.039062 184.988281 40.566406 183.769531 41.855469 C 181.5 44.246094 178.371094 45.804688 175.097656 46.167969 C 176.332031 48.269531 176.410156 50.753906 175.621094 53.058594 C 174.878906 51.480469 174.207031 50.585938 171.996094 50.742188 C 171.769531 50.800781 171.554688 50.898438 171.347656 51.042969 C 169.492188 52.34375 171.601562 56.875 174.007812 59.007812 C 175.207031 60.074219 176.832031 58.578125 176.832031 58.578125 L 177.335938 69.980469 C 178.875 70.402344 183.566406 71.675781 184.800781 71.773438 C 185.964844 71.863281 187.042969 75.277344 187.449219 76.734375 C 188.175781 76.667969 188.757812 76.554688 189.15625 76.449219 L 189.769531 70.328125 L 189.769531 66.808594 C 189.769531 66.808594 194.316406 68.230469 198.46875 64.253906 C 201.5625 61.300781 201.046875 52.417969 200.339844 48.628906 C 200.0625 47.160156 199.933594 45.667969 199.921875 44.175781 Z M 177.835938 150.09375 C 178.179688 152.101562 177.035156 151.582031 175.777344 150.839844 C 174.519531 150.09375 171.0625 147.113281 171.0625 147.113281 C 171.0625 147.113281 172.40625 149.695312 173.320312 150.953125 C 174.234375 152.214844 174.066406 156.21875 174.007812 157.023438 C 173.949219 157.824219 173.777344 158.050781 172.976562 158.050781 C 172.179688 158.050781 172.011719 153.308594 171.0625 152.675781 C 170.121094 152.039062 167.832031 150.390625 167.832031 150.390625 C 167.832031 150.390625 168.800781 154.101562 169.546875 154.847656 C 170.289062 155.589844 171.039062 156.621094 171.0625 157.824219 C 171.089844 159.023438 170.058594 158.910156 169.546875 158.683594 C 169.035156 158.453125 169.035156 158.453125 169.035156 158.453125 C 169.035156 158.453125 168.691406 158.738281 167.320312 158.511719 C 165.949219 158.28125 165.777344 155.417969 164.691406 154.273438 C 163.609375 153.128906 159.035156 153.121094 159.148438 150.777344 C 159.261719 148.433594 162.179688 143.28125 164.234375 144.371094 C 164.234375 144.371094 167.71875 142.421875 169.207031 142.765625 C 170.691406 143.109375 177.492188 148.089844 177.835938 150.09375 "/>
<g clip-path="url(#clip3)" clip-rule="nonzero">
<path style=" stroke:none;fill-rule:nonzero;fill:rgb(22.349548%,22.749329%,24.708557%);fill-opacity:1;" d="M 110.78125 76.757812 C 111.851562 77.390625 116.078125 79.675781 119.339844 78.328125 C 122.605469 76.980469 123.988281 72.371094 124.296875 71.164062 C 123.226562 70.53125 119 68.246094 115.738281 69.59375 C 112.476562 70.945312 111.09375 75.550781 110.78125 76.757812 Z M 110.054688 77.320312 L 109.808594 77.160156 L 109.871094 76.871094 C 109.925781 76.613281 111.25 70.523438 115.414062 68.804688 C 119.578125 67.078125 124.804688 70.460938 125.023438 70.605469 L 125.269531 70.765625 L 125.210938 71.050781 C 125.15625 71.308594 123.828125 77.398438 119.664062 79.121094 C 118.824219 79.472656 117.9375 79.609375 117.058594 79.609375 C 113.59375 79.609375 110.230469 77.433594 110.054688 77.320312 Z M 312.835938 263.4375 L 313.847656 257.332031 C 305.085938 263.742188 302.039062 268.5625 301.488281 272.011719 C 301.570312 273.046875 302 276.101562 304.125 277.949219 C 300.839844 272.304688 312.835938 263.4375 312.835938 263.4375 Z M 333.871094 245.707031 L 316.4375 245.707031 L 316.4375 246.148438 C 318.726562 245.4375 325.316406 246.289062 333.871094 248.328125 Z M 292.726562 245.707031 L 275.292969 245.707031 L 275.292969 332.558594 L 292.726562 332.558594 Z M 274.4375 245.707031 L 268.808594 245.707031 L 268.808594 332.558594 L 274.4375 332.558594 Z M 265.125 245.707031 L 252.4375 245.707031 L 252.4375 332.558594 L 265.125 332.558594 Z M 251.582031 245.707031 L 234.148438 245.707031 L 234.148438 332.558594 L 251.582031 332.558594 Z M 251.582031 205.5625 L 242.867188 193.339844 L 234.148438 205.5625 L 234.148438 230.277344 L 251.582031 230.277344 Z M 275.292969 230.277344 L 292.726562 230.277344 L 292.726562 205.5625 L 284.011719 193.339844 L 275.292969 205.5625 Z M 316.4375 230.277344 L 333.871094 230.277344 L 333.871094 205.5625 L 325.15625 193.339844 L 316.4375 205.5625 Z M 374.664062 264.933594 C 373.96875 267.199219 360.183594 264.976562 343.871094 259.964844 C 327.5625 254.953125 314.902344 249.054688 315.59375 246.785156 L 315.582031 246.859375 L 315.582031 245.707031 L 293.582031 245.707031 L 293.582031 332.558594 L 315.582031 332.558594 L 315.582031 317.632812 C 315.863281 317.742188 316.152344 317.851562 316.4375 317.957031 L 316.4375 332.558594 L 322.628906 332.558594 C 322.410156 332.84375 322.191406 333.132812 321.96875 333.417969 L 268.808594 333.417969 L 268.808594 373.628906 L 265.125 373.628906 L 265.125 333.417969 L 217.550781 333.417969 L 217.550781 332.558594 L 233.292969 332.558594 L 233.292969 245.707031 L 216.652344 245.707031 C 216.648438 245.417969 216.648438 245.132812 216.648438 244.847656 L 265.125 244.847656 L 265.125 231.136719 L 216.511719 231.136719 C 216.507812 230.851562 216.503906 230.5625 216.496094 230.277344 L 233.292969 230.277344 L 233.292969 228.53125 L 216.066406 214.375 C 216.050781 213.992188 216.035156 213.613281 216.023438 213.230469 L 233.292969 227.417969 L 233.292969 205.289062 L 242.867188 191.863281 L 252.4375 205.289062 L 252.4375 230.277344 L 265.125 230.277344 L 265.125 171.851562 C 261.730469 172.839844 258.117188 174.039062 253.980469 175.527344 C 248.308594 177.558594 240.796875 177.472656 232.839844 177.378906 C 226.777344 177.308594 220.375 177.238281 213.960938 178 C 213.933594 177.714844 213.910156 177.425781 213.886719 177.140625 C 220.339844 176.378906 226.765625 176.449219 232.855469 176.519531 C 241.066406 176.617188 248.164062 176.695312 253.695312 174.714844 C 257.945312 173.191406 261.644531 171.964844 265.125 170.960938 L 265.125 101.425781 C 264.753906 101.21875 264.414062 100.949219 264.164062 100.597656 C 263.828125 100.144531 263.640625 99.566406 263.691406 99.011719 C 263.570312 98.933594 263.453125 98.863281 263.339844 98.769531 C 263.265625 98.710938 263.257812 98.605469 263.316406 98.53125 C 263.359375 98.484375 263.421875 98.460938 263.476562 98.476562 L 264.613281 98.6875 C 264.984375 98.746094 265.351562 98.8125 265.71875 98.851562 C 266.085938 98.898438 266.453125 98.921875 266.828125 98.957031 L 267.972656 99.023438 C 268.082031 99.027344 268.164062 99.125 268.160156 99.234375 C 268.15625 99.3125 268.109375 99.375 268.042969 99.40625 C 267.664062 99.578125 267.257812 99.667969 266.847656 99.71875 C 266.433594 99.765625 266.019531 99.75 265.609375 99.699219 C 265.199219 99.640625 264.792969 99.546875 264.414062 99.386719 C 264.351562 99.363281 264.296875 99.328125 264.234375 99.300781 C 264.535156 100.058594 265.1875 100.601562 265.949219 100.863281 C 266.851562 101.191406 267.875 101.050781 268.808594 100.527344 C 268.890625 100.476562 268.988281 100.503906 269.035156 100.585938 C 269.070312 100.644531 269.058594 100.722656 269.015625 100.777344 C 268.957031 100.851562 268.878906 100.917969 268.808594 100.988281 L 268.808594 169.964844 C 276.769531 167.960938 284.175781 167.101562 295.417969 166.523438 C 305.425781 166.007812 309.941406 161.308594 315.65625 155.359375 C 320.132812 150.699219 325.203125 145.414062 334.085938 140.46875 C 340.140625 137.097656 345.691406 136.367188 350.585938 138.292969 C 357.253906 140.917969 360.839844 147.6875 362.199219 150.855469 C 362.191406 151.488281 362.179688 152.113281 362.167969 152.746094 L 362.03125 152.789062 C 362 152.683594 358.539062 142.34375 350.265625 139.089844 C 345.625 137.265625 340.324219 137.984375 334.507812 141.222656 C 325.734375 146.101562 320.707031 151.335938 316.269531 155.953125 C 310.429688 162.039062 305.808594 166.851562 295.460938 167.378906 C 284.191406 167.960938 276.796875 168.828125 268.808594 170.851562 L 268.808594 230.277344 L 274.4375 230.277344 L 274.4375 205.289062 L 284.011719 191.863281 L 293.582031 205.289062 L 293.582031 230.277344 L 315.582031 230.277344 L 315.582031 205.289062 L 325.15625 191.863281 L 334.726562 205.289062 L 334.726562 230.277344 L 357.164062 230.277344 C 357.128906 230.566406 357.089844 230.851562 357.054688 231.136719 L 268.808594 231.136719 L 268.808594 244.847656 L 355.046875 244.847656 C 355 245.132812 354.953125 245.417969 354.90625 245.707031 L 334.726562 245.707031 L 334.726562 248.535156 C 338.339844 249.414062 342.28125 250.496094 346.382812 251.757812 C 362.695312 256.769531 375.355469 262.667969 374.664062 264.933594 Z M 78.789062 65.949219 C 78.488281 67.097656 77.222656 71.304688 74.304688 72.878906 C 74.394531 73.15625 74.480469 73.425781 74.566406 73.703125 C 78.402344 71.761719 79.644531 66.085938 79.699219 65.839844 L 79.757812 65.550781 L 79.515625 65.386719 C 79.300781 65.25 74.421875 62.105469 70.335938 63.441406 C 70.46875 63.699219 70.589844 63.957031 70.71875 64.214844 C 73.898438 63.257812 77.769531 65.347656 78.789062 65.949219 Z M 62.175781 112.738281 C 62.007812 116.269531 65.570312 119.488281 66.53125 120.289062 C 67.5625 119.585938 71.421875 116.726562 71.59375 113.199219 C 71.765625 109.667969 68.195312 106.445312 67.238281 105.652344 C 66.210938 106.347656 62.347656 109.207031 62.175781 112.738281 Z M 61.320312 112.695312 C 61.539062 108.1875 66.816406 104.894531 67.042969 104.753906 L 67.289062 104.597656 L 67.523438 104.777344 C 67.734375 104.9375 72.671875 108.730469 72.449219 113.238281 C 72.230469 117.75 66.953125 121.046875 66.726562 121.183594 L 66.480469 121.335938 L 66.246094 121.160156 C 66.035156 121 61.101562 117.207031 61.320312 112.695312 Z M 140.320312 122.855469 C 142.0625 122.894531 143.785156 123.09375 145.460938 123.5 C 147.136719 123.875 148.753906 124.476562 150.300781 125.21875 L 150.3125 125.226562 C 150.363281 125.25 150.421875 125.261719 150.480469 125.265625 C 150.710938 125.269531 150.894531 125.089844 150.902344 124.859375 C 150.902344 124.753906 150.894531 124.644531 150.886719 124.539062 C 151.042969 124.1875 151.128906 123.808594 151.15625 123.429688 C 151.195312 122.898438 151.113281 122.367188 150.972656 121.867188 C 150.824219 121.371094 150.617188 120.890625 150.332031 120.457031 C 150.046875 120.03125 149.714844 119.621094 149.25 119.339844 C 149.195312 119.304688 149.128906 119.304688 149.074219 119.34375 C 149 119.394531 148.980469 119.5 149.027344 119.574219 L 149.039062 119.589844 C 149.296875 119.964844 149.511719 120.382812 149.695312 120.804688 C 149.871094 121.234375 150.035156 121.664062 150.152344 122.101562 C 150.199219 122.277344 150.238281 122.453125 150.273438 122.628906 C 150.023438 122.246094 149.707031 121.910156 149.355469 121.628906 C 148.394531 120.863281 147.105469 120.589844 145.953125 120.871094 C 145.863281 120.894531 145.792969 120.984375 145.804688 121.082031 C 145.816406 121.191406 145.914062 121.265625 146.023438 121.253906 C 147.078125 121.148438 148.148438 121.503906 148.910156 122.167969 C 149.5 122.699219 149.890625 123.410156 150.019531 124.171875 C 148.617188 123.515625 147.132812 123.046875 145.617188 122.738281 C 143.867188 122.410156 142.066406 122.316406 140.304688 122.523438 C 140.226562 122.535156 140.164062 122.601562 140.160156 122.6875 C 140.160156 122.773438 140.230469 122.851562 140.320312 122.855469 Z M 199.921875 44.175781 C 199.929688 44.90625 199.964844 45.644531 200.03125 46.375 C 200.402344 45.191406 200.636719 43.96875 200.671875 42.714844 C 200.691406 42.082031 200.648438 41.457031 200.566406 40.828125 C 200.671875 40.839844 200.773438 40.847656 200.878906 40.855469 C 200.859375 39.121094 199.988281 37.316406 198.742188 35.875 C 198.539062 35.5625 198.328125 35.261719 198.101562 34.96875 C 195.171875 35.558594 192.445312 36.121094 190.070312 36.632812 C 192.871094 38.90625 196.28125 40.371094 199.808594 40.769531 C 199.898438 41.792969 199.917969 42.925781 199.921875 44.175781 Z M 19.042969 41.960938 L 27.539062 49.570312 C 28.308594 50.261719 29.207031 50.730469 30.097656 50.910156 L 30.863281 51.0625 C 30.863281 51.0625 32.859375 51.464844 32.90625 49.3125 C 35.03125 49.601562 34.953125 47.5625 34.953125 47.5625 L 34.917969 46.78125 C 34.882812 45.871094 34.554688 44.910156 33.996094 44.039062 L 27.816406 34.449219 C 27.082031 33.3125 26.003906 32.414062 24.84375 31.980469 C 23.53125 31.484375 22.25 31.625 21.394531 32.363281 L 19.691406 33.816406 L 17.984375 35.277344 C 17.128906 36.015625 16.789062 37.257812 17.070312 38.632812 C 17.324219 39.851562 18.035156 41.058594 19.042969 41.960938 Z M 201.796875 113.859375 C 201.867188 113.875 201.933594 113.828125 201.941406 113.757812 C 202.101562 112.929688 202.117188 112.101562 202.144531 111.273438 C 202.125 110.449219 202.121094 109.621094 201.964844 108.792969 C 201.957031 108.730469 201.910156 108.683594 201.847656 108.671875 C 201.769531 108.65625 201.691406 108.710938 201.675781 108.792969 C 201.523438 109.621094 201.515625 110.449219 201.5 111.273438 C 201.527344 112.101562 201.539062 112.929688 201.699219 113.757812 C 201.707031 113.808594 201.746094 113.851562 201.796875 113.859375 Z M 205.519531 110.015625 C 205.523438 109.832031 205.375 109.679688 205.191406 109.679688 L 205.1875 109.679688 C 204.796875 109.675781 204.40625 109.675781 204.019531 109.671875 C 204.144531 109.890625 204.257812 110.121094 204.359375 110.355469 C 204.476562 110.625 204.582031 110.90625 204.660156 111.195312 L 204.855469 111.921875 L 205.449219 114.136719 C 205.476562 112.761719 205.5 111.390625 205.519531 110.015625 Z M 169.828125 57.808594 C 170.066406 58.125 170.332031 58.425781 170.59375 58.730469 C 171.488281 59.761719 172.511719 60.683594 173.636719 61.460938 C 174.179688 61.835938 174.746094 62.175781 175.332031 62.480469 C 175.886719 62.773438 176.457031 63.027344 177.042969 63.257812 L 176.832031 58.578125 C 176.832031 58.578125 175.207031 60.074219 174.007812 59.007812 C 171.601562 56.875 169.492188 52.34375 171.347656 51.042969 C 171.554688 50.898438 171.769531 50.800781 171.996094 50.742188 C 174.207031 50.585938 174.878906 51.480469 175.621094 53.058594 C 176.410156 50.753906 176.332031 48.269531 175.097656 46.167969 C 178.371094 45.804688 181.5 44.246094 183.769531 41.855469 C 184.992188 40.566406 185.953125 39.039062 186.617188 37.386719 C 186.128906 37.496094 185.667969 37.601562 185.238281 37.703125 C 181.179688 38.648438 174.648438 40.460938 167.625 42.492188 C 167.316406 43.285156 167.078125 44.105469 166.914062 44.933594 C 166.09375 49.160156 167.050781 53.6875 169.460938 57.25 C 169.585938 57.433594 169.695312 57.625 169.828125 57.808594 Z M 189.925781 59.3125 C 190.753906 59.449219 191.601562 59.449219 192.429688 59.351562 C 193.261719 59.242188 194.085938 59.035156 194.851562 58.707031 C 195.621094 58.378906 196.351562 57.953125 196.972656 57.40625 C 197.039062 57.34375 197.0625 57.246094 197.019531 57.167969 C 196.96875 57.070312 196.851562 57.03125 196.757812 57.082031 C 196.046875 57.441406 195.328125 57.757812 194.585938 57.992188 C 193.847656 58.222656 193.089844 58.402344 192.324219 58.496094 C 191.554688 58.605469 190.78125 58.625 190 58.59375 C 189.222656 58.554688 188.445312 58.433594 187.664062 58.265625 C 187.59375 58.25 187.519531 58.285156 187.480469 58.351562 C 187.441406 58.429688 187.472656 58.53125 187.554688 58.570312 C 188.292969 58.949219 189.101562 59.1875 189.925781 59.3125 Z M 173.753906 54.628906 C 173.972656 54.585938 174.246094 54.765625 174.574219 55.101562 L 174.582031 55.105469 C 174.703125 55.230469 174.894531 55.265625 175.058594 55.183594 C 175.257812 55.078125 175.335938 54.835938 175.234375 54.632812 C 174.683594 53.554688 173.699219 52.722656 172.585938 52.390625 C 172.515625 52.367188 172.4375 52.398438 172.398438 52.464844 C 172.351562 52.542969 172.375 52.644531 172.453125 52.691406 C 172.945312 52.988281 173.371094 53.367188 173.730469 53.785156 C 173.6875 53.789062 173.644531 53.785156 173.605469 53.792969 C 173.25 53.832031 172.867188 54.183594 172.8125 54.558594 C 172.753906 54.925781 172.863281 55.203125 172.96875 55.445312 C 173.355469 56.382812 174.089844 57.144531 174.988281 57.535156 C 175.074219 57.570312 175.183594 57.539062 175.234375 57.453125 C 175.285156 57.359375 175.257812 57.242188 175.164062 57.191406 C 174.414062 56.738281 173.832031 56.027344 173.578125 55.222656 C 173.53125 55.027344 173.535156 54.835938 173.582031 54.746094 C 173.621094 54.660156 173.648438 54.660156 173.753906 54.628906 Z M 184.769531 44.621094 C 184.371094 44.792969 184.003906 45.027344 183.699219 45.332031 C 183.394531 45.628906 183.140625 45.964844 182.980469 46.375 C 182.964844 46.429688 182.972656 46.492188 183.007812 46.539062 C 183.066406 46.609375 183.167969 46.621094 183.242188 46.566406 L 183.257812 46.550781 C 183.550781 46.320312 183.847656 46.085938 184.152344 45.898438 C 184.460938 45.710938 184.769531 45.539062 185.097656 45.414062 C 185.417969 45.28125 185.753906 45.183594 186.105469 45.113281 C 186.453125 45.03125 186.816406 45.019531 187.203125 44.964844 L 187.21875 44.964844 C 187.289062 44.957031 187.351562 44.90625 187.378906 44.835938 C 187.417969 44.738281 187.367188 44.621094 187.265625 44.582031 C 186.882812 44.429688 186.457031 44.34375 186.027344 44.359375 C 185.597656 44.351562 185.171875 44.460938 184.769531 44.621094 Z M 173.148438 333.417969 L 187.546875 333.417969 L 187.546875 332.558594 L 173.148438 332.558594 Z M 174.628906 63.3125 C 174.503906 63.429688 174.417969 63.5 174.417969 63.5 C 171.960938 64.492188 168.34375 60.402344 168.34375 60.402344 C 168.324219 59.5 168.480469 58.816406 168.699219 58.308594 C 162.5625 58.457031 157.050781 72.179688 148.984375 68.507812 C 156.757812 84.261719 178.441406 73.5 174.628906 63.3125 Z M 219.125 361.371094 C 212.136719 360.417969 210.652344 359.992188 209.910156 357.65625 C 209.167969 355.324219 210.597656 338.058594 210.597656 338.058594 L 193.417969 338.058594 C 193.417969 338.058594 194.550781 352.777344 194.691406 358.4375 C 194.796875 362.71875 194.015625 366.109375 193.625 369.222656 C 193.601562 369.414062 193.5625 369.792969 193.5625 369.792969 L 193.570312 369.792969 C 193.605469 369.496094 193.632812 369.207031 193.667969 368.910156 L 227.664062 368.910156 C 227.742188 369.148438 227.777344 369.300781 227.777344 369.300781 C 227.777344 369.300781 226.121094 362.328125 219.125 361.371094 Z M 21.042969 152.363281 C 23.5625 148.621094 21.308594 142.8125 21.214844 142.566406 L 21.101562 142.292969 L 20.8125 142.292969 C 20.648438 142.296875 18.164062 142.328125 15.707031 143.257812 C 15.597656 143.617188 15.496094 143.976562 15.390625 144.332031 C 17.4375 143.410156 19.714844 143.207031 20.515625 143.167969 C 20.921875 144.34375 22.308594 148.945312 20.332031 151.882812 C 18.371094 154.789062 13.648438 155.238281 12.363281 155.308594 C 12.289062 155.597656 12.214844 155.886719 12.144531 156.179688 C 12.992188 156.160156 18.660156 155.894531 21.042969 152.363281 Z M 363.414062 273.125 C 362.359375 273.199219 361.257812 274.414062 360.949219 275.832031 C 360.636719 277.25 361.238281 278.332031 362.289062 278.257812 C 363.339844 278.175781 364.445312 276.964844 364.75 275.546875 C 365.0625 274.128906 364.464844 273.046875 363.414062 273.125 Z M 365.960938 275.457031 C 365.453125 277.773438 363.648438 279.753906 361.933594 279.882812 C 360.214844 280.015625 359.234375 278.238281 359.738281 275.921875 C 360.246094 273.605469 362.050781 271.625 363.765625 271.492188 C 365.484375 271.367188 366.46875 273.140625 365.960938 275.457031 Z M 164.144531 338.058594 L 148.992188 338.058594 C 148.992188 338.058594 151.214844 350.074219 149.628906 357.710938 C 148.714844 362.097656 147.632812 366.203125 146.871094 368.910156 L 166.847656 368.910156 C 166.316406 365.054688 165.042969 360.746094 164.144531 356.925781 C 162.976562 351.984375 164.144531 338.058594 164.144531 338.058594 Z M 187.660156 230.277344 L 181.667969 230.277344 L 181.566406 231.136719 L 187.6875 231.136719 L 187.683594 230.929688 L 188.136719 244.847656 L 179.890625 244.847656 L 179.785156 245.707031 L 188.164062 245.707031 L 189.714844 293.410156 L 192.5625 187.472656 L 186.402344 191.5 Z M 28.429688 230.277344 L 45.859375 230.277344 L 45.859375 205.5625 L 37.144531 193.339844 L 28.429688 205.5625 Z M 69.574219 230.277344 L 87.003906 230.277344 L 87.003906 205.5625 L 78.289062 193.339844 L 69.574219 205.5625 Z M 110.71875 230.277344 L 128.148438 230.277344 L 128.148438 205.5625 L 119.433594 193.339844 L 110.71875 205.5625 Z M 5.246094 231.136719 C 5.203125 230.851562 5.167969 230.5625 5.132812 230.277344 L 27.570312 230.277344 L 27.570312 205.289062 L 37.144531 191.863281 L 46.71875 205.289062 L 46.71875 230.277344 L 68.714844 230.277344 L 68.714844 205.289062 L 78.289062 191.863281 L 87.863281 205.289062 L 87.863281 230.277344 L 109.859375 230.277344 L 109.859375 205.289062 L 119.433594 191.863281 L 129.007812 205.289062 L 129.007812 230.277344 L 151.003906 230.277344 L 151.003906 205.289062 L 155.824219 198.527344 C 155.730469 199.144531 155.640625 199.769531 155.546875 200.394531 L 151.863281 205.5625 L 151.863281 229.289062 C 151.792969 229.90625 151.726562 230.515625 151.664062 231.136719 Z M 157.113281 150.867188 C 157.203125 150.871094 157.28125 150.804688 157.289062 150.710938 C 157.351562 149.898438 157.496094 149.109375 157.746094 148.359375 C 158 147.609375 158.332031 146.894531 158.765625 146.246094 C 159.195312 145.59375 159.722656 145.007812 160.3125 144.480469 C 160.902344 143.960938 161.570312 143.527344 162.289062 143.148438 C 162.367188 143.109375 162.414062 143.019531 162.390625 142.929688 C 162.367188 142.824219 162.257812 142.761719 162.15625 142.785156 C 161.324219 142.984375 160.539062 143.378906 159.835938 143.886719 C 159.132812 144.398438 158.53125 145.046875 158.050781 145.773438 C 157.578125 146.507812 157.226562 147.320312 157.042969 148.167969 C 156.859375 149.015625 156.8125 149.886719 156.960938 150.726562 C 156.972656 150.800781 157.035156 150.859375 157.113281 150.867188 Z M 81.277344 164.648438 C 95.128906 171.976562 109.453125 179.554688 119.515625 177.503906 C 123.375 176.722656 127.023438 175.820312 130.554688 174.953125 C 141.199219 172.324219 150.660156 169.992188 160.308594 172.316406 C 160.363281 172.03125 160.421875 171.75 160.472656 171.464844 C 150.65625 169.109375 141.101562 171.464844 130.351562 174.117188 C 126.828125 174.984375 123.1875 175.886719 119.347656 176.664062 C 109.582031 178.652344 95.394531 171.144531 81.675781 163.886719 C 75.839844 160.796875 70.160156 157.789062 64.984375 155.601562 C 68.054688 152.761719 85.441406 137.324219 99.292969 138.105469 C 106.785156 138.527344 113.582031 142.855469 120.15625 147.042969 C 127.128906 151.476562 134.335938 156.066406 142.511719 156.175781 C 143.53125 156.191406 144.585938 156.195312 145.675781 156.203125 C 150.835938 156.234375 156.875 156.28125 163.445312 157.148438 C 163.507812 156.867188 163.570312 156.582031 163.632812 156.304688 C 156.996094 155.421875 150.894531 155.378906 145.679688 155.34375 C 144.59375 155.335938 143.542969 155.332031 142.527344 155.316406 C 134.589844 155.210938 127.488281 150.6875 120.617188 146.316406 C 113.953125 142.074219 107.058594 137.683594 99.34375 137.246094 C 84.429688 136.410156 66.273438 153.183594 64.105469 155.246094 C 59.273438 153.273438 54.902344 152.058594 51.292969 152.246094 C 37.851562 152.929688 15.589844 172.5625 7.246094 180.363281 C 7.171875 180.828125 7.105469 181.289062 7.035156 181.753906 C 14.589844 174.660156 37.90625 153.785156 51.339844 153.101562 C 58.753906 152.730469 69.695312 158.515625 81.277344 164.648438 Z M 129.007812 245.707031 L 150.269531 245.707031 C 150.292969 245.417969 150.316406 245.132812 150.339844 244.847656 L 8.316406 244.847656 C 8.402344 245.132812 8.484375 245.421875 8.578125 245.707031 L 27.570312 245.707031 L 27.570312 280.253906 C 27.855469 280.609375 28.140625 280.960938 28.429688 281.308594 L 28.429688 245.707031 L 45.859375 245.707031 L 45.859375 284.339844 L 46.269531 284.289062 C 46.269531 284.074219 46.417969 283.890625 46.632812 283.859375 L 46.71875 283.847656 L 46.71875 245.707031 L 68.714844 245.707031 L 68.714844 279.144531 C 69.015625 279.890625 69.226562 280.492188 69.359375 280.871094 L 69.46875 280.855469 C 69.507812 280.847656 69.539062 280.859375 69.574219 280.863281 L 69.574219 245.707031 L 87.003906 245.707031 L 87.003906 302.246094 L 87.863281 301.335938 L 87.863281 245.707031 L 109.859375 245.707031 L 109.859375 278.011719 L 110.476562 277.355469 C 110.042969 276.058594 110.132812 274.765625 110.71875 273.90625 L 110.71875 245.707031 L 128.148438 245.707031 L 128.148438 332.558594 L 110.71875 332.558594 L 110.71875 283.175781 L 109.859375 284.699219 L 109.859375 332.558594 L 99.941406 332.558594 C 100.574219 332.84375 101.203125 333.132812 101.839844 333.417969 L 144.347656 333.417969 L 144.347656 332.558594 L 129.007812 332.558594 Z M 87.003906 326.261719 C 87.289062 326.410156 87.574219 326.558594 87.863281 326.703125 L 87.863281 323.683594 L 87.003906 325.203125 Z M 75.609375 314.324219 L 79.910156 337.773438 L 85.824219 327.292969 L 77.511719 312.304688 Z M 6.902344 321.4375 C 3.738281 317.316406 2.953125 312.332031 4.570312 306.617188 C 6.140625 301.085938 8.585938 297.65625 11.839844 296.425781 C 16.363281 294.710938 21.214844 297.765625 21.300781 297.816406 C 21.300781 297.816406 21.304688 297.820312 21.304688 297.820312 L 21.433594 297.621094 L 21.429688 297.613281 L 21.15625 293.890625 C 18.820312 292.859375 14.765625 291.660156 10.65625 293.199219 C 6.316406 294.832031 3.160156 299.027344 1.273438 305.679688 C -0.628906 312.398438 0.375 318.578125 4.183594 323.535156 C 9.296875 330.1875 18.355469 333.371094 24.117188 333.796875 L 23.859375 330.332031 C 18.894531 329.824219 11.175781 327.003906 6.902344 321.4375 Z M 170.148438 325.289062 L 170.148438 324.613281 L 170.066406 325.289062 Z M 263.921875 96.65625 C 264.40625 96.648438 264.890625 96.589844 265.371094 96.519531 C 265.847656 96.4375 266.328125 96.34375 266.792969 96.203125 C 267.261719 96.0625 267.722656 95.910156 268.164062 95.6875 C 268.234375 95.65625 268.28125 95.582031 268.277344 95.503906 C 268.269531 95.394531 268.179688 95.308594 268.070312 95.3125 C 267.578125 95.332031 267.109375 95.394531 266.640625 95.460938 C 266.164062 95.511719 265.699219 95.597656 265.234375 95.671875 C 264.765625 95.757812 264.296875 95.832031 263.832031 95.9375 C 263.367188 96.035156 262.898438 96.128906 262.429688 96.273438 C 262.371094 96.289062 262.324219 96.34375 262.3125 96.410156 C 262.300781 96.5 262.363281 96.585938 262.457031 96.601562 C 262.941406 96.667969 263.429688 96.671875 263.921875 96.65625 Z M 262.886719 107.824219 C 262.984375 107.789062 263.039062 107.671875 263 107.570312 C 262.789062 107.015625 262.585938 106.476562 262.421875 105.925781 C 262.265625 105.371094 262.121094 104.820312 262.027344 104.253906 C 261.921875 103.691406 261.863281 103.125 261.820312 102.546875 C 261.785156 101.976562 261.789062 101.394531 261.796875 100.800781 C 261.800781 100.730469 261.761719 100.667969 261.695312 100.640625 C 261.605469 100.605469 261.507812 100.648438 261.480469 100.738281 C 261.257812 101.3125 261.144531 101.925781 261.097656 102.546875 C 261.042969 103.164062 261.085938 103.785156 261.183594 104.398438 C 261.277344 104.929688 261.425781 105.449219 261.625 105.949219 C 261.609375 105.945312 261.597656 105.933594 261.578125 105.933594 C 261.394531 105.941406 261.246094 106.007812 261.101562 106.085938 C 260.953125 106.15625 260.835938 106.269531 260.726562 106.386719 C 260.625 106.511719 260.53125 106.644531 260.476562 106.796875 C 260.414062 106.953125 260.371094 107.113281 260.382812 107.296875 C 260.382812 107.320312 260.390625 107.339844 260.398438 107.359375 C 260.441406 107.460938 260.554688 107.511719 260.660156 107.464844 L 260.664062 107.460938 C 260.828125 107.394531 260.945312 107.3125 261.058594 107.230469 C 261.175781 107.152344 261.265625 107.058594 261.359375 106.964844 C 261.445312 106.867188 261.535156 106.769531 261.605469 106.652344 C 261.671875 106.550781 261.726562 106.445312 261.777344 106.320312 C 262.015625 106.839844 262.300781 107.335938 262.664062 107.769531 C 262.71875 107.832031 262.804688 107.859375 262.886719 107.824219 Z M 262.855469 93.992188 C 263.195312 93.898438 263.527344 93.773438 263.855469 93.644531 C 264.179688 93.507812 264.507812 93.367188 264.816406 93.191406 C 265.128906 93.019531 265.4375 92.84375 265.726562 92.613281 C 265.773438 92.570312 265.804688 92.503906 265.796875 92.433594 C 265.785156 92.324219 265.683594 92.242188 265.574219 92.257812 C 265.210938 92.296875 264.867188 92.390625 264.527344 92.492188 C 264.183594 92.589844 263.855469 92.71875 263.527344 92.851562 C 263.207031 92.996094 262.886719 93.136719 262.578125 93.320312 C 262.265625 93.492188 261.960938 93.679688 261.671875 93.910156 C 261.632812 93.945312 261.605469 94 261.613281 94.0625 C 261.625 94.15625 261.707031 94.222656 261.800781 94.210938 C 262.164062 94.175781 262.511719 94.085938 262.855469 93.992188 Z M 268.632812 97.675781 C 268.722656 97.738281 268.816406 97.792969 268.929688 97.816406 C 269.039062 97.84375 269.15625 97.863281 269.300781 97.839844 C 269.308594 97.839844 269.3125 97.839844 269.316406 97.835938 C 269.460938 97.800781 269.546875 97.65625 269.515625 97.511719 C 269.480469 97.367188 269.414062 97.269531 269.34375 97.179688 C 269.277344 97.085938 269.191406 97.023438 269.101562 96.960938 C 269.007812 96.910156 268.910156 96.855469 268.792969 96.839844 C 268.679688 96.816406 268.5625 96.796875 268.410156 96.824219 C 268.410156 96.824219 268.40625 96.824219 268.402344 96.824219 C 268.28125 96.855469 268.207031 96.976562 268.234375 97.101562 C 268.265625 97.246094 268.328125 97.347656 268.398438 97.445312 C 268.460938 97.542969 268.542969 97.609375 268.632812 97.675781 Z M 231.339844 115.867188 C 232.378906 114.90625 233.570312 114.199219 234.859375 113.699219 C 235.5 113.445312 236.164062 113.25 236.839844 113.089844 C 237.183594 113.011719 237.535156 112.945312 237.890625 112.890625 C 237.257812 113.253906 236.660156 113.6875 236.117188 114.175781 C 235.296875 114.902344 234.605469 115.769531 234.035156 116.703125 C 233.472656 117.648438 233.035156 118.667969 232.773438 119.734375 C 232.507812 120.796875 232.394531 121.898438 232.496094 122.980469 C 232.507812 123.070312 232.578125 123.148438 232.671875 123.160156 C 232.78125 123.167969 232.875 123.089844 232.882812 122.980469 C 232.984375 121.941406 233.183594 120.921875 233.503906 119.941406 C 233.824219 118.96875 234.242188 118.027344 234.769531 117.148438 C 235.289062 116.261719 235.917969 115.445312 236.621094 114.695312 C 237.3125 113.964844 238.09375 113.320312 238.9375 112.746094 C 239.011719 112.730469 239.074219 112.671875 239.089844 112.59375 C 239.105469 112.488281 239.035156 112.386719 238.929688 112.367188 C 238.199219 112.242188 237.449219 112.25 236.707031 112.339844 C 235.96875 112.429688 235.242188 112.625 234.542969 112.902344 C 233.851562 113.1875 233.183594 113.542969 232.59375 114.011719 C 232 114.472656 231.46875 115.019531 231.082031 115.660156 C 231.050781 115.722656 231.054688 115.804688 231.105469 115.859375 C 231.171875 115.925781 231.273438 115.929688 231.339844 115.867188 Z M 268.167969 93.40625 C 268.335938 93.417969 268.511719 93.402344 268.679688 93.316406 C 268.699219 93.304688 268.71875 93.289062 268.738281 93.269531 C 268.824219 93.179688 268.820312 93.03125 268.726562 92.945312 L 268.714844 92.929688 C 268.59375 92.8125 268.484375 92.746094 268.375 92.675781 C 268.273438 92.601562 268.164062 92.554688 268.0625 92.5 C 267.953125 92.457031 267.84375 92.402344 267.71875 92.371094 C 267.59375 92.332031 267.46875 92.289062 267.300781 92.265625 L 267.285156 92.261719 C 267.265625 92.261719 267.25 92.261719 267.226562 92.265625 C 267.117188 92.28125 267.042969 92.382812 267.0625 92.492188 C 267.089844 92.675781 267.179688 92.824219 267.292969 92.957031 C 267.394531 93.089844 267.535156 93.1875 267.683594 93.273438 C 267.835938 93.34375 268 93.398438 268.167969 93.40625 Z M 308.226562 61.375 C 309.296875 62.011719 313.523438 64.292969 316.785156 62.941406 C 320.046875 61.59375 321.433594 56.992188 321.746094 55.785156 C 320.675781 55.148438 316.445312 52.867188 313.183594 54.214844 C 309.917969 55.5625 308.535156 60.167969 308.226562 61.375 Z M 307.5 61.9375 L 307.253906 61.777344 L 307.316406 61.492188 C 307.367188 61.230469 308.695312 55.140625 312.859375 53.417969 C 317.019531 51.695312 322.25 55.078125 322.46875 55.21875 L 322.714844 55.382812 L 322.652344 55.671875 C 322.601562 55.929688 321.273438 62.015625 317.113281 63.738281 C 316.269531 64.085938 315.378906 64.226562 314.503906 64.226562 C 311.039062 64.226562 307.675781 62.050781 307.5 61.9375 Z M 352.386719 89.414062 L 352.675781 89.414062 C 352.890625 89.410156 356.976562 89.359375 359.875 87.378906 C 359.808594 87.070312 359.75 86.757812 359.6875 86.449219 C 357.40625 88.183594 353.992188 88.492188 352.972656 88.546875 C 352.566406 87.363281 351.179688 82.761719 353.15625 79.828125 C 354.105469 78.425781 355.699219 77.597656 357.234375 77.101562 C 357.152344 76.828125 357.0625 76.554688 356.96875 76.277344 C 355.292969 76.816406 353.527344 77.742188 352.445312 79.347656 C 349.925781 83.085938 352.183594 88.898438 352.277344 89.144531 Z M 307.917969 116.15625 C 309.164062 116.089844 313.945312 115.65625 315.917969 112.726562 C 317.894531 109.792969 316.507812 105.1875 316.105469 104.011719 C 314.863281 104.074219 310.078125 104.511719 308.105469 107.4375 C 306.125 110.375 307.511719 114.976562 307.917969 116.15625 Z M 307.222656 116.753906 C 307.128906 116.507812 304.871094 110.699219 307.394531 106.960938 C 309.917969 103.214844 316.132812 103.140625 316.398438 103.140625 L 316.691406 103.140625 L 316.796875 103.410156 C 316.894531 103.65625 319.152344 109.460938 316.628906 113.207031 C 314.109375 116.945312 307.886719 117.023438 307.621094 117.023438 L 307.332031 117.027344 Z M 316.105469 177.714844 C 314.863281 177.777344 310.078125 178.214844 308.105469 181.140625 C 306.125 184.078125 307.511719 188.679688 307.917969 189.855469 C 309.164062 189.792969 313.945312 189.355469 315.917969 186.429688 C 317.894531 183.492188 316.507812 178.890625 316.105469 177.714844 Z M 316.691406 176.839844 L 316.796875 177.113281 C 316.894531 177.359375 319.152344 183.167969 316.628906 186.910156 C 314.109375 190.648438 307.886719 190.726562 307.621094 190.726562 L 307.332031 190.726562 L 307.222656 190.453125 C 307.128906 190.210938 304.871094 184.402344 307.394531 180.660156 C 309.917969 176.917969 316.132812 176.84375 316.398438 176.84375 Z M 265.125 81.351562 L 265.125 88.339844 C 265.21875 88.304688 265.300781 88.273438 265.351562 88.257812 C 265.53125 88.195312 266.003906 88.3125 266.617188 88.542969 C 266.433594 88.539062 266.25 88.550781 266.070312 88.570312 C 265.304688 88.648438 264.589844 88.921875 263.933594 89.285156 C 263.289062 89.65625 262.707031 90.09375 262.164062 90.554688 L 260.566406 91.9375 C 260.511719 91.980469 260.492188 92.0625 260.523438 92.128906 C 260.554688 92.210938 260.65625 92.253906 260.738281 92.214844 C 261.40625 91.925781 262.011719 91.523438 262.601562 91.136719 C 263.195312 90.753906 263.757812 90.355469 264.351562 90.03125 C 264.929688 89.710938 265.554688 89.464844 266.191406 89.316406 C 266.828125 89.179688 267.484375 89.167969 268.132812 89.34375 C 268.210938 89.363281 268.300781 89.335938 268.347656 89.265625 C 268.5 89.335938 268.65625 89.402344 268.808594 89.476562 L 268.808594 81.351562 C 281.265625 80.402344 291.109375 69.957031 291.109375 57.238281 L 291.109375 40.671875 C 291.109375 35.835938 290.71875 31.007812 289.949219 26.238281 L 289.789062 25.257812 C 289.710938 24.773438 289.027344 24.765625 288.9375 25.246094 C 287.929688 30.679688 287.425781 36.195312 287.425781 41.722656 L 287.425781 57.238281 C 287.425781 67.917969 279.230469 76.714844 268.808594 77.648438 L 268.808594 40.671875 C 268.808594 35.835938 268.421875 31.007812 267.648438 26.238281 L 267.492188 25.257812 C 267.414062 24.773438 266.726562 24.765625 266.640625 25.246094 L 266.640625 25.25 C 265.632812 30.679688 265.125 36.191406 265.125 41.71875 L 265.125 77.648438 C 254.707031 76.714844 246.511719 67.917969 246.511719 57.238281 L 246.507812 57.238281 L 246.507812 40.679688 C 246.507812 35.84375 246.125 31.019531 245.355469 26.246094 L 245.191406 25.257812 C 245.117188 24.777344 244.425781 24.769531 244.339844 25.246094 C 243.335938 30.679688 242.828125 36.195312 242.828125 41.722656 L 242.828125 57.238281 L 242.824219 57.238281 C 242.824219 69.957031 252.671875 80.402344 265.125 81.351562 Z M 257.835938 103.703125 C 257.875 103.636719 257.867188 103.546875 257.804688 103.496094 C 257.742188 103.433594 257.636719 103.4375 257.574219 103.503906 C 256.804688 104.363281 256.328125 105.484375 256.164062 106.648438 C 256 107.8125 256.175781 109.03125 256.65625 110.125 C 257.167969 111.203125 257.976562 112.128906 258.96875 112.765625 C 259.957031 113.402344 261.117188 113.773438 262.277344 113.746094 C 262.367188 113.742188 262.449219 113.675781 262.464844 113.578125 C 262.480469 113.472656 262.40625 113.375 262.300781 113.355469 C 261.238281 113.1875 260.242188 112.761719 259.398438 112.140625 C 258.554688 111.519531 257.851562 110.710938 257.429688 109.765625 C 256.976562 108.835938 256.820312 107.769531 256.886719 106.722656 C 256.953125 105.671875 257.277344 104.628906 257.835938 103.703125 Z M 180.878906 77.40625 C 181.289062 77.503906 181.726562 77.589844 182.195312 77.582031 C 182.652344 77.570312 183.171875 77.453125 183.5625 77.140625 C 184.359375 76.519531 184.613281 75.628906 184.800781 74.839844 C 184.820312 74.75 184.777344 74.65625 184.695312 74.617188 C 184.597656 74.570312 184.480469 74.609375 184.433594 74.707031 C 184.070312 75.429688 183.707031 76.171875 183.136719 76.511719 C 182.585938 76.851562 181.839844 76.765625 181.082031 76.574219 C 180.316406 76.394531 179.5625 76.132812 178.800781 75.863281 C 178.046875 75.589844 177.296875 75.277344 176.515625 75.011719 C 176.445312 74.988281 176.363281 75.011719 176.324219 75.078125 C 176.273438 75.152344 176.292969 75.257812 176.371094 75.308594 C 177.058594 75.761719 177.773438 76.167969 178.519531 76.53125 C 179.269531 76.898438 180.058594 77.195312 180.878906 77.40625 Z M 189.101562 130.226562 C 189.96875 130.96875 190.875 131.667969 191.804688 132.328125 C 192.730469 133 193.710938 133.597656 194.695312 134.167969 C 194.792969 134.226562 194.921875 134.226562 195.023438 134.167969 C 196.792969 133.074219 198.554688 131.957031 200.273438 130.773438 C 201.980469 129.582031 203.671875 128.339844 205.148438 126.828125 C 205.21875 126.753906 205.21875 126.628906 205.144531 126.554688 C 205.066406 126.480469 204.941406 126.480469 204.867188 126.558594 C 203.402344 127.996094 201.703125 129.195312 199.980469 130.339844 C 198.308594 131.449219 196.582031 132.472656 194.859375 133.507812 C 193.953125 132.960938 193.058594 132.394531 192.210938 131.761719 C 191.308594 131.097656 190.429688 130.398438 189.582031 129.65625 C 187.9375 128.214844 186.355469 126.660156 184.933594 125.011719 L 185.101562 110.433594 C 188.195312 110.425781 191.292969 110.417969 194.386719 110.410156 C 194.109375 110.03125 193.710938 109.738281 193.21875 109.617188 C 190.375 109.605469 187.527344 109.601562 184.683594 109.589844 C 184.449219 109.589844 184.261719 109.777344 184.261719 110.007812 L 184.121094 125.160156 L 184.121094 125.167969 C 184.121094 125.257812 184.152344 125.351562 184.214844 125.425781 C 185.71875 127.167969 187.351562 128.753906 189.101562 130.226562 Z M 193.054688 60.921875 C 193.292969 60.875 193.527344 60.8125 193.742188 60.691406 C 193.957031 60.582031 194.15625 60.445312 194.320312 60.246094 C 194.347656 60.207031 194.367188 60.160156 194.363281 60.109375 C 194.363281 59.992188 194.261719 59.898438 194.144531 59.898438 L 194.136719 59.898438 C 193.902344 59.90625 193.699219 59.945312 193.5 59.972656 C 193.289062 60 193.101562 60.042969 192.902344 60.078125 C 192.707031 60.125 192.511719 60.15625 192.308594 60.210938 C 192.109375 60.257812 191.902344 60.304688 191.679688 60.382812 L 191.671875 60.386719 C 191.636719 60.398438 191.601562 60.425781 191.578125 60.464844 C 191.53125 60.546875 191.554688 60.660156 191.644531 60.707031 C 191.859375 60.84375 192.09375 60.902344 192.332031 60.9375 C 192.574219 60.972656 192.820312 60.960938 193.054688 60.921875 Z M 186.785156 48.660156 C 186.742188 47.964844 186.257812 47.425781 185.714844 47.464844 C 185.164062 47.5 184.753906 48.089844 184.800781 48.789062 C 184.847656 49.484375 185.328125 50.019531 185.875 49.984375 C 186.421875 49.945312 186.832031 49.355469 186.785156 48.660156 Z M 189.75 76.125 C 189.824219 75.535156 189.890625 74.941406 189.894531 74.34375 C 189.90625 73.742188 189.890625 73.136719 189.777344 72.539062 C 189.765625 72.472656 189.710938 72.417969 189.640625 72.40625 C 189.550781 72.390625 189.464844 72.453125 189.449219 72.542969 L 188.902344 76.007812 C 188.820312 76.585938 188.734375 77.167969 188.675781 77.753906 C 188.667969 77.878906 188.65625 78 188.644531 78.121094 C 188.566406 77.921875 188.488281 77.71875 188.40625 77.519531 C 188.113281 76.828125 187.8125 76.148438 187.46875 75.484375 C 187.128906 74.816406 186.777344 74.15625 186.367188 73.527344 C 186.328125 73.464844 186.253906 73.4375 186.179688 73.457031 C 186.089844 73.484375 186.042969 73.578125 186.070312 73.664062 C 186.289062 74.382812 186.546875 75.078125 186.804688 75.773438 C 187.058594 76.46875 187.339844 77.15625 187.613281 77.84375 C 187.894531 78.527344 188.175781 79.214844 188.480469 79.890625 C 188.78125 80.570312 189.082031 81.246094 189.425781 81.910156 C 189.464844 81.988281 189.554688 82.03125 189.640625 82.011719 C 189.75 81.992188 189.816406 81.886719 189.792969 81.78125 C 189.636719 81.042969 189.417969 80.328125 189.1875 79.617188 C 189.148438 79.492188 189.101562 79.367188 189.058594 79.246094 C 189.195312 78.792969 189.320312 78.335938 189.425781 77.878906 C 189.5625 77.300781 189.664062 76.71875 189.75 76.125 Z M 193.820312 54.492188 L 193.8125 54.496094 C 193.730469 54.519531 193.667969 54.597656 193.671875 54.6875 C 193.675781 54.796875 193.761719 54.882812 193.875 54.878906 C 194.390625 54.867188 194.898438 54.597656 195.234375 54.171875 C 195.578125 53.746094 195.714844 53.140625 195.601562 52.597656 C 195.496094 52.054688 195.140625 51.523438 194.625 51.25 C 194.265625 51.046875 193.84375 50.964844 193.429688 51.003906 C 193.335938 50.515625 193.238281 50.035156 193.125 49.550781 C 192.984375 48.925781 192.820312 48.304688 192.636719 47.691406 C 192.613281 47.621094 192.546875 47.574219 192.472656 47.574219 C 192.382812 47.578125 192.308594 47.65625 192.3125 47.75 C 192.335938 48.390625 192.386719 49.027344 192.460938 49.660156 C 192.519531 50.300781 192.601562 50.933594 192.695312 51.558594 C 192.699219 51.585938 192.703125 51.605469 192.707031 51.625 C 192.773438 51.84375 193.007812 51.964844 193.222656 51.894531 L 193.238281 51.890625 C 193.546875 51.792969 193.921875 51.84375 194.21875 52 C 194.511719 52.15625 194.730469 52.433594 194.824219 52.773438 C 194.921875 53.117188 194.898438 53.484375 194.703125 53.796875 C 194.519531 54.117188 194.203125 54.378906 193.820312 54.492188 Z M 198.253906 113.324219 L 198.253906 113.332031 C 198.25 113.386719 198.28125 113.441406 198.332031 113.46875 C 198.40625 113.503906 198.492188 113.476562 198.53125 113.402344 C 198.863281 112.753906 198.984375 112.046875 199.035156 111.332031 C 199.03125 110.96875 199.03125 110.601562 198.945312 110.242188 C 198.867188 109.882812 198.730469 109.523438 198.5 109.226562 C 198.472656 109.195312 198.425781 109.171875 198.375 109.183594 C 198.308594 109.195312 198.265625 109.265625 198.28125 109.332031 L 198.28125 109.339844 C 198.421875 109.992188 198.445312 110.632812 198.398438 111.300781 C 198.382812 111.964844 198.277344 112.632812 198.253906 113.324219 Z M 197.535156 44.46875 L 197.539062 44.472656 C 197.601562 44.507812 197.683594 44.511719 197.746094 44.472656 C 197.839844 44.414062 197.871094 44.292969 197.816406 44.199219 C 197.570312 43.792969 197.199219 43.472656 196.78125 43.242188 C 196.359375 43 195.875 42.871094 195.386719 42.84375 C 194.898438 42.832031 194.40625 42.914062 193.96875 43.117188 C 193.527344 43.3125 193.132812 43.597656 192.855469 43.976562 C 192.820312 44.027344 192.8125 44.097656 192.84375 44.152344 C 192.886719 44.238281 192.984375 44.265625 193.066406 44.222656 C 193.449219 44.035156 193.820312 43.886719 194.203125 43.800781 C 194.582031 43.71875 194.96875 43.675781 195.34375 43.703125 C 195.722656 43.71875 196.09375 43.808594 196.460938 43.929688 C 196.828125 44.054688 197.179688 44.242188 197.535156 44.46875 Z M 196.171875 47.726562 C 196.125 47.03125 195.644531 46.496094 195.097656 46.53125 C 194.550781 46.566406 194.144531 47.160156 194.1875 47.855469 C 194.234375 48.550781 194.71875 49.085938 195.261719 49.050781 C 195.8125 49.015625 196.21875 48.421875 196.171875 47.726562 Z M 228.46875 163.363281 C 229.710938 163.296875 234.496094 162.863281 236.46875 159.933594 C 238.445312 157 237.058594 152.394531 236.652344 151.21875 C 235.410156 151.28125 230.628906 151.71875 228.652344 154.644531 C 226.675781 157.582031 228.0625 162.183594 228.46875 163.363281 Z M 227.773438 163.960938 C 227.675781 163.714844 225.421875 157.90625 227.941406 154.167969 C 230.464844 150.425781 236.683594 150.347656 236.945312 150.347656 L 237.242188 150.347656 L 237.347656 150.621094 C 237.445312 150.867188 239.699219 156.671875 237.175781 160.414062 C 234.65625 164.15625 228.4375 164.230469 228.171875 164.230469 L 227.882812 164.234375 Z M 180.378906 63.007812 C 179.507812 62.347656 178.714844 61.589844 177.996094 60.753906 C 177.945312 60.691406 177.859375 60.675781 177.789062 60.714844 C 177.710938 60.757812 177.683594 60.859375 177.726562 60.941406 C 178.296875 61.929688 179.058594 62.808594 179.921875 63.566406 C 180.785156 64.328125 181.769531 64.941406 182.792969 65.460938 C 183.835938 65.945312 184.921875 66.328125 186.042969 66.570312 C 187.15625 66.808594 188.292969 66.933594 189.421875 66.921875 C 189.515625 66.917969 189.597656 66.851562 189.613281 66.757812 C 189.628906 66.648438 189.558594 66.550781 189.453125 66.53125 C 188.359375 66.34375 187.277344 66.132812 186.222656 65.832031 C 185.171875 65.53125 184.136719 65.171875 183.160156 64.6875 C 182.175781 64.242188 181.25 63.65625 180.378906 63.007812 Z M 205.1875 98.410156 C 206.132812 98.410156 206.902344 97.640625 206.902344 96.691406 C 206.902344 95.742188 206.132812 94.972656 205.1875 94.972656 C 204.238281 94.972656 203.472656 95.742188 203.472656 96.691406 C 203.472656 97.640625 204.238281 98.410156 205.1875 98.410156 Z M 174.328125 96.691406 C 174.328125 97.640625 175.097656 98.410156 176.042969 98.410156 C 176.988281 98.410156 177.757812 97.640625 177.757812 96.691406 C 177.757812 95.742188 176.988281 94.972656 176.042969 94.972656 C 175.097656 94.972656 174.328125 95.742188 174.328125 96.691406 Z M 205.234375 125.261719 C 205.230469 125.351562 205.15625 125.425781 205.066406 125.425781 C 204.976562 125.425781 204.90625 125.351562 204.90625 125.261719 C 204.890625 122.257812 204.871094 119.253906 204.863281 116.253906 C 204.945312 116.214844 205.03125 116.171875 205.109375 116.117188 C 205.238281 116.027344 205.335938 115.914062 205.421875 115.789062 C 205.363281 118.945312 205.296875 122.105469 205.234375 125.261719 "/>
</g>
</g>
</svg>
