<?xml version="1.0" encoding="UTF-8"?>
<svg xmlns="http://www.w3.org/2000/svg" xmlns:xlink="http://www.w3.org/1999/xlink" width="375pt" height="374.999991pt" viewBox="0 0 375 374.999991" version="1.2">
<defs>
<clipPath id="clip1">
  <path d="M 58 58.671875 L 309 58.671875 L 309 313 L 58 313 Z M 58 58.671875 "/>
</clipPath>
<clipPath id="clip2">
  <path d="M 69.230469 69.460938 L 317.457031 69.460938 L 317.457031 300.796875 L 69.230469 300.796875 Z M 69.230469 69.460938 "/>
</clipPath>
<clipPath id="clip3">
  <path d="M 55.433594 74.253906 L 317.457031 74.253906 L 317.457031 317.984375 L 55.433594 317.984375 Z M 55.433594 74.253906 "/>
</clipPath>
</defs>
<g id="surface1">
<g clip-path="url(#clip1)" clip-rule="nonzero">
<path style=" stroke:none;fill-rule:nonzero;fill:rgb(32.159424%,76.078796%,50.19989%);fill-opacity:1;" d="M 308.882812 137.039062 C 308.882812 204.234375 307.828125 312.328125 233.679688 312.328125 C 159.539062 312.328125 58.199219 276.414062 58.199219 209.214844 C 58.199219 142.015625 101.675781 58.671875 175.820312 58.671875 C 249.960938 58.671875 308.882812 69.839844 308.882812 137.039062 "/>
</g>
<path style=" stroke:none;fill-rule:nonzero;fill:rgb(96.859741%,79.219055%,7.449341%);fill-opacity:1;" d="M 91.976562 90.476562 L 84.425781 98.902344 L 74.917969 105.039062 C 72.992188 106.28125 72.6875 108.96875 74.28125 110.613281 C 79.84375 116.367188 92.304688 127.550781 103.464844 125.542969 C 105.488281 125.183594 107.132812 123.777344 107.808594 121.835938 C 111.527344 111.136719 102.414062 97.101562 97.589844 90.714844 C 96.207031 88.886719 93.507812 88.769531 91.976562 90.476562 Z M 299.011719 282.207031 C 298.960938 282.183594 298.90625 282.167969 298.84375 282.175781 C 298.4375 282.242188 298.066406 282.242188 297.847656 282.242188 C 295.070312 282.242188 289.546875 281.078125 283.441406 279.207031 C 279.410156 277.96875 275.675781 276.59375 272.925781 275.328125 C 270.984375 274.433594 269.785156 273.734375 269.042969 273.054688 C 268.992188 273.007812 268.925781 272.984375 268.863281 272.980469 C 268.773438 272.972656 268.683594 273.003906 268.617188 273.074219 C 268.503906 273.195312 268.515625 273.386719 268.636719 273.496094 C 268.675781 273.53125 268.71875 273.566406 268.757812 273.597656 C 269.554688 274.289062 270.769531 274.996094 272.675781 275.871094 C 275.449219 277.148438 279.207031 278.535156 283.265625 279.78125 C 289.425781 281.667969 295.015625 282.839844 297.847656 282.839844 C 298.050781 282.839844 298.371094 282.835938 298.742188 282.792969 C 298.804688 282.785156 298.871094 282.777344 298.933594 282.769531 C 299.097656 282.742188 299.210938 282.589844 299.1875 282.425781 C 299.171875 282.324219 299.101562 282.246094 299.011719 282.207031 Z M 309.5625 247.84375 C 309.476562 247.851562 309.390625 247.871094 309.304688 247.898438 L 309.589844 246.960938 C 309.589844 246.960938 293.828125 263.46875 272.109375 253.4375 C 270.960938 252.90625 269.792969 252.304688 268.609375 251.617188 C 266.261719 250.199219 266.203125 246.816406 266.203125 246.816406 C 264.726562 252.679688 267.617188 254.5 269.660156 255.753906 C 270.289062 256.140625 270.917969 256.5 271.546875 256.835938 C 290.660156 266.992188 307.902344 252.46875 307.902344 252.46875 L 308.261719 251.300781 C 308.40625 251.394531 308.578125 251.441406 308.777344 251.425781 C 309.511719 251.371094 310.285156 250.527344 310.5 249.535156 C 310.71875 248.546875 310.300781 247.792969 309.5625 247.84375 Z M 316.464844 244.246094 C 316.410156 244.214844 316.355469 244.199219 316.289062 244.203125 C 315.878906 244.246094 315.5 244.246094 315.25 244.246094 C 311.398438 244.246094 303.808594 242.65625 295.449219 240.09375 C 289.859375 238.382812 284.691406 236.46875 280.894531 234.703125 C 278.460938 233.574219 276.859375 232.652344 275.859375 231.808594 C 275.816406 231.769531 275.765625 231.753906 275.714844 231.746094 C 275.613281 231.730469 275.507812 231.757812 275.433594 231.84375 C 275.328125 231.96875 275.347656 232.15625 275.472656 232.265625 C 275.515625 232.304688 275.5625 232.335938 275.609375 232.375 C 276.660156 233.226562 278.257812 234.140625 280.640625 235.246094 C 284.464844 237.023438 289.660156 238.949219 295.273438 240.667969 C 303.6875 243.246094 311.34375 244.847656 315.25 244.847656 C 315.480469 244.847656 315.820312 244.84375 316.203125 244.8125 C 316.253906 244.808594 316.300781 244.804688 316.351562 244.800781 C 316.515625 244.78125 316.636719 244.636719 316.621094 244.472656 C 316.609375 244.371094 316.546875 244.292969 316.464844 244.246094 Z M 87.917969 255.929688 L 103.902344 253.835938 C 103.90625 253.832031 103.910156 253.832031 103.914062 253.832031 C 104.070312 253.800781 104.179688 253.65625 104.160156 253.5 C 104.136719 253.335938 103.984375 253.21875 103.820312 253.242188 L 103.742188 253.25 L 87.964844 255.320312 L 87.835938 255.335938 C 87.6875 255.359375 87.582031 255.488281 87.582031 255.636719 C 87.582031 255.648438 87.578125 255.660156 87.578125 255.671875 C 87.601562 255.824219 87.730469 255.933594 87.878906 255.933594 C 87.890625 255.933594 87.902344 255.933594 87.917969 255.929688 Z M 131.542969 256.894531 L 128.816406 254.714844 L 128.800781 254.699219 C 128.671875 254.597656 128.484375 254.617188 128.378906 254.746094 C 128.28125 254.867188 128.296875 255.042969 128.410156 255.148438 C 128.414062 255.152344 128.417969 255.164062 128.425781 255.167969 L 131.207031 257.390625 C 131.21875 257.402344 131.238281 257.398438 131.253906 257.40625 C 131.296875 257.433594 131.34375 257.457031 131.394531 257.457031 C 131.484375 257.457031 131.570312 257.417969 131.628906 257.34375 C 131.730469 257.214844 131.710938 257.027344 131.582031 256.925781 Z M 104.417969 256.558594 C 104.574219 256.53125 104.683594 256.386719 104.664062 256.230469 C 104.640625 256.066406 104.488281 255.949219 104.328125 255.972656 L 104.3125 255.972656 L 69.863281 260.414062 L 69.84375 260.414062 C 69.679688 260.433594 69.5625 260.585938 69.585938 260.75 C 69.605469 260.902344 69.734375 261.011719 69.882812 261.011719 C 69.890625 261.011719 69.898438 261.011719 69.90625 261.007812 C 69.910156 261.007812 69.917969 261.007812 69.921875 261.007812 L 104.402344 256.566406 C 104.410156 256.5625 104.414062 256.5625 104.417969 256.558594 Z M 105.238281 260.910156 L 105.222656 260.914062 L 70.234375 265.421875 L 70.21875 265.425781 C 70.054688 265.445312 69.9375 265.597656 69.960938 265.757812 C 69.980469 265.910156 70.109375 266.019531 70.253906 266.019531 C 70.261719 266.019531 70.273438 266.019531 70.277344 266.019531 C 70.285156 266.019531 70.289062 266.019531 70.296875 266.019531 L 105.316406 261.503906 C 105.320312 261.503906 105.324219 261.5 105.332031 261.5 C 105.488281 261.472656 105.59375 261.328125 105.578125 261.171875 C 105.554688 261.007812 105.402344 260.886719 105.238281 260.910156 Z M 132.523438 250.800781 C 132.621094 251.082031 132.738281 251.367188 132.90625 251.640625 C 133.183594 252.089844 133.527344 252.453125 133.898438 252.730469 C 134.707031 253.34375 135.652344 253.523438 136.359375 253.089844 L 133.1875 247.914062 C 132.355469 248.421875 132.125 249.609375 132.523438 250.800781 Z M 190.753906 314.691406 C 190.726562 314.898438 190.707031 315.101562 190.683594 315.304688 C 190.625 315.867188 190.578125 316.417969 190.578125 316.960938 L 199.15625 316.960938 L 199.351562 315.652344 L 203.234375 315.652344 L 203.578125 316.960938 L 214.628906 316.960938 L 214.628906 314.960938 C 214.628906 314.960938 214.601562 314.855469 214.546875 314.691406 Z M 157.996094 314.691406 L 157.332031 314.691406 L 157.332031 316.960938 L 172.164062 316.960938 L 172.164062 314.691406 Z M 156.230469 293.160156 L 176.390625 293.160156 L 176.390625 284.25 L 156.230469 284.25 Z M 207.46875 284.25 L 186.46875 284.25 L 186.46875 293.160156 L 207.46875 293.160156 Z M 166.53125 91.609375 C 168.265625 91.28125 169.9375 90.773438 171.53125 90.160156 C 177.15625 88.894531 188.003906 86.480469 194.703125 85.195312 C 204.066406 83.394531 226.785156 76.644531 221.863281 76.765625 C 216.941406 76.882812 193.558594 80.660156 193.558594 80.660156 C 189.167969 81.144531 185.832031 82.925781 182.800781 83.582031 C 184.105469 82.546875 184.851562 81.835938 184.851562 81.835938 C 184.851562 81.835938 181.867188 83.332031 177.613281 84.933594 C 176.488281 85.28125 175.492188 85.640625 174.613281 85.992188 C 168.800781 87.792969 153.53125 90.011719 149.851562 93.6875 C 147.191406 96.34375 166.53125 91.609375 166.53125 91.609375 Z M 242.125 135.667969 C 241.773438 141.804688 223.089844 153.234375 217.945312 152.007812 C 216.902344 151.761719 216.214844 151.207031 215.808594 150.445312 C 212.300781 148.023438 206.71875 142.359375 203.214844 138.660156 C 202.425781 145.859375 201.511719 152.238281 201.511719 152.238281 L 173.292969 152.238281 C 173.292969 152.238281 171.296875 143.890625 169.671875 135.160156 C 167.71875 137.265625 164.078125 141.109375 160.613281 144.363281 C 163.640625 146.238281 168.671875 149.734375 170.148438 153.039062 C 172.316406 157.875 171.109375 162.789062 165.03125 163.746094 C 158.949219 164.707031 143.808594 148.890625 143.914062 143.609375 C 141.554688 139.046875 165.058594 118.472656 168.808594 115.230469 C 168.964844 115.089844 169.132812 114.945312 169.3125 114.800781 L 169.3125 114.796875 C 171.027344 113.378906 173.816406 111.636719 176.476562 110.089844 C 176.96875 109.804688 177.472656 109.558594 177.988281 109.335938 L 177.214844 108.90625 L 178.96875 105.984375 C 178.96875 105.984375 183.511719 107.25 184.542969 107.332031 C 184.839844 107.355469 185.125 107.683594 185.386719 108.140625 C 185.394531 108.15625 185.40625 108.175781 185.414062 108.1875 C 185.453125 108.257812 185.488281 108.332031 185.527344 108.402344 C 185.542969 108.4375 185.5625 108.472656 185.578125 108.507812 C 185.617188 108.585938 185.652344 108.664062 185.6875 108.746094 C 185.703125 108.78125 185.71875 108.816406 185.734375 108.851562 C 185.769531 108.9375 185.804688 109.019531 185.839844 109.105469 C 185.851562 109.140625 185.863281 109.175781 185.878906 109.210938 C 185.914062 109.296875 185.945312 109.382812 185.976562 109.472656 C 185.988281 109.507812 186 109.539062 186.011719 109.570312 C 186.042969 109.660156 186.074219 109.746094 186.101562 109.832031 C 186.113281 109.863281 186.121094 109.890625 186.132812 109.921875 C 186.160156 110.007812 186.191406 110.09375 186.214844 110.179688 C 186.222656 110.203125 186.230469 110.226562 186.238281 110.253906 C 186.265625 110.339844 186.289062 110.421875 186.3125 110.5 C 186.320312 110.515625 186.324219 110.53125 186.328125 110.546875 C 186.355469 110.632812 186.378906 110.714844 186.398438 110.792969 C 186.90625 110.746094 187.316406 110.667969 187.59375 110.59375 L 188.023438 106.320312 C 188.023438 106.320312 189.980469 106.234375 190.667969 107.101562 C 191.359375 107.96875 191.78125 109.40625 191.78125 109.40625 L 190.730469 109.378906 C 190.730469 109.378906 190.664062 109.464844 190.550781 109.605469 C 190.644531 109.648438 190.738281 109.691406 190.828125 109.738281 C 195.167969 111.980469 199.324219 114.175781 201.808594 116.453125 L 201.816406 116.417969 C 201.816406 116.417969 214.640625 127.367188 222.125 135.972656 C 224.582031 133.421875 229.140625 129.148438 232.738281 128.394531 C 237.929688 127.308594 242.480469 129.53125 242.125 135.667969 "/>
<g clip-path="url(#clip2)" clip-rule="nonzero">
<path style=" stroke:none;fill-rule:nonzero;fill:rgb(25.878906%,59.21936%,85.099792%);fill-opacity:1;" d="M 199.109375 137.308594 L 198.449219 134.84375 C 198.085938 133.503906 197.117188 132.414062 195.835938 131.890625 L 195.113281 131.84375 C 194.03125 131.777344 192.96875 132.011719 192.03125 132.503906 L 189.558594 130.273438 C 189.105469 129.863281 188.40625 129.910156 188.011719 130.378906 C 187.628906 130.832031 187.683594 131.511719 188.140625 131.894531 L 190.027344 134.019531 L 190.996094 134.019531 C 191.457031 134.386719 191.667969 135.015625 191.46875 135.617188 L 190.660156 138.019531 C 190.527344 138.433594 190.667969 138.890625 191.015625 139.152344 C 191.496094 139.519531 192.191406 139.390625 192.507812 138.875 L 194.058594 136.355469 L 194.378906 139.789062 C 194.433594 140.378906 194.929688 140.828125 195.523438 140.828125 C 196.1875 140.828125 196.714844 140.265625 196.667969 139.601562 L 196.460938 136.632812 L 197.511719 138.070312 C 197.800781 138.472656 198.359375 138.5625 198.761719 138.277344 C 199.066406 138.058594 199.207031 137.671875 199.109375 137.308594 Z M 201.511719 152.238281 C 201.511719 152.238281 210.949219 203.703125 204.710938 284.25 L 188.710938 284.25 L 185.667969 190.882812 L 174.234375 284.25 L 158.234375 284.25 C 157.53125 203.703125 173.292969 152.242188 173.292969 152.238281 L 169.3125 136.257812 L 171.121094 134.640625 C 174.648438 131.492188 176.394531 126.800781 175.753906 122.121094 C 175.472656 120.0625 175.042969 118.105469 174.433594 116.628906 C 173.824219 115.160156 173.0625 113.757812 172.140625 112.753906 L 175.222656 110.832031 C 175.222656 110.832031 179.148438 114.421875 180.050781 123.871094 L 196.808594 123.871094 C 196.808594 123.871094 197.550781 116.5625 195.707031 112.4375 L 200.410156 115.378906 C 200.636719 116.714844 200.96875 118.226562 201.105469 120.085938 C 201.308594 122.796875 202.125 125.433594 203.402344 127.835938 L 205.734375 132.234375 Z M 80.730469 101.285156 L 80.734375 101.285156 L 78.832031 102.511719 C 83.761719 106.070312 89.132812 104.398438 89.132812 104.398438 C 89.132812 104.398438 91.621094 99.363281 88.871094 93.941406 L 87.359375 95.628906 C 84.742188 97.863281 79.566406 89.285156 79.566406 89.285156 C 78.703125 90.816406 77.324219 91.996094 75.671875 92.605469 C 75.671875 92.605469 83.347656 99.054688 80.730469 101.285156 Z M 295.273438 240.667969 C 289.660156 238.949219 284.464844 237.023438 280.640625 235.246094 C 278.257812 234.140625 276.660156 233.226562 275.609375 232.375 L 272.109375 253.4375 C 293.828125 263.46875 309.589844 246.960938 309.589844 246.960938 L 309.304688 247.898438 C 309.390625 247.871094 309.476562 247.851562 309.5625 247.84375 C 310.300781 247.792969 310.71875 248.546875 310.5 249.535156 C 310.285156 250.527344 309.511719 251.371094 308.777344 251.425781 C 308.578125 251.441406 308.40625 251.394531 308.261719 251.300781 L 307.902344 252.46875 C 307.902344 252.46875 290.660156 266.992188 271.546875 256.835938 L 268.863281 272.980469 C 268.925781 272.984375 268.992188 273.007812 269.042969 273.054688 C 269.785156 273.734375 270.984375 274.433594 272.925781 275.328125 C 275.675781 276.59375 279.410156 277.96875 283.441406 279.207031 C 289.546875 281.078125 295.070312 282.242188 297.847656 282.242188 C 298.066406 282.242188 298.4375 282.242188 298.84375 282.175781 C 298.90625 282.167969 298.960938 282.183594 299.011719 282.207031 L 316.203125 244.8125 C 315.820312 244.84375 315.480469 244.847656 315.25 244.847656 C 311.34375 244.847656 303.6875 243.246094 295.273438 240.667969 Z M 276.09375 229.464844 L 275.714844 231.746094 C 275.765625 231.753906 275.816406 231.769531 275.859375 231.808594 C 276.859375 232.652344 278.460938 233.574219 280.894531 234.703125 C 284.691406 236.46875 289.859375 238.382812 295.449219 240.09375 C 303.808594 242.65625 311.398438 244.246094 315.25 244.246094 C 315.5 244.246094 315.878906 244.246094 316.289062 244.203125 C 316.355469 244.199219 316.410156 244.214844 316.464844 244.246094 L 317.4375 242.128906 Z M 283.265625 279.78125 C 279.207031 278.535156 275.449219 277.148438 272.675781 275.871094 C 270.769531 274.996094 269.554688 274.289062 268.757812 273.597656 L 268.582031 274.65625 C 268.242188 275.765625 274.617188 278.699219 282.824219 281.214844 C 291.03125 283.730469 297.957031 284.867188 298.296875 283.757812 L 298.742188 282.792969 C 298.371094 282.835938 298.050781 282.839844 297.847656 282.839844 C 295.015625 282.839844 289.425781 281.667969 283.265625 279.78125 Z M 132.90625 251.640625 C 132.738281 251.367188 132.621094 251.082031 132.523438 250.800781 L 128.816406 254.714844 L 131.542969 256.894531 L 133.898438 252.730469 C 133.527344 252.453125 133.183594 252.089844 132.90625 251.640625 Z M 103.914062 253.832031 C 103.910156 253.832031 103.90625 253.832031 103.902344 253.835938 L 87.917969 255.929688 C 87.902344 255.933594 87.890625 255.933594 87.878906 255.933594 C 87.730469 255.933594 87.601562 255.824219 87.578125 255.671875 C 87.578125 255.660156 87.582031 255.648438 87.582031 255.636719 L 69.679688 257.941406 L 69.863281 260.414062 L 104.3125 255.972656 Z M 103.742188 253.25 C 103.0625 251.265625 99.09375 240.726562 91.710938 241.679688 L 87.964844 255.320312 Z M 104.417969 256.558594 C 104.414062 256.5625 104.410156 256.5625 104.402344 256.566406 L 69.921875 261.007812 C 69.917969 261.007812 69.910156 261.007812 69.90625 261.007812 L 70.234375 265.421875 L 105.222656 260.914062 Z M 131.207031 257.390625 L 128.425781 255.167969 C 128.417969 255.164062 128.414062 255.152344 128.410156 255.148438 L 108.121094 276.597656 L 105.332031 261.5 C 105.324219 261.5 105.320312 261.503906 105.316406 261.503906 L 70.296875 266.019531 C 70.289062 266.019531 70.285156 266.019531 70.277344 266.019531 L 72.84375 300.503906 L 111.613281 295.507812 L 111.136719 292.941406 L 131.253906 257.40625 C 131.238281 257.398438 131.21875 257.402344 131.207031 257.390625 Z M 209.925781 76.425781 C 205.335938 76.851562 194.425781 79.5625 194.425781 79.5625 C 194.425781 79.5625 190.34375 71.007812 188.347656 70.132812 C 186.34375 69.25 177.414062 69.652344 174.398438 71.410156 C 171.386719 73.167969 173.386719 83.050781 173.386719 83.050781 C 173.386719 83.050781 172.347656 84.410156 167.46875 85.902344 C 162.585938 87.390625 152.890625 89.335938 149.851562 93.6875 C 149.851562 93.6875 175.914062 85.632812 184.851562 83.554688 C 193.785156 81.480469 220.738281 76.398438 222.902344 76.761719 C 222.902344 76.761719 221.765625 75.339844 209.925781 76.425781 Z M 173.027344 99.398438 C 173.015625 98.765625 173.121094 98.289062 173.277344 97.933594 C 173.429688 97.582031 173.632812 97.347656 173.808594 97.195312 C 173.894531 97.324219 173.972656 97.457031 174.066406 97.585938 C 174.234375 97.808594 174.417969 98.019531 174.601562 98.230469 C 175.230469 98.949219 175.945312 99.589844 176.730469 100.132812 C 177.109375 100.398438 177.507812 100.632812 177.917969 100.847656 C 177.75 101.097656 177.554688 101.304688 177.425781 101.425781 C 177.339844 101.507812 177.28125 101.558594 177.28125 101.558594 C 175.558594 102.25 173.027344 99.398438 173.027344 99.398438 "/>
</g>
<path style=" stroke:none;fill-rule:nonzero;fill:rgb(97.648621%,82.348633%,56.858826%);fill-opacity:1;" d="M 245.625 120.832031 C 245.226562 120.574219 241.425781 118.65625 240.929688 118.835938 C 240.425781 119.015625 237.289062 120.253906 237.167969 120.554688 C 237.046875 120.851562 237.085938 121.3125 237.425781 121.414062 C 237.765625 121.511719 237.765625 121.511719 237.765625 121.511719 C 237.765625 121.511719 237.464844 122.613281 238.507812 122.890625 C 238.507812 122.890625 238.144531 124.1875 238.988281 124.488281 C 238.988281 124.488281 238.726562 125.347656 239.007812 125.625 C 239.289062 125.90625 239.566406 126.007812 239.566406 126.007812 C 239.566406 126.007812 238.1875 127.203125 238.167969 127.824219 C 238.144531 128.441406 238.246094 129.425781 238.246094 129.425781 L 236.488281 130.324219 C 236.488281 130.324219 235.128906 135.054688 240.347656 133.875 L 245.277344 127.742188 C 245.675781 127.246094 245.894531 126.636719 245.902344 126 C 245.925781 124.3125 245.925781 121.023438 245.625 120.832031 Z M 195.132812 88.074219 C 195.125 87.199219 195.113281 86.410156 195.050781 85.695312 C 192.582031 85.417969 190.195312 84.394531 188.234375 82.808594 L 185.816406 83.335938 C 185.351562 84.488281 184.679688 85.554688 183.824219 86.453125 C 182.238281 88.121094 180.046875 89.207031 177.753906 89.460938 C 178.617188 90.929688 178.675781 92.660156 178.121094 94.269531 C 177.601562 93.171875 177.132812 92.546875 175.582031 92.65625 C 175.425781 92.695312 175.273438 92.765625 175.128906 92.867188 C 173.828125 93.773438 175.304688 96.933594 176.992188 98.421875 C 177.832031 99.167969 178.96875 98.125 178.96875 98.125 L 179.320312 106.082031 C 180.398438 106.375 183.683594 107.261719 184.542969 107.332031 C 185.359375 107.394531 186.113281 109.777344 186.398438 110.792969 C 186.90625 110.746094 187.316406 110.667969 187.59375 110.59375 L 188.023438 106.320312 L 188.023438 103.867188 C 188.023438 103.867188 191.207031 104.859375 194.113281 102.085938 C 196.277344 100.023438 195.917969 93.824219 195.421875 91.179688 C 195.230469 90.15625 195.136719 89.117188 195.132812 88.074219 Z M 179.671875 161.988281 C 179.910156 163.386719 179.109375 163.027344 178.230469 162.507812 C 177.351562 161.988281 174.929688 159.90625 174.929688 159.90625 C 174.929688 159.90625 175.871094 161.710938 176.511719 162.585938 C 177.152344 163.46875 177.03125 166.261719 176.992188 166.824219 C 176.949219 167.382812 176.828125 167.542969 176.269531 167.542969 C 175.710938 167.542969 175.59375 164.230469 174.929688 163.789062 C 174.269531 163.347656 172.667969 162.195312 172.667969 162.195312 C 172.667969 162.195312 173.347656 164.785156 173.871094 165.304688 C 174.390625 165.824219 174.914062 166.542969 174.929688 167.382812 C 174.949219 168.21875 174.226562 168.140625 173.871094 167.980469 C 173.511719 167.824219 173.511719 167.824219 173.511719 167.824219 C 173.511719 167.824219 173.269531 168.019531 172.3125 167.863281 C 171.351562 167.703125 171.230469 165.703125 170.472656 164.90625 C 169.710938 164.105469 166.511719 164.101562 166.589844 162.464844 C 166.671875 160.828125 168.710938 157.234375 170.148438 157.996094 C 170.148438 157.996094 172.589844 156.632812 173.628906 156.875 C 174.671875 157.113281 179.429688 160.589844 179.671875 161.988281 "/>
<g clip-path="url(#clip3)" clip-rule="nonzero">
<path style=" stroke:none;fill-rule:nonzero;fill:rgb(22.349548%,22.749329%,24.708557%);fill-opacity:1;" d="M 132.738281 110.808594 C 133.488281 111.253906 136.445312 112.847656 138.726562 111.90625 C 141.011719 110.964844 141.980469 107.75 142.199219 106.90625 C 141.449219 106.464844 138.492188 104.871094 136.207031 105.8125 C 133.921875 106.753906 132.953125 109.96875 132.738281 110.808594 Z M 132.226562 111.203125 L 132.058594 111.089844 L 132.097656 110.890625 C 132.136719 110.710938 133.066406 106.460938 135.980469 105.257812 C 138.894531 104.054688 142.550781 106.414062 142.707031 106.515625 L 142.878906 106.628906 L 142.835938 106.828125 C 142.796875 107.007812 141.871094 111.257812 138.953125 112.460938 C 138.367188 112.703125 137.746094 112.800781 137.132812 112.800781 C 134.707031 112.800781 132.351562 111.28125 132.226562 111.203125 Z M 274.164062 241.085938 L 274.871094 236.824219 C 268.738281 241.300781 266.605469 244.660156 266.21875 247.066406 C 266.277344 247.792969 266.578125 249.925781 268.066406 251.214844 C 265.765625 247.273438 274.164062 241.085938 274.164062 241.085938 Z M 288.886719 228.710938 L 276.683594 228.710938 L 276.683594 229.019531 C 278.285156 228.523438 282.898438 229.117188 288.886719 230.542969 Z M 260.085938 228.710938 L 247.886719 228.710938 L 247.886719 289.320312 L 260.085938 289.320312 Z M 247.285156 228.710938 L 243.347656 228.710938 L 243.347656 289.320312 L 247.285156 289.320312 Z M 240.769531 228.710938 L 231.886719 228.710938 L 231.886719 289.320312 L 240.769531 289.320312 Z M 231.289062 228.710938 L 219.085938 228.710938 L 219.085938 289.320312 L 231.289062 289.320312 Z M 231.289062 200.699219 L 225.1875 192.167969 L 219.085938 200.699219 L 219.085938 217.945312 L 231.289062 217.945312 Z M 247.886719 217.945312 L 260.085938 217.945312 L 260.085938 200.699219 L 253.988281 192.167969 L 247.886719 200.699219 Z M 276.683594 217.945312 L 288.886719 217.945312 L 288.886719 200.699219 L 282.785156 192.167969 L 276.683594 200.699219 Z M 317.4375 242.128906 C 316.953125 243.710938 307.304688 242.160156 295.886719 238.660156 C 284.46875 235.164062 275.609375 231.046875 276.09375 229.464844 L 276.085938 229.515625 L 276.085938 228.710938 L 260.6875 228.710938 L 260.6875 289.320312 L 276.085938 289.320312 L 276.085938 278.90625 C 276.28125 278.980469 276.484375 279.058594 276.683594 279.132812 L 276.683594 289.320312 L 281.019531 289.320312 C 280.863281 289.519531 280.710938 289.722656 280.554688 289.921875 L 243.347656 289.921875 L 243.347656 317.984375 L 240.769531 317.984375 L 240.769531 289.921875 L 207.46875 289.921875 L 207.46875 289.320312 L 218.488281 289.320312 L 218.488281 228.710938 L 206.839844 228.710938 C 206.835938 228.511719 206.835938 228.3125 206.835938 228.113281 L 240.769531 228.113281 L 240.769531 218.542969 L 206.742188 218.542969 C 206.738281 218.34375 206.738281 218.144531 206.730469 217.945312 L 218.488281 217.945312 L 218.488281 216.726562 L 206.429688 206.847656 C 206.421875 206.578125 206.410156 206.316406 206.398438 206.046875 L 218.488281 215.949219 L 218.488281 200.507812 L 225.1875 191.136719 L 231.886719 200.507812 L 231.886719 217.945312 L 240.769531 217.945312 L 240.769531 177.171875 C 238.390625 177.859375 235.863281 178.699219 232.96875 179.734375 C 228.996094 181.15625 223.738281 181.09375 218.171875 181.027344 C 213.925781 180.980469 209.445312 180.929688 204.957031 181.464844 C 204.9375 181.261719 204.921875 181.0625 204.902344 180.863281 C 209.421875 180.332031 213.917969 180.378906 218.179688 180.429688 C 223.929688 180.496094 228.894531 180.554688 232.765625 179.167969 C 235.742188 178.105469 238.332031 177.25 240.769531 176.550781 L 240.769531 128.023438 C 240.507812 127.882812 240.273438 127.691406 240.097656 127.445312 C 239.863281 127.128906 239.730469 126.726562 239.765625 126.339844 C 239.679688 126.285156 239.597656 126.234375 239.519531 126.171875 C 239.46875 126.128906 239.460938 126.058594 239.503906 126.007812 C 239.53125 125.972656 239.574219 125.957031 239.617188 125.964844 L 240.410156 126.113281 C 240.671875 126.15625 240.925781 126.199219 241.183594 126.226562 C 241.441406 126.261719 241.699219 126.277344 241.960938 126.300781 L 242.761719 126.347656 C 242.839844 126.351562 242.898438 126.417969 242.890625 126.496094 C 242.890625 126.550781 242.855469 126.59375 242.808594 126.613281 C 242.546875 126.738281 242.261719 126.796875 241.972656 126.832031 C 241.683594 126.867188 241.394531 126.855469 241.105469 126.820312 C 240.820312 126.777344 240.535156 126.714844 240.269531 126.601562 C 240.226562 126.585938 240.1875 126.5625 240.144531 126.542969 C 240.355469 127.070312 240.8125 127.449219 241.34375 127.632812 C 241.976562 127.859375 242.691406 127.765625 243.347656 127.398438 C 243.402344 127.363281 243.472656 127.382812 243.503906 127.4375 C 243.527344 127.480469 243.523438 127.535156 243.492188 127.570312 C 243.449219 127.625 243.394531 127.671875 243.347656 127.71875 L 243.347656 175.855469 C 248.917969 174.457031 254.101562 173.859375 261.972656 173.453125 C 268.976562 173.09375 272.136719 169.816406 276.136719 165.660156 C 279.269531 162.410156 282.820312 158.722656 289.039062 155.273438 C 293.273438 152.917969 297.160156 152.410156 300.585938 153.753906 C 305.253906 155.585938 307.761719 160.308594 308.714844 162.519531 C 308.707031 162.960938 308.699219 163.398438 308.691406 163.835938 L 308.597656 163.867188 C 308.574219 163.796875 306.152344 156.582031 300.363281 154.308594 C 297.113281 153.035156 293.402344 153.535156 289.332031 155.796875 C 283.191406 159.203125 279.671875 162.855469 276.566406 166.078125 C 272.476562 170.324219 269.242188 173.683594 262 174.050781 C 254.113281 174.457031 248.9375 175.0625 243.347656 176.476562 L 243.347656 217.945312 L 247.285156 217.945312 L 247.285156 200.507812 L 253.988281 191.136719 L 260.6875 200.507812 L 260.6875 217.945312 L 276.085938 217.945312 L 276.085938 200.507812 L 282.785156 191.136719 L 289.484375 200.507812 L 289.484375 217.945312 L 305.191406 217.945312 C 305.164062 218.144531 305.136719 218.34375 305.113281 218.542969 L 243.347656 218.542969 L 243.347656 228.113281 L 303.707031 228.113281 C 303.675781 228.3125 303.640625 228.511719 303.609375 228.710938 L 289.484375 228.710938 L 289.484375 230.683594 C 292.015625 231.296875 294.773438 232.054688 297.644531 232.933594 C 309.0625 236.433594 317.921875 240.546875 317.4375 242.128906 Z M 110.34375 103.265625 C 110.136719 104.066406 109.25 107.003906 107.207031 108.105469 C 107.269531 108.296875 107.328125 108.484375 107.386719 108.675781 C 110.074219 107.324219 110.941406 103.363281 110.980469 103.191406 L 111.023438 102.988281 L 110.851562 102.875 C 110.703125 102.78125 107.289062 100.585938 104.429688 101.519531 C 104.519531 101.695312 104.605469 101.875 104.695312 102.058594 C 106.921875 101.390625 109.632812 102.847656 110.34375 103.265625 Z M 98.714844 135.921875 C 98.597656 138.382812 101.09375 140.628906 101.761719 141.1875 C 102.484375 140.699219 105.1875 138.703125 105.308594 136.242188 C 105.429688 133.777344 102.929688 131.527344 102.261719 130.972656 C 101.539062 131.460938 98.835938 133.457031 98.714844 135.921875 Z M 98.117188 135.890625 C 98.269531 132.742188 101.964844 130.445312 102.121094 130.347656 L 102.296875 130.238281 L 102.460938 130.363281 C 102.605469 130.476562 106.0625 133.121094 105.90625 136.269531 C 105.753906 139.414062 102.0625 141.71875 101.902344 141.8125 L 101.726562 141.921875 L 101.5625 141.796875 C 101.417969 141.683594 97.964844 139.039062 98.117188 135.890625 Z M 153.414062 142.980469 C 154.632812 143.007812 155.835938 143.148438 157.007812 143.429688 C 158.183594 143.691406 159.316406 144.113281 160.398438 144.628906 L 160.40625 144.632812 C 160.441406 144.648438 160.484375 144.660156 160.523438 144.660156 C 160.683594 144.664062 160.8125 144.539062 160.816406 144.378906 C 160.816406 144.304688 160.8125 144.230469 160.808594 144.152344 C 160.917969 143.910156 160.976562 143.644531 160.996094 143.378906 C 161.023438 143.007812 160.964844 142.640625 160.871094 142.289062 C 160.765625 141.945312 160.617188 141.609375 160.417969 141.308594 C 160.21875 141.011719 159.988281 140.722656 159.664062 140.523438 C 159.625 140.503906 159.578125 140.503906 159.539062 140.53125 C 159.488281 140.566406 159.472656 140.636719 159.507812 140.6875 L 159.515625 140.699219 C 159.695312 140.964844 159.84375 141.253906 159.972656 141.546875 C 160.097656 141.847656 160.210938 142.148438 160.292969 142.453125 C 160.328125 142.574219 160.355469 142.699219 160.378906 142.820312 C 160.203125 142.554688 159.984375 142.320312 159.734375 142.125 C 159.0625 141.589844 158.160156 141.398438 157.355469 141.59375 C 157.289062 141.613281 157.242188 141.675781 157.25 141.742188 C 157.261719 141.816406 157.328125 141.871094 157.402344 141.863281 C 158.140625 141.789062 158.890625 142.035156 159.421875 142.5 C 159.839844 142.871094 160.109375 143.367188 160.203125 143.898438 C 159.21875 143.441406 158.179688 143.113281 157.121094 142.898438 C 155.894531 142.667969 154.636719 142.605469 153.402344 142.75 C 153.347656 142.757812 153.300781 142.804688 153.300781 142.863281 C 153.300781 142.921875 153.347656 142.976562 153.414062 142.980469 Z M 195.132812 88.074219 C 195.136719 88.582031 195.160156 89.097656 195.207031 89.605469 C 195.464844 88.78125 195.628906 87.929688 195.65625 87.054688 C 195.667969 86.613281 195.640625 86.175781 195.582031 85.738281 C 195.652344 85.742188 195.726562 85.75 195.800781 85.753906 C 195.789062 84.546875 195.175781 83.285156 194.304688 82.277344 C 194.164062 82.0625 194.011719 81.851562 193.855469 81.648438 C 191.804688 82.058594 189.894531 82.453125 188.234375 82.808594 C 190.195312 84.394531 192.582031 85.417969 195.050781 85.695312 C 195.113281 86.410156 195.125 87.199219 195.132812 88.074219 Z M 68.527344 86.527344 L 74.472656 91.839844 C 75.011719 92.320312 75.640625 92.648438 76.261719 92.773438 L 76.800781 92.878906 C 76.800781 92.878906 78.195312 93.160156 78.230469 91.65625 C 79.71875 91.859375 79.660156 90.4375 79.660156 90.4375 L 79.636719 89.890625 C 79.613281 89.253906 79.382812 88.585938 78.992188 87.976562 L 74.667969 81.285156 C 74.152344 80.492188 73.398438 79.867188 72.585938 79.5625 C 71.667969 79.214844 70.769531 79.3125 70.171875 79.828125 L 68.976562 80.84375 L 67.785156 81.863281 C 67.183594 82.378906 66.949219 83.242188 67.144531 84.203125 C 67.320312 85.054688 67.820312 85.894531 68.527344 86.527344 Z M 196.445312 136.703125 C 196.492188 136.710938 196.539062 136.679688 196.542969 136.632812 C 196.65625 136.054688 196.667969 135.476562 196.683594 134.898438 C 196.671875 134.320312 196.667969 133.742188 196.5625 133.164062 C 196.554688 133.121094 196.519531 133.089844 196.480469 133.082031 C 196.421875 133.070312 196.367188 133.109375 196.355469 133.164062 C 196.25 133.742188 196.246094 134.320312 196.234375 134.898438 C 196.253906 135.476562 196.261719 136.054688 196.375 136.632812 C 196.378906 136.667969 196.40625 136.695312 196.445312 136.703125 Z M 199.046875 134.019531 C 199.050781 133.890625 198.945312 133.785156 198.816406 133.785156 C 198.542969 133.78125 198.269531 133.78125 197.996094 133.78125 C 198.085938 133.933594 198.167969 134.09375 198.238281 134.257812 C 198.320312 134.445312 198.390625 134.640625 198.449219 134.84375 L 198.582031 135.347656 L 198.996094 136.894531 C 199.015625 135.9375 199.035156 134.980469 199.046875 134.019531 Z M 174.066406 97.585938 C 174.234375 97.808594 174.417969 98.019531 174.601562 98.230469 C 175.230469 98.949219 175.945312 99.589844 176.730469 100.132812 C 177.109375 100.398438 177.507812 100.632812 177.917969 100.847656 C 178.304688 101.050781 178.707031 101.226562 179.113281 101.390625 L 178.96875 98.125 C 178.96875 98.125 177.832031 99.167969 176.992188 98.421875 C 175.304688 96.933594 173.828125 93.773438 175.128906 92.867188 C 175.273438 92.765625 175.425781 92.695312 175.582031 92.65625 C 177.132812 92.546875 177.601562 93.171875 178.121094 94.269531 C 178.675781 92.660156 178.617188 90.929688 177.753906 89.460938 C 180.046875 89.207031 182.238281 88.121094 183.824219 86.453125 C 184.679688 85.554688 185.351562 84.488281 185.816406 83.335938 C 185.476562 83.414062 185.152344 83.484375 184.851562 83.554688 C 182.011719 84.214844 177.4375 85.480469 172.523438 86.898438 C 172.308594 87.449219 172.140625 88.023438 172.027344 88.601562 C 171.449219 91.550781 172.121094 94.710938 173.808594 97.195312 C 173.894531 97.324219 173.972656 97.457031 174.066406 97.585938 Z M 188.132812 98.636719 C 188.710938 98.730469 189.304688 98.730469 189.886719 98.664062 C 190.46875 98.585938 191.042969 98.441406 191.582031 98.210938 C 192.121094 97.984375 192.628906 97.6875 193.066406 97.304688 C 193.113281 97.261719 193.128906 97.195312 193.097656 97.136719 C 193.0625 97.070312 192.980469 97.042969 192.914062 97.078125 C 192.417969 97.332031 191.914062 97.550781 191.394531 97.714844 C 190.878906 97.875 190.347656 98 189.8125 98.066406 C 189.273438 98.140625 188.730469 98.15625 188.183594 98.132812 C 187.640625 98.105469 187.097656 98.023438 186.550781 97.90625 C 186.5 97.894531 186.449219 97.917969 186.421875 97.964844 C 186.394531 98.019531 186.417969 98.089844 186.472656 98.117188 C 186.988281 98.382812 187.554688 98.546875 188.132812 98.636719 Z M 176.8125 95.367188 C 176.964844 95.335938 177.15625 95.460938 177.386719 95.695312 L 177.390625 95.699219 C 177.480469 95.789062 177.613281 95.8125 177.726562 95.753906 C 177.867188 95.683594 177.921875 95.511719 177.847656 95.371094 C 177.464844 94.617188 176.777344 94.035156 175.996094 93.804688 C 175.949219 93.789062 175.890625 93.8125 175.863281 93.859375 C 175.832031 93.914062 175.851562 93.980469 175.902344 94.015625 C 176.25 94.222656 176.546875 94.484375 176.796875 94.777344 C 176.765625 94.78125 176.738281 94.777344 176.710938 94.785156 C 176.460938 94.8125 176.191406 95.058594 176.15625 95.320312 C 176.113281 95.574219 176.191406 95.769531 176.265625 95.9375 C 176.535156 96.589844 177.046875 97.125 177.679688 97.394531 C 177.738281 97.421875 177.8125 97.398438 177.847656 97.339844 C 177.886719 97.273438 177.867188 97.191406 177.800781 97.15625 C 177.273438 96.839844 176.871094 96.34375 176.691406 95.78125 C 176.660156 95.648438 176.660156 95.511719 176.695312 95.449219 C 176.722656 95.390625 176.742188 95.390625 176.8125 95.367188 Z M 184.523438 88.386719 C 184.246094 88.503906 183.988281 88.667969 183.777344 88.878906 C 183.5625 89.085938 183.386719 89.320312 183.273438 89.605469 C 183.261719 89.644531 183.265625 89.6875 183.292969 89.722656 C 183.332031 89.769531 183.402344 89.78125 183.457031 89.742188 L 183.46875 89.730469 C 183.671875 89.570312 183.878906 89.40625 184.09375 89.273438 C 184.308594 89.144531 184.523438 89.023438 184.753906 88.9375 C 184.976562 88.84375 185.210938 88.777344 185.457031 88.726562 C 185.703125 88.671875 185.957031 88.660156 186.226562 88.625 L 186.238281 88.625 C 186.289062 88.617188 186.332031 88.582031 186.347656 88.535156 C 186.378906 88.464844 186.34375 88.386719 186.273438 88.355469 C 186.003906 88.25 185.703125 88.191406 185.40625 88.199219 C 185.105469 88.195312 184.804688 88.273438 184.523438 88.386719 Z M 176.390625 289.921875 L 186.46875 289.921875 L 186.46875 289.320312 L 176.390625 289.320312 Z M 177.425781 101.425781 C 177.339844 101.507812 177.28125 101.558594 177.28125 101.558594 C 175.558594 102.25 173.027344 99.398438 173.027344 99.398438 C 173.015625 98.765625 173.121094 98.289062 173.277344 97.933594 C 168.980469 98.039062 165.125 107.613281 159.476562 105.054688 C 164.917969 116.046875 180.09375 108.535156 177.425781 101.425781 Z M 208.570312 309.429688 C 203.679688 308.765625 202.640625 308.46875 202.121094 306.839844 C 201.601562 305.207031 202.601562 293.160156 202.601562 293.160156 L 190.578125 293.160156 C 190.578125 293.160156 191.371094 303.433594 191.46875 307.382812 C 191.542969 310.371094 190.996094 312.734375 190.722656 314.90625 C 190.707031 315.042969 190.679688 315.304688 190.679688 315.304688 L 190.683594 315.304688 C 190.707031 315.101562 190.726562 314.898438 190.753906 314.691406 L 214.546875 314.691406 C 214.601562 314.855469 214.628906 314.960938 214.628906 314.960938 C 214.628906 314.960938 213.46875 310.097656 208.570312 309.429688 Z M 69.925781 163.570312 C 71.691406 160.960938 70.113281 156.90625 70.042969 156.734375 L 69.96875 156.546875 L 69.761719 156.546875 C 69.648438 156.546875 67.910156 156.570312 66.191406 157.21875 C 66.113281 157.46875 66.042969 157.71875 65.96875 157.964844 C 67.402344 157.324219 68.996094 157.183594 69.558594 157.152344 C 69.839844 157.976562 70.8125 161.1875 69.429688 163.234375 C 68.054688 165.261719 64.75 165.578125 63.851562 165.625 C 63.800781 165.832031 63.746094 166.03125 63.695312 166.234375 C 64.292969 166.222656 68.257812 166.035156 69.925781 163.570312 Z M 309.5625 247.84375 C 308.828125 247.898438 308.054688 248.746094 307.839844 249.734375 C 307.621094 250.726562 308.042969 251.480469 308.777344 251.425781 C 309.511719 251.371094 310.285156 250.527344 310.5 249.535156 C 310.71875 248.546875 310.300781 247.792969 309.5625 247.84375 Z M 311.347656 249.472656 C 310.992188 251.089844 309.730469 252.472656 308.527344 252.5625 C 307.324219 252.652344 306.636719 251.414062 306.992188 249.796875 C 307.347656 248.183594 308.609375 246.796875 309.8125 246.707031 C 311.015625 246.617188 311.703125 247.855469 311.347656 249.472656 Z M 170.085938 293.160156 L 159.480469 293.160156 C 159.480469 293.160156 161.039062 301.542969 159.925781 306.875 C 159.289062 309.933594 158.53125 312.800781 157.996094 314.691406 L 171.980469 314.691406 C 171.609375 312 170.71875 308.996094 170.085938 306.328125 C 169.269531 302.878906 170.085938 293.160156 170.085938 293.160156 Z M 186.546875 217.945312 L 182.355469 217.945312 L 182.28125 218.542969 L 186.566406 218.542969 L 186.5625 218.398438 L 186.882812 228.113281 L 181.109375 228.113281 L 181.035156 228.710938 L 186.898438 228.710938 L 187.984375 262 L 189.976562 188.074219 L 185.667969 190.882812 Z M 75.09375 217.945312 L 87.296875 217.945312 L 87.296875 200.699219 L 81.195312 192.167969 L 75.09375 200.699219 Z M 103.894531 217.945312 L 116.09375 217.945312 L 116.09375 200.699219 L 109.996094 192.167969 L 103.894531 200.699219 Z M 132.691406 217.945312 L 144.894531 217.945312 L 144.894531 200.699219 L 138.792969 192.167969 L 132.691406 200.699219 Z M 58.867188 218.542969 C 58.839844 218.34375 58.8125 218.144531 58.789062 217.945312 L 74.496094 217.945312 L 74.496094 200.507812 L 81.195312 191.136719 L 87.894531 200.507812 L 87.894531 217.945312 L 103.292969 217.945312 L 103.292969 200.507812 L 109.996094 191.136719 L 116.695312 200.507812 L 116.695312 217.945312 L 132.09375 217.945312 L 132.09375 200.507812 L 138.792969 191.136719 L 145.492188 200.507812 L 145.492188 217.945312 L 160.890625 217.945312 L 160.890625 200.507812 L 164.265625 195.785156 C 164.199219 196.21875 164.136719 196.65625 164.070312 197.089844 L 161.492188 200.699219 L 161.492188 217.253906 C 161.445312 217.683594 161.398438 218.109375 161.351562 218.542969 Z M 165.164062 162.527344 C 165.230469 162.53125 165.285156 162.484375 165.289062 162.417969 C 165.335938 161.851562 165.433594 161.300781 165.609375 160.777344 C 165.785156 160.253906 166.019531 159.753906 166.324219 159.304688 C 166.625 158.847656 166.992188 158.4375 167.40625 158.070312 C 167.820312 157.707031 168.289062 157.40625 168.789062 157.140625 C 168.84375 157.113281 168.875 157.050781 168.859375 156.988281 C 168.84375 156.914062 168.769531 156.871094 168.695312 156.886719 C 168.113281 157.027344 167.5625 157.300781 167.074219 157.65625 C 166.582031 158.011719 166.160156 158.464844 165.820312 158.972656 C 165.492188 159.484375 165.246094 160.050781 165.117188 160.644531 C 164.988281 161.234375 164.957031 161.84375 165.058594 162.429688 C 165.070312 162.480469 165.113281 162.523438 165.164062 162.527344 Z M 112.085938 172.144531 C 121.78125 177.257812 131.804688 182.546875 138.851562 181.117188 C 141.550781 180.570312 144.105469 179.941406 146.578125 179.335938 C 154.027344 177.503906 160.648438 175.875 167.402344 177.496094 C 167.441406 177.296875 167.480469 177.101562 167.519531 176.902344 C 160.648438 175.257812 153.957031 176.902344 146.433594 178.753906 C 143.96875 179.359375 141.417969 179.988281 138.734375 180.53125 C 131.898438 181.917969 121.96875 176.679688 112.367188 171.613281 C 108.277344 169.457031 104.304688 167.359375 100.679688 165.832031 C 102.832031 163.847656 115 153.074219 124.695312 153.621094 C 129.941406 153.917969 134.699219 156.9375 139.300781 159.859375 C 144.179688 162.953125 149.222656 166.15625 154.945312 166.234375 C 155.660156 166.242188 156.398438 166.246094 157.160156 166.25 C 160.773438 166.273438 165 166.304688 169.597656 166.910156 C 169.640625 166.714844 169.6875 166.515625 169.730469 166.320312 C 165.082031 165.707031 160.8125 165.675781 157.164062 165.652344 C 156.402344 165.648438 155.667969 165.644531 154.957031 165.632812 C 149.402344 165.558594 144.429688 162.402344 139.621094 159.351562 C 134.957031 156.390625 130.128906 153.328125 124.730469 153.023438 C 114.292969 152.4375 101.585938 164.144531 100.066406 165.585938 C 96.683594 164.207031 93.625 163.359375 91.101562 163.488281 C 81.691406 163.964844 66.109375 177.667969 60.269531 183.113281 C 60.21875 183.433594 60.171875 183.757812 60.121094 184.082031 C 65.410156 179.132812 81.726562 164.5625 91.128906 164.089844 C 96.320312 163.828125 103.976562 167.863281 112.085938 172.144531 Z M 145.492188 228.710938 L 160.375 228.710938 C 160.390625 228.511719 160.410156 228.3125 160.425781 228.113281 L 61.015625 228.113281 C 61.078125 228.3125 61.136719 228.511719 61.199219 228.710938 L 74.496094 228.710938 L 74.496094 252.824219 C 74.695312 253.066406 74.894531 253.3125 75.09375 253.558594 L 75.09375 228.710938 L 87.296875 228.710938 L 87.296875 255.671875 L 87.582031 255.636719 C 87.582031 255.488281 87.6875 255.359375 87.835938 255.335938 L 87.894531 255.328125 L 87.894531 228.710938 L 103.292969 228.710938 L 103.292969 252.046875 C 103.503906 252.566406 103.652344 252.984375 103.742188 253.25 L 103.820312 253.242188 C 103.847656 253.238281 103.871094 253.242188 103.894531 253.246094 L 103.894531 228.710938 L 116.09375 228.710938 L 116.09375 268.167969 L 116.695312 267.535156 L 116.695312 228.710938 L 132.09375 228.710938 L 132.09375 251.257812 L 132.523438 250.800781 C 132.222656 249.894531 132.28125 248.992188 132.691406 248.390625 L 132.691406 228.710938 L 144.894531 228.710938 L 144.894531 289.320312 L 132.691406 289.320312 L 132.691406 254.863281 L 132.09375 255.921875 L 132.09375 289.320312 L 125.152344 289.320312 C 125.59375 289.519531 126.035156 289.722656 126.480469 289.921875 L 156.230469 289.921875 L 156.230469 289.320312 L 145.492188 289.320312 Z M 116.09375 284.929688 C 116.292969 285.03125 116.492188 285.132812 116.695312 285.238281 L 116.695312 283.128906 L 116.09375 284.1875 Z M 108.121094 276.597656 L 111.128906 292.960938 L 115.265625 285.648438 L 109.449219 275.1875 Z M 60.027344 281.5625 C 57.8125 278.6875 57.265625 275.207031 58.398438 271.21875 C 59.492188 267.359375 61.207031 264.964844 63.484375 264.105469 C 66.652344 262.910156 70.046875 265.039062 70.105469 265.078125 C 70.105469 265.078125 70.109375 265.082031 70.109375 265.082031 L 70.199219 264.941406 L 70.195312 264.933594 L 70.003906 262.335938 C 68.367188 261.617188 65.53125 260.78125 62.65625 261.855469 C 59.617188 262.996094 57.40625 265.921875 56.089844 270.566406 C 54.757812 275.253906 55.460938 279.566406 58.125 283.023438 C 61.703125 287.667969 68.046875 289.886719 72.078125 290.1875 L 71.894531 287.769531 C 68.421875 287.414062 63.019531 285.445312 60.027344 281.5625 Z M 174.292969 284.25 L 174.292969 283.777344 L 174.234375 284.25 Z M 239.925781 124.699219 C 240.265625 124.691406 240.605469 124.652344 240.941406 124.601562 C 241.273438 124.542969 241.609375 124.480469 241.9375 124.378906 C 242.265625 124.28125 242.585938 124.175781 242.898438 124.019531 C 242.945312 123.996094 242.976562 123.949219 242.972656 123.890625 C 242.96875 123.816406 242.90625 123.757812 242.828125 123.757812 C 242.488281 123.773438 242.15625 123.816406 241.828125 123.863281 C 241.496094 123.898438 241.167969 123.957031 240.84375 124.007812 C 240.515625 124.070312 240.191406 124.121094 239.863281 124.195312 C 239.539062 124.265625 239.210938 124.328125 238.882812 124.429688 C 238.839844 124.441406 238.808594 124.476562 238.800781 124.523438 C 238.789062 124.585938 238.835938 124.648438 238.902344 124.65625 C 239.242188 124.703125 239.582031 124.707031 239.925781 124.699219 Z M 239.199219 132.492188 C 239.269531 132.464844 239.308594 132.382812 239.28125 132.3125 C 239.132812 131.925781 238.988281 131.550781 238.878906 131.164062 C 238.765625 130.78125 238.667969 130.394531 238.601562 130 C 238.527344 129.605469 238.484375 129.210938 238.457031 128.808594 C 238.429688 128.40625 238.433594 128.003906 238.4375 127.589844 C 238.441406 127.539062 238.414062 127.496094 238.367188 127.476562 C 238.304688 127.453125 238.238281 127.484375 238.214844 127.542969 C 238.0625 127.945312 237.980469 128.371094 237.949219 128.804688 C 237.910156 129.238281 237.941406 129.671875 238.011719 130.101562 C 238.074219 130.46875 238.179688 130.832031 238.316406 131.183594 C 238.308594 131.179688 238.296875 131.171875 238.285156 131.171875 C 238.15625 131.175781 238.050781 131.222656 237.953125 131.277344 C 237.847656 131.328125 237.765625 131.40625 237.6875 131.488281 C 237.617188 131.574219 237.554688 131.667969 237.511719 131.773438 C 237.472656 131.882812 237.441406 131.996094 237.449219 132.125 C 237.449219 132.136719 237.453125 132.152344 237.460938 132.164062 C 237.488281 132.234375 237.570312 132.269531 237.640625 132.242188 L 237.648438 132.238281 C 237.757812 132.191406 237.839844 132.132812 237.921875 132.078125 C 238.003906 132.019531 238.066406 131.953125 238.132812 131.890625 C 238.191406 131.820312 238.257812 131.753906 238.304688 131.671875 C 238.351562 131.601562 238.390625 131.527344 238.425781 131.441406 C 238.589844 131.800781 238.789062 132.148438 239.046875 132.449219 C 239.082031 132.496094 239.144531 132.515625 239.199219 132.492188 Z M 239.179688 122.835938 C 239.417969 122.769531 239.652344 122.683594 239.878906 122.59375 C 240.109375 122.5 240.335938 122.402344 240.554688 122.277344 C 240.769531 122.160156 240.988281 122.035156 241.1875 121.875 C 241.222656 121.847656 241.246094 121.800781 241.238281 121.75 C 241.230469 121.671875 241.160156 121.617188 241.082031 121.625 C 240.828125 121.652344 240.589844 121.71875 240.347656 121.789062 C 240.109375 121.859375 239.878906 121.949219 239.652344 122.042969 C 239.425781 122.140625 239.199219 122.242188 238.984375 122.367188 C 238.765625 122.488281 238.554688 122.617188 238.351562 122.78125 C 238.324219 122.804688 238.304688 122.84375 238.308594 122.886719 C 238.316406 122.949219 238.375 122.996094 238.441406 122.992188 C 238.695312 122.964844 238.9375 122.902344 239.179688 122.835938 Z M 243.222656 125.410156 C 243.285156 125.449219 243.351562 125.488281 243.429688 125.503906 C 243.507812 125.527344 243.589844 125.539062 243.691406 125.519531 C 243.695312 125.519531 243.699219 125.519531 243.703125 125.519531 C 243.804688 125.496094 243.863281 125.394531 243.839844 125.292969 C 243.816406 125.195312 243.769531 125.125 243.722656 125.0625 C 243.675781 124.996094 243.613281 124.953125 243.550781 124.90625 C 243.484375 124.871094 243.417969 124.835938 243.335938 124.824219 C 243.253906 124.808594 243.171875 124.792969 243.066406 124.8125 C 243.066406 124.8125 243.066406 124.8125 243.0625 124.8125 C 242.980469 124.835938 242.925781 124.917969 242.945312 125.007812 C 242.96875 125.109375 243.007812 125.179688 243.058594 125.246094 C 243.101562 125.316406 243.160156 125.363281 243.222656 125.410156 Z M 217.121094 138.101562 C 217.847656 137.433594 218.683594 136.9375 219.585938 136.589844 C 220.03125 136.410156 220.496094 136.277344 220.96875 136.164062 C 221.210938 136.109375 221.457031 136.0625 221.707031 136.027344 C 221.261719 136.277344 220.84375 136.582031 220.464844 136.921875 C 219.890625 137.429688 219.40625 138.035156 219.007812 138.6875 C 218.613281 139.34375 218.308594 140.058594 218.125 140.800781 C 217.9375 141.542969 217.859375 142.3125 217.929688 143.066406 C 217.9375 143.132812 217.984375 143.183594 218.054688 143.191406 C 218.128906 143.199219 218.195312 143.144531 218.203125 143.066406 C 218.273438 142.34375 218.410156 141.628906 218.636719 140.945312 C 218.859375 140.269531 219.152344 139.609375 219.519531 138.996094 C 219.882812 138.378906 220.324219 137.808594 220.816406 137.285156 C 221.300781 136.773438 221.847656 136.324219 222.4375 135.925781 C 222.492188 135.914062 222.535156 135.875 222.542969 135.820312 C 222.554688 135.746094 222.507812 135.675781 222.433594 135.660156 C 221.921875 135.574219 221.394531 135.578125 220.878906 135.640625 C 220.359375 135.703125 219.851562 135.839844 219.363281 136.03125 C 218.878906 136.230469 218.410156 136.480469 217.996094 136.808594 C 217.582031 137.128906 217.210938 137.511719 216.941406 137.960938 C 216.917969 138 216.917969 138.058594 216.957031 138.097656 C 217 138.144531 217.074219 138.148438 217.121094 138.101562 Z M 242.898438 122.429688 C 243.015625 122.4375 243.136719 122.425781 243.253906 122.367188 C 243.269531 122.359375 243.28125 122.347656 243.296875 122.332031 C 243.359375 122.269531 243.355469 122.167969 243.289062 122.105469 L 243.28125 122.097656 C 243.195312 122.015625 243.117188 121.96875 243.042969 121.917969 C 242.972656 121.867188 242.898438 121.835938 242.824219 121.796875 C 242.746094 121.765625 242.671875 121.730469 242.582031 121.707031 C 242.496094 121.679688 242.410156 121.648438 242.292969 121.632812 L 242.28125 121.628906 C 242.265625 121.628906 242.253906 121.628906 242.238281 121.632812 C 242.164062 121.644531 242.113281 121.714844 242.125 121.789062 C 242.144531 121.917969 242.207031 122.019531 242.285156 122.113281 C 242.359375 122.207031 242.457031 122.277344 242.558594 122.335938 C 242.664062 122.382812 242.78125 122.425781 242.898438 122.429688 Z M 270.9375 100.078125 C 271.6875 100.519531 274.644531 102.113281 276.925781 101.167969 C 279.210938 100.226562 280.179688 97.015625 280.398438 96.171875 C 279.648438 95.730469 276.6875 94.136719 274.40625 95.078125 C 272.121094 96.019531 271.152344 99.234375 270.9375 100.078125 Z M 270.425781 100.46875 L 270.257812 100.355469 L 270.296875 100.15625 C 270.335938 99.972656 271.265625 95.722656 274.179688 94.523438 C 277.09375 93.320312 280.75 95.679688 280.90625 95.78125 L 281.078125 95.894531 L 281.035156 96.09375 C 280.996094 96.273438 280.070312 100.523438 277.15625 101.722656 C 276.566406 101.96875 275.945312 102.066406 275.328125 102.066406 C 272.902344 102.066406 270.550781 100.546875 270.425781 100.46875 Z M 301.847656 119.644531 L 302.050781 119.644531 C 302.199219 119.640625 305.058594 119.605469 307.085938 118.222656 C 307.042969 118.007812 307 117.789062 306.953125 117.574219 C 305.359375 118.785156 302.96875 119 302.253906 119.035156 C 301.972656 118.210938 301.003906 115 302.382812 112.953125 C 303.046875 111.972656 304.164062 111.394531 305.238281 111.050781 C 305.179688 110.859375 305.117188 110.667969 305.054688 110.476562 C 303.878906 110.851562 302.644531 111.5 301.886719 112.617188 C 300.125 115.226562 301.703125 119.28125 301.769531 119.453125 Z M 270.71875 138.304688 C 271.59375 138.257812 274.9375 137.953125 276.320312 135.910156 C 277.703125 133.863281 276.734375 130.652344 276.449219 129.828125 C 275.582031 129.875 272.230469 130.179688 270.851562 132.222656 C 269.464844 134.269531 270.4375 137.480469 270.71875 138.304688 Z M 270.234375 138.71875 C 270.167969 138.550781 268.585938 134.496094 270.355469 131.886719 C 272.121094 129.273438 276.472656 129.222656 276.65625 129.222656 L 276.859375 129.21875 L 276.933594 129.410156 C 277.003906 129.582031 278.582031 133.632812 276.816406 136.246094 C 275.054688 138.855469 270.699219 138.910156 270.515625 138.910156 L 270.308594 138.914062 Z M 276.449219 181.261719 C 275.582031 181.308594 272.230469 181.613281 270.851562 183.65625 C 269.464844 185.703125 270.4375 188.914062 270.71875 189.738281 C 271.59375 189.691406 274.9375 189.386719 276.320312 187.34375 C 277.703125 185.296875 276.734375 182.085938 276.449219 181.261719 Z M 276.859375 180.652344 L 276.933594 180.84375 C 277.003906 181.015625 278.582031 185.070312 276.816406 187.679688 C 275.054688 190.289062 270.699219 190.34375 270.515625 190.34375 L 270.308594 190.34375 L 270.234375 190.152344 C 270.167969 189.984375 268.585938 185.929688 270.355469 183.320312 C 272.121094 180.707031 276.472656 180.65625 276.65625 180.65625 Z M 240.769531 114.015625 L 240.769531 118.894531 C 240.835938 118.867188 240.890625 118.847656 240.929688 118.835938 C 241.050781 118.789062 241.382812 118.875 241.8125 119.035156 C 241.683594 119.03125 241.554688 119.039062 241.429688 119.054688 C 240.894531 119.109375 240.394531 119.296875 239.933594 119.550781 C 239.484375 119.8125 239.078125 120.117188 238.695312 120.4375 L 237.578125 121.402344 C 237.539062 121.433594 237.523438 121.488281 237.546875 121.535156 C 237.570312 121.59375 237.640625 121.625 237.699219 121.597656 C 238.164062 121.394531 238.589844 121.117188 239 120.84375 C 239.417969 120.578125 239.808594 120.296875 240.226562 120.074219 C 240.632812 119.847656 241.070312 119.679688 241.515625 119.574219 C 241.960938 119.480469 242.421875 119.472656 242.875 119.59375 C 242.929688 119.609375 242.992188 119.585938 243.023438 119.539062 C 243.128906 119.585938 243.238281 119.632812 243.347656 119.683594 L 243.347656 114.015625 C 252.066406 113.355469 258.953125 106.066406 258.953125 97.191406 L 258.953125 85.628906 C 258.953125 82.253906 258.683594 78.882812 258.144531 75.554688 L 258.03125 74.871094 C 257.976562 74.53125 257.496094 74.527344 257.433594 74.863281 C 256.730469 78.65625 256.378906 82.503906 256.378906 86.359375 L 256.378906 97.191406 C 256.378906 104.640625 250.640625 110.78125 243.347656 111.433594 L 243.347656 85.628906 C 243.347656 82.253906 243.078125 78.882812 242.535156 75.554688 L 242.425781 74.871094 C 242.371094 74.53125 241.890625 74.527344 241.828125 74.863281 C 241.121094 78.65625 240.769531 82.5 240.769531 86.359375 L 240.769531 111.433594 C 233.476562 110.78125 227.742188 104.640625 227.742188 97.191406 L 227.738281 97.191406 L 227.738281 85.632812 C 227.738281 82.257812 227.46875 78.890625 226.929688 75.558594 L 226.816406 74.871094 C 226.761719 74.535156 226.28125 74.53125 226.21875 74.863281 C 225.515625 78.65625 225.164062 82.503906 225.164062 86.359375 L 225.164062 97.191406 L 225.160156 97.191406 C 225.160156 106.066406 232.050781 113.355469 240.769531 114.015625 Z M 235.667969 129.613281 C 235.695312 129.566406 235.6875 129.507812 235.644531 129.46875 C 235.601562 129.425781 235.527344 129.429688 235.484375 129.476562 C 234.945312 130.074219 234.613281 130.855469 234.496094 131.667969 C 234.378906 132.480469 234.503906 133.332031 234.839844 134.09375 C 235.199219 134.847656 235.765625 135.496094 236.457031 135.9375 C 237.148438 136.382812 237.964844 136.640625 238.773438 136.621094 C 238.835938 136.621094 238.894531 136.574219 238.90625 136.503906 C 238.917969 136.433594 238.867188 136.363281 238.789062 136.351562 C 238.046875 136.230469 237.347656 135.9375 236.757812 135.5 C 236.171875 135.066406 235.675781 134.503906 235.382812 133.84375 C 235.0625 133.195312 234.953125 132.449219 235 131.71875 C 235.046875 130.988281 235.273438 130.257812 235.667969 129.613281 Z M 181.800781 111.261719 C 182.089844 111.332031 182.394531 111.390625 182.722656 111.386719 C 183.042969 111.375 183.40625 111.292969 183.679688 111.078125 C 184.238281 110.644531 184.414062 110.023438 184.542969 109.472656 C 184.558594 109.410156 184.53125 109.34375 184.472656 109.316406 C 184.402344 109.285156 184.320312 109.3125 184.289062 109.378906 C 184.035156 109.882812 183.78125 110.398438 183.378906 110.640625 C 182.996094 110.875 182.472656 110.816406 181.945312 110.679688 C 181.40625 110.558594 180.878906 110.375 180.347656 110.183594 C 179.816406 109.996094 179.292969 109.777344 178.746094 109.59375 C 178.699219 109.578125 178.640625 109.59375 178.613281 109.636719 C 178.578125 109.691406 178.59375 109.761719 178.644531 109.796875 C 179.125 110.113281 179.628906 110.398438 180.152344 110.652344 C 180.671875 110.910156 181.226562 111.117188 181.800781 111.261719 Z M 187.554688 148.125 C 188.164062 148.640625 188.796875 149.128906 189.449219 149.589844 C 190.097656 150.058594 190.78125 150.476562 191.472656 150.875 C 191.539062 150.914062 191.628906 150.914062 191.703125 150.871094 C 192.941406 150.113281 194.171875 149.332031 195.375 148.507812 C 196.570312 147.671875 197.757812 146.804688 198.789062 145.753906 C 198.835938 145.699219 198.835938 145.613281 198.785156 145.5625 C 198.730469 145.507812 198.644531 145.507812 198.59375 145.5625 C 197.566406 146.566406 196.375 147.402344 195.171875 148.203125 C 194 148.976562 192.792969 149.691406 191.585938 150.414062 C 190.953125 150.03125 190.328125 149.636719 189.734375 149.195312 C 189.101562 148.730469 188.488281 148.242188 187.894531 147.726562 C 186.742188 146.71875 185.632812 145.632812 184.636719 144.484375 L 184.753906 134.3125 C 186.921875 134.304688 189.089844 134.300781 191.253906 134.296875 C 191.058594 134.03125 190.785156 133.824219 190.4375 133.742188 C 188.445312 133.734375 186.453125 133.730469 184.460938 133.722656 C 184.300781 133.722656 184.171875 133.851562 184.167969 134.015625 L 184.070312 144.585938 L 184.070312 144.59375 C 184.070312 144.65625 184.09375 144.71875 184.136719 144.773438 C 185.1875 145.988281 186.332031 147.097656 187.554688 148.125 Z M 190.324219 99.761719 C 190.492188 99.726562 190.65625 99.683594 190.804688 99.597656 C 190.953125 99.519531 191.09375 99.425781 191.207031 99.289062 C 191.230469 99.261719 191.242188 99.226562 191.238281 99.191406 C 191.238281 99.109375 191.167969 99.042969 191.085938 99.046875 L 191.082031 99.046875 C 190.917969 99.050781 190.773438 99.078125 190.632812 99.097656 C 190.488281 99.117188 190.355469 99.148438 190.214844 99.171875 C 190.082031 99.203125 189.941406 99.222656 189.800781 99.265625 C 189.660156 99.296875 189.515625 99.328125 189.359375 99.382812 L 189.355469 99.386719 C 189.332031 99.394531 189.308594 99.414062 189.289062 99.4375 C 189.253906 99.496094 189.273438 99.574219 189.335938 99.609375 C 189.484375 99.703125 189.652344 99.746094 189.816406 99.769531 C 189.988281 99.796875 190.15625 99.785156 190.324219 99.761719 Z M 185.933594 91.199219 C 185.902344 90.714844 185.566406 90.34375 185.183594 90.367188 C 184.800781 90.394531 184.515625 90.804688 184.546875 91.292969 C 184.578125 91.777344 184.914062 92.152344 185.296875 92.125 C 185.679688 92.101562 185.96875 91.6875 185.933594 91.199219 Z M 188.007812 110.371094 C 188.0625 109.957031 188.105469 109.542969 188.113281 109.125 C 188.117188 108.707031 188.105469 108.285156 188.03125 107.867188 C 188.019531 107.820312 187.984375 107.78125 187.933594 107.773438 C 187.871094 107.761719 187.8125 107.804688 187.800781 107.871094 L 187.414062 110.285156 C 187.359375 110.691406 187.296875 111.09375 187.257812 111.503906 C 187.25 111.59375 187.246094 111.675781 187.234375 111.761719 C 187.179688 111.621094 187.128906 111.480469 187.070312 111.339844 C 186.863281 110.859375 186.652344 110.382812 186.414062 109.921875 C 186.175781 109.453125 185.929688 108.996094 185.640625 108.554688 C 185.617188 108.511719 185.5625 108.492188 185.511719 108.507812 C 185.449219 108.523438 185.417969 108.589844 185.433594 108.652344 C 185.585938 109.152344 185.769531 109.636719 185.949219 110.125 C 186.125 110.609375 186.324219 111.089844 186.515625 111.570312 C 186.710938 112.046875 186.90625 112.523438 187.121094 112.996094 C 187.332031 113.46875 187.542969 113.941406 187.785156 114.40625 C 187.8125 114.460938 187.871094 114.488281 187.933594 114.476562 C 188.007812 114.460938 188.054688 114.390625 188.039062 114.316406 C 187.929688 113.800781 187.777344 113.300781 187.617188 112.804688 C 187.589844 112.71875 187.554688 112.632812 187.527344 112.546875 C 187.621094 112.230469 187.707031 111.914062 187.785156 111.59375 C 187.878906 111.1875 187.949219 110.78125 188.007812 110.371094 Z M 190.859375 95.273438 L 190.855469 95.273438 C 190.796875 95.289062 190.753906 95.34375 190.753906 95.40625 C 190.757812 95.484375 190.820312 95.542969 190.894531 95.542969 C 191.257812 95.535156 191.613281 95.34375 191.851562 95.050781 C 192.089844 94.75 192.183594 94.328125 192.105469 93.949219 C 192.03125 93.570312 191.78125 93.199219 191.421875 93.011719 C 191.171875 92.867188 190.875 92.808594 190.585938 92.835938 C 190.519531 92.5 190.449219 92.160156 190.371094 91.824219 C 190.273438 91.386719 190.160156 90.957031 190.03125 90.527344 C 190.015625 90.476562 189.96875 90.445312 189.917969 90.445312 C 189.851562 90.449219 189.800781 90.5 189.804688 90.566406 C 189.820312 91.015625 189.855469 91.457031 189.90625 91.902344 C 189.949219 92.347656 190.003906 92.789062 190.070312 93.226562 C 190.074219 93.242188 190.074219 93.257812 190.082031 93.269531 C 190.128906 93.421875 190.289062 93.507812 190.441406 93.460938 L 190.449219 93.457031 C 190.667969 93.386719 190.929688 93.421875 191.136719 93.53125 C 191.34375 93.644531 191.496094 93.835938 191.5625 94.074219 C 191.628906 94.3125 191.613281 94.570312 191.476562 94.789062 C 191.347656 95.011719 191.125 95.191406 190.859375 95.273438 Z M 193.960938 136.328125 L 193.960938 136.332031 C 193.960938 136.371094 193.980469 136.410156 194.019531 136.429688 C 194.070312 136.453125 194.128906 136.433594 194.15625 136.382812 C 194.386719 135.929688 194.476562 135.4375 194.511719 134.9375 C 194.507812 134.683594 194.507812 134.429688 194.445312 134.175781 C 194.390625 133.925781 194.296875 133.675781 194.136719 133.46875 C 194.117188 133.445312 194.082031 133.433594 194.046875 133.4375 C 194 133.449219 193.972656 133.496094 193.980469 133.542969 L 193.984375 133.546875 C 194.078125 134.003906 194.097656 134.449219 194.0625 134.917969 C 194.054688 135.378906 193.976562 135.84375 193.960938 136.328125 Z M 193.460938 88.277344 L 193.460938 88.28125 C 193.507812 88.304688 193.5625 88.308594 193.609375 88.28125 C 193.671875 88.238281 193.695312 88.15625 193.65625 88.089844 C 193.484375 87.804688 193.222656 87.582031 192.929688 87.421875 C 192.636719 87.25 192.296875 87.164062 191.957031 87.144531 C 191.613281 87.132812 191.269531 87.191406 190.960938 87.332031 C 190.65625 87.46875 190.378906 87.667969 190.183594 87.933594 C 190.15625 87.96875 190.152344 88.015625 190.175781 88.058594 C 190.203125 88.117188 190.273438 88.136719 190.332031 88.105469 C 190.597656 87.976562 190.859375 87.871094 191.125 87.8125 C 191.394531 87.753906 191.664062 87.726562 191.925781 87.742188 C 192.191406 87.753906 192.449219 87.816406 192.707031 87.898438 C 192.964844 87.988281 193.210938 88.121094 193.460938 88.277344 Z M 192.507812 90.550781 C 192.472656 90.066406 192.136719 89.691406 191.753906 89.71875 C 191.371094 89.742188 191.085938 90.15625 191.117188 90.640625 C 191.148438 91.125 191.488281 91.5 191.867188 91.476562 C 192.253906 91.449219 192.535156 91.035156 192.507812 90.550781 Z M 215.109375 171.246094 C 215.980469 171.203125 219.328125 170.898438 220.710938 168.855469 C 222.09375 166.804688 221.125 163.59375 220.839844 162.773438 C 219.96875 162.816406 216.621094 163.121094 215.238281 165.164062 C 213.855469 167.214844 214.828125 170.425781 215.109375 171.246094 Z M 214.621094 171.667969 C 214.554688 171.492188 212.976562 167.441406 214.742188 164.832031 C 216.507812 162.21875 220.863281 162.167969 221.042969 162.167969 L 221.25 162.164062 L 221.324219 162.355469 C 221.394531 162.527344 222.972656 166.578125 221.207031 169.191406 C 219.441406 171.800781 215.089844 171.855469 214.902344 171.855469 L 214.699219 171.855469 Z M 181.453125 101.214844 C 180.84375 100.753906 180.285156 100.226562 179.78125 99.640625 C 179.746094 99.597656 179.6875 99.585938 179.636719 99.613281 C 179.582031 99.644531 179.566406 99.714844 179.59375 99.773438 C 179.992188 100.460938 180.527344 101.074219 181.128906 101.605469 C 181.734375 102.136719 182.425781 102.566406 183.140625 102.925781 C 183.871094 103.265625 184.632812 103.53125 185.414062 103.699219 C 186.195312 103.867188 186.988281 103.957031 187.78125 103.945312 C 187.847656 103.945312 187.902344 103.898438 187.914062 103.832031 C 187.925781 103.757812 187.878906 103.6875 187.800781 103.675781 C 187.035156 103.542969 186.277344 103.394531 185.539062 103.183594 C 184.804688 102.976562 184.082031 102.726562 183.398438 102.386719 C 182.707031 102.074219 182.0625 101.667969 181.453125 101.214844 Z M 198.816406 125.917969 C 199.476562 125.917969 200.015625 125.382812 200.015625 124.722656 C 200.015625 124.058594 199.476562 123.523438 198.816406 123.523438 C 198.152344 123.523438 197.617188 124.058594 197.617188 124.722656 C 197.617188 125.382812 198.152344 125.917969 198.816406 125.917969 Z M 177.214844 124.722656 C 177.214844 125.382812 177.753906 125.917969 178.417969 125.917969 C 179.078125 125.917969 179.617188 125.382812 179.617188 124.722656 C 179.617188 124.058594 179.078125 123.523438 178.417969 123.523438 C 177.753906 123.523438 177.214844 124.058594 177.214844 124.722656 Z M 198.847656 144.660156 C 198.847656 144.722656 198.792969 144.773438 198.730469 144.773438 C 198.667969 144.773438 198.617188 144.71875 198.617188 144.660156 C 198.605469 142.5625 198.59375 140.46875 198.589844 138.371094 C 198.648438 138.347656 198.707031 138.316406 198.761719 138.277344 C 198.851562 138.214844 198.921875 138.136719 198.980469 138.046875 C 198.941406 140.25 198.894531 142.457031 198.847656 144.660156 "/>
</g>
</g>
</svg>
