<?xml version="1.0" encoding="UTF-8"?>
<svg xmlns="http://www.w3.org/2000/svg" xmlns:xlink="http://www.w3.org/1999/xlink" width="112.5pt" height="112.499997pt" viewBox="0 0 112.5 112.499997" version="1.2">
<defs>
<clipPath id="clip1">
  <path d="M 15.199219 15.199219 L 96.597656 15.199219 L 96.597656 96.597656 L 15.199219 96.597656 Z M 15.199219 15.199219 "/>
</clipPath>
</defs>
<g id="surface1">
<g clip-path="url(#clip1)" clip-rule="nonzero">
<path style=" stroke:none;fill-rule:evenodd;fill:rgb(0%,58.81958%,53.329468%);fill-opacity:1;" d="M 55.902344 96.601562 C 78.316406 96.601562 96.601562 78.316406 96.601562 55.902344 C 96.601562 33.480469 78.316406 15.199219 55.902344 15.199219 C 33.480469 15.199219 15.199219 33.480469 15.199219 55.902344 C 15.199219 78.316406 33.480469 96.601562 55.902344 96.601562 "/>
</g>
<path style=" stroke:none;fill-rule:nonzero;fill:rgb(100%,100%,99.609375%);fill-opacity:1;" d="M 56.699219 36.460938 L 66.589844 53.59375 L 76.484375 70.726562 L 77.285156 72.113281 L 34.515625 72.113281 L 35.316406 70.726562 L 45.210938 53.59375 L 55.101562 36.460938 L 55.902344 35.078125 L 56.699219 36.460938 "/>
<path style=" stroke:none;fill-rule:nonzero;fill:rgb(100%,100%,99.609375%);fill-opacity:1;" d="M 33.640625 73.945312 L 78.160156 73.945312 L 78.160156 76.722656 L 33.640625 76.722656 L 33.640625 73.945312 "/>
</g>
</svg>
