<?xml version="1.0" encoding="UTF-8"?>
<svg xmlns="http://www.w3.org/2000/svg" xmlns:xlink="http://www.w3.org/1999/xlink" width="112.5pt" height="112.499997pt" viewBox="0 0 112.5 112.499997" version="1.2">
<defs>
<clipPath id="clip1">
  <path d="M 0 0 L 112.003906 0 L 112.003906 112.003906 L 0 112.003906 Z M 0 0 "/>
</clipPath>
<clipPath id="clip2">
  <path d="M 0 0 L 112.003906 0 L 112.003906 112.003906 L 0 112.003906 Z M 0 0 "/>
</clipPath>
<clipPath id="clip3">
  <path d="M 0 0 L 112.003906 0 L 112.003906 112.003906 L 0 112.003906 Z M 0 0 "/>
</clipPath>
</defs>
<g id="surface1">
<g clip-path="url(#clip1)" clip-rule="nonzero">
<path style=" stroke:none;fill-rule:nonzero;fill:rgb(30.589294%,66.668701%,89.019775%);fill-opacity:1;" d="M 112.507812 56.261719 C 112.507812 25.195312 87.324219 0.0117188 56.261719 0.0117188 C 25.195312 0.0117188 0.0117188 25.195312 0.0117188 56.261719 C 0.0117188 87.324219 25.195312 112.507812 56.261719 112.507812 C 87.324219 112.507812 112.507812 87.324219 112.507812 56.261719 "/>
</g>
<path style=" stroke:none;fill-rule:nonzero;fill:rgb(100%,100%,100%);fill-opacity:1;" d="M 70.210938 44.488281 C 69.855469 45.3125 69.46875 45.96875 69.035156 46.5 C 68.277344 47.433594 67.1875 48.195312 65.804688 48.769531 C 64.371094 49.363281 62.855469 49.664062 61.300781 49.664062 C 60.191406 49.664062 59.089844 49.511719 58.015625 49.203125 C 58.464844 44.902344 59.097656 42.183594 64.066406 40.871094 C 66.808594 40.144531 69.054688 39.128906 70.773438 37.847656 C 68.457031 41.109375 66.804688 42.898438 62.832031 45.359375 C 62.640625 45.480469 62.582031 45.730469 62.699219 45.921875 C 62.777344 46.046875 62.910156 46.117188 63.046875 46.117188 C 63.121094 46.117188 63.195312 46.097656 63.261719 46.054688 C 67.195312 43.617188 68.980469 41.738281 71.210938 38.636719 C 71.273438 40.398438 71.078125 42.5 70.210938 44.488281 Z M 46.816406 47.761719 C 45.085938 46.863281 43.761719 45.753906 42.875 44.457031 C 42.371094 43.71875 41.941406 42.820312 41.570312 41.714844 C 40.5625 38.734375 40.648438 35.671875 41.023438 33.265625 C 41.042969 33.300781 41.054688 33.335938 41.078125 33.371094 C 43.765625 37.953125 45.808594 40.625 50.808594 44.339844 C 50.882812 44.394531 50.96875 44.421875 51.054688 44.421875 C 51.179688 44.421875 51.300781 44.363281 51.382812 44.257812 C 51.515625 44.074219 51.476562 43.820312 51.296875 43.683594 C 46.429688 40.070312 44.503906 37.582031 41.863281 33.097656 C 43.910156 34.878906 46.636719 36.386719 50.007812 37.589844 C 56.351562 39.855469 56.847656 43.476562 56.949219 49.15625 C 53.515625 49.851562 49.894531 49.351562 46.816406 47.761719 Z M 71.863281 36.703125 C 71.84375 36.554688 71.738281 36.425781 71.597656 36.375 C 71.453125 36.324219 71.292969 36.355469 71.179688 36.460938 C 69.476562 38.027344 67.011719 39.246094 63.855469 40.082031 C 59.640625 41.195312 58.242188 43.453125 57.636719 46.117188 C 57.300781 42.269531 55.992188 38.859375 50.28125 36.820312 C 46.300781 35.398438 43.253906 33.558594 41.222656 31.339844 C 41.121094 31.230469 40.964844 31.183594 40.816406 31.222656 C 40.667969 31.261719 40.558594 31.378906 40.523438 31.527344 C 39.929688 34.167969 39.492188 38.125 40.796875 41.976562 C 41.195312 43.15625 41.652344 44.117188 42.199219 44.917969 C 43.164062 46.324219 44.589844 47.527344 46.441406 48.484375 C 48.71875 49.664062 51.277344 50.285156 53.851562 50.285156 C 55.054688 50.285156 56.265625 50.148438 57.449219 49.886719 C 57.449219 49.886719 57.449219 49.886719 57.453125 49.886719 C 58.703125 50.28125 60 50.480469 61.300781 50.480469 C 62.964844 50.480469 64.585938 50.160156 66.117188 49.523438 C 67.628906 48.898438 68.824219 48.054688 69.667969 47.019531 C 70.148438 46.429688 70.570312 45.707031 70.960938 44.816406 C 72.226562 41.902344 72.152344 38.796875 71.863281 36.703125 "/>
<path style=" stroke:none;fill-rule:nonzero;fill:rgb(100%,100%,100%);fill-opacity:1;" d="M 37.742188 79.835938 L 74.78125 79.835938 C 74.160156 73.875 66.089844 69.140625 56.261719 69.140625 C 46.429688 69.140625 38.359375 73.875 37.742188 79.835938 Z M 75.558594 81.3125 L 36.964844 81.3125 C 36.554688 81.3125 36.226562 80.980469 36.226562 80.574219 C 36.226562 73.457031 45.214844 67.664062 56.261719 67.664062 C 67.308594 67.664062 76.296875 73.457031 76.296875 80.574219 C 76.296875 80.980469 75.964844 81.3125 75.558594 81.3125 "/>
<path style=" stroke:none;fill-rule:nonzero;fill:rgb(100%,100%,100%);fill-opacity:1;" d="M 57.835938 69.0625 L 56.707031 68.113281 C 58.46875 66.019531 58.15625 62.894531 57.8125 61.21875 C 57.59375 60.152344 57.269531 59.074219 56.960938 58.03125 C 56.523438 56.578125 56.078125 55.074219 55.875 53.519531 C 55.597656 51.410156 56.09375 49.769531 57.269531 48.90625 L 58.144531 50.09375 C 57.171875 50.8125 57.222656 52.429688 57.339844 53.328125 C 57.527344 54.765625 57.9375 56.148438 58.375 57.609375 C 58.695312 58.683594 59.027344 59.792969 59.257812 60.921875 C 59.945312 64.269531 59.441406 67.160156 57.835938 69.0625 "/>
<g clip-path="url(#clip2)" clip-rule="nonzero">
<path style=" stroke:none;fill-rule:nonzero;fill:rgb(30.589294%,66.668701%,89.019775%);fill-opacity:1;" d="M 112.496094 56.246094 C 112.496094 87.3125 87.3125 112.496094 56.246094 112.496094 C 25.183594 112.496094 0 87.3125 0 56.246094 C 0 25.183594 25.183594 0 56.246094 0 C 87.3125 0 112.496094 25.183594 112.496094 56.246094 "/>
</g>
<path style=" stroke:none;fill-rule:nonzero;fill:rgb(100%,100%,100%);fill-opacity:1;" d="M 105.253906 75.546875 C 105.253906 75.546875 104.097656 79.011719 95.675781 79.011719 C 95.675781 79.011719 91.480469 82.394531 83.371094 83.386719 C 81.976562 83.558594 80.46875 83.660156 78.84375 83.660156 C 77.480469 83.660156 76.199219 83.585938 75.003906 83.464844 C 66.445312 82.585938 62.011719 79.011719 62.011719 79.011719 C 53.589844 79.011719 52.433594 75.546875 52.433594 75.546875 L 54.359375 64.289062 C 56.011719 56.832031 61.277344 55.179688 61.925781 54.960938 C 65.09375 53.898438 74.222656 51.054688 74.222656 51.054688 L 83.464844 51.054688 C 83.464844 51.054688 92.59375 53.898438 95.761719 54.960938 C 96.410156 55.179688 101.675781 56.832031 103.328125 64.289062 L 105.253906 75.546875 "/>
<path style=" stroke:none;fill-rule:nonzero;fill:rgb(30.589294%,66.668701%,89.019775%);fill-opacity:1;" d="M 53.039062 75.464844 C 53.335938 76.003906 55.0625 78.429688 62.011719 78.429688 L 62.214844 78.429688 L 62.375 78.558594 C 62.417969 78.59375 66.800781 82.035156 75.0625 82.882812 C 76.292969 83.011719 77.566406 83.074219 78.84375 83.074219 C 80.367188 83.074219 81.863281 82.984375 83.300781 82.808594 C 91.125 81.851562 95.269531 78.589844 95.3125 78.558594 L 95.472656 78.429688 L 95.675781 78.429688 C 102.605469 78.429688 104.339844 76.019531 104.648438 75.464844 L 102.753906 64.398438 C 101.347656 58.074219 97.289062 56.085938 95.609375 55.523438 L 95.574219 55.511719 C 92.613281 54.519531 84.308594 51.929688 83.375 51.636719 L 74.3125 51.636719 C 73.378906 51.929688 65.074219 54.519531 62.113281 55.511719 L 62.078125 55.523438 C 60.398438 56.085938 56.339844 58.074219 54.933594 64.398438 Z M 78.84375 84.242188 C 77.527344 84.242188 76.214844 84.175781 74.941406 84.042969 C 67.128906 83.242188 62.714844 80.261719 61.8125 79.59375 C 53.25 79.539062 51.933594 75.886719 51.878906 75.730469 L 51.835938 75.589844 L 51.859375 75.449219 L 53.792969 64.160156 C 55.320312 57.242188 59.839844 55.042969 61.710938 54.417969 L 61.742188 54.40625 C 64.875 53.355469 73.957031 50.523438 74.050781 50.496094 L 74.132812 50.46875 L 83.554688 50.46875 L 83.636719 50.496094 C 83.730469 50.523438 92.808594 53.355469 95.945312 54.40625 L 95.976562 54.417969 C 97.847656 55.042969 102.367188 57.242188 103.898438 64.160156 L 103.902344 64.191406 L 105.851562 75.589844 L 105.808594 75.730469 C 105.753906 75.886719 104.4375 79.539062 95.875 79.59375 C 95 80.242188 90.824219 83.0625 83.441406 83.964844 C 81.960938 84.148438 80.414062 84.242188 78.84375 84.242188 "/>
<path style=" stroke:none;fill-rule:nonzero;fill:rgb(30.589294%,66.668701%,89.019775%);fill-opacity:1;" d="M 62.011719 79.59375 C 61.6875 79.59375 61.425781 79.335938 61.425781 79.011719 C 61.425781 78.933594 61.441406 71.050781 62.578125 65.410156 C 62.644531 65.09375 62.949219 64.890625 63.265625 64.953125 C 63.582031 65.015625 63.785156 65.324219 63.722656 65.640625 C 62.609375 71.164062 62.59375 78.933594 62.59375 79.011719 C 62.59375 79.335938 62.332031 79.59375 62.011719 79.59375 "/>
<path style=" stroke:none;fill-rule:nonzero;fill:rgb(30.589294%,66.668701%,89.019775%);fill-opacity:1;" d="M 62.515625 70.027344 C 62.277344 70.027344 62.050781 69.875 61.964844 69.636719 L 60.6875 65.992188 C 60.582031 65.6875 60.742188 65.355469 61.046875 65.25 C 61.347656 65.140625 61.683594 65.300781 61.789062 65.605469 L 63.066406 69.25 C 63.171875 69.554688 63.011719 69.886719 62.710938 69.992188 C 62.644531 70.015625 62.582031 70.027344 62.515625 70.027344 "/>
<path style=" stroke:none;fill-rule:nonzero;fill:rgb(30.589294%,66.668701%,89.019775%);fill-opacity:1;" d="M 95.691406 79.59375 C 95.367188 79.59375 95.105469 79.335938 95.105469 79.011719 C 95.105469 78.933594 95.09375 71.164062 93.976562 65.640625 C 93.914062 65.324219 94.117188 65.015625 94.433594 64.953125 C 94.75 64.890625 95.058594 65.09375 95.121094 65.410156 C 96.261719 71.050781 96.273438 78.933594 96.273438 79.011719 C 96.273438 79.335938 96.011719 79.59375 95.691406 79.59375 "/>
<path style=" stroke:none;fill-rule:nonzero;fill:rgb(30.589294%,66.668701%,89.019775%);fill-opacity:1;" d="M 95.183594 70.027344 C 95.121094 70.027344 95.054688 70.015625 94.992188 69.992188 C 94.6875 69.886719 94.527344 69.554688 94.632812 69.25 L 95.914062 65.605469 C 96.019531 65.300781 96.351562 65.140625 96.65625 65.25 C 96.960938 65.355469 97.121094 65.6875 97.015625 65.992188 L 95.734375 69.636719 C 95.652344 69.875 95.425781 70.027344 95.183594 70.027344 "/>
<path style=" stroke:none;fill-rule:nonzero;fill:rgb(100%,100%,100%);fill-opacity:1;" d="M 78.84375 56.363281 C 73.191406 56.363281 73.128906 52.308594 73.128906 52.265625 L 73.128906 43.929688 L 84.558594 43.929688 L 84.558594 52.265625 C 84.558594 52.308594 84.496094 56.363281 78.84375 56.363281 "/>
<path style=" stroke:none;fill-rule:nonzero;fill:rgb(30.589294%,66.668701%,89.019775%);fill-opacity:1;" d="M 85.144531 43.34375 L 72.542969 43.34375 L 72.542969 52.265625 C 72.542969 52.394531 72.570312 53.558594 73.410156 54.710938 C 74.15625 55.730469 75.703125 56.945312 78.84375 56.945312 C 81.984375 56.945312 83.53125 55.730469 84.277344 54.710938 C 85.121094 53.558594 85.144531 52.394531 85.144531 52.265625 Z M 83.976562 44.511719 L 83.976562 52.265625 C 83.976562 52.265625 83.976562 55.777344 78.84375 55.777344 C 73.710938 55.777344 73.710938 52.265625 73.710938 52.265625 L 73.710938 44.511719 L 83.976562 44.511719 "/>
<path style=" stroke:none;fill-rule:nonzero;fill:rgb(100%,100%,100%);fill-opacity:1;" d="M 78.84375 49.273438 C 77.082031 49.273438 74.980469 48.039062 72.039062 45.269531 C 70.003906 43.351562 69.34375 40.390625 69.175781 39.40625 C 67.273438 38.453125 66.132812 36.851562 66.109375 35.074219 C 66.097656 33.855469 66.628906 32.808594 67.464844 32.410156 C 67.679688 32.3125 67.910156 32.261719 68.152344 32.261719 C 68.347656 32.261719 68.535156 32.292969 68.707031 32.34375 C 69.234375 21.785156 78.746094 21.660156 78.84375 21.660156 C 78.941406 21.660156 88.453125 21.785156 88.980469 32.34375 C 89.152344 32.292969 89.339844 32.261719 89.535156 32.261719 C 89.777344 32.261719 90.007812 32.3125 90.222656 32.410156 C 91.058594 32.808594 91.589844 33.855469 91.578125 35.074219 C 91.554688 36.851562 90.417969 38.453125 88.511719 39.40625 C 88.34375 40.390625 87.683594 43.351562 85.648438 45.269531 C 82.707031 48.039062 80.605469 49.273438 78.84375 49.273438 "/>
<path style=" stroke:none;fill-rule:nonzero;fill:rgb(30.589294%,66.668701%,89.019775%);fill-opacity:1;" d="M 78.84375 21.078125 C 78.734375 21.078125 76.109375 21.09375 73.472656 22.613281 C 71.242188 23.898438 68.617188 26.496094 68.167969 31.675781 C 68.164062 31.675781 68.160156 31.675781 68.152344 31.675781 C 67.820312 31.675781 67.507812 31.746094 67.214844 31.882812 C 66.171875 32.378906 65.511719 33.636719 65.527344 35.082031 C 65.550781 37 66.707031 38.722656 68.65625 39.789062 C 68.902344 41.039062 69.652344 43.828125 71.640625 45.695312 C 74.742188 48.613281 76.894531 49.859375 78.84375 49.859375 C 80.792969 49.859375 82.949219 48.613281 86.046875 45.695312 C 88.035156 43.828125 88.785156 41.039062 89.03125 39.789062 C 90.980469 38.722656 92.136719 37 92.160156 35.082031 C 92.175781 33.636719 91.515625 32.378906 90.472656 31.882812 C 90.183594 31.746094 89.867188 31.675781 89.535156 31.675781 C 89.527344 31.675781 89.523438 31.675781 89.519531 31.675781 C 89.070312 26.496094 86.445312 23.898438 84.214844 22.613281 C 81.578125 21.09375 78.953125 21.078125 78.84375 21.078125 Z M 78.84375 22.246094 C 78.84375 22.246094 88.417969 22.246094 88.417969 33.273438 C 88.417969 33.273438 88.957031 32.84375 89.535156 32.84375 C 89.679688 32.84375 89.828125 32.871094 89.96875 32.9375 C 91.386719 33.613281 91.828125 37.289062 87.980469 39.011719 C 87.980469 39.011719 87.542969 42.6875 85.246094 44.847656 C 82.953125 47.003906 80.710938 48.691406 78.84375 48.691406 C 76.976562 48.691406 74.734375 47.003906 72.441406 44.847656 C 70.144531 42.6875 69.707031 39.011719 69.707031 39.011719 C 65.863281 37.289062 66.300781 33.613281 67.71875 32.9375 C 67.859375 32.871094 68.007812 32.84375 68.152344 32.84375 C 68.730469 32.84375 69.269531 33.273438 69.269531 33.273438 C 69.269531 22.246094 78.84375 22.246094 78.84375 22.246094 "/>
<path style=" stroke:none;fill-rule:nonzero;fill:rgb(100%,100%,100%);fill-opacity:1;" d="M 91.449219 35.101562 C 91.449219 35.101562 90.460938 29.839844 88.417969 33.273438 C 88.417969 33.273438 87.367188 31.402344 85.75 29.683594 C 85.75 29.683594 78.359375 33.277344 71.226562 29.378906 L 69.476562 32.859375 C 69.476562 32.859375 67.328125 30.882812 66.234375 35.101562 C 66.234375 35.101562 63.058594 18.261719 78.84375 18.261719 C 94.777344 18.261719 91.449219 35.101562 91.449219 35.101562 "/>
<path style=" stroke:none;fill-rule:nonzero;fill:rgb(30.589294%,66.668701%,89.019775%);fill-opacity:1;" d="M 78.84375 18.84375 C 74.59375 18.84375 71.386719 20.109375 69.320312 22.601562 C 66.710938 25.75 66.460938 30.195312 66.585938 32.816406 C 66.933594 32.335938 67.339844 32.027344 67.800781 31.890625 C 68.332031 31.734375 68.84375 31.839844 69.242188 32.023438 L 70.976562 28.578125 L 71.503906 28.867188 C 78.28125 32.566406 85.421875 29.191406 85.492188 29.15625 L 85.878906 28.972656 L 86.171875 29.285156 C 87.191406 30.363281 87.984375 31.492188 88.453125 32.214844 C 88.816406 31.804688 89.324219 31.433594 89.953125 31.546875 C 90.441406 31.632812 90.828125 32.003906 91.128906 32.480469 C 91.234375 29.835938 90.933594 25.644531 88.453125 22.632812 C 86.386719 20.117188 83.152344 18.84375 78.84375 18.84375 Z M 91.4375 38.179688 L 90.875 35.210938 C 90.644531 33.980469 90.09375 32.757812 89.75 32.695312 C 89.667969 32.679688 89.371094 32.8125 88.921875 33.570312 L 88.40625 34.4375 L 87.910156 33.558594 C 87.902344 33.542969 86.992188 31.945312 85.601562 30.386719 C 83.972656 31.074219 77.75 33.285156 71.480469 30.171875 L 69.648438 33.8125 L 69.082031 33.289062 C 69.082031 33.289062 68.601562 32.867188 68.125 33.011719 C 67.824219 33.101562 67.25 33.515625 66.796875 35.25 L 66.144531 37.773438 L 65.660156 35.210938 C 65.597656 34.878906 64.167969 26.988281 68.421875 21.855469 C 70.722656 19.082031 74.226562 17.675781 78.84375 17.675781 C 83.523438 17.675781 87.0625 19.09375 89.359375 21.894531 C 93.578125 27.027344 92.085938 34.882812 92.019531 35.214844 L 91.4375 38.179688 "/>
<path style=" stroke:none;fill-rule:nonzero;fill:rgb(100%,100%,100%);fill-opacity:1;" d="M 62.519531 75.546875 C 62.519531 75.546875 61.363281 79.011719 52.945312 79.011719 C 52.945312 79.011719 48.746094 82.394531 40.636719 83.386719 C 39.246094 83.558594 37.734375 83.660156 36.109375 83.660156 C 34.75 83.660156 33.46875 83.585938 32.269531 83.464844 C 23.710938 82.585938 19.277344 79.011719 19.277344 79.011719 C 10.855469 79.011719 9.703125 75.546875 9.703125 75.546875 L 11.628906 64.289062 C 13.277344 56.832031 18.542969 55.179688 19.195312 54.960938 C 22.359375 53.898438 31.488281 51.054688 31.488281 51.054688 L 40.730469 51.054688 C 40.730469 51.054688 49.863281 53.898438 53.027344 54.960938 C 53.675781 55.179688 58.945312 56.832031 60.59375 64.289062 L 62.519531 75.546875 "/>
<path style=" stroke:none;fill-rule:nonzero;fill:rgb(30.589294%,66.668701%,89.019775%);fill-opacity:1;" d="M 10.308594 75.464844 C 10.605469 76.003906 12.328125 78.429688 19.277344 78.429688 L 19.484375 78.429688 L 19.644531 78.558594 C 19.6875 78.59375 24.066406 82.035156 32.328125 82.882812 C 33.558594 83.011719 34.832031 83.074219 36.109375 83.074219 C 37.632812 83.074219 39.132812 82.984375 40.566406 82.808594 C 48.390625 81.851562 52.539062 78.589844 52.578125 78.558594 L 52.738281 78.429688 L 52.945312 78.429688 C 59.875 78.429688 61.605469 76.019531 61.914062 75.464844 L 60.023438 64.398438 C 58.617188 58.074219 54.554688 56.085938 52.875 55.523438 L 52.84375 55.511719 C 49.878906 54.519531 41.574219 51.929688 40.644531 51.636719 L 31.578125 51.636719 C 30.648438 51.929688 22.339844 54.519531 19.378906 55.511719 L 19.347656 55.523438 C 17.664062 56.085938 13.605469 58.074219 12.203125 64.398438 Z M 36.109375 84.242188 C 34.792969 84.242188 33.480469 84.175781 32.210938 84.042969 C 24.394531 83.242188 19.984375 80.261719 19.078125 79.59375 C 10.519531 79.539062 9.199219 75.886719 9.148438 75.730469 L 9.101562 75.589844 L 9.125 75.449219 L 11.058594 64.160156 C 12.589844 57.242188 17.105469 55.042969 18.976562 54.417969 L 19.007812 54.40625 C 22.144531 53.355469 31.226562 50.523438 31.316406 50.496094 L 31.402344 50.46875 L 40.820312 50.46875 L 40.90625 50.496094 C 40.996094 50.523438 50.078125 53.355469 53.214844 54.40625 L 53.246094 54.417969 C 55.113281 55.042969 59.632812 57.242188 61.164062 64.160156 L 61.171875 64.191406 L 63.121094 75.589844 L 63.074219 75.730469 C 63.023438 75.886719 61.703125 79.539062 53.144531 79.59375 C 52.265625 80.242188 48.089844 83.0625 40.710938 83.964844 C 39.226562 84.148438 37.679688 84.242188 36.109375 84.242188 "/>
<path style=" stroke:none;fill-rule:nonzero;fill:rgb(30.589294%,66.668701%,89.019775%);fill-opacity:1;" d="M 19.277344 79.59375 C 18.953125 79.59375 18.695312 79.335938 18.695312 79.011719 C 18.695312 78.933594 18.707031 71.050781 19.847656 65.410156 C 19.910156 65.09375 20.21875 64.890625 20.535156 64.953125 C 20.851562 65.015625 21.054688 65.324219 20.992188 65.640625 C 19.875 71.164062 19.863281 78.933594 19.863281 79.011719 C 19.863281 79.335938 19.601562 79.59375 19.277344 79.59375 "/>
<path style=" stroke:none;fill-rule:nonzero;fill:rgb(30.589294%,66.668701%,89.019775%);fill-opacity:1;" d="M 19.78125 70.027344 C 19.542969 70.027344 19.316406 69.875 19.234375 69.636719 L 17.953125 65.992188 C 17.847656 65.6875 18.007812 65.355469 18.3125 65.25 C 18.617188 65.140625 18.949219 65.300781 19.054688 65.605469 L 20.332031 69.25 C 20.441406 69.554688 20.28125 69.886719 19.976562 69.992188 C 19.914062 70.015625 19.847656 70.027344 19.78125 70.027344 "/>
<path style=" stroke:none;fill-rule:nonzero;fill:rgb(30.589294%,66.668701%,89.019775%);fill-opacity:1;" d="M 52.957031 79.59375 C 52.636719 79.59375 52.375 79.335938 52.375 79.011719 C 52.375 78.933594 52.359375 71.164062 51.246094 65.640625 C 51.179688 65.324219 51.386719 65.015625 51.703125 64.953125 C 52.019531 64.890625 52.324219 65.09375 52.390625 65.410156 C 53.527344 71.050781 53.542969 78.933594 53.542969 79.011719 C 53.542969 79.335938 53.28125 79.59375 52.957031 79.59375 "/>
<path style=" stroke:none;fill-rule:nonzero;fill:rgb(30.589294%,66.668701%,89.019775%);fill-opacity:1;" d="M 52.453125 70.027344 C 52.386719 70.027344 52.324219 70.015625 52.257812 69.992188 C 51.953125 69.886719 51.792969 69.554688 51.902344 69.25 L 53.179688 65.605469 C 53.285156 65.300781 53.621094 65.140625 53.921875 65.25 C 54.226562 65.355469 54.386719 65.6875 54.28125 65.992188 L 53.003906 69.636719 C 52.917969 69.875 52.691406 70.027344 52.453125 70.027344 "/>
<path style=" stroke:none;fill-rule:nonzero;fill:rgb(100%,100%,100%);fill-opacity:1;" d="M 36.109375 56.363281 C 30.460938 56.363281 30.394531 52.308594 30.394531 52.265625 L 30.394531 43.929688 L 41.828125 43.929688 L 41.828125 52.265625 C 41.828125 52.308594 41.761719 56.363281 36.109375 56.363281 "/>
<path style=" stroke:none;fill-rule:nonzero;fill:rgb(30.589294%,66.668701%,89.019775%);fill-opacity:1;" d="M 42.410156 43.34375 L 29.8125 43.34375 L 29.8125 52.265625 C 29.8125 52.394531 29.835938 53.558594 30.675781 54.710938 C 31.421875 55.730469 32.96875 56.945312 36.109375 56.945312 C 39.253906 56.945312 40.800781 55.730469 41.546875 54.710938 C 42.386719 53.558594 42.410156 52.394531 42.410156 52.265625 Z M 41.242188 44.511719 L 41.242188 52.265625 C 41.242188 52.265625 41.242188 55.777344 36.109375 55.777344 C 30.980469 55.777344 30.980469 52.265625 30.980469 52.265625 L 30.980469 44.511719 L 41.242188 44.511719 "/>
<path style=" stroke:none;fill-rule:nonzero;fill:rgb(100%,100%,100%);fill-opacity:1;" d="M 36.109375 49.273438 C 34.347656 49.273438 32.25 48.039062 29.308594 45.269531 C 27.269531 43.351562 26.613281 40.390625 26.445312 39.40625 C 24.539062 38.453125 23.398438 36.851562 23.378906 35.074219 C 23.363281 33.855469 23.894531 32.808594 24.734375 32.410156 C 24.945312 32.3125 25.175781 32.261719 25.421875 32.261719 C 25.617188 32.261719 25.804688 32.292969 25.976562 32.34375 C 26.503906 21.785156 36.011719 21.660156 36.109375 21.660156 C 36.210938 21.660156 45.71875 21.785156 46.246094 32.34375 C 46.417969 32.292969 46.605469 32.261719 46.800781 32.261719 C 47.046875 32.261719 47.277344 32.3125 47.488281 32.410156 C 48.328125 32.808594 48.859375 33.855469 48.84375 35.074219 C 48.824219 36.851562 47.683594 38.453125 45.777344 39.40625 C 45.609375 40.390625 44.953125 43.351562 42.914062 45.269531 C 39.972656 48.039062 37.875 49.273438 36.109375 49.273438 "/>
<path style=" stroke:none;fill-rule:nonzero;fill:rgb(30.589294%,66.668701%,89.019775%);fill-opacity:1;" d="M 36.109375 21.078125 C 36 21.078125 33.375 21.09375 30.742188 22.613281 C 28.507812 23.898438 25.886719 26.496094 25.4375 31.675781 C 25.429688 31.675781 25.425781 31.675781 25.421875 31.675781 C 25.089844 31.675781 24.773438 31.746094 24.484375 31.882812 C 23.441406 32.378906 22.777344 33.636719 22.796875 35.082031 C 22.816406 37 23.976562 38.722656 25.921875 39.789062 C 26.171875 41.039062 26.921875 43.828125 28.90625 45.695312 C 32.007812 48.613281 34.160156 49.859375 36.109375 49.859375 C 38.058594 49.859375 40.214844 48.613281 43.316406 45.695312 C 45.300781 43.828125 46.050781 41.039062 46.300781 39.789062 C 48.246094 38.722656 49.40625 37 49.425781 35.082031 C 49.445312 33.636719 48.78125 32.378906 47.738281 31.882812 C 47.449219 31.746094 47.132812 31.675781 46.800781 31.675781 C 46.796875 31.675781 46.792969 31.675781 46.785156 31.675781 C 46.335938 26.496094 43.714844 23.898438 41.480469 22.613281 C 38.847656 21.09375 36.222656 21.078125 36.109375 21.078125 Z M 36.109375 22.246094 C 36.109375 22.246094 45.6875 22.246094 45.6875 33.273438 C 45.6875 33.273438 46.222656 32.84375 46.800781 32.84375 C 46.945312 32.84375 47.09375 32.871094 47.238281 32.9375 C 48.652344 33.613281 49.09375 37.289062 45.246094 39.011719 C 45.246094 39.011719 44.808594 42.6875 42.515625 44.847656 C 40.222656 47.003906 37.976562 48.691406 36.109375 48.691406 C 34.246094 48.691406 32 47.003906 29.707031 44.847656 C 27.414062 42.6875 26.972656 39.011719 26.972656 39.011719 C 23.128906 37.289062 23.566406 33.613281 24.984375 32.9375 C 25.128906 32.871094 25.277344 32.84375 25.421875 32.84375 C 26 32.84375 26.535156 33.273438 26.535156 33.273438 C 26.535156 22.246094 36.109375 22.246094 36.109375 22.246094 "/>
<path style=" stroke:none;fill-rule:nonzero;fill:rgb(100%,100%,100%);fill-opacity:1;" d="M 48.714844 35.101562 C 48.714844 35.101562 47.730469 29.839844 45.6875 33.273438 C 45.6875 33.273438 44.632812 31.402344 43.015625 29.683594 C 43.015625 29.683594 35.628906 33.277344 28.492188 29.378906 L 26.742188 32.859375 C 26.742188 32.859375 24.597656 30.882812 23.5 35.101562 C 23.5 35.101562 20.324219 18.261719 36.109375 18.261719 C 52.042969 18.261719 48.714844 35.101562 48.714844 35.101562 "/>
<path style=" stroke:none;fill-rule:nonzero;fill:rgb(30.589294%,66.668701%,89.019775%);fill-opacity:1;" d="M 36.109375 18.84375 C 31.859375 18.84375 28.660156 20.105469 26.59375 22.597656 C 23.980469 25.742188 23.730469 30.1875 23.855469 32.8125 C 24.203125 32.332031 24.605469 32.027344 25.070312 31.890625 C 25.597656 31.734375 26.109375 31.839844 26.511719 32.023438 L 28.242188 28.578125 L 28.773438 28.867188 C 35.566406 32.578125 42.6875 29.191406 42.757812 29.160156 L 43.144531 28.96875 L 43.441406 29.285156 C 44.457031 30.363281 45.25 31.492188 45.71875 32.214844 C 46.082031 31.804688 46.589844 31.433594 47.222656 31.546875 C 47.710938 31.632812 48.097656 32.003906 48.398438 32.480469 C 48.503906 29.835938 48.199219 25.644531 45.71875 22.628906 C 43.652344 20.117188 40.421875 18.84375 36.109375 18.84375 Z M 48.703125 38.179688 L 48.144531 35.210938 C 47.910156 33.980469 47.363281 32.757812 47.015625 32.695312 C 46.933594 32.679688 46.640625 32.8125 46.1875 33.570312 L 45.671875 34.4375 L 45.175781 33.558594 C 45.167969 33.542969 44.257812 31.945312 42.867188 30.386719 C 41.238281 31.074219 35.015625 33.285156 28.746094 30.171875 L 26.917969 33.8125 L 26.347656 33.289062 C 26.347656 33.289062 25.867188 32.867188 25.390625 33.011719 C 25.089844 33.101562 24.515625 33.515625 24.066406 35.25 L 23.410156 37.773438 L 22.925781 35.210938 C 22.863281 34.878906 21.4375 26.988281 25.691406 21.855469 C 27.988281 19.082031 31.496094 17.675781 36.109375 17.675781 C 40.789062 17.675781 44.328125 19.09375 46.625 21.894531 C 50.847656 27.027344 49.355469 34.882812 49.289062 35.214844 L 48.703125 38.179688 "/>
<path style=" stroke:none;fill-rule:nonzero;fill:rgb(100%,100%,100%);fill-opacity:1;" d="M 90.15625 88.121094 C 90.15625 88.121094 88.726562 92.414062 78.308594 92.414062 C 78.308594 92.414062 73.113281 96.597656 63.078125 97.824219 C 61.355469 98.039062 59.484375 98.160156 57.476562 98.160156 C 55.792969 98.160156 54.207031 98.074219 52.722656 97.921875 C 42.136719 96.832031 36.648438 92.414062 36.648438 92.414062 C 26.230469 92.414062 24.800781 88.121094 24.800781 88.121094 L 27.183594 74.195312 C 29.226562 64.964844 35.742188 62.921875 36.542969 62.648438 C 40.460938 61.339844 51.757812 57.816406 51.757812 57.816406 L 63.195312 57.816406 C 63.195312 57.816406 74.492188 61.339844 78.410156 62.648438 C 79.214844 62.921875 85.730469 64.964844 87.773438 74.195312 L 90.15625 88.121094 "/>
<path style=" stroke:none;fill-rule:nonzero;fill:rgb(30.589294%,66.668701%,89.019775%);fill-opacity:1;" d="M 25.402344 88.046875 C 25.734375 88.679688 27.824219 91.828125 36.648438 91.828125 L 36.855469 91.828125 L 37.015625 91.957031 C 37.066406 92 42.515625 96.285156 52.785156 97.339844 C 54.3125 97.496094 55.890625 97.578125 57.476562 97.578125 C 59.367188 97.578125 61.226562 97.464844 63.007812 97.246094 C 72.761719 96.054688 77.890625 92 77.941406 91.957031 L 78.101562 91.828125 L 78.308594 91.828125 C 87.113281 91.828125 89.210938 88.691406 89.550781 88.046875 L 87.199219 74.304688 C 85.445312 66.40625 80.367188 63.917969 78.265625 63.214844 L 78.222656 63.203125 C 74.535156 61.96875 64.152344 58.726562 63.105469 58.398438 L 51.847656 58.398438 C 50.800781 58.726562 40.417969 61.96875 36.730469 63.203125 L 36.691406 63.214844 C 34.585938 63.917969 29.507812 66.40625 27.757812 74.304688 Z M 57.476562 98.742188 C 55.851562 98.742188 54.234375 98.660156 52.664062 98.5 C 42.910156 97.5 37.464844 93.753906 36.449219 92.996094 C 25.910156 92.941406 24.308594 88.496094 24.246094 88.308594 L 24.199219 88.167969 L 24.222656 88.023438 L 26.613281 74.066406 C 28.492188 65.574219 34.027344 62.875 36.320312 62.109375 L 36.359375 62.097656 C 40.238281 60.796875 51.472656 57.292969 51.585938 57.257812 L 51.671875 57.234375 L 63.285156 57.234375 L 63.367188 57.257812 C 63.480469 57.292969 74.71875 60.796875 78.59375 62.097656 L 78.632812 62.109375 C 80.925781 62.875 86.460938 65.574219 88.34375 74.066406 L 88.347656 74.09375 L 90.753906 88.167969 L 90.710938 88.308594 C 90.644531 88.496094 89.042969 92.941406 78.507812 92.996094 C 77.519531 93.730469 72.363281 97.277344 63.152344 98.402344 C 61.324219 98.628906 59.414062 98.742188 57.476562 98.742188 "/>
<path style=" stroke:none;fill-rule:nonzero;fill:rgb(30.589294%,66.668701%,89.019775%);fill-opacity:1;" d="M 36.648438 92.996094 C 36.324219 92.996094 36.0625 92.734375 36.0625 92.414062 C 36.0625 92.316406 36.082031 82.574219 37.488281 75.609375 C 37.550781 75.292969 37.859375 75.089844 38.175781 75.152344 C 38.492188 75.214844 38.695312 75.523438 38.632812 75.839844 C 37.246094 82.691406 37.230469 92.316406 37.230469 92.414062 C 37.230469 92.734375 36.972656 92.996094 36.648438 92.996094 "/>
<path style=" stroke:none;fill-rule:nonzero;fill:rgb(30.589294%,66.668701%,89.019775%);fill-opacity:1;" d="M 37.273438 81.15625 C 37.035156 81.15625 36.808594 81.003906 36.722656 80.765625 L 35.140625 76.253906 C 35.035156 75.953125 35.195312 75.617188 35.5 75.511719 C 35.804688 75.40625 36.136719 75.566406 36.242188 75.871094 L 37.824219 80.378906 C 37.933594 80.683594 37.769531 81.015625 37.46875 81.121094 C 37.402344 81.144531 37.339844 81.15625 37.273438 81.15625 "/>
<path style=" stroke:none;fill-rule:nonzero;fill:rgb(30.589294%,66.668701%,89.019775%);fill-opacity:1;" d="M 78.324219 92.996094 C 78 92.996094 77.738281 92.734375 77.738281 92.414062 C 77.738281 92.316406 77.722656 82.6875 76.339844 75.839844 C 76.277344 75.523438 76.480469 75.214844 76.796875 75.152344 C 77.113281 75.089844 77.421875 75.292969 77.484375 75.609375 C 78.890625 82.574219 78.90625 92.316406 78.90625 92.414062 C 78.90625 92.734375 78.644531 92.996094 78.324219 92.996094 "/>
<path style=" stroke:none;fill-rule:nonzero;fill:rgb(30.589294%,66.668701%,89.019775%);fill-opacity:1;" d="M 77.699219 81.15625 C 77.632812 81.15625 77.570312 81.144531 77.503906 81.121094 C 77.199219 81.015625 77.039062 80.683594 77.148438 80.378906 L 78.726562 75.871094 C 78.835938 75.566406 79.167969 75.40625 79.472656 75.511719 C 79.777344 75.617188 79.9375 75.953125 79.828125 76.253906 L 78.25 80.765625 C 78.164062 81.003906 77.9375 81.15625 77.699219 81.15625 "/>
<path style=" stroke:none;fill-rule:nonzero;fill:rgb(100%,100%,100%);fill-opacity:1;" d="M 57.476562 64.246094 C 50.621094 64.246094 50.542969 59.367188 50.542969 59.320312 L 50.542969 49.136719 L 64.414062 49.136719 L 64.414062 59.320312 C 64.414062 59.367188 64.332031 64.246094 57.476562 64.246094 "/>
<path style=" stroke:none;fill-rule:nonzero;fill:rgb(30.589294%,66.668701%,89.019775%);fill-opacity:1;" d="M 64.996094 48.554688 L 49.960938 48.554688 L 49.960938 59.320312 C 49.960938 59.46875 49.988281 60.824219 50.976562 62.179688 C 51.863281 63.390625 53.707031 64.832031 57.476562 64.832031 C 61.25 64.832031 63.09375 63.390625 63.976562 62.179688 C 64.96875 60.824219 64.996094 59.46875 64.996094 59.320312 Z M 63.828125 49.722656 L 63.828125 59.320312 C 63.828125 59.320312 63.828125 63.664062 57.476562 63.664062 C 51.125 63.664062 51.125 59.320312 51.125 59.320312 L 51.125 49.722656 L 63.828125 49.722656 "/>
<path style=" stroke:none;fill-rule:nonzero;fill:rgb(100%,100%,100%);fill-opacity:1;" d="M 57.476562 55.476562 C 55.335938 55.476562 52.765625 53.960938 49.152344 50.5625 C 46.609375 48.167969 45.828125 44.4375 45.640625 43.308594 C 43.292969 42.160156 41.886719 40.210938 41.863281 38.042969 C 41.84375 36.589844 42.472656 35.34375 43.460938 34.875 C 43.703125 34.757812 43.96875 34.699219 44.25 34.699219 C 44.542969 34.699219 44.820312 34.761719 45.066406 34.851562 C 45.347656 28.179688 48.554688 24.929688 51.261719 23.371094 C 54.324219 21.605469 57.351562 21.585938 57.476562 21.585938 C 57.605469 21.585938 60.628906 21.605469 63.691406 23.371094 C 66.402344 24.929688 69.605469 28.179688 69.890625 34.851562 C 70.132812 34.761719 70.414062 34.699219 70.707031 34.699219 C 70.988281 34.699219 71.253906 34.757812 71.496094 34.875 C 72.484375 35.34375 73.109375 36.589844 73.09375 38.042969 C 73.066406 40.210938 71.660156 42.160156 69.316406 43.308594 C 69.128906 44.4375 68.34375 48.167969 65.800781 50.5625 C 62.1875 53.960938 59.621094 55.476562 57.476562 55.476562 "/>
<path style=" stroke:none;fill-rule:nonzero;fill:rgb(30.589294%,66.668701%,89.019775%);fill-opacity:1;" d="M 57.476562 21.003906 C 57.34375 21.003906 54.167969 21.023438 50.972656 22.863281 C 48.230469 24.441406 45.003906 27.660156 44.523438 34.128906 C 44.433594 34.121094 44.34375 34.117188 44.25 34.117188 C 43.878906 34.117188 43.53125 34.195312 43.207031 34.347656 C 42.015625 34.914062 41.257812 36.367188 41.277344 38.050781 C 41.304688 40.359375 42.726562 42.433594 45.117188 43.699219 C 45.390625 45.140625 46.277344 48.65625 48.753906 50.984375 C 52.484375 54.496094 55.171875 56.0625 57.476562 56.0625 C 59.78125 56.0625 62.472656 54.496094 66.203125 50.984375 C 68.675781 48.65625 69.566406 45.140625 69.839844 43.699219 C 72.226562 42.433594 73.648438 40.359375 73.675781 38.050781 C 73.699219 36.367188 72.941406 34.914062 71.746094 34.347656 C 71.425781 34.195312 71.074219 34.117188 70.707031 34.117188 C 70.613281 34.117188 70.519531 34.121094 70.433594 34.128906 C 69.953125 27.660156 66.726562 24.441406 63.984375 22.863281 C 60.789062 21.023438 57.609375 21.003906 57.476562 21.003906 Z M 57.476562 22.167969 C 57.476562 22.167969 69.324219 22.167969 69.324219 35.816406 C 69.324219 35.816406 69.988281 35.285156 70.707031 35.285156 C 70.886719 35.285156 71.066406 35.316406 71.246094 35.402344 C 73 36.238281 73.542969 40.785156 68.78125 42.914062 C 68.78125 42.914062 68.242188 47.464844 65.402344 50.136719 C 62.5625 52.808594 59.789062 54.894531 57.476562 54.894531 C 55.167969 54.894531 52.390625 52.808594 49.554688 50.136719 C 46.714844 47.464844 46.171875 42.914062 46.171875 42.914062 C 41.414062 40.785156 41.957031 36.238281 43.710938 35.402344 C 43.886719 35.316406 44.070312 35.285156 44.25 35.285156 C 44.964844 35.285156 45.628906 35.816406 45.628906 35.816406 C 45.628906 22.167969 57.476562 22.167969 57.476562 22.167969 "/>
<path style=" stroke:none;fill-rule:nonzero;fill:rgb(100%,100%,100%);fill-opacity:1;" d="M 73.074219 38.078125 C 73.074219 38.078125 71.851562 31.570312 69.324219 35.816406 C 69.324219 35.816406 68.023438 33.503906 66.019531 31.375 C 66.019531 31.375 56.878906 35.820312 48.050781 30.996094 L 45.886719 35.304688 C 45.886719 35.304688 43.230469 32.855469 41.875 38.078125 C 41.875 38.078125 37.945312 17.242188 57.476562 17.242188 C 77.191406 17.242188 73.074219 38.078125 73.074219 38.078125 "/>
<path style=" stroke:none;fill-rule:nonzero;fill:rgb(30.589294%,66.668701%,89.019775%);fill-opacity:1;" d="M 57.476562 17.824219 C 52.171875 17.824219 48.171875 19.40625 45.589844 22.523438 C 42.183594 26.625 41.992188 32.480469 42.195312 35.675781 C 42.652344 34.90625 43.207031 34.425781 43.851562 34.238281 C 44.566406 34.027344 45.210938 34.226562 45.660156 34.457031 L 47.800781 30.195312 L 48.332031 30.484375 C 56.78125 35.097656 65.675781 30.890625 65.765625 30.847656 L 66.152344 30.660156 L 66.445312 30.972656 C 67.773438 32.386719 68.792969 33.863281 69.351562 34.738281 C 69.785156 34.210938 70.417969 33.675781 71.199219 33.816406 C 71.890625 33.9375 72.414062 34.578125 72.792969 35.328125 C 72.980469 32.082031 72.726562 26.511719 69.476562 22.558594 C 66.890625 19.417969 62.855469 17.824219 57.476562 17.824219 Z M 73.0625 41.160156 L 72.5 38.1875 C 72.226562 36.742188 71.542969 35.0625 70.996094 34.964844 C 70.785156 34.925781 70.363281 35.207031 69.828125 36.113281 L 69.3125 36.980469 L 68.816406 36.101562 C 68.804688 36.082031 67.648438 34.039062 65.875 32.078125 C 64.019531 32.875 56.175781 35.773438 48.304688 31.792969 L 46.0625 36.257812 L 45.492188 35.734375 C 45.488281 35.730469 44.839844 35.15625 44.175781 35.359375 C 43.480469 35.566406 42.863281 36.585938 42.4375 38.226562 L 41.78125 40.75 L 41.300781 38.1875 C 41.222656 37.777344 39.464844 28.078125 44.6875 21.777344 C 47.507812 18.378906 51.808594 16.65625 57.476562 16.65625 C 63.222656 16.65625 67.566406 18.394531 70.382812 21.824219 C 75.5625 28.128906 73.726562 37.785156 73.648438 38.191406 L 73.0625 41.160156 "/>
<g clip-path="url(#clip3)" clip-rule="nonzero">
<path style=" stroke:none;fill-rule:nonzero;fill:rgb(30.589294%,66.668701%,89.019775%);fill-opacity:1;" d="M 112.496094 56.246094 C 112.496094 87.3125 87.3125 112.496094 56.246094 112.496094 C 25.183594 112.496094 0 87.3125 0 56.246094 C 0 25.183594 25.183594 0 56.246094 0 C 87.3125 0 112.496094 25.183594 112.496094 56.246094 "/>
</g>
<path style=" stroke:none;fill-rule:nonzero;fill:rgb(100%,100%,100%);fill-opacity:1;" d="M 85.199219 40.382812 L 85.199219 24.882812 C 85.199219 23.382812 83.984375 22.167969 82.484375 22.167969 L 73.742188 22.167969 C 72.246094 22.167969 71.03125 23.382812 71.03125 24.882812 C 71.03125 27.148438 68.414062 28.417969 66.636719 27.011719 L 57.929688 20.125 C 56.945312 19.34375 55.550781 19.34375 54.566406 20.125 L 20.421875 47.132812 C 19.773438 47.648438 19.394531 48.433594 19.394531 49.261719 L 19.394531 50.21875 C 19.394531 52.488281 22.011719 53.753906 23.789062 52.347656 L 54.566406 28 C 55.550781 27.21875 56.945312 27.21875 57.929688 28 L 88.707031 52.347656 C 90.484375 53.753906 93.101562 52.488281 93.101562 50.21875 L 93.101562 49.261719 C 93.101562 48.433594 92.722656 47.648438 92.074219 47.132812 L 86.226562 42.511719 C 85.578125 41.996094 85.199219 41.210938 85.199219 40.382812 "/>
<path style=" stroke:none;fill-rule:nonzero;fill:rgb(100%,100%,100%);fill-opacity:1;" d="M 54.570312 30.527344 L 25.511719 53.40625 C 24.859375 53.921875 24.476562 54.707031 24.476562 55.539062 L 24.476562 90.242188 C 24.476562 91.742188 25.691406 92.957031 27.191406 92.957031 L 43.929688 92.957031 C 45.429688 92.957031 46.644531 91.742188 46.644531 90.242188 L 46.644531 71.21875 C 46.644531 69.722656 47.855469 68.507812 49.355469 68.507812 L 63.144531 68.507812 C 64.640625 68.507812 65.855469 69.722656 65.855469 71.21875 L 65.855469 90.242188 C 65.855469 91.742188 67.070312 92.957031 68.566406 92.957031 L 85.304688 92.957031 C 86.804688 92.957031 88.019531 91.742188 88.019531 90.242188 L 88.019531 55.539062 C 88.019531 54.707031 87.636719 53.921875 86.984375 53.40625 L 57.925781 30.527344 C 56.941406 29.753906 55.554688 29.753906 54.570312 30.527344 "/>
</g>
</svg>
