<?xml version="1.0" encoding="UTF-8"?>
<svg xmlns="http://www.w3.org/2000/svg" xmlns:xlink="http://www.w3.org/1999/xlink" width="112.5pt" height="112.499997pt" viewBox="0 0 112.5 112.499997" version="1.2">
<defs>
<clipPath id="clip1">
  <path d="M 0 0 L 112.003906 0 L 112.003906 112.003906 L 0 112.003906 Z M 0 0 "/>
</clipPath>
</defs>
<g id="surface1">
<g clip-path="url(#clip1)" clip-rule="nonzero">
<path style=" stroke:none;fill-rule:nonzero;fill:rgb(1.568604%,2.349854%,2.349854%);fill-opacity:1;" d="M 110.878906 56.234375 L 109.28125 56.234375 C 109.277344 70.886719 103.34375 84.136719 93.742188 93.742188 C 84.136719 103.34375 70.886719 109.277344 56.234375 109.28125 C 41.582031 109.277344 28.328125 103.34375 18.726562 93.742188 C 9.125 84.136719 3.191406 70.886719 3.1875 56.234375 C 3.191406 41.582031 9.125 28.328125 18.726562 18.726562 C 28.328125 9.121094 41.582031 3.191406 56.234375 3.1875 C 70.886719 3.191406 84.136719 9.121094 93.742188 18.726562 C 103.34375 28.328125 109.277344 41.582031 109.28125 56.234375 L 112.476562 56.234375 C 112.480469 40.707031 106.179688 26.636719 96.003906 16.464844 C 85.832031 6.289062 71.757812 -0.0117188 56.234375 -0.0078125 C 40.707031 -0.0117188 26.636719 6.289062 16.464844 16.464844 C 6.289062 26.636719 -0.0117188 40.707031 -0.0078125 56.234375 C -0.0117188 71.761719 6.289062 85.832031 16.464844 96.003906 C 26.636719 106.179688 40.707031 112.480469 56.234375 112.476562 C 71.757812 112.480469 85.832031 106.179688 96.003906 96.003906 C 106.179688 85.832031 112.480469 71.761719 112.476562 56.234375 L 110.878906 56.234375 "/>
</g>
<path style=" stroke:none;fill-rule:nonzero;fill:rgb(1.568604%,2.349854%,2.349854%);fill-opacity:1;" d="M 31.433594 39.734375 L 30.691406 41.152344 L 43.078125 47.660156 C 43.828125 48.050781 44.757812 47.792969 45.191406 47.070312 C 45.195312 47.070312 55.113281 30.640625 57.636719 26.4375 C 59.609375 23.148438 60.824219 21.191406 61.539062 20.0625 C 61.898438 19.496094 62.128906 19.140625 62.269531 18.929688 C 62.339844 18.824219 62.386719 18.753906 62.414062 18.714844 L 62.441406 18.679688 L 62.441406 18.675781 C 62.792969 18.1875 62.84375 17.546875 62.570312 17.011719 C 62.296875 16.476562 61.746094 16.140625 61.144531 16.140625 C 61.144531 16.140625 53.007812 16.140625 50.699219 16.140625 C 49.6875 16.140625 48.734375 16.203125 47.808594 16.371094 C 46.429688 16.617188 45.117188 17.128906 43.9375 17.980469 C 42.757812 18.832031 41.726562 19.992188 40.75 21.484375 C 39.949219 22.714844 38.886719 24.410156 37.738281 26.269531 C 34.289062 31.851562 30.066406 38.910156 30.0625 38.914062 C 29.835938 39.292969 29.777344 39.746094 29.894531 40.167969 C 30.015625 40.589844 30.300781 40.945312 30.691406 41.152344 L 31.433594 39.734375 L 32.808594 40.554688 C 32.808594 40.554688 32.925781 40.359375 33.136719 40.007812 C 33.875 38.777344 35.765625 35.628906 37.816406 32.265625 C 39.863281 28.898438 42.074219 25.3125 43.429688 23.234375 C 43.980469 22.390625 44.511719 21.734375 45.03125 21.230469 C 45.421875 20.851562 45.804688 20.554688 46.199219 20.316406 C 46.789062 19.960938 47.40625 19.722656 48.136719 19.566406 C 48.863281 19.410156 49.707031 19.339844 50.699219 19.339844 C 53.007812 19.339844 61.144531 19.339844 61.144531 19.339844 L 61.144531 17.742188 L 59.847656 16.800781 C 59.816406 16.847656 59.574219 17.1875 58.835938 18.347656 C 58.101562 19.507812 56.875 21.488281 54.890625 24.792969 C 53.636719 26.886719 50.523438 32.046875 47.730469 36.675781 C 46.332031 38.992188 45.011719 41.179688 44.042969 42.785156 C 43.558594 43.585938 43.164062 44.246094 42.886719 44.703125 C 42.609375 45.160156 42.453125 45.417969 42.453125 45.417969 L 43.824219 46.242188 L 44.566406 44.828125 L 32.179688 38.320312 L 31.433594 39.734375 L 32.808594 40.554688 L 31.433594 39.734375 "/>
<path style=" stroke:none;fill-rule:nonzero;fill:rgb(1.568604%,2.349854%,2.349854%);fill-opacity:1;" d="M 77.785156 32.855469 L 78.558594 34.257812 L 79.570312 33.703125 L 76.640625 45.703125 L 64.730469 41.785156 L 66.3125 40.675781 C 66.964844 40.222656 67.183594 39.347656 66.820312 38.640625 C 66.820312 38.636719 65.558594 36.164062 63.976562 33.164062 C 63.1875 31.660156 62.320312 30.027344 61.484375 28.503906 C 60.652344 26.976562 59.859375 25.558594 59.210938 24.476562 C 57.117188 20.984375 54.855469 18.90625 53.070312 17.71875 C 51.289062 16.523438 49.996094 16.210938 49.835938 16.175781 L 49.492188 17.742188 L 49.492188 19.339844 C 49.492188 19.339844 50.15625 19.339844 51.195312 19.339844 C 54.300781 19.339844 60.726562 19.339844 62.457031 19.339844 C 63.339844 19.339844 64.101562 19.394531 64.773438 19.519531 C 65.78125 19.703125 66.570312 20.019531 67.347656 20.578125 C 68.125 21.132812 68.898438 21.964844 69.726562 23.234375 C 71.296875 25.640625 72.972656 28.261719 74.257812 30.277344 C 74.898438 31.285156 75.441406 32.144531 75.828125 32.75 C 76.019531 33.054688 76.167969 33.292969 76.273438 33.457031 C 76.375 33.621094 76.429688 33.710938 76.429688 33.710938 C 76.882812 34.425781 77.816406 34.667969 78.558594 34.257812 L 77.785156 32.855469 L 79.140625 32.007812 C 79.136719 32.003906 75.566406 26.328125 72.40625 21.484375 C 71.757812 20.488281 71.082031 19.640625 70.351562 18.933594 C 69.808594 18.40625 69.230469 17.953125 68.617188 17.582031 C 67.703125 17.027344 66.714844 16.65625 65.691406 16.4375 C 64.664062 16.21875 63.59375 16.140625 62.457031 16.140625 C 61.304688 16.140625 58.0625 16.140625 55.109375 16.140625 C 53.632812 16.140625 52.230469 16.140625 51.195312 16.140625 C 50.15625 16.140625 49.492188 16.140625 49.492188 16.140625 C 48.675781 16.140625 47.988281 16.757812 47.902344 17.566406 C 47.8125 18.378906 48.351562 19.125 49.148438 19.300781 L 49.351562 18.390625 L 49.132812 19.296875 L 49.148438 19.300781 L 49.351562 18.390625 L 49.132812 19.296875 C 49.164062 19.304688 50.109375 19.546875 51.492188 20.511719 C 52.871094 21.476562 54.691406 23.164062 56.46875 26.121094 C 57.078125 27.136719 57.859375 28.527344 58.679688 30.035156 C 59.910156 32.292969 61.234375 34.808594 62.25 36.761719 C 62.757812 37.738281 63.191406 38.570312 63.492188 39.160156 C 63.644531 39.453125 63.765625 39.6875 63.847656 39.847656 C 63.929688 40.007812 63.972656 40.09375 63.972656 40.09375 L 65.398438 39.367188 L 64.480469 38.054688 L 60.28125 40.996094 C 59.78125 41.34375 59.527344 41.9375 59.617188 42.539062 C 59.703125 43.140625 60.121094 43.636719 60.699219 43.824219 L 77.285156 49.285156 C 77.707031 49.421875 78.171875 49.378906 78.5625 49.164062 C 78.949219 48.949219 79.234375 48.578125 79.339844 48.144531 L 83.539062 30.925781 C 83.6875 30.3125 83.457031 29.664062 82.957031 29.277344 C 82.453125 28.894531 81.765625 28.839844 81.214844 29.144531 L 77.015625 31.457031 L 77.785156 32.855469 L 79.140625 32.007812 L 77.785156 32.855469 "/>
<path style=" stroke:none;fill-rule:nonzero;fill:rgb(1.568604%,2.349854%,2.349854%);fill-opacity:1;" d="M 85.742188 46.847656 L 84.839844 45.527344 L 73.28125 53.414062 C 72.585938 53.890625 72.375 54.828125 72.808594 55.554688 C 72.808594 55.558594 81.988281 70.949219 84.523438 75.152344 C 86.5 78.433594 87.660156 80.425781 88.320312 81.585938 C 88.652344 82.167969 88.859375 82.542969 88.976562 82.765625 C 89.039062 82.875 89.078125 82.949219 89.097656 82.992188 L 89.121094 83.035156 C 89.386719 83.574219 89.929688 83.917969 90.53125 83.925781 C 91.132812 83.9375 91.6875 83.609375 91.96875 83.078125 C 91.96875 83.078125 92.207031 82.628906 92.582031 81.921875 C 93.707031 79.804688 96.054688 75.378906 96.867188 73.851562 C 97.359375 72.929688 97.761719 72.027344 98.050781 71.101562 C 98.335938 70.175781 98.496094 69.226562 98.496094 68.25 C 98.496094 67.335938 98.355469 66.410156 98.070312 65.46875 C 97.789062 64.523438 97.367188 63.566406 96.8125 62.558594 C 95.398438 60 92.980469 55.878906 90.90625 52.382812 C 88.835938 48.886719 87.113281 46.023438 87.109375 46.023438 C 86.886719 45.644531 86.511719 45.378906 86.082031 45.285156 C 85.652344 45.191406 85.203125 45.277344 84.839844 45.527344 L 85.742188 46.847656 L 84.371094 47.671875 C 84.371094 47.671875 84.476562 47.851562 84.671875 48.171875 C 85.347656 49.300781 87.078125 52.1875 88.945312 55.34375 C 90.808594 58.5 92.808594 61.929688 94.011719 64.109375 C 94.484375 64.957031 94.804688 65.710938 95.007812 66.386719 C 95.210938 67.066406 95.296875 67.667969 95.300781 68.25 C 95.296875 68.875 95.199219 69.488281 94.992188 70.15625 C 94.785156 70.828125 94.46875 71.550781 94.042969 72.351562 C 92.960938 74.390625 89.144531 81.578125 89.144531 81.578125 L 90.554688 82.328125 L 91.992188 81.625 C 91.964844 81.574219 91.78125 81.199219 91.101562 80.003906 C 90.421875 78.8125 89.25 76.800781 87.261719 73.5 C 86 71.40625 83.074219 66.507812 80.460938 62.136719 C 79.15625 59.953125 77.929688 57.894531 77.03125 56.386719 C 76.582031 55.632812 76.210938 55.015625 75.957031 54.585938 C 75.699219 54.15625 75.558594 53.917969 75.558594 53.917969 L 74.183594 54.738281 L 75.085938 56.058594 L 86.644531 48.167969 L 85.742188 46.847656 L 84.371094 47.671875 L 85.742188 46.847656 "/>
<path style=" stroke:none;fill-rule:nonzero;fill:rgb(1.568604%,2.349854%,2.349854%);fill-opacity:1;" d="M 69.292969 89.9375 L 67.695312 89.9375 L 67.695312 91.128906 L 58.605469 82.929688 L 67.695312 74.515625 L 67.695312 75.941406 C 67.695312 76.816406 68.394531 77.527344 69.265625 77.542969 C 69.273438 77.542969 73.066406 77.601562 77.21875 77.601562 C 80.222656 77.601562 83.398438 77.570312 85.515625 77.460938 C 89.582031 77.25 92.472656 76.222656 94.363281 75.207031 C 96.25 74.195312 97.132812 73.199219 97.238281 73.074219 L 96.019531 72.035156 L 94.609375 71.289062 C 94.609375 71.289062 89.609375 80.699219 88.527344 82.738281 C 88.117188 83.515625 87.707031 84.164062 87.285156 84.699219 C 86.648438 85.503906 85.996094 86.050781 85.144531 86.476562 C 84.289062 86.898438 83.191406 87.195312 81.683594 87.332031 L 81.679688 87.332031 C 78.820312 87.589844 75.691406 87.84375 73.28125 88.03125 C 72.074219 88.125 71.046875 88.203125 70.324219 88.253906 C 69.960938 88.285156 69.675781 88.304688 69.476562 88.320312 C 69.28125 88.332031 69.175781 88.339844 69.175781 88.339844 C 68.339844 88.402344 67.695312 89.097656 67.695312 89.9375 L 69.292969 89.9375 L 69.40625 91.53125 C 69.414062 91.53125 76.207031 91.039062 81.96875 90.515625 C 83.152344 90.410156 84.21875 90.210938 85.183594 89.898438 C 86.632812 89.4375 87.863281 88.695312 88.863281 87.722656 C 89.867188 86.746094 90.644531 85.574219 91.351562 84.238281 C 91.894531 83.21875 93.414062 80.355469 94.800781 77.75 C 95.492188 76.445312 96.148438 75.203125 96.636719 74.289062 C 96.878906 73.832031 97.078125 73.457031 97.214844 73.195312 C 97.355469 72.933594 97.433594 72.789062 97.433594 72.785156 C 97.816406 72.066406 97.59375 71.171875 96.917969 70.714844 C 96.242188 70.253906 95.332031 70.378906 94.800781 71 L 95.515625 71.605469 L 94.8125 70.988281 L 94.800781 71 L 95.515625 71.605469 L 94.8125 70.988281 C 94.792969 71.011719 94.132812 71.734375 92.636719 72.5 C 91.136719 73.269531 88.792969 74.085938 85.347656 74.265625 C 83.359375 74.371094 80.195312 74.402344 77.21875 74.402344 C 75.160156 74.402344 73.179688 74.386719 71.722656 74.371094 C 70.988281 74.363281 70.390625 74.359375 69.96875 74.351562 C 69.550781 74.347656 69.316406 74.34375 69.316406 74.34375 L 69.292969 75.941406 L 70.890625 75.941406 L 70.890625 70.855469 C 70.890625 70.21875 70.515625 69.644531 69.933594 69.390625 C 69.347656 69.132812 68.671875 69.25 68.207031 69.683594 L 55.148438 81.773438 C 54.816406 82.078125 54.632812 82.503906 54.636719 82.957031 C 54.636719 83.40625 54.828125 83.832031 55.164062 84.132812 L 68.222656 95.914062 C 68.691406 96.339844 69.363281 96.445312 69.941406 96.191406 C 70.519531 95.933594 70.890625 95.359375 70.890625 94.726562 L 70.890625 89.9375 L 69.292969 89.9375 L 69.40625 91.53125 L 69.292969 89.9375 "/>
<path style=" stroke:none;fill-rule:nonzero;fill:rgb(1.568604%,2.349854%,2.349854%);fill-opacity:1;" d="M 52.398438 90.203125 L 54 90.203125 L 54 76.234375 C 54 75.351562 53.285156 74.636719 52.402344 74.636719 C 52.402344 74.636719 40.96875 74.621094 33.503906 74.621094 C 31.292969 74.621094 29.433594 74.621094 28.3125 74.625 C 27.707031 74.625 27.136719 74.628906 26.601562 74.628906 C 23.507812 74.628906 21.628906 74.601562 20.539062 74.574219 C 19.992188 74.558594 19.644531 74.542969 19.433594 74.535156 C 19.332031 74.53125 19.261719 74.527344 19.222656 74.523438 L 19.1875 74.523438 L 19.179688 74.519531 L 19.113281 75.417969 L 19.1875 74.523438 L 19.179688 74.519531 L 19.113281 75.417969 L 19.1875 74.523438 C 18.585938 74.472656 18.011719 74.761719 17.695312 75.273438 C 17.378906 75.785156 17.375 76.429688 17.6875 76.941406 C 17.6875 76.941406 21.894531 83.910156 23.089844 85.886719 C 23.609375 86.75 24.160156 87.535156 24.777344 88.238281 C 25.707031 89.292969 26.820312 90.152344 28.15625 90.71875 C 29.496094 91.289062 31.023438 91.574219 32.808594 91.636719 C 35.019531 91.710938 38.355469 91.753906 41.65625 91.777344 C 44.960938 91.800781 48.226562 91.804688 50.273438 91.804688 C 51.585938 91.804688 52.402344 91.804688 52.402344 91.804688 C 53.285156 91.800781 54 91.085938 54 90.203125 L 52.398438 90.203125 L 52.394531 88.605469 C 52.394531 88.605469 52.195312 88.605469 51.828125 88.605469 C 51.460938 88.605469 50.929688 88.605469 50.273438 88.605469 C 48.230469 88.605469 44.96875 88.601562 41.679688 88.578125 C 38.390625 88.554688 35.066406 88.511719 32.917969 88.4375 C 31.910156 88.40625 31.074219 88.289062 30.375 88.105469 C 29.324219 87.824219 28.570312 87.414062 27.863281 86.808594 C 27.164062 86.199219 26.507812 85.363281 25.828125 84.230469 C 25.230469 83.242188 23.878906 81.007812 22.675781 79.019531 C 22.078125 78.023438 21.511719 77.09375 21.101562 76.410156 C 20.6875 75.722656 20.425781 75.289062 20.421875 75.289062 L 19.054688 76.117188 L 18.921875 77.710938 C 18.972656 77.714844 19.332031 77.742188 20.460938 77.769531 C 21.589844 77.796875 23.488281 77.824219 26.601562 77.824219 C 27.136719 77.824219 27.710938 77.824219 28.324219 77.824219 C 29.4375 77.820312 31.296875 77.820312 33.503906 77.820312 C 37.234375 77.820312 41.957031 77.824219 45.75 77.824219 C 47.644531 77.828125 49.304688 77.832031 50.496094 77.832031 C 51.683594 77.832031 52.394531 77.835938 52.398438 77.835938 L 52.398438 76.234375 L 50.800781 76.234375 L 50.800781 90.203125 L 52.398438 90.203125 L 52.394531 88.605469 L 52.398438 90.203125 "/>
<path style=" stroke:none;fill-rule:nonzero;fill:rgb(1.568604%,2.349854%,2.349854%);fill-opacity:1;" d="M 23.445312 53.964844 L 24.265625 52.589844 L 23.242188 51.980469 L 34.945312 48.390625 L 37.5 60.511719 L 36.273438 59.777344 C 35.523438 59.328125 34.554688 59.5625 34.09375 60.308594 C 34.09375 60.308594 32.609375 62.703125 30.835938 65.644531 C 29.949219 67.117188 28.988281 68.722656 28.105469 70.238281 C 27.21875 71.753906 26.414062 73.171875 25.820312 74.289062 C 23.707031 78.28125 23.191406 81.546875 23.195312 83.710938 C 23.195312 85.445312 23.519531 86.464844 23.566406 86.605469 L 25.082031 86.089844 L 26.449219 85.261719 C 26.449219 85.261719 25.070312 82.984375 23.542969 80.453125 C 22.019531 77.929688 20.34375 75.152344 19.746094 74.164062 C 19.234375 73.320312 18.859375 72.5625 18.617188 71.863281 C 18.375 71.15625 18.253906 70.507812 18.253906 69.820312 C 18.253906 69.28125 18.328125 68.714844 18.496094 68.074219 C 18.667969 67.4375 18.933594 66.730469 19.320312 65.933594 C 20.566406 63.34375 21.957031 60.53125 23.035156 58.363281 C 23.570312 57.28125 24.03125 56.359375 24.359375 55.710938 C 24.519531 55.386719 24.648438 55.128906 24.738281 54.953125 C 24.828125 54.777344 24.875 54.683594 24.875 54.683594 C 25.25 53.933594 24.988281 53.023438 24.265625 52.589844 L 23.445312 53.964844 L 22.019531 53.242188 C 22.015625 53.25 18.949219 59.332031 16.4375 64.542969 C 15.984375 65.484375 15.636719 66.378906 15.40625 67.253906 C 15.171875 68.128906 15.054688 68.984375 15.054688 69.820312 C 15.054688 70.890625 15.25 71.917969 15.59375 72.90625 C 15.9375 73.898438 16.421875 74.851562 17.007812 75.820312 C 18.199219 77.796875 23.710938 86.917969 23.710938 86.917969 C 24.132812 87.613281 25.015625 87.882812 25.753906 87.539062 C 26.496094 87.195312 26.855469 86.347656 26.597656 85.578125 L 25.65625 85.894531 L 26.601562 85.59375 L 26.597656 85.578125 L 25.65625 85.894531 L 26.601562 85.59375 L 26.429688 85.648438 L 26.601562 85.59375 L 26.429688 85.648438 L 26.601562 85.59375 C 26.597656 85.585938 26.394531 84.921875 26.394531 83.710938 C 26.394531 82.042969 26.773438 79.335938 28.648438 75.785156 C 29.203125 74.738281 29.996094 73.34375 30.867188 71.847656 C 32.175781 69.605469 33.664062 67.140625 34.824219 65.234375 C 35.402344 64.28125 35.902344 63.472656 36.253906 62.898438 C 36.429688 62.613281 36.570312 62.382812 36.664062 62.230469 C 36.761719 62.074219 36.8125 61.992188 36.8125 61.992188 L 35.453125 61.148438 L 34.632812 62.523438 L 39 65.136719 C 39.542969 65.460938 40.230469 65.433594 40.75 65.0625 C 41.265625 64.695312 41.515625 64.054688 41.382812 63.433594 L 37.714844 46.015625 C 37.621094 45.574219 37.351562 45.199219 36.960938 44.96875 C 36.574219 44.742188 36.113281 44.6875 35.679688 44.820312 L 18.867188 49.972656 C 18.261719 50.160156 17.824219 50.683594 17.746094 51.3125 C 17.671875 51.9375 17.972656 52.550781 18.511719 52.875 L 22.625 55.335938 L 23.445312 53.964844 L 22.019531 53.242188 L 23.445312 53.964844 "/>
<path style=" stroke:none;fill-rule:nonzero;fill:rgb(51.759338%,83.918762%,86.268616%);fill-opacity:1;" d="M 110.878906 56.234375 C 110.878906 86.414062 86.414062 110.878906 56.234375 110.878906 C 26.054688 110.878906 1.589844 86.414062 1.589844 56.234375 C 1.589844 26.054688 26.054688 1.589844 56.234375 1.589844 C 86.414062 1.589844 110.878906 26.054688 110.878906 56.234375 "/>
<path style=" stroke:none;fill-rule:nonzero;fill:rgb(0%,0%,0%);fill-opacity:1;" d="M 110.878906 56.234375 L 110.71875 56.234375 C 110.71875 71.28125 104.621094 84.902344 94.761719 94.761719 C 84.898438 104.621094 71.28125 110.71875 56.234375 110.71875 C 41.1875 110.71875 27.566406 104.621094 17.707031 94.761719 C 7.847656 84.902344 1.75 71.28125 1.75 56.234375 C 1.75 41.1875 7.847656 27.566406 17.707031 17.707031 C 27.566406 7.847656 41.1875 1.75 56.234375 1.75 C 71.28125 1.75 84.898438 7.847656 94.761719 17.707031 C 104.621094 27.566406 110.71875 41.1875 110.71875 56.234375 L 111.039062 56.234375 C 111.039062 25.964844 86.5 1.429688 56.234375 1.429688 C 25.964844 1.429688 1.429688 25.964844 1.429688 56.234375 C 1.429688 86.503906 25.964844 111.039062 56.234375 111.039062 C 86.5 111.039062 111.039062 86.503906 111.039062 56.234375 L 110.878906 56.234375 "/>
<path style=" stroke:none;fill-rule:nonzero;fill:rgb(73.329163%,89.019775%,49.409485%);fill-opacity:1;" d="M 31.433594 39.734375 L 43.824219 46.242188 C 43.824219 46.242188 53.746094 29.816406 56.265625 25.613281 C 60.21875 19.023438 61.144531 17.742188 61.144531 17.742188 C 61.144531 17.742188 53.007812 17.742188 50.699219 17.742188 C 46.917969 17.742188 44.492188 18.675781 42.089844 22.359375 C 38.941406 27.1875 31.433594 39.734375 31.433594 39.734375 "/>
<path style=" stroke:none;fill-rule:nonzero;fill:rgb(0%,0%,0%);fill-opacity:1;" d="M 31.433594 39.734375 L 31.359375 39.875 L 43.75 46.382812 C 43.824219 46.425781 43.917969 46.398438 43.960938 46.324219 C 43.960938 46.324219 53.878906 29.898438 56.402344 25.695312 C 58.378906 22.398438 59.597656 20.433594 60.324219 19.289062 C 60.683594 18.71875 60.925781 18.355469 61.074219 18.132812 C 61.144531 18.019531 61.199219 17.945312 61.230469 17.898438 C 61.261719 17.851562 61.273438 17.835938 61.273438 17.832031 C 61.308594 17.785156 61.316406 17.722656 61.289062 17.667969 C 61.261719 17.613281 61.207031 17.582031 61.144531 17.582031 C 61.144531 17.578125 53.007812 17.578125 50.699219 17.582031 C 48.796875 17.578125 47.214844 17.816406 45.804688 18.527344 C 44.394531 19.234375 43.167969 20.414062 41.957031 22.273438 C 38.804688 27.105469 31.300781 39.652344 31.296875 39.652344 C 31.277344 39.691406 31.269531 39.734375 31.28125 39.777344 C 31.292969 39.820312 31.320312 39.855469 31.359375 39.875 L 31.433594 39.734375 L 31.574219 39.816406 C 31.574219 39.816406 31.691406 39.621094 31.902344 39.269531 C 33.378906 36.800781 39.472656 26.667969 42.226562 22.445312 C 43.414062 20.621094 44.601562 19.488281 45.949219 18.808594 C 47.296875 18.132812 48.820312 17.902344 50.699219 17.898438 C 53.007812 17.898438 61.144531 17.898438 61.144531 17.898438 L 61.144531 17.742188 L 61.015625 17.648438 C 61.011719 17.65625 60.085938 18.9375 56.128906 25.53125 C 54.867188 27.632812 51.757812 32.789062 48.960938 37.421875 C 47.5625 39.738281 46.246094 41.921875 45.277344 43.527344 C 44.308594 45.132812 43.6875 46.160156 43.6875 46.160156 L 43.824219 46.242188 L 43.898438 46.101562 L 31.511719 39.59375 L 31.433594 39.734375 L 31.574219 39.816406 L 31.433594 39.734375 "/>
<path style=" stroke:none;fill-rule:nonzero;fill:rgb(73.329163%,89.019775%,49.409485%);fill-opacity:1;" d="M 77.785156 32.855469 L 81.984375 30.546875 L 77.785156 47.765625 L 61.199219 42.304688 L 65.398438 39.367188 C 65.398438 39.367188 60.359375 29.5 57.839844 25.300781 C 53.882812 18.707031 49.492188 17.742188 49.492188 17.742188 C 49.492188 17.742188 60.152344 17.742188 62.457031 17.742188 C 66.238281 17.742188 68.664062 18.675781 71.066406 22.359375 C 74.214844 27.1875 77.785156 32.855469 77.785156 32.855469 "/>
<path style=" stroke:none;fill-rule:nonzero;fill:rgb(0%,0%,0%);fill-opacity:1;" d="M 77.785156 32.855469 L 77.863281 33 L 81.742188 30.863281 L 77.671875 47.558594 L 61.550781 42.253906 L 65.488281 39.496094 C 65.554688 39.453125 65.574219 39.363281 65.539062 39.292969 C 65.539062 39.292969 60.5 29.425781 57.976562 25.214844 C 53.996094 18.582031 49.558594 17.589844 49.527344 17.582031 L 49.492188 17.742188 L 49.492188 17.898438 C 49.492188 17.898438 50.15625 17.898438 51.195312 17.898438 C 54.300781 17.898438 60.726562 17.898438 62.457031 17.898438 C 64.335938 17.902344 65.859375 18.132812 67.207031 18.808594 C 68.554688 19.488281 69.742188 20.621094 70.933594 22.445312 C 72.507812 24.859375 74.1875 27.484375 75.472656 29.503906 C 76.117188 30.515625 76.660156 31.375 77.042969 31.980469 C 77.425781 32.589844 77.648438 32.941406 77.648438 32.945312 C 77.695312 33.015625 77.789062 33.039062 77.863281 33 L 77.785156 32.855469 L 77.921875 32.773438 C 77.921875 32.773438 74.351562 27.101562 71.199219 22.273438 C 69.992188 20.414062 68.761719 19.234375 67.351562 18.527344 C 65.941406 17.816406 64.359375 17.578125 62.457031 17.582031 C 61.304688 17.578125 58.0625 17.578125 55.109375 17.582031 C 53.632812 17.578125 52.230469 17.578125 51.195312 17.582031 C 50.15625 17.578125 49.492188 17.578125 49.492188 17.582031 C 49.410156 17.582031 49.34375 17.640625 49.332031 17.722656 C 49.324219 17.804688 49.378906 17.878906 49.457031 17.894531 L 49.46875 17.898438 C 49.695312 17.957031 53.890625 19.03125 57.703125 25.378906 C 58.957031 27.472656 60.847656 30.992188 62.421875 33.980469 C 63.207031 35.476562 63.917969 36.84375 64.429688 37.832031 C 64.683594 38.328125 64.890625 38.730469 65.035156 39.007812 C 65.175781 39.285156 65.253906 39.4375 65.253906 39.441406 L 65.398438 39.367188 L 65.304688 39.234375 L 61.105469 42.175781 C 61.054688 42.210938 61.03125 42.269531 61.039062 42.328125 C 61.046875 42.390625 61.089844 42.4375 61.148438 42.457031 L 77.734375 47.917969 C 77.777344 47.929688 77.824219 47.925781 77.863281 47.90625 C 77.902344 47.882812 77.929688 47.847656 77.941406 47.804688 L 82.140625 30.585938 C 82.15625 30.523438 82.132812 30.460938 82.082031 30.421875 C 82.03125 30.382812 81.960938 30.378906 81.90625 30.40625 L 77.707031 32.71875 L 77.785156 32.855469 L 77.921875 32.773438 L 77.785156 32.855469 "/>
<path style=" stroke:none;fill-rule:nonzero;fill:rgb(73.329163%,89.019775%,49.409485%);fill-opacity:1;" d="M 85.742188 46.847656 L 74.183594 54.738281 C 74.183594 54.738281 83.363281 70.128906 85.890625 74.324219 C 89.859375 80.910156 90.554688 82.328125 90.554688 82.328125 C 90.554688 82.328125 94.371094 75.140625 95.457031 73.101562 C 97.226562 69.765625 97.539062 67.183594 95.414062 63.335938 C 92.625 58.285156 85.742188 46.847656 85.742188 46.847656 "/>
<path style=" stroke:none;fill-rule:nonzero;fill:rgb(0%,0%,0%);fill-opacity:1;" d="M 85.742188 46.847656 L 85.652344 46.714844 L 74.09375 54.605469 C 74.023438 54.652344 74.003906 54.746094 74.046875 54.820312 C 74.046875 54.820312 83.226562 70.210938 85.753906 74.40625 C 87.738281 77.699219 88.902344 79.699219 89.574219 80.875 C 89.90625 81.464844 90.117188 81.847656 90.246094 82.082031 C 90.308594 82.199219 90.351562 82.277344 90.375 82.328125 C 90.402344 82.378906 90.414062 82.398438 90.414062 82.398438 C 90.4375 82.453125 90.492188 82.488281 90.554688 82.488281 C 90.613281 82.488281 90.667969 82.457031 90.699219 82.402344 C 90.699219 82.402344 91.652344 80.605469 92.742188 78.554688 C 93.832031 76.503906 95.054688 74.195312 95.597656 73.175781 C 96.519531 71.441406 97.058594 69.886719 97.058594 68.25 C 97.058594 66.71875 96.589844 65.128906 95.554688 63.257812 C 92.761719 58.203125 85.878906 46.765625 85.878906 46.765625 C 85.855469 46.726562 85.816406 46.699219 85.777344 46.691406 C 85.730469 46.683594 85.6875 46.691406 85.652344 46.714844 L 85.742188 46.847656 L 85.605469 46.929688 C 85.605469 46.929688 85.710938 47.109375 85.90625 47.429688 C 87.261719 49.6875 92.835938 59 95.273438 63.410156 C 96.292969 65.253906 96.738281 66.789062 96.738281 68.25 C 96.738281 69.816406 96.226562 71.3125 95.3125 73.027344 C 94.230469 75.066406 90.414062 82.253906 90.414062 82.253906 L 90.554688 82.328125 L 90.699219 82.257812 C 90.695312 82.25 89.996094 80.828125 86.027344 74.242188 C 84.765625 72.144531 81.839844 67.246094 79.226562 62.875 C 77.921875 60.6875 76.695312 58.632812 75.792969 57.125 C 75.34375 56.371094 74.976562 55.753906 74.71875 55.324219 C 74.464844 54.894531 74.320312 54.65625 74.320312 54.652344 L 74.183594 54.738281 L 74.273438 54.867188 L 85.832031 46.980469 L 85.742188 46.847656 L 85.605469 46.929688 L 85.742188 46.847656 "/>
<path style=" stroke:none;fill-rule:nonzero;fill:rgb(73.329163%,89.019775%,49.409485%);fill-opacity:1;" d="M 69.292969 89.9375 L 69.292969 94.726562 L 56.234375 82.945312 L 69.292969 70.855469 L 69.292969 75.941406 C 69.292969 75.941406 80.542969 76.121094 85.429688 75.863281 C 93.109375 75.460938 96.019531 72.035156 96.019531 72.035156 C 96.019531 72.035156 91.023438 81.449219 89.941406 83.488281 C 88.167969 86.828125 86.207031 88.53125 81.824219 88.925781 C 76.082031 89.445312 69.292969 89.9375 69.292969 89.9375 "/>
<path style=" stroke:none;fill-rule:nonzero;fill:rgb(0%,0%,0%);fill-opacity:1;" d="M 69.292969 89.9375 L 69.132812 89.9375 L 69.132812 94.367188 L 56.46875 82.945312 L 69.132812 71.222656 L 69.132812 75.941406 C 69.132812 76.027344 69.203125 76.101562 69.289062 76.101562 C 69.289062 76.101562 73.082031 76.160156 77.21875 76.160156 C 80.210938 76.160156 83.382812 76.128906 85.4375 76.023438 C 93.164062 75.621094 96.121094 72.164062 96.144531 72.140625 L 96.019531 72.035156 L 95.878906 71.960938 C 95.878906 71.960938 90.882812 81.375 89.800781 83.414062 C 88.917969 85.070312 88 86.308594 86.769531 87.179688 C 85.539062 88.050781 83.984375 88.570312 81.8125 88.765625 C 78.941406 89.023438 75.808594 89.277344 73.394531 89.464844 C 72.1875 89.558594 71.15625 89.636719 70.429688 89.691406 C 69.707031 89.746094 69.28125 89.777344 69.28125 89.777344 C 69.195312 89.78125 69.132812 89.851562 69.132812 89.9375 L 69.292969 89.9375 L 69.304688 90.097656 C 69.304688 90.097656 76.09375 89.601562 81.839844 89.082031 C 84.046875 88.886719 85.664062 88.355469 86.953125 87.441406 C 88.242188 86.527344 89.191406 85.242188 90.082031 83.5625 C 90.621094 82.542969 92.144531 79.679688 93.527344 77.074219 C 94.914062 74.464844 96.164062 72.113281 96.164062 72.113281 C 96.199219 72.039062 96.175781 71.949219 96.109375 71.90625 C 96.042969 71.859375 95.953125 71.871094 95.898438 71.933594 L 95.894531 71.941406 C 95.734375 72.117188 92.816406 75.316406 85.421875 75.703125 C 83.375 75.8125 80.207031 75.84375 77.21875 75.84375 C 75.152344 75.84375 73.171875 75.828125 71.707031 75.8125 C 70.972656 75.804688 70.371094 75.796875 69.953125 75.792969 C 69.53125 75.785156 69.296875 75.78125 69.296875 75.78125 L 69.292969 75.941406 L 69.453125 75.941406 L 69.453125 70.855469 C 69.453125 70.792969 69.414062 70.734375 69.355469 70.707031 C 69.296875 70.683594 69.230469 70.695312 69.183594 70.738281 L 56.125 82.828125 C 56.09375 82.859375 56.074219 82.902344 56.074219 82.945312 C 56.074219 82.992188 56.09375 83.035156 56.128906 83.066406 L 69.1875 94.847656 C 69.230469 94.890625 69.300781 94.902344 69.359375 94.875 C 69.414062 94.847656 69.453125 94.792969 69.453125 94.726562 L 69.453125 89.9375 L 69.292969 89.9375 L 69.304688 90.097656 L 69.292969 89.9375 "/>
<path style=" stroke:none;fill-rule:nonzero;fill:rgb(73.329163%,89.019775%,49.409485%);fill-opacity:1;" d="M 52.398438 90.203125 L 52.398438 76.234375 C 52.398438 76.234375 33.21875 76.207031 28.316406 76.222656 C 20.632812 76.246094 19.054688 76.117188 19.054688 76.117188 C 19.054688 76.117188 23.261719 83.082031 24.457031 85.058594 C 26.410156 88.292969 28.464844 89.886719 32.863281 90.039062 C 38.625 90.234375 52.398438 90.203125 52.398438 90.203125 "/>
<path style=" stroke:none;fill-rule:nonzero;fill:rgb(0%,0%,0%);fill-opacity:1;" d="M 52.398438 90.203125 L 52.558594 90.203125 L 52.558594 76.234375 C 52.558594 76.148438 52.488281 76.074219 52.398438 76.074219 C 52.398438 76.074219 40.96875 76.058594 33.503906 76.058594 C 31.296875 76.058594 29.433594 76.058594 28.316406 76.0625 C 27.707031 76.066406 27.136719 76.066406 26.601562 76.066406 C 23.496094 76.066406 21.613281 76.039062 20.503906 76.011719 C 19.949219 75.996094 19.589844 75.984375 19.367188 75.972656 C 19.257812 75.96875 19.183594 75.964844 19.132812 75.960938 C 19.085938 75.957031 19.066406 75.957031 19.066406 75.957031 C 19.007812 75.953125 18.949219 75.980469 18.917969 76.03125 C 18.886719 76.082031 18.886719 76.148438 18.917969 76.199219 C 18.917969 76.199219 23.125 83.164062 24.320312 85.140625 C 25.304688 86.769531 26.324219 88 27.660156 88.839844 C 28.996094 89.679688 30.640625 90.121094 32.855469 90.199219 C 37.222656 90.347656 46.179688 90.367188 50.273438 90.367188 C 51.585938 90.367188 52.398438 90.363281 52.398438 90.363281 C 52.488281 90.363281 52.558594 90.292969 52.558594 90.203125 L 52.398438 90.203125 L 52.398438 90.046875 C 52.398438 90.046875 52.195312 90.046875 51.828125 90.046875 C 51.460938 90.046875 50.929688 90.046875 50.273438 90.046875 C 46.183594 90.046875 37.222656 90.027344 32.867188 89.878906 C 30.6875 89.800781 29.109375 89.371094 27.828125 88.570312 C 26.550781 87.765625 25.566406 86.582031 24.59375 84.976562 C 23.996094 83.988281 22.644531 81.753906 21.445312 79.765625 C 20.84375 78.769531 20.28125 77.835938 19.867188 77.152344 C 19.457031 76.46875 19.191406 76.035156 19.191406 76.03125 L 19.054688 76.117188 L 19.042969 76.277344 C 19.050781 76.277344 20.386719 76.386719 26.601562 76.386719 C 27.136719 76.386719 27.710938 76.386719 28.320312 76.382812 C 29.433594 76.378906 31.296875 76.378906 33.503906 76.378906 C 37.234375 76.378906 41.960938 76.382812 45.75 76.386719 C 47.648438 76.390625 49.308594 76.390625 50.496094 76.394531 C 51.683594 76.394531 52.398438 76.394531 52.398438 76.394531 L 52.398438 76.234375 L 52.238281 76.234375 L 52.238281 90.203125 L 52.398438 90.203125 L 52.398438 90.046875 L 52.398438 90.203125 "/>
<path style=" stroke:none;fill-rule:nonzero;fill:rgb(73.329163%,89.019775%,49.409485%);fill-opacity:1;" d="M 23.445312 53.964844 L 19.332031 51.503906 L 36.148438 46.347656 L 39.820312 63.761719 L 35.453125 61.148438 C 35.453125 61.148438 29.527344 70.710938 27.234375 75.039062 C 23.636719 81.832031 25.082031 86.089844 25.082031 86.089844 C 25.082031 86.089844 19.570312 76.96875 18.375 74.992188 C 16.421875 71.757812 15.964844 69.199219 17.878906 65.238281 C 20.382812 60.042969 23.445312 53.964844 23.445312 53.964844 "/>
<path style=" stroke:none;fill-rule:nonzero;fill:rgb(0%,0%,0%);fill-opacity:1;" d="M 23.445312 53.964844 L 23.527344 53.828125 L 19.726562 51.550781 L 36.03125 46.550781 L 39.585938 63.4375 L 35.535156 61.011719 C 35.460938 60.96875 35.363281 60.992188 35.316406 61.066406 C 35.316406 61.066406 29.390625 70.625 27.09375 74.964844 C 25.085938 78.753906 24.632812 81.769531 24.632812 83.710938 C 24.632812 85.265625 24.925781 86.128906 24.929688 86.140625 L 25.082031 86.089844 L 25.21875 86.007812 C 25.21875 86.007812 19.707031 76.886719 18.511719 74.910156 C 17.425781 73.105469 16.816406 71.539062 16.816406 69.820312 C 16.816406 68.476562 17.1875 67.03125 18.023438 65.308594 C 19.273438 62.710938 20.664062 59.894531 21.746094 57.722656 C 22.285156 56.640625 22.746094 55.71875 23.070312 55.066406 C 23.398438 54.414062 23.589844 54.035156 23.589844 54.035156 C 23.625 53.960938 23.601562 53.871094 23.527344 53.828125 L 23.445312 53.964844 L 23.304688 53.890625 C 23.300781 53.890625 20.238281 59.972656 17.734375 65.167969 C 16.886719 66.921875 16.496094 68.414062 16.496094 69.820312 C 16.496094 71.617188 17.136719 73.25 18.238281 75.074219 C 19.433594 77.050781 24.945312 86.171875 24.945312 86.171875 C 24.984375 86.242188 25.074219 86.269531 25.148438 86.234375 C 25.222656 86.199219 25.257812 86.117188 25.234375 86.039062 L 25.230469 86.03125 C 25.203125 85.945312 24.953125 85.128906 24.953125 83.710938 C 24.953125 81.820312 25.394531 78.859375 27.378906 75.113281 C 28.519531 72.957031 30.574219 69.484375 32.339844 66.554688 C 33.226562 65.089844 34.035156 63.757812 34.628906 62.792969 C 34.925781 62.3125 35.164062 61.921875 35.332031 61.652344 C 35.496094 61.382812 35.589844 61.234375 35.589844 61.234375 L 35.453125 61.148438 L 35.371094 61.285156 L 39.738281 63.898438 C 39.792969 63.929688 39.859375 63.929688 39.914062 63.894531 C 39.964844 63.855469 39.988281 63.792969 39.976562 63.730469 L 36.304688 46.316406 C 36.296875 46.269531 36.269531 46.234375 36.230469 46.210938 C 36.191406 46.1875 36.144531 46.179688 36.101562 46.195312 L 19.289062 51.351562 C 19.226562 51.367188 19.183594 51.421875 19.175781 51.484375 C 19.167969 51.546875 19.199219 51.609375 19.253906 51.640625 L 23.363281 54.101562 L 23.445312 53.964844 L 23.304688 53.890625 L 23.445312 53.964844 "/>
</g>
</svg>
