<?xml version="1.0" encoding="UTF-8"?>
<svg xmlns="http://www.w3.org/2000/svg" xmlns:xlink="http://www.w3.org/1999/xlink" width="112.5pt" height="112.499997pt" viewBox="0 0 112.5 112.499997" version="1.2">
<defs>
<clipPath id="clip1">
  <path d="M 48 13 L 103 13 L 103 112.003906 L 48 112.003906 Z M 48 13 "/>
</clipPath>
</defs>
<g id="surface1">
<path style=" stroke:none;fill-rule:nonzero;fill:rgb(0%,0%,0%);fill-opacity:1;" d="M 50.4375 47.046875 C 49.253906 43.3125 46.546875 40.136719 43.199219 38.539062 C 36.722656 35.453125 29.972656 35.867188 24.152344 36.496094 C 23.410156 36.578125 22.757812 37.039062 22.433594 37.71875 C 22.109375 38.398438 22.15625 39.195312 22.5625 39.832031 C 23.285156 40.972656 24.339844 42.707031 24.851562 43.648438 C 26.148438 46.023438 26.753906 48.765625 27.222656 51.148438 C 28.363281 56.914062 33.984375 62.417969 41.480469 62.417969 C 42.261719 62.417969 43.066406 62.359375 43.890625 62.230469 C 45.070312 62.050781 45.882812 60.9375 45.703125 59.75 C 45.523438 58.5625 44.40625 57.738281 43.234375 57.925781 C 37.273438 58.839844 32.34375 54.722656 31.46875 50.300781 C 30.9375 47.597656 30.238281 44.46875 28.648438 41.550781 C 28.488281 41.253906 28.285156 40.902344 28.0625 40.519531 C 33.039062 40.203125 37.332031 40.5625 41.34375 42.472656 C 43.628906 43.5625 45.484375 45.765625 46.3125 48.367188 C 46.695312 49.570312 46.953125 51.199219 46.621094 53.058594 C 44.671875 50.882812 42.328125 48.550781 39.433594 46.050781 C 38.527344 45.265625 37.160156 45.371094 36.382812 46.28125 C 35.601562 47.191406 35.707031 48.566406 36.613281 49.351562 C 40.453125 52.671875 43.277344 55.636719 45.386719 58.277344 C 45.523438 58.570312 45.722656 58.828125 45.976562 59.039062 C 50.015625 64.304688 51.203125 68.207031 52.015625 70.917969 C 52.125 71.289062 52.230469 71.632812 52.332031 71.957031 C 50.152344 76.578125 48.824219 80.917969 48.230469 84.199219 C 48.015625 85.382812 48.792969 86.515625 49.96875 86.730469 C 50.101562 86.757812 50.230469 86.765625 50.359375 86.765625 C 51.386719 86.765625 52.296875 86.03125 52.488281 84.984375 C 53.0625 81.808594 54.371094 77.566406 56.570312 73.078125 C 56.601562 73.023438 56.628906 72.96875 56.652344 72.910156 C 58.007812 70.171875 59.710938 67.355469 61.777344 64.625 C 61.949219 64.601562 62.125 64.5625 62.292969 64.492188 C 67.167969 62.480469 72.808594 63.757812 72.863281 63.769531 C 74.023438 64.042969 75.1875 63.316406 75.464844 62.144531 C 75.738281 60.976562 75.015625 59.804688 73.851562 59.527344 C 73.664062 59.484375 70.566406 58.777344 66.6875 59.082031 C 69.742188 56.164062 73.335938 53.546875 77.558594 51.539062 C 78.640625 51.027344 79.101562 49.730469 78.589844 48.640625 C 78.078125 47.554688 76.789062 47.089844 75.710938 47.605469 C 73.261719 48.765625 71.023438 50.125 68.945312 51.609375 L 69.039062 51.28125 C 69.367188 50.125 68.703125 48.917969 67.554688 48.585938 C 66.402344 48.253906 65.207031 48.921875 64.878906 50.078125 L 63.0625 56.433594 C 63.046875 56.5 63.039062 56.566406 63.027344 56.632812 C 60.214844 59.4375 57.824219 62.46875 55.863281 65.535156 C 54.828125 61.945312 55.296875 58.785156 56 56.558594 C 57.304688 52.453125 60.242188 48.972656 63.863281 47.25 C 70.421875 44.128906 77.410156 43.726562 85.625 44.394531 C 84.980469 45.453125 84.355469 46.523438 83.921875 47.320312 C 81.644531 51.5 80.636719 56.019531 79.867188 59.925781 C 79.054688 64.046875 76.792969 67.589844 73.664062 69.652344 C 70.269531 71.882812 65.984375 72.453125 60.933594 71.339844 C 59.765625 71.085938 58.613281 71.824219 58.355469 73 C 58.101562 74.171875 58.839844 75.335938 60.007812 75.589844 C 61.957031 76.023438 63.84375 76.238281 65.652344 76.238281 C 69.542969 76.238281 73.070312 75.246094 76.03125 73.296875 C 80.1875 70.558594 83.058594 66.113281 84.113281 60.769531 C 84.820312 57.183594 85.734375 53.050781 87.71875 49.414062 C 88.464844 48.039062 90.03125 45.460938 91.128906 43.730469 C 91.53125 43.097656 91.578125 42.296875 91.253906 41.617188 C 90.929688 40.9375 90.277344 40.476562 89.535156 40.398438 C 81.101562 39.484375 71.324219 38.882812 62.011719 43.316406 C 57.328125 45.546875 53.539062 50.003906 51.875 55.234375 C 51.507812 56.398438 51.265625 57.582031 51.117188 58.769531 C 50.742188 58.214844 50.339844 57.644531 49.90625 57.058594 C 51.292969 53.859375 51.488281 50.355469 50.4375 47.046875 Z M 50.4375 47.046875 "/>
<path style=" stroke:none;fill-rule:nonzero;fill:rgb(0%,0%,0%);fill-opacity:1;" d="M 37.851562 99.105469 C 38.132812 99.222656 38.414062 99.277344 38.699219 99.277344 C 39.539062 99.277344 40.34375 98.78125 40.695312 97.953125 C 41.160156 96.847656 40.648438 95.570312 39.546875 95.097656 C 22.492188 87.789062 12.367188 70.410156 14.351562 51.847656 C 16.628906 30.621094 34.292969 14.757812 54.980469 14.277344 L 49.636719 18.605469 C 48.707031 19.359375 48.558594 20.730469 49.308594 21.667969 C 49.738281 22.199219 50.363281 22.476562 50.996094 22.476562 C 51.472656 22.476562 51.953125 22.320312 52.351562 21.996094 L 62.191406 14.027344 C 63.121094 13.273438 63.269531 11.902344 62.519531 10.964844 L 54.597656 1.070312 C 53.847656 0.132812 52.484375 -0.015625 51.554688 0.738281 C 50.621094 1.492188 50.476562 2.863281 51.222656 3.800781 L 56.109375 9.898438 C 32.769531 9.804688 12.605469 27.535156 10.050781 51.382812 C 7.859375 71.859375 19.03125 91.039062 37.851562 99.105469 Z M 37.851562 99.105469 "/>
<g clip-path="url(#clip1)" clip-rule="nonzero">
<path style=" stroke:none;fill-rule:nonzero;fill:rgb(0%,0%,0%);fill-opacity:1;" d="M 71.996094 17.445312 C 89.042969 24.539062 99.570312 42.394531 97.59375 60.871094 C 95.320312 82.097656 77.648438 97.964844 56.960938 98.441406 L 62.304688 94.113281 C 63.234375 93.355469 63.382812 91.984375 62.632812 91.050781 C 61.882812 90.113281 60.519531 89.964844 59.589844 90.71875 L 49.75 98.691406 C 49.304688 99.054688 49.019531 99.578125 48.957031 100.152344 C 48.894531 100.726562 49.0625 101.300781 49.421875 101.75 L 57.347656 111.648438 C 57.777344 112.179688 58.402344 112.457031 59.035156 112.457031 C 59.511719 112.457031 59.992188 112.300781 60.390625 111.976562 C 61.320312 111.222656 61.46875 109.851562 60.71875 108.914062 L 55.832031 102.816406 C 55.890625 102.816406 55.949219 102.820312 56.003906 102.820312 C 79.273438 102.816406 99.351562 85.121094 101.898438 61.335938 C 104.078125 40.953125 92.464844 21.25 73.648438 13.425781 C 72.546875 12.964844 71.277344 13.496094 70.820312 14.605469 C 70.363281 15.710938 70.890625 16.984375 71.996094 17.445312 Z M 71.996094 17.445312 "/>
</g>
</g>
</svg>
