<?xml version="1.0" encoding="UTF-8"?>
<svg xmlns="http://www.w3.org/2000/svg" xmlns:xlink="http://www.w3.org/1999/xlink" width="375pt" height="374.999991pt" viewBox="0 0 375 374.999991" version="1.2">
<defs>
<clipPath id="clip1">
  <path d="M 4 28.15625 L 365.789062 28.15625 L 365.789062 353.726562 L 4 353.726562 Z M 4 28.15625 "/>
</clipPath>
<clipPath id="clip2">
  <path d="M 0.296875 24 L 328.671875 24 L 328.671875 353.726562 L 0.296875 353.726562 Z M 0.296875 24 "/>
</clipPath>
</defs>
<g id="surface1">
<path style=" stroke:none;fill-rule:nonzero;fill:rgb(98.039246%,70.199585%,15.689087%);fill-opacity:1;" d="M 165.476562 51.09375 C 167.699219 49.4375 168.035156 46.117188 166.222656 43.679688 C 164.410156 41.242188 160.902344 40.4375 158.679688 42.09375 C 156.453125 43.753906 156.355469 47.25 158.167969 49.6875 C 159.980469 52.121094 163.253906 52.753906 165.476562 51.09375 Z M 106.984375 103.320312 L 113.429688 103.320312 C 114.300781 103.320312 115.011719 102.609375 115.011719 101.734375 C 115.011719 100.863281 114.300781 100.152344 113.429688 100.152344 L 106.984375 100.152344 C 106.113281 100.152344 105.402344 100.863281 105.402344 101.734375 C 105.402344 102.609375 106.113281 103.320312 106.984375 103.320312 Z M 106.984375 99.417969 L 113.429688 99.417969 C 114.300781 99.417969 115.011719 98.707031 115.011719 97.832031 C 115.011719 96.957031 114.300781 96.246094 113.429688 96.246094 L 106.984375 96.246094 C 106.113281 96.246094 105.402344 96.957031 105.402344 97.832031 C 105.402344 98.707031 106.113281 99.417969 106.984375 99.417969 Z M 106.984375 107.230469 L 113.429688 107.230469 C 114.300781 107.230469 115.011719 106.519531 115.011719 105.644531 C 115.011719 104.769531 114.300781 104.058594 113.429688 104.058594 L 106.984375 104.058594 C 106.113281 104.058594 105.402344 104.769531 105.402344 105.644531 C 105.402344 106.519531 106.113281 107.230469 106.984375 107.230469 Z M 106.984375 111.132812 L 113.429688 111.132812 C 114.300781 111.132812 115.011719 110.421875 115.011719 109.546875 C 115.011719 108.671875 114.300781 107.960938 113.429688 107.960938 L 106.984375 107.960938 C 106.113281 107.960938 105.402344 108.671875 105.402344 109.546875 C 105.402344 110.421875 106.113281 111.132812 106.984375 111.132812 Z M 316.957031 174.703125 C 316.921875 173.867188 316.207031 173.183594 315.308594 173.183594 C 315.308594 173.183594 305.902344 173.582031 305.902344 173.582031 C 305.480469 173.601562 305.085938 173.78125 304.804688 174.09375 C 304.519531 174.40625 304.367188 174.808594 304.386719 175.234375 C 304.421875 176.085938 305.117188 176.753906 305.96875 176.753906 L 315.441406 176.351562 C 316.3125 176.3125 316.992188 175.574219 316.957031 174.703125 Z M 304.902344 154.914062 C 304.902344 155.925781 305.726562 156.75 306.738281 156.75 C 307.753906 156.75 308.578125 155.925781 308.578125 154.914062 C 308.578125 153.898438 307.753906 153.074219 306.738281 153.074219 C 305.726562 153.074219 304.902344 153.898438 304.902344 154.914062 Z M 315.421875 193.472656 C 316.4375 193.472656 317.257812 192.644531 317.257812 191.632812 C 317.257812 190.621094 316.4375 189.792969 315.421875 189.792969 C 314.410156 189.792969 313.589844 190.621094 313.589844 191.632812 C 313.589844 192.644531 314.410156 193.472656 315.421875 193.472656 Z M 315.027344 182.808594 C 316.039062 182.808594 316.859375 181.984375 316.859375 180.96875 C 316.859375 179.957031 316.039062 179.132812 315.027344 179.132812 C 314.011719 179.132812 313.191406 179.957031 313.191406 180.96875 C 313.191406 181.984375 314.011719 182.808594 315.027344 182.808594 Z M 305.425781 180.996094 C 305.425781 182.011719 306.25 182.832031 307.261719 182.832031 C 308.273438 182.832031 309.097656 182.011719 309.097656 180.996094 C 309.097656 179.980469 308.273438 179.15625 307.261719 179.15625 C 306.25 179.15625 305.425781 179.980469 305.425781 180.996094 Z M 312.925781 155.988281 C 313.246094 156.242188 313.648438 156.378906 314.054688 156.378906 C 314.625 156.378906 315.15625 156.121094 315.5 155.667969 C 315.804688 155.28125 315.9375 154.800781 315.878906 154.3125 C 315.820312 153.828125 315.574219 153.390625 315.1875 153.089844 C 314.863281 152.835938 314.460938 152.699219 314.058594 152.699219 C 313.484375 152.699219 312.957031 152.957031 312.609375 153.40625 C 311.984375 154.203125 312.128906 155.363281 312.925781 155.988281 Z M 308.09375 161.085938 C 307.773438 160.835938 307.371094 160.695312 306.964844 160.695312 C 306.394531 160.695312 305.867188 160.953125 305.515625 161.402344 C 305.214844 161.789062 305.082031 162.273438 305.140625 162.757812 C 305.203125 163.246094 305.449219 163.683594 305.835938 163.984375 C 306.15625 164.234375 306.554688 164.375 306.960938 164.375 C 307.53125 164.375 308.0625 164.117188 308.410156 163.667969 C 309.035156 162.867188 308.894531 161.710938 308.09375 161.085938 Z M 314.425781 160.324219 C 313.417969 160.324219 312.59375 161.148438 312.59375 162.164062 C 312.59375 163.175781 313.417969 164 314.425781 164 C 315.441406 164 316.265625 163.175781 316.265625 162.164062 C 316.265625 161.148438 315.441406 160.324219 314.425781 160.324219 Z M 320.832031 202.144531 C 318.828125 201.574219 317.027344 200.835938 315.378906 199.976562 L 316.210938 199.941406 C 316.632812 199.925781 317.023438 199.742188 317.308594 199.433594 C 317.597656 199.121094 317.746094 198.714844 317.726562 198.292969 C 317.691406 197.472656 316.972656 196.773438 316.082031 196.773438 C 316.082031 196.773438 313.40625 196.890625 310.910156 196.996094 C 309.8125 196.0625 308.816406 195.035156 307.921875 193.933594 C 308.761719 193.765625 309.398438 193.023438 309.398438 192.128906 C 309.398438 191.117188 308.570312 190.292969 307.5625 190.292969 C 306.882812 190.292969 306.296875 190.667969 305.976562 191.214844 C 303.546875 187.269531 302.054688 182.542969 301.191406 177.28125 C 303.332031 175.429688 304.722656 173.371094 305.140625 171.113281 C 305.402344 171.300781 305.71875 171.421875 306.066406 171.421875 L 315.539062 171.019531 C 315.960938 171 316.355469 170.820312 316.640625 170.507812 C 316.925781 170.195312 317.074219 169.792969 317.054688 169.371094 C 317.019531 168.535156 316.316406 167.855469 315.410156 167.855469 C 315.410156 167.855469 306 168.253906 306 168.253906 C 305.679688 168.265625 305.375 168.375 305.121094 168.566406 C 304.613281 166.632812 302.847656 165.140625 300.171875 164.015625 C 300.140625 161.097656 300.203125 158.089844 300.320312 155.035156 C 303.59375 153.132812 306.476562 150.765625 307.296875 148.042969 C 308.460938 144.183594 306.628906 138.28125 301.382812 136.863281 C 303.640625 101.445312 304.1875 66.082031 251.941406 70.722656 C 127.789062 81.75 91.414062 140.074219 81.238281 163.027344 C 62.335938 205.640625 79.800781 226.992188 52.699219 255.035156 C 25.597656 283.074219 15.800781 351.882812 15.800781 351.882812 L 334.832031 352.898438 C 334.832031 352.898438 374.714844 217.476562 320.832031 202.144531 Z M 61.417969 189.121094 L 4.808594 189.121094 L 4.085938 182.425781 L 62.382812 182.65625 L 61.417969 189.121094 "/>
<path style=" stroke:none;fill-rule:nonzero;fill:rgb(93.728638%,16.859436%,27.839661%);fill-opacity:1;" d="M 150.339844 190.761719 C 149.945312 190.222656 148.597656 189.445312 147.933594 189.445312 L 143.9375 189.664062 L 155.054688 202.765625 C 155.953125 203.9375 156.441406 205.371094 156.441406 206.847656 L 156.441406 209.628906 L 105.3125 209.628906 L 105.3125 205.734375 C 105.3125 204.121094 104.730469 202.5625 103.671875 201.34375 L 94.488281 190.738281 C 94.140625 190.335938 93.632812 190.113281 93.105469 190.128906 L 88.707031 190.195312 L 98.046875 200.480469 C 99.898438 202.847656 100.902344 205.769531 100.902344 208.777344 L 100.902344 244.648438 L 160.898438 244.648438 L 160.898438 206.164062 C 160.898438 204.742188 160.445312 203.359375 159.609375 202.210938 Z M 71.101562 128.324219 L 8.394531 104.6875 C 8.058594 104.558594 7.6875 104.550781 7.347656 104.660156 L 3.433594 105.921875 C 2.792969 106.128906 2.351562 106.714844 2.332031 107.390625 L 1.75 126.335938 C 1.730469 127.015625 2.140625 127.636719 2.777344 127.871094 L 65.488281 151.511719 C 65.820312 151.640625 66.191406 151.648438 66.535156 151.539062 L 70.445312 150.277344 C 71.085938 150.070312 71.527344 149.484375 71.546875 148.808594 L 72.128906 129.867188 C 72.152344 129.183594 71.738281 128.5625 71.101562 128.324219 Z M 195.503906 32.566406 C 195.734375 32.449219 195.960938 32.320312 196.175781 32.15625 C 198.398438 30.5 198.734375 27.179688 196.921875 24.746094 C 195.109375 22.308594 191.601562 21.5 189.378906 23.160156 C 189.214844 23.28125 189.070312 23.410156 188.933594 23.550781 L 159.257812 41.738281 C 161.476562 40.589844 164.5625 41.445312 166.222656 43.679688 C 167.820312 45.828125 167.75 48.664062 166.183594 50.441406 Z M 15.441406 74.046875 L 34.734375 74.046875 C 35.386719 74.046875 35.914062 73.519531 35.914062 72.871094 L 35.914062 70.648438 C 35.914062 69.996094 35.386719 69.46875 34.734375 69.46875 L 15.441406 69.46875 C 14.789062 69.46875 14.265625 69.996094 14.265625 70.648438 L 14.265625 72.871094 C 14.265625 73.519531 14.789062 74.046875 15.441406 74.046875 Z M 84.574219 69.664062 L 65.277344 69.664062 C 64.628906 69.664062 64.101562 70.195312 64.101562 70.84375 L 64.101562 73.066406 C 64.101562 73.714844 64.628906 74.242188 65.277344 74.242188 L 84.574219 74.242188 C 85.222656 74.242188 85.75 73.714844 85.75 73.066406 L 85.75 70.84375 C 85.75 70.195312 85.222656 69.664062 84.574219 69.664062 Z M 9.289062 240.992188 C 9.402344 242.308594 10.5 243.316406 11.820312 243.316406 L 54.410156 243.316406 C 55.730469 243.316406 56.828125 242.308594 56.941406 240.992188 L 61.417969 189.121094 L 4.8125 189.121094 Z M 61.417969 189.121094 Z M 109.570312 137.011719 L 111.222656 137.011719 C 112.488281 137.011719 113.515625 135.984375 113.515625 134.722656 L 113.515625 111.117188 L 107.28125 111.117188 L 107.28125 134.722656 C 107.28125 135.984375 108.304688 137.011719 109.570312 137.011719 Z M 317.164062 217.242188 C 317.164062 216.664062 316.699219 216.195312 316.121094 216.195312 C 315.542969 216.195312 315.074219 216.664062 315.074219 217.242188 C 315.074219 217.820312 315.542969 218.289062 316.121094 218.289062 C 316.699219 218.289062 317.164062 217.820312 317.164062 217.242188 Z M 315.621094 209.71875 C 316.199219 209.71875 316.667969 209.25 316.667969 208.671875 C 316.667969 208.09375 316.199219 207.625 315.621094 207.625 C 315.046875 207.625 314.578125 208.09375 314.578125 208.671875 C 314.578125 209.25 315.046875 209.71875 315.621094 209.71875 Z M 309.699219 217.542969 C 309.699219 216.960938 309.234375 216.496094 308.65625 216.496094 C 308.078125 216.496094 307.613281 216.960938 307.613281 217.542969 C 307.613281 218.117188 308.078125 218.589844 308.65625 218.589844 C 309.234375 218.589844 309.699219 218.117188 309.699219 217.542969 Z M 307.414062 208.671875 C 307.414062 209.25 307.878906 209.71875 308.457031 209.71875 C 309.035156 209.71875 309.503906 209.25 309.503906 208.671875 C 309.503906 208.09375 309.035156 207.625 308.457031 207.625 C 307.878906 207.625 307.414062 208.09375 307.414062 208.671875 Z M 306.671875 204.878906 L 316.078125 204.480469 C 316.515625 204.464844 316.855469 204.09375 316.839844 203.65625 C 316.816406 203.21875 316.421875 202.886719 316.011719 202.898438 L 306.609375 203.296875 C 306.167969 203.3125 305.832031 203.683594 305.847656 204.121094 C 305.867188 204.550781 306.21875 204.882812 306.640625 204.882812 C 306.652344 204.882812 306.664062 204.882812 306.671875 204.878906 Z M 305.566406 204.507812 L 305.421875 198.726562 L 205.136719 201.226562 L 205.277344 207.007812 Z M 305.179688 175.199219 C 305.195312 175.625 305.546875 175.957031 305.96875 175.957031 C 305.976562 175.957031 305.992188 175.957031 306 175.957031 L 315.40625 175.558594 C 315.84375 175.539062 316.183594 175.171875 316.164062 174.734375 C 316.144531 174.296875 315.757812 173.964844 315.339844 173.972656 L 305.933594 174.371094 C 305.5 174.394531 305.160156 174.761719 305.179688 175.199219 Z M 305.277344 169.871094 C 305.296875 170.292969 305.644531 170.625 306.066406 170.625 C 306.082031 170.625 306.089844 170.625 306.101562 170.625 L 315.507812 170.226562 C 315.945312 170.210938 316.28125 169.839844 316.265625 169.402344 C 316.246094 168.964844 315.84375 168.621094 315.441406 168.644531 L 306.035156 169.042969 C 305.601562 169.0625 305.257812 169.429688 305.277344 169.871094 Z M 307.605469 161.710938 C 307.152344 161.355469 306.496094 161.433594 306.140625 161.890625 C 305.785156 162.347656 305.867188 163.003906 306.320312 163.359375 C 306.777344 163.71875 307.433594 163.632812 307.789062 163.179688 C 308.140625 162.726562 308.0625 162.066406 307.605469 161.710938 Z M 305.695312 154.914062 C 305.695312 155.488281 306.164062 155.960938 306.738281 155.960938 C 307.316406 155.960938 307.785156 155.488281 307.785156 154.914062 C 307.785156 154.332031 307.316406 153.867188 306.738281 153.867188 C 306.164062 153.867188 305.695312 154.332031 305.695312 154.914062 Z M 313.414062 155.363281 C 313.867188 155.71875 314.523438 155.636719 314.878906 155.183594 C 315.234375 154.726562 315.15625 154.070312 314.699219 153.714844 C 314.242188 153.359375 313.589844 153.4375 313.234375 153.894531 C 312.875 154.351562 312.957031 155.007812 313.414062 155.363281 Z M 314.425781 161.113281 C 313.851562 161.113281 313.386719 161.585938 313.386719 162.164062 C 313.386719 162.738281 313.851562 163.207031 314.425781 163.207031 C 315.003906 163.207031 315.472656 162.738281 315.472656 162.164062 C 315.472656 161.585938 315.003906 161.113281 314.425781 161.113281 Z M 316.46875 191.632812 C 316.46875 191.054688 316 190.585938 315.421875 190.585938 C 314.847656 190.585938 314.378906 191.054688 314.378906 191.632812 C 314.378906 192.210938 314.847656 192.679688 315.421875 192.679688 C 316 192.679688 316.46875 192.210938 316.46875 191.632812 Z M 315.027344 182.015625 C 315.605469 182.015625 316.070312 181.546875 316.070312 180.96875 C 316.070312 180.394531 315.605469 179.921875 315.027344 179.921875 C 314.449219 179.921875 313.980469 180.394531 313.980469 180.96875 C 313.980469 181.546875 314.449219 182.015625 315.027344 182.015625 Z M 307.5625 191.082031 C 306.984375 191.082031 306.515625 191.554688 306.515625 192.128906 C 306.515625 192.710938 306.984375 193.175781 307.5625 193.175781 C 308.136719 193.175781 308.605469 192.710938 308.605469 192.128906 C 308.605469 191.554688 308.136719 191.082031 307.5625 191.082031 Z M 308.308594 180.996094 C 308.308594 180.417969 307.839844 179.949219 307.261719 179.949219 C 306.683594 179.949219 306.21875 180.417969 306.21875 180.996094 C 306.21875 181.570312 306.683594 182.042969 307.261719 182.042969 C 307.839844 182.042969 308.308594 181.570312 308.308594 180.996094 Z M 316.109375 197.570312 L 306.707031 197.96875 C 306.269531 197.984375 305.933594 198.355469 305.949219 198.789062 C 305.964844 199.21875 306.320312 199.550781 306.738281 199.550781 C 306.75 199.550781 306.761719 199.550781 306.773438 199.550781 L 316.179688 199.152344 C 316.613281 199.132812 316.957031 198.765625 316.933594 198.324219 C 316.917969 197.886719 316.507812 197.539062 316.109375 197.570312 Z M 204.605469 219.710938 C 204.605469 219.128906 204.140625 218.664062 203.5625 218.664062 C 202.984375 218.664062 202.515625 219.128906 202.515625 219.710938 C 202.515625 220.285156 202.984375 220.753906 203.5625 220.753906 C 204.140625 220.753906 204.605469 220.285156 204.605469 219.710938 Z M 203.0625 212.183594 C 203.640625 212.183594 204.109375 211.714844 204.109375 211.140625 C 204.109375 210.5625 203.640625 210.09375 203.0625 210.09375 C 202.488281 210.09375 202.019531 210.5625 202.019531 211.140625 C 202.019531 211.714844 202.488281 212.183594 203.0625 212.183594 Z M 197.140625 220.007812 C 197.140625 219.429688 196.671875 218.960938 196.097656 218.960938 C 195.523438 218.960938 195.050781 219.429688 195.050781 220.007812 C 195.050781 220.585938 195.523438 221.054688 196.097656 221.054688 C 196.671875 221.054688 197.140625 220.585938 197.140625 220.007812 Z M 194.855469 211.140625 C 194.855469 211.714844 195.320312 212.183594 195.898438 212.183594 C 196.476562 212.183594 196.941406 211.714844 196.941406 211.140625 C 196.941406 210.5625 196.476562 210.09375 195.898438 210.09375 C 195.320312 210.09375 194.855469 210.5625 194.855469 211.140625 Z M 194.117188 207.347656 L 203.519531 206.949219 C 203.957031 206.929688 204.296875 206.5625 204.277344 206.125 C 204.261719 205.683594 203.851562 205.34375 203.453125 205.363281 L 194.050781 205.765625 C 193.613281 205.78125 193.273438 206.152344 193.292969 206.585938 C 193.308594 207.015625 193.660156 207.347656 194.082031 207.347656 C 194.09375 207.347656 194.105469 207.347656 194.117188 207.347656 Z M 193.410156 178.425781 C 193.421875 178.425781 193.429688 178.425781 193.441406 178.425781 L 202.847656 178.023438 C 203.285156 178.003906 203.625 177.636719 203.605469 177.199219 C 203.585938 176.761719 203.1875 176.421875 202.78125 176.441406 L 193.378906 176.839844 C 192.9375 176.859375 192.601562 177.226562 192.617188 177.664062 C 192.636719 178.089844 192.988281 178.425781 193.410156 178.425781 Z M 192.71875 172.335938 C 192.734375 172.761719 193.085938 173.09375 193.507812 173.09375 C 193.519531 173.09375 193.53125 173.09375 193.542969 173.089844 L 202.949219 172.691406 C 203.382812 172.675781 203.722656 172.304688 203.703125 171.871094 C 203.6875 171.429688 203.304688 171.074219 202.878906 171.109375 L 193.476562 171.507812 C 193.039062 171.527344 192.703125 171.894531 192.71875 172.335938 Z M 195.050781 164.175781 C 194.59375 163.820312 193.9375 163.902344 193.582031 164.355469 C 193.226562 164.8125 193.304688 165.472656 193.761719 165.828125 C 194.214844 166.183594 194.875 166.101562 195.230469 165.644531 C 195.585938 165.191406 195.5 164.535156 195.050781 164.175781 Z M 193.136719 157.378906 C 193.136719 157.957031 193.601562 158.425781 194.179688 158.425781 C 194.761719 158.425781 195.226562 157.957031 195.226562 157.378906 C 195.226562 156.800781 194.761719 156.332031 194.179688 156.332031 C 193.601562 156.332031 193.136719 156.800781 193.136719 157.378906 Z M 202.136719 156.179688 C 201.6875 155.824219 201.027344 155.90625 200.671875 156.359375 C 200.316406 156.816406 200.398438 157.472656 200.851562 157.828125 C 201.308594 158.183594 201.964844 158.105469 202.320312 157.648438 C 202.671875 157.195312 202.59375 156.535156 202.136719 156.179688 Z M 201.871094 163.582031 C 201.292969 163.582031 200.824219 164.050781 200.824219 164.628906 C 200.824219 165.203125 201.292969 165.675781 201.871094 165.675781 C 202.445312 165.675781 202.914062 165.203125 202.914062 164.628906 C 202.914062 164.050781 202.445312 163.582031 201.871094 163.582031 Z M 202.863281 193.054688 C 202.289062 193.054688 201.820312 193.519531 201.820312 194.101562 C 201.820312 194.675781 202.289062 195.144531 202.863281 195.144531 C 203.441406 195.144531 203.90625 194.675781 203.90625 194.101562 C 203.90625 193.519531 203.441406 193.054688 202.863281 193.054688 Z M 202.464844 184.480469 C 203.042969 184.480469 203.511719 184.015625 203.511719 183.4375 C 203.511719 182.859375 203.042969 182.390625 202.464844 182.390625 C 201.890625 182.390625 201.421875 182.859375 201.421875 183.4375 C 201.421875 184.015625 201.890625 184.480469 202.464844 184.480469 Z M 195.003906 193.550781 C 194.425781 193.550781 193.957031 194.019531 193.957031 194.597656 C 193.957031 195.175781 194.425781 195.644531 195.003906 195.644531 C 195.578125 195.644531 196.046875 195.175781 196.046875 194.597656 C 196.046875 194.019531 195.578125 193.550781 195.003906 193.550781 Z M 195.746094 183.460938 C 195.746094 182.882812 195.28125 182.414062 194.707031 182.414062 C 194.128906 182.414062 193.660156 182.882812 193.660156 183.460938 C 193.660156 184.039062 194.128906 184.507812 194.707031 184.507812 C 195.28125 184.507812 195.746094 184.039062 195.746094 183.460938 Z M 203.554688 200.035156 L 194.148438 200.433594 C 193.710938 200.449219 193.371094 200.820312 193.390625 201.257812 C 193.410156 201.683594 193.761719 202.015625 194.179688 202.015625 C 194.191406 202.015625 194.203125 202.015625 194.214844 202.015625 L 203.617188 201.617188 C 204.054688 201.597656 204.394531 201.230469 204.378906 200.789062 C 204.359375 200.351562 203.964844 199.996094 203.554688 200.035156 Z M 248.34375 149.515625 L 251.925781 149.421875 C 251.160156 148.96875 250.394531 148.296875 249.839844 147.34375 C 249.347656 148.019531 248.851562 148.742188 248.34375 149.515625 Z M 324.074219 224.179688 L 290.726562 225.011719 L 284.074219 216.832031 C 284.074219 216.832031 281.886719 220.941406 278.632812 225.3125 L 187.175781 227.59375 L 186.675781 207.46875 L 193.042969 207.308594 L 192.898438 201.535156 L 186.53125 201.691406 L 185.945312 178.183594 L 192.316406 178.023438 L 192.171875 172.246094 L 185.804688 172.402344 L 185.269531 151.085938 L 200.785156 150.699219 C 201.046875 150.464844 201.292969 150.222656 201.511719 149.972656 C 202.242188 149.140625 202.417969 149.691406 202.015625 150.667969 L 242.535156 149.65625 C 240.867188 148.074219 239.847656 146 239.847656 143.71875 C 239.847656 138.800781 243.589844 136.730469 249.46875 136.730469 C 253.496094 136.730469 257.003906 137.253906 258.753906 139.433594 C 258.042969 139.699219 257.296875 140.078125 256.523438 140.574219 C 256.535156 140.726562 256.929688 144.238281 259.25 146.679688 C 259.464844 146.910156 259.199219 147.265625 258.925781 147.113281 C 256.863281 145.996094 254.292969 144.042969 255.269531 141.605469 L 256.445312 140.625 C 254.710938 141.753906 252.8125 143.511719 250.789062 146.089844 C 250.9375 146.351562 251.921875 147.996094 254.175781 149.367188 L 258.902344 149.25 C 256.289062 149.785156 253.328125 150.527344 250.144531 150.914062 C 249.257812 151.019531 248.335938 151.039062 247.390625 151.007812 C 246.820312 150.992188 246.242188 150.953125 245.664062 150.90625 C 245.632812 150.898438 245.601562 150.898438 245.566406 150.898438 C 244.996094 150.84375 244.417969 150.785156 243.839844 150.714844 C 240.515625 150.328125 237.242188 149.777344 234.835938 150.347656 C 229.257812 151.679688 227.175781 160.496094 226.417969 168.101562 C 222.128906 169.222656 218.226562 170.429688 214.914062 171.679688 L 204.410156 171.9375 L 204.550781 177.636719 C 203.058594 179.542969 203.527344 181.417969 206.621094 183.125 C 224.988281 193.265625 290.546875 191.851562 302.121094 175.285156 L 304.839844 175.21875 L 304.695312 169.4375 L 303.851562 169.460938 C 303.152344 162.964844 290.449219 160.773438 274.308594 161.207031 C 272.1875 156.453125 269.78125 151.921875 267.628906 149.945312 C 267.210938 149.558594 266.742188 149.273438 266.226562 149.066406 L 286.042969 148.574219 C 284.910156 147.550781 283.828125 146.117188 283.257812 144.253906 L 284.890625 142.847656 C 284.890625 142.847656 286.429688 146.144531 288.53125 148.511719 L 322.171875 147.675781 L 322.703125 168.992188 L 316.933594 169.136719 L 317.074219 174.910156 L 322.84375 174.769531 L 323.433594 198.28125 L 317.660156 198.421875 L 317.804688 204.199219 L 323.574219 204.054688 Z M 219.335938 143.476562 C 215.902344 143.851562 222.542969 146.617188 227.472656 142.804688 L 226.949219 140.714844 C 226.949219 140.714844 222.769531 143.105469 219.335938 143.476562 Z M 199.238281 145.417969 C 196.359375 147.113281 192.859375 146.664062 192.859375 146.664062 L 193.570312 148.074219 C 195.660156 149.535156 198.066406 147.527344 199.574219 145.820312 C 199.777344 145.597656 199.5 145.261719 199.238281 145.417969 Z M 190.777344 134.628906 C 190.777344 136.695312 191.609375 138.59375 193 140.113281 C 194.539062 137.414062 198.015625 136.507812 200.410156 137.222656 C 202.488281 137.839844 204.285156 140.132812 205.699219 142.660156 C 206.277344 142.394531 206.808594 142.074219 207.296875 141.703125 C 205.730469 138.277344 204.757812 134.703125 205.652344 132.019531 C 206.027344 130.890625 206.714844 129.769531 207.632812 128.792969 C 205.75 127.902344 203.203125 127.644531 200.398438 127.644531 C 194.519531 127.644531 190.777344 129.714844 190.777344 134.628906 Z M 222.464844 130.933594 C 222.410156 131.039062 220.136719 135.316406 215.949219 137.230469 C 215.5625 137.40625 215.722656 137.988281 216.140625 137.941406 C 219.292969 137.578125 223.515625 136.425781 223.515625 132.863281 L 222.503906 130.988281 C 223.054688 131.765625 223.589844 132.644531 224.105469 133.628906 C 226.199219 131.949219 227.382812 129.390625 227.464844 126.582031 C 227.636719 120.828125 222.875 119.722656 217 119.722656 C 211.121094 119.722656 207.378906 121.792969 207.378906 126.710938 C 207.378906 127.417969 207.484375 128.097656 207.667969 128.757812 C 211.011719 125.238281 217.332031 123.691406 222.464844 130.933594 Z M 276.480469 133.890625 C 276.480469 128.972656 280.222656 126.902344 286.097656 126.902344 C 291.976562 126.902344 296.742188 128.011719 296.570312 133.765625 C 296.539062 134.863281 296.324219 135.925781 295.96875 136.910156 C 295.398438 137.046875 294.800781 137.234375 294.183594 137.449219 C 294.164062 137.621094 293.578125 142.394531 295.878906 146.351562 C 296.09375 146.71875 295.628906 147.105469 295.3125 146.824219 C 292.949219 144.707031 290.164062 141.328125 292.214844 138.417969 L 294.085938 137.484375 C 291.511719 138.410156 288.558594 140.058594 285.199219 142.699219 C 280.21875 141.960938 276.480469 138.285156 276.480469 133.890625 "/>
<g clip-path="url(#clip1)" clip-rule="nonzero">
<path style=" stroke:none;fill-rule:nonzero;fill:rgb(12.548828%,39.99939%,28.239441%);fill-opacity:1;" d="M 247.078125 126.820312 C 247.765625 126.492188 250.015625 125.265625 250.515625 125.902344 C 251.515625 127.183594 250.46875 130.425781 253.296875 126.09375 C 253.875 125.210938 254.882812 129.328125 255.515625 130.742188 C 255.675781 131.089844 256.199219 130.988281 256.210938 130.605469 C 256.296875 128.011719 255.636719 124.898438 253.003906 123.808594 C 254.207031 121.757812 258.410156 114.511719 258.046875 113.667969 C 257.625 112.6875 255.976562 113.308594 255.976562 113.308594 C 253.808594 115.484375 252.460938 121.730469 252.105469 123.539062 C 249.84375 123.15625 247.835938 125.0625 246.734375 126.398438 C 246.539062 126.628906 246.804688 126.949219 247.078125 126.820312 Z M 226.203125 120.417969 C 226.757812 119.894531 228.515625 118.027344 229.191406 118.484375 C 230.539062 119.386719 230.542969 122.796875 231.894531 117.804688 C 232.171875 116.785156 234.402344 120.390625 235.441406 121.539062 C 235.699219 121.816406 236.164062 121.558594 236.058594 121.191406 C 235.335938 118.699219 233.753906 115.945312 230.910156 115.71875 C 231.421875 113.398438 233.1875 105.203125 232.578125 104.515625 C 231.875 103.710938 230.5 104.816406 230.5 104.816406 C 229.113281 107.554688 229.75 113.914062 229.972656 115.742188 C 227.703125 116.074219 226.382812 118.511719 225.75 120.121094 C 225.636719 120.402344 225.984375 120.621094 226.203125 120.417969 Z M 61.617188 187.785156 L 4.667969 187.785156 L 5.644531 198.753906 L 60.558594 199.011719 Z M 106.433594 126.386719 L 114.871094 126.386719 C 115.363281 126.386719 115.761719 125.988281 115.761719 125.496094 L 115.761719 122.441406 C 115.761719 121.949219 115.363281 121.546875 114.871094 121.546875 L 106.433594 121.546875 C 105.941406 121.546875 105.542969 121.949219 105.542969 122.441406 L 105.542969 125.496094 C 105.542969 125.988281 105.941406 126.386719 106.433594 126.386719 Z M 113.832031 112.898438 L 106.960938 112.898438 L 106.960938 114.683594 L 113.832031 114.683594 Z M 306.457031 143.183594 C 306.457031 143.183594 334.722656 140.59375 335.429688 138.898438 C 336.136719 137.203125 334.558594 134.257812 333.808594 134.457031 C 333.058594 134.660156 322.566406 137.613281 322.566406 137.613281 L 327.25 134.949219 C 327.25 134.949219 328.292969 133.121094 327.238281 132.375 C 326.28125 131.699219 310.992188 139.757812 308.082031 141.296875 C 311.371094 139.550781 330.96875 129.066406 330.996094 128.078125 C 331.023438 127 331.253906 124.601562 328.878906 125.730469 C 326.5 126.851562 299.382812 143.546875 306.457031 143.183594 Z M 226.046875 140.683594 C 224.679688 145.488281 221.300781 137.757812 219.09375 142.949219 C 218.511719 144.324219 221.292969 146.957031 223.65625 150.128906 L 242.796875 149.652344 C 245.144531 145.78125 246.382812 141.472656 243.457031 138.292969 C 236.675781 130.921875 238.960938 143.34375 235.628906 141.539062 C 232.300781 139.734375 231.035156 122.007812 221.847656 125.34375 C 212.65625 128.679688 227.414062 135.878906 226.046875 140.683594 Z M 271.765625 148.929688 L 278.484375 148.761719 C 278.792969 148.460938 279.09375 148.160156 279.414062 147.847656 C 291.246094 136.148438 299.105469 135.105469 303.460938 137.75 C 309.96875 133.675781 321.867188 131.074219 314.480469 122.75 C 304.925781 111.988281 288.203125 139.890625 282.632812 139.890625 C 279.710938 139.890625 282.253906 134.3125 283.332031 129.6875 C 284.265625 129.738281 285.171875 129.789062 285.230469 129.957031 C 285.359375 130.296875 284.0625 131.082031 284.230469 131.105469 C 284.402344 131.125 285.378906 130.273438 286.402344 129.914062 C 287.425781 129.550781 289.019531 130.871094 289.316406 130.851562 C 289.613281 130.828125 287.804688 129.785156 287.804688 129.273438 C 287.804688 128.765625 290.953125 129.25 291.019531 128.871094 C 291.082031 128.488281 287.722656 128.953125 287.488281 128.617188 C 287.253906 128.269531 288.722656 127.464844 288.445312 127.441406 C 288.164062 127.421875 286.421875 128.378906 286.421875 128.378906 C 286.339844 126.546875 287.398438 124.519531 287.875 123.703125 C 287.980469 123.523438 287.867188 123.300781 287.664062 123.269531 L 287.097656 123.1875 C 286.984375 123.175781 286.867188 123.21875 286.808594 123.316406 C 285.828125 124.941406 286.101562 128.238281 286.042969 128.53125 C 285.976562 128.828125 284.765625 127.828125 284.421875 127.976562 C 284.082031 128.125 284.789062 128.679688 284.894531 129.144531 C 284.9375 129.351562 284.21875 129.371094 283.40625 129.347656 C 284.296875 125.304688 283.910156 122.128906 277.457031 124.34375 C 268.507812 127.417969 269.742188 140.1875 271.765625 148.929688 Z M 209.132812 128.53125 C 214.707031 132.914062 202.167969 103.621094 200.875 101.324219 C 199.582031 99.035156 198.386719 101.128906 197.789062 102.023438 C 197.242188 102.84375 207.238281 122.773438 208.894531 126.066406 C 207.421875 123.152344 199.558594 107.703125 198.386719 107.703125 C 197.089844 107.703125 196.894531 109.796875 196.894531 109.796875 L 199.183594 114.679688 C 199.183594 114.679688 192.316406 106.207031 191.816406 105.613281 C 191.316406 105.011719 188.335938 106.507812 187.9375 108.300781 C 187.539062 110.097656 209.132812 128.53125 209.132812 128.53125 Z M 205.3125 129.609375 C 205.375 129.226562 202.019531 129.695312 201.785156 129.355469 C 201.546875 129.015625 203.015625 128.203125 202.738281 128.183594 C 202.464844 128.164062 200.722656 129.121094 200.722656 129.121094 C 200.636719 127.285156 201.695312 125.257812 202.171875 124.445312 C 202.277344 124.261719 202.164062 124.039062 201.960938 124.007812 L 201.398438 123.929688 C 201.28125 123.914062 201.164062 123.960938 201.109375 124.058594 C 200.121094 125.679688 200.398438 128.980469 200.335938 129.269531 C 200.273438 129.566406 199.058594 128.566406 198.71875 128.714844 C 198.378906 128.863281 199.082031 129.417969 199.1875 129.886719 C 199.296875 130.355469 195.402344 129.84375 195.53125 130.164062 C 195.660156 130.480469 199.402344 130.355469 199.53125 130.695312 C 199.65625 131.035156 198.359375 131.824219 198.527344 131.847656 C 198.699219 131.867188 199.679688 131.015625 200.699219 130.652344 C 201.71875 130.289062 203.316406 131.609375 203.613281 131.589844 C 203.910156 131.566406 202.101562 130.523438 202.101562 130.015625 C 202.101562 129.5 205.25 129.992188 205.3125 129.609375 Z M 215.128906 123.925781 C 215.300781 123.945312 216.277344 123.09375 217.300781 122.734375 C 218.316406 122.367188 219.914062 123.691406 220.214844 123.671875 C 220.511719 123.648438 218.703125 122.605469 218.703125 122.09375 C 218.703125 121.582031 221.851562 122.074219 221.914062 121.6875 C 221.976562 121.304688 218.617188 121.773438 218.382812 121.433594 C 218.148438 121.09375 219.617188 120.285156 219.339844 120.261719 C 219.066406 120.242188 217.320312 121.199219 217.320312 121.199219 C 217.238281 119.363281 218.296875 117.339844 218.773438 116.523438 C 218.875 116.34375 218.765625 116.117188 218.5625 116.089844 L 217.996094 116.011719 C 217.882812 115.992188 217.765625 116.039062 217.707031 116.140625 C 216.722656 117.761719 217 121.058594 216.9375 121.347656 C 216.875 121.644531 215.660156 120.644531 215.320312 120.792969 C 214.980469 120.945312 215.683594 121.496094 215.789062 121.96875 C 215.894531 122.433594 212.003906 121.925781 212.132812 122.242188 C 212.257812 122.5625 216.003906 122.433594 216.128906 122.777344 C 216.257812 123.117188 214.960938 123.90625 215.128906 123.925781 Z M 247.601562 140.929688 C 247.769531 140.953125 248.75 140.101562 249.769531 139.738281 C 250.789062 139.378906 252.382812 140.699219 252.683594 140.679688 C 252.980469 140.65625 251.171875 139.613281 251.171875 139.101562 C 251.171875 138.589844 254.320312 139.078125 254.382812 138.699219 C 254.445312 138.3125 251.085938 138.78125 250.851562 138.441406 C 250.617188 138.101562 252.085938 137.289062 251.808594 137.269531 C 251.535156 137.25 249.789062 138.207031 249.789062 138.207031 C 249.707031 136.375 250.765625 134.347656 251.242188 133.53125 C 251.34375 133.351562 251.238281 133.128906 251.03125 133.097656 L 250.464844 133.015625 C 250.351562 133 250.234375 133.046875 250.175781 133.148438 C 249.191406 134.769531 249.46875 138.066406 249.40625 138.355469 C 249.34375 138.65625 248.128906 137.65625 247.789062 137.804688 C 247.453125 137.953125 248.152344 138.507812 248.257812 138.972656 C 248.363281 139.445312 244.472656 138.929688 244.597656 139.25 C 244.726562 139.570312 248.46875 139.445312 248.597656 139.78125 C 248.726562 140.121094 247.429688 140.910156 247.601562 140.929688 Z M 268.351562 117.855469 C 269.039062 117.53125 271.289062 116.300781 271.792969 116.941406 C 272.789062 118.21875 271.738281 121.460938 274.570312 117.132812 C 275.148438 116.246094 276.15625 120.367188 276.792969 121.777344 C 276.949219 122.125 277.472656 122.023438 277.484375 121.640625 C 277.570312 119.050781 276.910156 115.933594 274.277344 114.84375 C 275.480469 112.792969 279.683594 105.546875 279.320312 104.703125 C 278.898438 103.722656 277.25 104.34375 277.25 104.34375 C 275.085938 106.519531 273.734375 112.769531 273.378906 114.574219 C 271.117188 114.191406 269.109375 116.097656 268.007812 117.433594 C 267.816406 117.667969 268.082031 117.984375 268.351562 117.855469 Z M 185.035156 146.359375 C 184.851562 148.648438 186.921875 150.488281 188.347656 151.46875 C 188.59375 151.640625 188.890625 151.347656 188.738281 151.089844 C 188.355469 150.429688 186.933594 148.296875 187.527344 147.738281 C 188.710938 146.628906 192.027344 147.394531 187.472656 144.949219 C 186.542969 144.449219 190.554688 143.085938 191.902344 142.328125 C 192.238281 142.136719 192.089844 141.628906 191.707031 141.648438 C 189.121094 141.792969 186.082031 142.71875 185.222656 145.441406 C 183.082031 144.417969 175.503906 140.855469 174.699219 141.292969 C 173.753906 141.800781 174.519531 143.386719 174.519531 143.386719 C 176.875 145.359375 183.207031 146.167969 185.035156 146.359375 Z M 170 141.003906 C 169 135.566406 167.339844 131.53125 165.347656 128.535156 C 165.21875 128.625 165.074219 128.6875 164.910156 128.6875 C 164.890625 128.6875 164.875 128.6875 164.855469 128.683594 L 155.835938 128.109375 Z M 158.75 140.648438 L 158.75 132.90625 L 146.402344 121.667969 C 146.035156 133.316406 152.46875 138.429688 158.75 140.648438 Z M 164.28125 127.0625 C 158.328125 119.554688 150.183594 120.019531 147.40625 120.4375 L 153.960938 126.402344 Z M 160.332031 134.347656 L 160.332031 140.910156 C 160.332031 140.992188 160.308594 141.0625 160.289062 141.136719 C 163.964844 142.179688 167.375 142.320312 169.082031 142.308594 Z M 347.625 165.195312 C 349.414062 153.246094 336.414062 153.121094 336.414062 153.121094 C 337.4375 166.949219 347.625 165.195312 347.625 165.195312 Z M 153.875 251.160156 C 167.714844 250.679688 166.367188 240.417969 166.367188 240.417969 C 154.519531 238.15625 153.875 251.160156 153.875 251.160156 Z M 365.6875 339.535156 C 365.6875 327.945312 356.382812 318.0625 343.328125 314.238281 C 341.53125 301.894531 334.449219 289.09375 316.296875 279.859375 C 316.296875 279.859375 316.183594 279.792969 315.96875 279.671875 C 320.785156 307.972656 323.652344 337.160156 323.652344 337.160156 C 323.652344 337.160156 325.648438 340.324219 326.457031 345.429688 C 327.195312 350.074219 323.515625 352.175781 321.929688 352.859375 L 273.855469 352.710938 C 273.855469 352.707031 261.433594 352.667969 261.433594 352.667969 C 259.535156 346.292969 257.253906 338.394531 254.988281 329.957031 L 253.15625 330.390625 C 252.730469 330.492188 252.304688 330.226562 252.203125 329.804688 C 252.101562 329.378906 252.367188 328.949219 252.792969 328.847656 L 254.574219 328.425781 C 250.546875 313.308594 246.636719 296.667969 245.0625 284.039062 C 244.597656 280.304688 244.386719 276.691406 244.378906 273.230469 C 242.703125 274.066406 241.035156 275 239.390625 276.046875 C 215.464844 291.300781 230.925781 310.367188 230.925781 310.367188 C 230.925781 310.367188 214.695312 304.074219 202.703125 313.226562 C 194.042969 319.832031 194.210938 326.136719 194.972656 329.136719 C 187.097656 325.558594 179.152344 328.191406 179.152344 328.191406 C 179.152344 328.191406 183.492188 318.875 172.945312 308.9375 C 162.398438 298.996094 148.128906 305.828125 148.128906 305.828125 C 148.128906 305.828125 161.722656 285.117188 140.683594 268.554688 C 110.695312 244.945312 73.054688 272.695312 73.054688 272.695312 C 57.089844 282.726562 50.863281 296.625 49.28125 310.039062 C 37.800781 314.1875 29.621094 324.917969 29.621094 337.511719 C 29.621094 342.84375 29.105469 348.410156 33.34375 353.113281 C 33.394531 353.167969 113.902344 353.402344 165.207031 353.550781 C 165.269531 353.730469 165.308594 353.832031 165.308594 353.832031 C 165.308594 353.832031 361.867188 354.050781 361.957031 353.972656 C 366.773438 349.644531 365.6875 344.445312 365.6875 339.535156 Z M 23.859375 68.066406 C 24.042969 68.324219 24.316406 68.496094 24.632812 68.550781 C 24.699219 68.5625 24.761719 68.566406 24.828125 68.566406 C 25.410156 68.566406 25.898438 68.152344 25.996094 67.574219 C 26.863281 62.433594 33.652344 58.375 33.714844 58.335938 C 33.992188 58.175781 34.1875 57.917969 34.269531 57.613281 C 34.347656 57.304688 34.304688 56.984375 34.144531 56.710938 C 33.933594 56.34375 33.542969 56.117188 33.117188 56.117188 C 32.910156 56.117188 32.707031 56.171875 32.527344 56.28125 C 32.207031 56.464844 24.714844 60.886719 23.65625 67.183594 C 23.605469 67.496094 23.675781 67.808594 23.859375 68.066406 Z M 19.015625 52.808594 L 19.046875 52.808594 C 19.699219 52.789062 20.214844 52.242188 20.203125 51.589844 L 19.808594 36.089844 C 19.796875 35.558594 19.421875 35.109375 18.902344 34.980469 L 18.886719 34.886719 L 18.597656 34.9375 C 18.597656 34.9375 18.589844 34.933594 18.585938 34.933594 C 18.585938 34.933594 18.507812 34.941406 18.507812 34.941406 L 18.488281 34.949219 L 18.160156 34.96875 L 18.160156 35.035156 C 17.71875 35.21875 17.421875 35.652344 17.433594 36.152344 L 17.824219 51.648438 C 17.84375 52.289062 18.375 52.808594 19.015625 52.808594 Z M 22.59375 29.722656 L 22.726562 51.820312 C 22.726562 52.476562 23.261719 53.003906 23.914062 53.003906 L 23.917969 53.003906 C 24.238281 53.003906 24.535156 52.875 24.757812 52.648438 C 24.976562 52.425781 25.101562 52.125 25.097656 51.808594 L 24.96875 29.707031 C 24.964844 29.144531 24.570312 28.675781 24.039062 28.558594 L 24.066406 28.398438 L 23.472656 28.578125 L 23.453125 28.582031 L 23.414062 28.578125 L 23.367188 28.597656 L 21.910156 29.210938 L 22.679688 29.296875 C 22.628906 29.429688 22.59375 29.570312 22.59375 29.722656 Z M 30.664062 53.195312 L 30.769531 53.199219 C 31.382812 53.199219 31.902344 52.722656 31.953125 52.109375 C 32.214844 49.027344 32.78125 31.726562 32.804688 30.992188 C 32.816406 30.675781 32.703125 30.375 32.484375 30.140625 C 32.269531 29.910156 31.972656 29.777344 31.617188 29.765625 C 30.972656 29.765625 30.453125 30.273438 30.433594 30.917969 L 30.429688 31.011719 C 30.328125 34.015625 29.824219 49.15625 29.589844 51.910156 C 29.53125 52.5625 30.015625 53.140625 30.664062 53.195312 Z M 66.292969 58.53125 C 66.363281 58.570312 73.148438 62.625 74.015625 67.769531 C 74.109375 68.347656 74.601562 68.761719 75.183594 68.761719 C 75.25 68.761719 75.316406 68.757812 75.382812 68.746094 C 75.695312 68.691406 75.96875 68.519531 76.152344 68.261719 C 76.339844 68.003906 76.410156 67.691406 76.359375 67.378906 C 75.296875 61.082031 67.804688 56.660156 67.488281 56.472656 C 67.308594 56.367188 67.101562 56.3125 66.890625 56.3125 C 66.472656 56.3125 66.078125 56.539062 65.863281 56.90625 C 65.707031 57.179688 65.664062 57.5 65.746094 57.808594 C 65.828125 58.113281 66.023438 58.371094 66.292969 58.53125 Z M 80.980469 53.003906 L 81 53.003906 C 81.636719 53.003906 82.171875 52.484375 82.183594 51.84375 L 82.578125 36.347656 C 82.589844 35.867188 82.320312 35.453125 81.910156 35.257812 L 81.929688 35.167969 L 81.582031 35.152344 C 81.5625 35.148438 81.5 35.140625 81.5 35.140625 L 81.433594 35.113281 L 81.414062 35.125 L 81.058594 35.066406 L 81.058594 35.179688 C 80.578125 35.324219 80.214844 35.761719 80.203125 36.285156 L 79.8125 51.785156 C 79.792969 52.4375 80.3125 52.984375 80.980469 53.003906 Z M 76.09375 53.199219 L 76.101562 53.199219 C 76.75 53.199219 77.28125 52.671875 77.285156 52.015625 L 77.417969 29.914062 C 77.421875 29.460938 77.164062 29.050781 76.765625 28.847656 L 76.765625 28.839844 L 76.726562 28.828125 C 76.726562 28.828125 76.703125 28.816406 76.691406 28.8125 L 76.6875 28.808594 C 76.648438 28.796875 76.597656 28.773438 76.597656 28.773438 L 76.554688 28.777344 L 76.519531 28.765625 C 76.511719 28.765625 76.503906 28.765625 76.5 28.761719 L 75.945312 28.625 L 75.96875 28.753906 C 75.445312 28.871094 75.046875 29.339844 75.042969 29.902344 L 74.914062 52.003906 C 74.914062 52.320312 75.03125 52.621094 75.257812 52.84375 C 75.480469 53.070312 75.777344 53.199219 76.09375 53.199219 Z M 68.0625 52.304688 C 67.796875 49.222656 67.234375 31.921875 67.207031 31.1875 C 67.195312 30.871094 67.308594 30.570312 67.527344 30.335938 C 67.746094 30.105469 68.039062 29.972656 68.355469 29.960938 C 68.359375 29.960938 68.359375 29.960938 68.359375 29.960938 C 69.039062 29.960938 69.5625 30.464844 69.582031 31.113281 L 69.582031 31.207031 C 69.683594 34.210938 70.191406 49.351562 70.425781 52.105469 C 70.480469 52.757812 69.996094 53.335938 69.34375 53.390625 L 69.242188 53.394531 C 68.628906 53.394531 68.113281 52.917969 68.0625 52.304688 "/>
</g>
<path style=" stroke:none;fill-rule:nonzero;fill:rgb(96.469116%,51.368713%,41.958618%);fill-opacity:1;" d="M 252.609375 237.617188 C 245.046875 238.539062 237.332031 239.5 230.632812 240.339844 C 222.800781 224.382812 208.496094 195.9375 203.886719 186.773438 C 205.171875 184.183594 206.445312 180.945312 206.015625 178.914062 C 205.207031 175.085938 203.554688 168.585938 203.261719 166.417969 C 202.964844 164.246094 199.953125 163.988281 199.058594 166.558594 C 198.160156 169.128906 198.582031 175.753906 198.582031 175.753906 C 198.582031 175.753906 189.476562 170.890625 187.367188 168.777344 L 185.417969 154.441406 C 185.417969 154.441406 180.492188 157.035156 181.128906 160.308594 C 181.765625 163.585938 180.722656 165.78125 180.089844 168.171875 C 179.464844 170.5625 179.460938 171.238281 180.261719 174.296875 C 181.058594 177.355469 178.882812 177.582031 179.535156 181.660156 C 179.984375 184.488281 184.328125 190.378906 191.167969 191.945312 C 202.007812 237.777344 209.058594 256.398438 211.132812 261.386719 C 213 268.007812 218.800781 272.664062 225.46875 272.058594 C 235.304688 271.164062 248.46875 269.902344 261.109375 268.484375 C 258.539062 268.621094 256.980469 268.667969 256.980469 268.667969 C 258.003906 261.847656 253.835938 242.945312 252.609375 237.617188 Z M 283.265625 216.5 C 280.667969 212.390625 277.246094 206.636719 274.195312 200.417969 C 273.460938 198.914062 272.742188 197.375 272.027344 195.828125 C 273.949219 191.929688 274.027344 185.460938 269.238281 183.757812 C 267.917969 183.285156 266.882812 183.25 266.074219 183.476562 C 263.792969 179.328125 261.292969 175.785156 258.289062 173.597656 C 256.332031 173.558594 254.277344 173.566406 252.125 173.640625 C 247.527344 173.789062 243.417969 174.347656 239.890625 175.066406 C 224.914062 183.15625 231.285156 193.519531 231.285156 193.519531 C 231.285156 193.519531 232.550781 196.449219 234.082031 200.507812 L 229.21875 200.628906 L 215.816406 200.964844 L 215.117188 202.347656 C 215.523438 203.960938 216.074219 205.414062 216.726562 206.71875 L 220.058594 206.636719 L 236.246094 206.234375 C 240.296875 215.9375 245.363281 220.429688 249.347656 220.269531 C 255.558594 220.015625 255.996094 219.324219 255.984375 219.117188 L 258.28125 225.820312 L 237.371094 226.339844 C 242.046875 230.121094 246.910156 234.007812 251.441406 237.519531 C 253.066406 233.640625 254.332031 231.480469 254.332031 231.480469 L 259.199219 228.5 L 261.34375 234.761719 C 263.859375 234.382812 267.007812 233.910156 270.910156 233.339844 C 277.054688 229.007812 282.535156 219.601562 283.796875 217.335938 C 283.621094 217.0625 283.449219 216.789062 283.265625 216.5 Z M 227.421875 188.476562 C 225.710938 188.277344 224.054688 188.046875 222.457031 187.785156 C 224.054688 188.042969 225.710938 188.273438 227.421875 188.476562 "/>
<g clip-path="url(#clip2)" clip-rule="nonzero">
<path style=" stroke:none;fill-rule:nonzero;fill:rgb(7.839966%,12.159729%,20.779419%);fill-opacity:1;" d="M 98.046875 200.480469 L 88.730469 190.222656 C 88.089844 190.261719 87.464844 190.542969 87.027344 191.097656 L 78.3125 202.09375 C 76.8125 203.992188 75.992188 206.339844 75.992188 208.757812 L 75.992188 244.648438 L 100.902344 244.648438 L 100.902344 208.777344 C 100.902344 205.769531 99.898438 202.847656 98.046875 200.480469 Z M 98.199219 195.023438 L 145.308594 195.023438 L 145.308594 191.277344 L 144.683594 190.546875 C 139.570312 190.535156 104.082031 190.453125 94.246094 190.511719 C 94.332031 190.578125 94.414062 190.652344 94.488281 190.738281 Z M 156.441406 206.847656 C 156.441406 205.371094 155.953125 203.9375 155.054688 202.765625 L 143.996094 189.734375 C 143.71875 189.8125 143.464844 189.984375 143.28125 190.253906 L 134.832031 202.863281 C 134.074219 203.996094 133.679688 205.332031 133.699219 206.695312 L 133.75 209.628906 L 156.441406 209.628906 Z M 65.660156 145.148438 C 65.648438 145.148438 65.632812 145.148438 65.621094 145.148438 C 65.183594 145.125 64.847656 144.753906 64.867188 144.316406 L 65.445312 132.484375 C 65.464844 132.046875 65.839844 131.707031 66.277344 131.730469 C 66.710938 131.75 67.050781 132.125 67.027344 132.558594 L 66.449219 144.394531 C 66.429688 144.820312 66.078125 145.148438 65.660156 145.148438 Z M 65.898438 133.296875 C 65.800781 133.296875 65.703125 133.28125 65.605469 133.242188 L 28.53125 118.484375 C 28.125 118.324219 27.925781 117.863281 28.089844 117.453125 C 28.25 117.046875 28.710938 116.851562 29.117188 117.011719 L 65.847656 131.632812 L 69.519531 129.632812 C 69.90625 129.425781 70.386719 129.5625 70.59375 129.953125 C 70.804688 130.335938 70.660156 130.816406 70.277344 131.027344 L 66.277344 133.203125 C 66.160156 133.265625 66.03125 133.296875 65.898438 133.296875 Z M 3.617188 141.554688 C 3.597656 141.992188 3.933594 142.363281 4.367188 142.386719 C 4.382812 142.386719 4.394531 142.386719 4.410156 142.386719 C 4.828125 142.386719 5.179688 142.058594 5.199219 141.632812 L 5.816406 129.019531 L 4.257812 128.433594 Z M 13.621094 145.640625 C 13.601562 146.078125 13.933594 146.449219 14.371094 146.472656 C 14.382812 146.472656 14.398438 146.472656 14.410156 146.472656 C 14.832031 146.472656 15.179688 146.144531 15.199219 145.71875 L 15.832031 132.796875 L 14.277344 132.207031 Z M 23.621094 149.726562 C 23.601562 150.164062 23.9375 150.535156 24.375 150.558594 C 24.386719 150.558594 24.398438 150.558594 24.414062 150.558594 C 24.832031 150.558594 25.179688 150.230469 25.203125 149.804688 L 25.847656 136.570312 L 24.292969 135.984375 Z M 33.625 153.8125 C 33.601562 154.25 33.941406 154.625 34.375 154.644531 C 34.390625 154.644531 34.402344 154.644531 34.414062 154.644531 C 34.832031 154.644531 35.183594 154.3125 35.207031 153.890625 L 35.867188 140.347656 L 34.308594 139.761719 Z M 43.625 157.898438 C 43.605469 158.335938 43.941406 158.707031 44.378906 158.730469 C 44.394531 158.730469 44.40625 158.730469 44.417969 158.730469 C 44.835938 158.730469 45.1875 158.402344 45.210938 157.976562 L 45.886719 144.125 L 44.328125 143.539062 Z M 53.628906 161.984375 C 53.605469 162.425781 53.945312 162.792969 54.378906 162.816406 C 54.394531 162.816406 54.40625 162.816406 54.421875 162.816406 C 54.839844 162.816406 55.191406 162.488281 55.210938 162.0625 L 55.902344 147.902344 L 54.347656 147.3125 Z M 64.363281 151.089844 L 63.632812 166.074219 C 63.609375 166.507812 63.945312 166.882812 64.382812 166.902344 C 64.394531 166.90625 64.410156 166.90625 64.425781 166.90625 C 64.84375 166.90625 65.191406 166.574219 65.210938 166.152344 L 65.925781 151.597656 C 65.777344 151.585938 65.625 151.566406 65.488281 151.511719 Z M 240.820312 164.109375 C 240.453125 164.109375 240.121094 163.851562 240.046875 163.476562 C 239.957031 163.050781 240.234375 162.628906 240.660156 162.542969 C 247.679688 161.089844 258.917969 159.472656 272.574219 160.039062 C 273.011719 160.054688 273.351562 160.425781 273.332031 160.863281 C 273.316406 161.304688 272.921875 161.660156 272.511719 161.621094 C 259.011719 161.066406 247.914062 162.65625 240.980469 164.09375 C 240.925781 164.105469 240.875 164.109375 240.820312 164.109375 Z M 228.738281 167.441406 C 228.546875 167.441406 228.363281 167.371094 228.214844 167.242188 C 227.992188 167.046875 227.898438 166.746094 227.96875 166.460938 C 227.988281 166.378906 228.023438 166.234375 228.484375 165.976562 L 228.457031 165.90625 C 228.542969 165.875 228.632812 165.859375 228.71875 165.855469 C 229.625 165.410156 231.664062 164.695312 236.296875 163.535156 C 236.71875 163.425781 237.148438 163.6875 237.253906 164.113281 C 237.363281 164.535156 237.105469 164.96875 236.675781 165.074219 C 231.894531 166.269531 229.191406 167.320312 229.039062 167.378906 C 229.035156 167.378906 229.03125 167.382812 229.023438 167.386719 C 228.933594 167.421875 228.835938 167.441406 228.738281 167.441406 Z M 183.582031 173.597656 C 183.238281 173.597656 182.921875 173.371094 182.820312 173.019531 L 180.785156 165.800781 C 180.667969 165.378906 180.910156 164.941406 181.332031 164.824219 C 181.75 164.699219 182.1875 164.945312 182.308594 165.371094 L 184.34375 172.585938 C 184.464844 173.007812 184.21875 173.445312 183.796875 173.566406 C 183.726562 173.585938 183.652344 173.597656 183.582031 173.597656 Z M 181.464844 178.605469 C 181.117188 178.605469 180.800781 178.378906 180.703125 178.03125 L 180.023438 175.652344 C 179.902344 175.234375 180.144531 174.792969 180.566406 174.675781 C 180.988281 174.554688 181.421875 174.796875 181.546875 175.21875 L 182.222656 177.59375 C 182.34375 178.015625 182.097656 178.453125 181.679688 178.574219 C 181.605469 178.597656 181.535156 178.605469 181.464844 178.605469 Z M 244.203125 189.554688 C 243.988281 189.554688 243.78125 189.472656 243.625 189.304688 C 243.324219 188.988281 243.339844 188.488281 243.65625 188.183594 C 244.386719 187.496094 245.339844 187.050781 246.332031 186.925781 C 247.324219 186.796875 248.355469 186.988281 249.234375 187.472656 C 249.621094 187.679688 249.761719 188.164062 249.550781 188.546875 C 249.339844 188.929688 248.859375 189.074219 248.476562 188.863281 C 247.886719 188.539062 247.195312 188.40625 246.53125 188.496094 C 245.863281 188.582031 245.230469 188.878906 244.742188 189.339844 C 244.589844 189.484375 244.394531 189.554688 244.203125 189.554688 Z M 239.457031 193.476562 C 239.238281 193.476562 239.019531 193.382812 238.863281 193.203125 C 238.347656 192.613281 237.851562 192.292969 237.40625 192.332031 C 236.792969 192.34375 236.34375 192.910156 236.34375 192.914062 C 236.074219 193.257812 235.578125 193.324219 235.234375 193.058594 C 234.890625 192.792969 234.820312 192.300781 235.082031 191.957031 C 235.175781 191.835938 236 190.792969 237.339844 190.746094 C 238.285156 190.726562 239.210938 191.191406 240.054688 192.160156 C 240.34375 192.496094 240.308594 192.992188 239.976562 193.28125 C 239.828125 193.410156 239.644531 193.476562 239.457031 193.476562 Z M 246.027344 209.9375 C 245.636719 209.9375 245.296875 209.644531 245.242188 209.246094 C 245.1875 208.8125 245.496094 208.414062 245.929688 208.355469 C 245.972656 208.351562 250.46875 207.699219 254.695312 203.214844 C 254.996094 202.898438 255.496094 202.882812 255.816406 203.183594 C 256.128906 203.484375 256.148438 203.984375 255.847656 204.304688 C 251.210938 209.222656 246.335938 209.902344 246.132812 209.929688 C 246.097656 209.933594 246.0625 209.9375 246.027344 209.9375 Z M 305.191406 241.441406 C 304.835938 241.441406 304.511719 241.199219 304.421875 240.835938 C 303.460938 236.957031 301.570312 234.230469 298.789062 232.730469 C 293.6875 229.972656 287.199219 232.203125 287.136719 232.226562 C 286.722656 232.367188 286.273438 232.152344 286.128906 231.742188 C 285.980469 231.328125 286.199219 230.875 286.609375 230.730469 C 286.902344 230.625 293.804688 228.242188 299.53125 231.328125 C 302.722656 233.050781 304.886719 236.121094 305.957031 240.457031 C 306.0625 240.878906 305.804688 241.3125 305.378906 241.417969 C 305.316406 241.429688 305.253906 241.441406 305.191406 241.441406 Z M 294.871094 271.171875 C 294.695312 271.171875 294.519531 271.113281 294.375 270.996094 L 287.394531 265.335938 C 287.386719 265.332031 287.382812 265.328125 287.378906 265.324219 C 276.75 267.308594 264.0625 268.855469 263.308594 268.945312 C 262.867188 269 262.476562 268.6875 262.425781 268.253906 C 262.375 267.816406 262.683594 267.425781 263.117188 267.371094 C 263.378906 267.339844 289.46875 264.164062 298.296875 261.109375 C 298.707031 260.964844 299.160156 261.1875 299.304688 261.601562 C 299.445312 262.015625 299.226562 262.464844 298.8125 262.609375 C 296.523438 263.398438 293.164062 264.191406 289.410156 264.933594 L 295.371094 269.765625 C 295.710938 270.039062 295.761719 270.539062 295.488281 270.878906 C 295.332031 271.070312 295.101562 271.171875 294.871094 271.171875 Z M 164.46875 327.949219 C 164.347656 327.949219 164.226562 327.921875 164.113281 327.867188 C 163.722656 327.671875 163.5625 327.195312 163.761719 326.800781 C 167.117188 320.082031 159.820312 315.597656 159.507812 315.414062 C 159.132812 315.1875 159.011719 314.699219 159.238281 314.324219 C 159.460938 313.949219 159.949219 313.828125 160.324219 314.054688 C 160.414062 314.105469 169.179688 319.496094 165.175781 327.511719 C 165.035156 327.789062 164.757812 327.949219 164.46875 327.949219 Z M 45.0625 335.679688 C 44.707031 335.679688 44.382812 335.4375 44.296875 335.078125 C 44.253906 334.910156 43.339844 330.984375 45.671875 328.375 C 47.105469 326.769531 49.390625 326.058594 52.496094 326.253906 C 52.011719 324.484375 51.433594 321.171875 53.144531 319.273438 C 54.445312 317.828125 56.714844 317.527344 59.886719 318.386719 C 60.308594 318.5 60.554688 318.9375 60.445312 319.355469 C 60.328125 319.777344 59.890625 320.027344 59.472656 319.917969 C 56.925781 319.226562 55.195312 319.367188 54.320312 320.335938 C 52.894531 321.917969 53.859375 325.59375 54.351562 326.871094 L 54.828125 328.113281 L 53.511719 327.945312 C 50.339844 327.535156 48.097656 328.039062 46.851562 329.433594 C 45.066406 331.429688 45.824219 334.667969 45.832031 334.703125 C 45.9375 335.128906 45.675781 335.554688 45.25 335.660156 C 45.1875 335.675781 45.125 335.679688 45.0625 335.679688 Z M 232.300781 342.859375 C 232.21875 342.859375 232.136719 342.847656 232.054688 342.820312 C 229.902344 342.101562 228.558594 340.886719 228.058594 339.210938 C 226.996094 335.648438 230.300781 331.402344 230.441406 331.222656 C 230.714844 330.878906 231.210938 330.820312 231.550781 331.089844 C 231.894531 331.359375 231.957031 331.859375 231.683594 332.203125 C 231.65625 332.242188 228.746094 335.988281 229.578125 338.761719 C 229.921875 339.914062 230.925781 340.773438 232.554688 341.316406 C 232.96875 341.453125 233.191406 341.902344 233.054688 342.316406 C 232.945312 342.652344 232.632812 342.859375 232.300781 342.859375 Z M 96.753906 344.828125 C 95.019531 344.828125 93.269531 343.613281 91.542969 341.214844 C 91.285156 340.859375 91.367188 340.363281 91.722656 340.109375 C 92.078125 339.851562 92.574219 339.933594 92.828125 340.285156 C 94.367188 342.429688 95.796875 343.425781 97.085938 343.214844 C 99.183594 342.890625 100.753906 339.429688 101.183594 338.125 L 101.597656 336.863281 L 102.511719 337.824219 C 104.710938 340.136719 106.757812 341.164062 108.605469 340.875 C 111.238281 340.460938 112.710938 337.457031 112.726562 337.425781 C 112.914062 337.035156 113.386719 336.863281 113.78125 337.058594 C 114.175781 337.242188 114.339844 337.714844 114.152344 338.109375 C 114.082031 338.265625 112.320312 341.886719 108.863281 342.4375 C 106.738281 342.777344 104.515625 341.878906 102.234375 339.773438 C 101.496094 341.453125 99.855469 344.386719 97.332031 344.785156 C 97.140625 344.8125 96.949219 344.828125 96.753906 344.828125 Z M 177.152344 353.351562 C 177.144531 353.351562 177.132812 353.351562 177.121094 353.351562 C 176.683594 353.335938 176.34375 352.964844 176.359375 352.53125 C 176.621094 345.90625 178.738281 340.933594 182.644531 337.753906 C 188.882812 332.6875 197.332031 334.046875 197.6875 334.105469 C 198.121094 334.179688 198.410156 334.589844 198.339844 335.023438 C 198.265625 335.453125 197.855469 335.734375 197.425781 335.667969 C 197.34375 335.660156 189.300781 334.375 183.636719 338.992188 C 180.101562 341.871094 178.183594 346.445312 177.941406 352.589844 C 177.925781 353.015625 177.574219 353.351562 177.152344 353.351562 Z M 126.300781 215.839844 C 126.738281 215.839844 127.09375 216.195312 127.09375 216.632812 L 127.09375 235.777344 C 127.09375 236.214844 126.738281 236.570312 126.300781 236.570312 C 125.867188 236.570312 125.511719 236.214844 125.511719 235.777344 L 125.511719 216.632812 C 125.511719 216.195312 125.867188 215.839844 126.300781 215.839844 Z M 155.492188 214.121094 L 104.894531 213.792969 C 104.457031 213.789062 104.105469 213.433594 104.109375 212.996094 C 104.109375 212.558594 104.464844 212.207031 104.902344 212.207031 C 104.902344 212.207031 104.902344 212.207031 104.90625 212.207031 L 155.503906 212.535156 C 155.9375 212.539062 156.292969 212.894531 156.289062 213.332031 C 156.285156 213.769531 155.933594 214.121094 155.496094 214.121094 C 155.496094 214.121094 155.492188 214.121094 155.492188 214.121094 Z M 115.984375 215.839844 C 116.421875 215.839844 116.773438 216.195312 116.773438 216.632812 L 116.773438 235.777344 C 116.773438 236.214844 116.421875 236.570312 115.984375 236.570312 C 115.546875 236.570312 115.195312 236.214844 115.195312 235.777344 L 115.195312 216.632812 C 115.195312 216.195312 115.546875 215.839844 115.984375 215.839844 Z M 136.621094 215.839844 C 137.058594 215.839844 137.414062 216.195312 137.414062 216.632812 L 137.414062 235.777344 C 137.414062 236.214844 137.058594 236.570312 136.621094 236.570312 C 136.183594 236.570312 135.828125 236.214844 135.828125 235.777344 L 135.828125 216.632812 C 135.828125 216.195312 136.183594 215.839844 136.621094 215.839844 Z M 156.804688 216.632812 L 156.804688 235.777344 C 156.804688 236.214844 156.449219 236.570312 156.015625 236.570312 C 155.578125 236.570312 155.222656 236.214844 155.222656 235.777344 L 155.222656 216.632812 C 155.222656 216.195312 155.578125 215.839844 156.015625 215.839844 C 156.449219 215.839844 156.804688 216.195312 156.804688 216.632812 Z M 155.960938 239.734375 C 155.957031 240.167969 155.605469 240.523438 155.167969 240.523438 C 155.167969 240.523438 155.164062 240.523438 155.160156 240.523438 L 104.566406 240.191406 C 104.132812 240.191406 103.777344 239.832031 103.78125 239.394531 C 103.785156 238.960938 104.136719 238.605469 104.570312 238.605469 C 104.574219 238.605469 104.574219 238.605469 104.578125 238.605469 L 155.171875 238.9375 C 155.613281 238.941406 155.964844 239.296875 155.960938 239.734375 Z M 104.617188 215.839844 C 105.054688 215.839844 105.410156 216.195312 105.410156 216.632812 L 105.410156 235.777344 C 105.410156 236.214844 105.054688 236.570312 104.617188 236.570312 C 104.183594 236.570312 103.828125 236.214844 103.828125 235.777344 L 103.828125 216.632812 C 103.828125 216.195312 104.183594 215.839844 104.617188 215.839844 Z M 146.9375 215.839844 C 147.375 215.839844 147.730469 216.195312 147.730469 216.632812 L 147.730469 235.777344 C 147.730469 236.214844 147.375 236.570312 146.9375 236.570312 C 146.5 236.570312 146.144531 236.214844 146.144531 235.777344 L 146.144531 216.632812 C 146.144531 216.195312 146.5 215.839844 146.9375 215.839844 Z M 164.625 44.863281 C 166.011719 46.730469 165.757812 49.277344 164.050781 50.546875 C 163.738281 50.78125 163.394531 50.9375 163.035156 51.054688 L 49.535156 120.195312 L 39.402344 116.375 L 158.359375 44.113281 C 158.507812 43.945312 158.660156 43.785156 158.84375 43.652344 C 160.550781 42.382812 163.238281 42.996094 164.625 44.863281 Z M 12.828125 76.703125 L 12.828125 74.566406 C 12.828125 73.894531 13.371094 73.347656 14.046875 73.347656 L 35.25 73.347656 C 35.921875 73.347656 36.46875 73.894531 36.46875 74.566406 L 36.46875 76.703125 C 36.46875 77.375 35.921875 77.925781 35.25 77.925781 L 14.046875 77.925781 C 13.371094 77.925781 12.828125 77.375 12.828125 76.703125 Z M 87.1875 74.761719 L 87.1875 76.898438 C 87.1875 77.570312 86.640625 78.117188 85.96875 78.117188 L 64.765625 78.117188 C 64.09375 78.117188 63.546875 77.570312 63.546875 76.898438 L 63.546875 74.761719 C 63.546875 74.089844 64.09375 73.539062 64.765625 73.539062 L 85.96875 73.539062 C 86.640625 73.539062 87.1875 74.089844 87.1875 74.761719 Z M 42.265625 207.789062 L 42.265625 206.382812 C 42.265625 206.148438 42.078125 205.960938 41.84375 205.960938 L 23.324219 205.960938 C 23.09375 205.960938 22.90625 206.148438 22.90625 206.382812 L 22.90625 207.46875 C 8.976562 203.609375 4.859375 192.171875 3.648438 185.945312 C 3.71875 185.953125 3.789062 185.964844 3.859375 185.964844 L 62.28125 185.964844 C 61 192.738281 56.683594 204.347656 42.265625 207.789062 Z M 65.03125 179.628906 L 63.6875 179.628906 L 63.6875 179.542969 C 63.6875 178.820312 63.097656 178.230469 62.371094 178.230469 L 3.859375 178.230469 C 3.132812 178.230469 2.546875 178.820312 2.546875 179.542969 L 2.546875 179.757812 L 0.964844 179.757812 C 0.597656 179.757812 0.296875 180.058594 0.296875 180.429688 L 0.296875 183.726562 C 0.296875 184.09375 0.597656 184.394531 0.964844 184.394531 L 1.828125 184.394531 C 2.710938 190.273438 6.542969 204.734375 22.90625 209.097656 L 22.90625 210.890625 C 22.90625 211.121094 23.09375 211.3125 23.324219 211.3125 L 41.84375 211.3125 C 42.078125 211.3125 42.265625 211.121094 42.265625 210.890625 L 42.265625 209.398438 C 59.117188 205.519531 63.148438 190.878906 64.105469 184.265625 L 65.03125 184.265625 C 65.402344 184.265625 65.699219 183.96875 65.699219 183.597656 L 65.699219 180.296875 C 65.699219 179.933594 65.402344 179.628906 65.03125 179.628906 Z M 109.003906 170.484375 C 105.113281 168.027344 95.058594 162.699219 95.058594 148.710938 L 95.058594 127.511719 C 95.058594 126.199219 96.066406 125.105469 97.375 125 C 100.96875 124.71875 107.765625 124.21875 110.5625 124.21875 C 113.285156 124.222656 119.890625 124.714844 123.421875 124.996094 C 124.730469 125.105469 125.738281 126.195312 125.738281 127.507812 L 125.738281 148.609375 C 125.738281 161.703125 115.757812 167.6875 111.960938 170.398438 C 111.082031 171.023438 109.914062 171.058594 109.003906 170.484375 Z M 106.191406 109.546875 C 106.191406 109.109375 106.546875 108.757812 106.984375 108.757812 L 113.429688 108.757812 C 113.867188 108.757812 114.222656 109.109375 114.222656 109.546875 C 114.222656 109.988281 113.867188 110.34375 113.429688 110.34375 L 106.984375 110.34375 C 106.546875 110.34375 106.191406 109.988281 106.191406 109.546875 Z M 106.984375 104.847656 L 113.429688 104.847656 C 113.867188 104.847656 114.222656 105.203125 114.222656 105.644531 C 114.222656 106.082031 113.867188 106.433594 113.429688 106.433594 L 106.984375 106.433594 C 106.546875 106.433594 106.191406 106.082031 106.191406 105.644531 C 106.191406 105.203125 106.546875 104.847656 106.984375 104.847656 Z M 106.984375 100.945312 L 113.429688 100.945312 C 113.867188 100.945312 114.222656 101.300781 114.222656 101.734375 C 114.222656 102.175781 113.867188 102.53125 113.429688 102.53125 L 106.984375 102.53125 C 106.546875 102.53125 106.191406 102.175781 106.191406 101.734375 C 106.191406 101.300781 106.546875 100.945312 106.984375 100.945312 Z M 106.984375 97.039062 L 113.429688 97.039062 C 113.867188 97.039062 114.222656 97.394531 114.222656 97.832031 C 114.222656 98.269531 113.867188 98.621094 113.429688 98.621094 L 106.984375 98.621094 C 106.546875 98.621094 106.191406 98.269531 106.191406 97.832031 C 106.191406 97.394531 106.546875 97.039062 106.984375 97.039062 Z M 113.320312 113.578125 C 114.585938 113.578125 115.613281 112.550781 115.613281 111.285156 L 115.613281 96.511719 C 115.613281 95.246094 114.585938 94.21875 113.320312 94.21875 L 107.472656 94.21875 C 106.207031 94.21875 105.183594 95.246094 105.183594 96.511719 L 105.183594 111.285156 C 105.183594 112.550781 106.207031 113.578125 107.472656 113.578125 Z M 249.472656 220.207031 C 249.472656 220.207031 263.976562 216.363281 265.753906 209.0625 C 265.753906 209.0625 267.535156 219.183594 258.378906 226.574219 C 258.378906 226.574219 256.855469 222.113281 256.214844 220.011719 C 254.117188 220.332031 249.472656 220.207031 249.472656 220.207031 Z M 272.320312 343.109375 C 272.253906 343.125 272.191406 343.132812 272.128906 343.132812 C 271.773438 343.132812 271.449219 342.886719 271.363281 342.53125 L 267.519531 326.984375 L 253.15625 330.390625 C 252.730469 330.492188 252.304688 330.226562 252.203125 329.804688 C 252.101562 329.378906 252.367188 328.949219 252.792969 328.847656 L 267.917969 325.261719 C 268.339844 325.15625 268.765625 325.421875 268.867188 325.84375 L 272.898438 342.148438 C 273.003906 342.574219 272.746094 343.003906 272.320312 343.109375 Z M 255.59375 295.101562 C 255.203125 293.925781 255.570312 292.746094 256.410156 292.464844 C 257.25 292.1875 258.25 292.910156 258.636719 294.085938 C 259.03125 295.261719 258.664062 296.441406 257.824219 296.722656 C 256.984375 297 255.984375 296.277344 255.59375 295.101562 Z M 320.421875 309.589844 C 320.421875 309.589844 319.03125 314.757812 318.230469 316.34375 C 315.347656 322.042969 309.007812 325.175781 302.765625 326.5 C 293.976562 328.367188 282.53125 328.492188 277.117188 319.03125 L 262.515625 287.230469 L 259.238281 288.199219 C 258.410156 281.25 258.582031 274.738281 259.675781 268.644531 C 257.792969 268.851562 255.902344 269.058594 254.019531 269.257812 C 253.035156 275.296875 252.847656 282.113281 253.855469 289.792969 L 242.378906 293.183594 L 255.921875 352.648438 L 273.855469 352.703125 C 273.828125 352.574219 273.8125 352.445312 273.777344 352.316406 C 273.675781 351.890625 273.933594 351.464844 274.359375 351.355469 C 274.78125 351.253906 275.210938 351.507812 275.316406 351.9375 C 275.382812 352.195312 275.417969 352.453125 275.46875 352.710938 L 328.101562 352.878906 Z M 295.097656 223.578125 C 294.980469 223.628906 289.296875 226.570312 282.832031 231.621094 C 279.421875 232.109375 276.363281 232.546875 273.632812 232.945312 C 281.894531 224.886719 289.601562 221.195312 290.011719 221.035156 C 291.433594 220.46875 296.519531 223.015625 295.097656 223.578125 Z M 239.230469 195.996094 C 239.777344 197.117188 239.613281 198.324219 238.863281 198.691406 C 238.109375 199.054688 237.058594 198.445312 236.511719 197.324219 C 235.964844 196.203125 236.128906 195 236.882812 194.632812 C 237.632812 194.261719 238.683594 194.875 239.230469 195.996094 Z M 250.273438 193.796875 C 249.519531 194.164062 248.46875 193.554688 247.921875 192.433594 C 247.375 191.3125 247.539062 190.109375 248.292969 189.742188 C 249.042969 189.375 250.09375 189.984375 250.640625 191.105469 C 251.1875 192.226562 251.023438 193.433594 250.273438 193.796875 Z M 241.90625 204.679688 C 240.792969 203.824219 242.046875 201.519531 242.960938 200.128906 C 243.300781 199.621094 244.0625 199.636719 244.316406 200.152344 L 246.445312 204.523438 C 246.445312 204.523438 243.546875 205.941406 241.90625 204.679688 Z M 276.441406 203.699219 C 276.460938 203.636719 276.488281 203.558594 276.511719 203.484375 C 276.484375 203.558594 276.460938 203.636719 276.441406 203.699219 Z M 276.351562 203.972656 C 276.371094 203.921875 276.386719 203.863281 276.40625 203.808594 C 276.386719 203.863281 276.371094 203.921875 276.351562 203.972656 Z M 276.285156 204.171875 C 276.296875 204.136719 276.3125 204.097656 276.328125 204.046875 C 276.308594 204.097656 276.296875 204.136719 276.285156 204.171875 Z M 276.542969 203.371094 C 276.582031 203.253906 276.621094 203.125 276.660156 202.984375 C 276.621094 203.125 276.582031 203.253906 276.542969 203.371094 Z M 277.175781 175.605469 C 272.800781 174.691406 263.859375 173.257812 252.125 173.640625 C 238.441406 174.082031 229.046875 178.15625 226.667969 179.296875 C 223.96875 187.855469 231.285156 193.140625 231.285156 193.140625 C 230.394531 188.070312 235.535156 182.632812 235.535156 182.632812 C 235.535156 182.632812 236.460938 186.351562 241.714844 184.566406 C 246.964844 182.777344 255.179688 174.496094 255.179688 174.496094 L 258.699219 184.148438 C 258.699219 184.148438 259.65625 187.140625 263.160156 189.664062 C 263.148438 189.363281 263.148438 189.1875 263.148438 189.1875 C 263.148438 189.1875 262.859375 181.488281 269.238281 183.757812 C 274.765625 185.71875 273.804688 194.035156 271.023438 197.417969 C 273.855469 200.949219 276.214844 204.367188 276.214844 204.367188 C 276.214844 204.367188 276.234375 204.316406 276.265625 204.226562 C 276.234375 204.3125 276.21875 204.363281 276.214844 204.367188 C 276.371094 204.65625 276.523438 204.9375 276.675781 205.226562 L 305.566406 204.507812 L 305.421875 198.726562 L 302.761719 198.796875 L 302.84375 201.941406 L 276.777344 202.59375 C 276.742188 202.714844 276.710938 202.828125 276.675781 202.9375 C 277.839844 199.015625 280.582031 187.566406 277.175781 175.605469 Z M 277.496094 127.921875 C 277.914062 128.050781 278.148438 128.492188 278.019531 128.910156 C 277.984375 129.027344 274.570312 140.4375 278.570312 148.761719 L 276.851562 148.804688 C 273.035156 140.015625 276.355469 128.9375 276.507812 128.445312 C 276.636719 128.027344 277.078125 127.796875 277.496094 127.921875 Z M 297.320312 136.660156 C 296.324219 136.796875 295.261719 137.058594 294.117188 137.464844 C 299.570312 132.304688 305.648438 127.085938 309.792969 125.089844 C 310.191406 124.898438 310.660156 125.066406 310.851562 125.460938 C 311.039062 125.855469 310.875 126.328125 310.480469 126.515625 C 307.042969 128.171875 302.085938 132.269531 297.320312 136.660156 Z M 220.367188 144.164062 C 220.53125 143.757812 220.992188 143.558594 221.398438 143.722656 C 224.808594 145.089844 227.898438 147.253906 230.386719 149.960938 L 228.234375 150.011719 C 226.09375 147.957031 223.5625 146.300781 220.808594 145.195312 C 220.402344 145.03125 220.207031 144.570312 220.367188 144.164062 Z M 243.09375 142.582031 C 242.257812 145.1875 240.765625 147.644531 238.820312 149.75 L 236.523438 149.808594 C 238.875 147.644531 240.664062 144.964844 241.585938 142.097656 C 241.722656 141.683594 242.167969 141.457031 242.582031 141.585938 C 243 141.71875 243.226562 142.167969 243.09375 142.582031 Z M 226.417969 128.84375 C 229.523438 134.453125 232.480469 142.644531 233.117188 149.894531 L 231.539062 149.933594 C 230.917969 142.964844 228.046875 135.050781 225.03125 129.613281 C 224.820312 129.230469 224.960938 128.746094 225.339844 128.53125 C 225.726562 128.324219 226.207031 128.460938 226.417969 128.84375 Z M 248.351562 149.515625 L 248.34375 149.515625 C 250.335938 146.46875 252.21875 144.210938 253.980469 142.578125 C 252.222656 144.214844 250.339844 146.480469 248.351562 149.515625 Z M 243.144531 137.96875 C 242.21875 137.007812 241.480469 136.445312 240.867188 136.167969 C 242.671875 132.382812 244.613281 128.9375 246.722656 126.722656 C 246.796875 126.828125 246.933594 126.886719 247.078125 126.820312 C 247.765625 126.492188 250.015625 125.265625 250.515625 125.902344 C 251.515625 127.183594 250.46875 130.425781 253.296875 126.09375 C 253.875 125.210938 254.882812 129.328125 255.515625 130.742188 C 255.59375 130.910156 255.75 130.96875 255.898438 130.949219 C 256.09375 132.894531 256.105469 135.15625 255.988281 137.582031 C 254.195312 136.933594 251.933594 136.730469 249.46875 136.730469 C 246.910156 136.730469 244.761719 137.121094 243.144531 137.96875 Z M 256.160156 140.8125 C 259.492188 133.527344 263.34375 122.644531 267.996094 117.761719 C 268.070312 117.863281 268.207031 117.925781 268.351562 117.855469 C 269.039062 117.53125 271.289062 116.300781 271.792969 116.941406 C 272.789062 118.21875 271.738281 121.460938 274.570312 117.132812 C 275.148438 116.246094 276.15625 120.367188 276.792969 121.777344 C 276.867188 121.945312 277.023438 122.003906 277.171875 121.984375 C 277.246094 122.742188 277.289062 123.554688 277.3125 124.402344 C 268.523438 127.5625 269.75 140.234375 271.765625 148.929688 L 274.425781 148.863281 L 266.570312 149.058594 C 267.234375 148.03125 267.675781 146.976562 267.738281 145.953125 C 267.984375 141.820312 263.414062 135.847656 256.160156 140.8125 Z M 195.035156 150.84375 L 188.6875 151 C 188.242188 150.261719 186.953125 148.273438 187.527344 147.738281 C 188.710938 146.628906 192.027344 147.394531 187.472656 144.949219 C 186.542969 144.449219 190.554688 143.085938 191.902344 142.328125 C 192.0625 142.234375 192.113281 142.074219 192.078125 141.933594 C 192.167969 141.914062 192.257812 141.894531 192.347656 141.878906 C 191.90625 144.078125 192.535156 147.050781 195.035156 150.84375 Z M 207.128906 141.320312 C 208.691406 144.847656 210.921875 148.246094 212.464844 150.410156 L 208.96875 150.496094 C 208.621094 149.347656 207.125 144.746094 204.839844 141.238281 C 205.601562 141.257812 206.363281 141.285156 207.128906 141.320312 Z M 209.867188 172.011719 L 209.910156 173.832031 C 208.054688 174.757812 206.5625 175.699219 205.511719 176.632812 C 205.171875 175.136719 204.78125 173.492188 204.421875 171.9375 Z M 302.269531 175.082031 C 303.28125 173.566406 303.851562 171.925781 303.886719 170.152344 C 303.890625 169.914062 303.878906 169.6875 303.851562 169.460938 L 304.695312 169.4375 L 304.839844 175.21875 L 302.582031 175.273438 Z M 316.933594 169.34375 L 316.933594 169.136719 L 318.585938 169.09375 L 318.589844 169.304688 Z M 317.070312 174.652344 L 318.726562 174.613281 L 318.730469 174.871094 L 317.074219 174.910156 Z M 235.226562 203.628906 C 235.558594 204.539062 235.902344 205.402344 236.246094 206.234375 L 213.9375 206.789062 C 213.5 205.910156 213.0625 205.046875 212.636719 204.195312 Z M 317.738281 201.574219 L 319.390625 201.53125 L 319.457031 204.160156 L 317.804688 204.199219 Z M 224.320312 124.941406 C 224.734375 123.261719 225.226562 121.726562 225.84375 120.441406 C 225.945312 120.515625 226.09375 120.523438 226.203125 120.417969 C 226.757812 119.894531 228.515625 118.027344 229.191406 118.484375 C 230.539062 119.386719 230.542969 122.796875 231.894531 117.804688 C 232.171875 116.785156 234.402344 120.390625 235.441406 121.539062 C 235.566406 121.671875 235.734375 121.679688 235.867188 121.613281 C 237.5 125.335938 238.808594 130.597656 239.804688 135.96875 C 237.480469 136.34375 238.113281 142.886719 235.628906 141.539062 C 232.625 139.910156 231.296875 125.328125 224.320312 124.941406 Z M 32.722656 56.625 C 33.101562 56.402344 33.585938 56.53125 33.804688 56.910156 C 34.027344 57.289062 33.898438 57.773438 33.519531 57.992188 C 33.449219 58.035156 26.511719 62.128906 25.609375 67.507812 C 25.542969 67.894531 25.207031 68.171875 24.828125 68.171875 C 24.785156 68.171875 24.742188 68.167969 24.695312 68.160156 C 24.265625 68.089844 23.972656 67.679688 24.042969 67.246094 C 25.074219 61.128906 32.410156 56.804688 32.722656 56.625 Z M 30.828125 30.929688 C 30.84375 30.5 31.191406 30.164062 31.617188 30.164062 C 31.625 30.164062 31.636719 30.164062 31.644531 30.164062 C 32.082031 30.175781 32.421875 30.542969 32.40625 30.980469 C 32.386719 31.714844 31.816406 49.019531 31.558594 52.078125 C 31.523438 52.492188 31.175781 52.804688 30.769531 52.804688 C 30.746094 52.804688 30.722656 52.800781 30.703125 52.800781 C 30.265625 52.765625 29.941406 52.378906 29.980469 51.945312 C 30.238281 48.925781 30.820312 31.109375 30.828125 30.929688 Z M 13.5625 69.054688 C 13.550781 69.601562 13.863281 70.078125 14.320312 70.308594 C 14.464844 69.824219 14.910156 69.46875 15.441406 69.46875 L 34.734375 69.46875 C 35.386719 69.46875 35.910156 69.996094 35.914062 70.648438 L 36.058594 70.648438 C 36.058594 70.648438 49.445312 54.570312 47.273438 51.394531 C 45.101562 48.21875 36.417969 54.070312 36.417969 54.070312 C 36.417969 54.070312 41.261719 29.328125 31.410156 29.328125 C 31.410156 29.328125 31.246094 24.3125 27.90625 24.3125 C 24.578125 24.3125 24.070312 25.8125 23.570312 28.964844 C 23.636719 28.945312 23.703125 28.921875 23.777344 28.917969 C 23.777344 28.917969 23.78125 28.917969 23.78125 28.917969 C 24.214844 28.917969 24.570312 29.269531 24.570312 29.710938 L 24.703125 51.808594 C 24.707031 52.25 24.355469 52.605469 23.914062 52.605469 C 23.476562 52.605469 23.121094 52.257812 23.121094 51.820312 L 22.992188 29.71875 C 22.988281 29.386719 23.1875 29.105469 23.476562 28.984375 C 22.804688 28.914062 18.558594 28.726562 18.554688 35.339844 C 18.574219 35.335938 18.585938 35.328125 18.601562 35.328125 C 18.609375 35.328125 18.617188 35.328125 18.621094 35.328125 C 19.050781 35.328125 19.402344 35.667969 19.414062 36.101562 L 19.804688 51.597656 C 19.816406 52.035156 19.46875 52.402344 19.035156 52.414062 C 19.027344 52.414062 19.019531 52.414062 19.015625 52.414062 C 18.585938 52.414062 18.234375 52.066406 18.222656 51.636719 L 17.832031 36.140625 C 17.820312 35.722656 18.136719 35.386719 18.542969 35.339844 C 18.269531 35.238281 12.398438 33.070312 13.214844 42.703125 C 13.910156 50.902344 13.664062 64.65625 13.5625 69.054688 Z M 66.207031 57.105469 C 66.429688 56.726562 66.910156 56.597656 67.289062 56.820312 C 67.601562 57 74.9375 61.324219 75.964844 67.441406 C 76.039062 67.871094 75.75 68.28125 75.320312 68.355469 C 75.273438 68.363281 75.230469 68.367188 75.183594 68.367188 C 74.804688 68.367188 74.472656 68.089844 74.40625 67.703125 C 73.5 62.324219 66.5625 58.230469 66.496094 58.1875 C 66.117188 57.96875 65.988281 57.484375 66.207031 57.105469 Z M 68.371094 30.359375 C 68.378906 30.359375 68.386719 30.359375 68.394531 30.359375 C 68.820312 30.359375 69.171875 30.695312 69.1875 31.125 C 69.191406 31.304688 69.777344 49.121094 70.03125 52.140625 C 70.066406 52.574219 69.746094 52.960938 69.308594 52.996094 C 69.285156 52.996094 69.265625 53 69.242188 53 C 68.835938 53 68.488281 52.6875 68.457031 52.273438 C 68.195312 49.214844 67.628906 31.910156 67.601562 31.175781 C 67.589844 30.738281 67.933594 30.371094 68.371094 30.359375 Z M 64.101562 70.84375 C 64.101562 70.191406 64.628906 69.664062 65.277344 69.664062 L 84.574219 69.664062 C 85.105469 69.664062 85.550781 70.019531 85.695312 70.503906 C 86.148438 70.273438 86.460938 69.800781 86.449219 69.25 C 86.347656 64.851562 86.105469 51.097656 86.800781 42.898438 C 87.613281 33.265625 81.746094 35.429688 81.46875 35.539062 C 81.875 35.582031 82.195312 35.917969 82.183594 36.335938 L 81.789062 51.832031 C 81.777344 52.265625 81.425781 52.605469 81 52.605469 C 80.992188 52.605469 80.984375 52.605469 80.980469 52.605469 C 80.542969 52.59375 80.199219 52.230469 80.207031 51.792969 L 80.597656 36.292969 C 80.609375 35.863281 80.960938 35.523438 81.390625 35.523438 C 81.398438 35.523438 81.402344 35.523438 81.410156 35.523438 C 81.425781 35.523438 81.441406 35.53125 81.457031 35.535156 C 81.453125 28.921875 77.207031 29.109375 76.539062 29.179688 C 76.824219 29.300781 77.023438 29.582031 77.023438 29.914062 L 76.890625 52.015625 C 76.886719 52.453125 76.535156 52.800781 76.101562 52.800781 C 76.097656 52.800781 76.097656 52.800781 76.09375 52.800781 C 75.660156 52.800781 75.308594 52.445312 75.308594 52.003906 L 75.4375 29.90625 C 75.441406 29.464844 75.796875 29.117188 76.230469 29.117188 C 76.230469 29.117188 76.234375 29.117188 76.234375 29.117188 C 76.308594 29.117188 76.375 29.140625 76.441406 29.160156 C 75.941406 26.003906 75.433594 24.507812 72.105469 24.507812 C 68.769531 24.507812 68.601562 29.523438 68.601562 29.523438 C 58.75 29.523438 63.589844 54.265625 63.589844 54.265625 C 63.589844 54.265625 54.910156 48.414062 52.738281 51.589844 C 50.570312 54.765625 63.953125 70.84375 63.953125 70.84375 L 64.101562 70.84375 "/>
</g>
</g>
</svg>
