<?xml version="1.0" encoding="UTF-8"?>
<svg xmlns="http://www.w3.org/2000/svg" xmlns:xlink="http://www.w3.org/1999/xlink" width="112.5pt" height="112.499997pt" viewBox="0 0 112.5 112.499997" version="1.2">
<defs>
<clipPath id="clip1">
  <path d="M 1 12 L 105 12 L 105 105.875 L 1 105.875 Z M 1 12 "/>
</clipPath>
<clipPath id="clip2">
  <path d="M 1.671875 8.871094 L 109.726562 8.871094 L 109.726562 105.875 L 1.671875 105.875 Z M 1.671875 8.871094 "/>
</clipPath>
<clipPath id="clip3">
  <path d="M 0.578125 7.554688 L 98.640625 7.554688 L 98.640625 105.875 L 0.578125 105.875 Z M 0.578125 7.554688 "/>
</clipPath>
</defs>
<g id="surface1">
<g clip-path="url(#clip1)" clip-rule="nonzero">
<path style=" stroke:none;fill-rule:nonzero;fill:rgb(98.039246%,70.199585%,15.689087%);fill-opacity:1;" d="M 49.90625 15.71875 C 50.570312 15.222656 50.667969 14.234375 50.128906 13.503906 C 49.585938 12.777344 48.539062 12.535156 47.875 13.03125 C 47.210938 13.527344 47.179688 14.570312 47.722656 15.296875 C 48.261719 16.027344 49.242188 16.214844 49.90625 15.71875 Z M 32.4375 31.3125 L 34.363281 31.3125 C 34.621094 31.3125 34.835938 31.097656 34.835938 30.839844 C 34.835938 30.578125 34.621094 30.367188 34.363281 30.367188 L 32.4375 30.367188 C 32.175781 30.367188 31.964844 30.578125 31.964844 30.839844 C 31.964844 31.097656 32.175781 31.3125 32.4375 31.3125 Z M 32.4375 30.144531 L 34.363281 30.144531 C 34.621094 30.144531 34.835938 29.933594 34.835938 29.671875 C 34.835938 29.410156 34.621094 29.199219 34.363281 29.199219 L 32.4375 29.199219 C 32.175781 29.199219 31.964844 29.410156 31.964844 29.671875 C 31.964844 29.933594 32.175781 30.144531 32.4375 30.144531 Z M 32.4375 32.476562 L 34.363281 32.476562 C 34.621094 32.476562 34.835938 32.265625 34.835938 32.003906 C 34.835938 31.742188 34.621094 31.53125 34.363281 31.53125 L 32.4375 31.53125 C 32.175781 31.53125 31.964844 31.742188 31.964844 32.003906 C 31.964844 32.265625 32.175781 32.476562 32.4375 32.476562 Z M 32.4375 33.644531 L 34.363281 33.644531 C 34.621094 33.644531 34.835938 33.429688 34.835938 33.171875 C 34.835938 32.910156 34.621094 32.695312 34.363281 32.695312 L 32.4375 32.695312 C 32.175781 32.695312 31.964844 32.910156 31.964844 33.171875 C 31.964844 33.429688 32.175781 33.644531 32.4375 33.644531 Z M 95.140625 52.621094 C 95.132812 52.371094 94.917969 52.167969 94.648438 52.167969 C 94.648438 52.167969 91.839844 52.289062 91.839844 52.289062 C 91.714844 52.292969 91.597656 52.347656 91.511719 52.441406 C 91.425781 52.535156 91.382812 52.65625 91.386719 52.78125 C 91.398438 53.035156 91.605469 53.234375 91.859375 53.234375 L 94.6875 53.113281 C 94.949219 53.105469 95.152344 52.882812 95.140625 52.621094 Z M 91.542969 46.714844 C 91.542969 47.015625 91.789062 47.261719 92.089844 47.261719 C 92.394531 47.261719 92.640625 47.015625 92.640625 46.714844 C 92.640625 46.410156 92.394531 46.164062 92.089844 46.164062 C 91.789062 46.164062 91.542969 46.410156 91.542969 46.714844 Z M 94.683594 58.226562 C 94.988281 58.226562 95.230469 57.980469 95.230469 57.675781 C 95.230469 57.375 94.988281 57.128906 94.683594 57.128906 C 94.382812 57.128906 94.136719 57.375 94.136719 57.675781 C 94.136719 57.980469 94.382812 58.226562 94.683594 58.226562 Z M 94.566406 55.042969 C 94.867188 55.042969 95.113281 54.796875 95.113281 54.492188 C 95.113281 54.191406 94.867188 53.945312 94.566406 53.945312 C 94.261719 53.945312 94.015625 54.191406 94.015625 54.492188 C 94.015625 54.796875 94.261719 55.042969 94.566406 55.042969 Z M 91.699219 54.5 C 91.699219 54.804688 91.945312 55.050781 92.246094 55.050781 C 92.546875 55.050781 92.796875 54.804688 92.796875 54.5 C 92.796875 54.199219 92.546875 53.953125 92.246094 53.953125 C 91.945312 53.953125 91.699219 54.199219 91.699219 54.5 Z M 93.9375 47.035156 C 94.03125 47.109375 94.152344 47.152344 94.273438 47.152344 C 94.445312 47.152344 94.601562 47.074219 94.707031 46.941406 C 94.796875 46.824219 94.835938 46.679688 94.820312 46.535156 C 94.800781 46.390625 94.726562 46.261719 94.613281 46.171875 C 94.515625 46.09375 94.394531 46.054688 94.277344 46.054688 C 94.105469 46.054688 93.949219 46.128906 93.84375 46.265625 C 93.65625 46.503906 93.699219 46.847656 93.9375 47.035156 Z M 92.496094 48.558594 C 92.398438 48.484375 92.28125 48.441406 92.15625 48.441406 C 91.988281 48.441406 91.832031 48.519531 91.726562 48.652344 C 91.632812 48.769531 91.59375 48.910156 91.613281 49.058594 C 91.632812 49.203125 91.703125 49.332031 91.820312 49.421875 C 91.914062 49.496094 92.035156 49.539062 92.15625 49.539062 C 92.328125 49.539062 92.484375 49.460938 92.589844 49.328125 C 92.777344 49.089844 92.734375 48.742188 92.496094 48.558594 Z M 94.386719 48.328125 C 94.085938 48.328125 93.839844 48.574219 93.839844 48.878906 C 93.839844 49.179688 94.085938 49.425781 94.386719 49.425781 C 94.6875 49.425781 94.933594 49.179688 94.933594 48.878906 C 94.933594 48.574219 94.6875 48.328125 94.386719 48.328125 Z M 96.300781 60.816406 C 95.699219 60.644531 95.164062 60.425781 94.671875 60.167969 L 94.917969 60.160156 C 95.046875 60.152344 95.160156 60.097656 95.246094 60.007812 C 95.332031 59.914062 95.378906 59.792969 95.371094 59.667969 C 95.359375 59.421875 95.144531 59.210938 94.878906 59.210938 C 94.878906 59.210938 94.082031 59.246094 93.335938 59.277344 C 93.007812 59 92.710938 58.691406 92.445312 58.363281 C 92.695312 58.3125 92.882812 58.09375 92.882812 57.824219 C 92.882812 57.523438 92.636719 57.277344 92.335938 57.277344 C 92.132812 57.277344 91.957031 57.390625 91.863281 57.554688 C 91.136719 56.375 90.691406 54.964844 90.433594 53.394531 C 91.074219 52.839844 91.488281 52.226562 91.613281 51.550781 C 91.691406 51.609375 91.785156 51.644531 91.890625 51.644531 L 94.71875 51.523438 C 94.84375 51.519531 94.960938 51.464844 95.046875 51.371094 C 95.132812 51.277344 95.175781 51.15625 95.171875 51.03125 C 95.160156 50.78125 94.949219 50.578125 94.679688 50.578125 C 94.679688 50.578125 91.871094 50.695312 91.871094 50.695312 C 91.773438 50.699219 91.683594 50.734375 91.605469 50.789062 C 91.457031 50.214844 90.929688 49.765625 90.128906 49.433594 C 90.121094 48.5625 90.136719 47.664062 90.171875 46.75 C 91.152344 46.183594 92.011719 45.476562 92.257812 44.664062 C 92.605469 43.511719 92.058594 41.75 90.492188 41.324219 C 91.164062 30.75 91.328125 20.191406 75.726562 21.578125 C 38.648438 24.871094 27.789062 42.285156 24.746094 49.136719 C 19.101562 61.859375 24.320312 68.234375 16.226562 76.605469 C 8.132812 84.976562 5.207031 105.519531 5.207031 105.519531 L 100.480469 105.824219 C 100.480469 105.824219 112.390625 65.394531 96.300781 60.816406 Z M 18.828125 56.925781 L 1.925781 56.925781 L 1.707031 54.929688 L 19.117188 54.996094 L 18.828125 56.925781 "/>
</g>
<path style=" stroke:none;fill-rule:nonzero;fill:rgb(93.728638%,16.859436%,27.839661%);fill-opacity:1;" d="M 45.382812 57.417969 C 45.265625 57.257812 44.863281 57.023438 44.664062 57.023438 L 43.472656 57.089844 L 46.792969 61 C 47.058594 61.351562 47.207031 61.78125 47.207031 62.21875 L 47.207031 63.050781 L 31.9375 63.050781 L 31.9375 61.886719 C 31.9375 61.40625 31.765625 60.941406 31.449219 60.578125 L 28.707031 57.410156 C 28.601562 57.289062 28.449219 57.222656 28.292969 57.226562 L 26.980469 57.25 L 29.769531 60.320312 C 30.320312 61.027344 30.621094 61.898438 30.621094 62.796875 L 30.621094 73.503906 L 48.535156 73.503906 L 48.535156 62.015625 C 48.535156 61.589844 48.402344 61.179688 48.152344 60.835938 Z M 21.722656 38.777344 L 2.996094 31.71875 C 2.894531 31.679688 2.785156 31.679688 2.683594 31.710938 L 1.511719 32.085938 C 1.324219 32.148438 1.191406 32.324219 1.183594 32.527344 L 1.011719 38.183594 C 1.003906 38.386719 1.128906 38.570312 1.316406 38.640625 L 20.042969 45.699219 C 20.144531 45.738281 20.253906 45.738281 20.355469 45.707031 L 21.523438 45.332031 C 21.71875 45.269531 21.847656 45.09375 21.855469 44.890625 L 22.027344 39.234375 C 22.035156 39.03125 21.910156 38.847656 21.722656 38.777344 Z M 58.871094 10.1875 C 58.941406 10.152344 59.007812 10.113281 59.070312 10.066406 C 59.738281 9.570312 59.835938 8.578125 59.296875 7.851562 C 58.753906 7.125 57.707031 6.882812 57.042969 7.378906 C 56.996094 7.414062 56.949219 7.453125 56.910156 7.496094 L 48.046875 12.925781 C 48.710938 12.582031 49.632812 12.835938 50.128906 13.503906 C 50.605469 14.144531 50.582031 14.992188 50.117188 15.523438 Z M 5.097656 22.570312 L 10.859375 22.570312 C 11.054688 22.570312 11.210938 22.414062 11.210938 22.21875 L 11.210938 21.554688 C 11.210938 21.363281 11.054688 21.203125 10.859375 21.203125 L 5.097656 21.203125 C 4.90625 21.203125 4.746094 21.363281 4.746094 21.554688 L 4.746094 22.21875 C 4.746094 22.414062 4.90625 22.570312 5.097656 22.570312 Z M 25.746094 21.261719 L 19.980469 21.261719 C 19.789062 21.261719 19.628906 21.421875 19.628906 21.613281 L 19.628906 22.277344 C 19.628906 22.472656 19.789062 22.628906 19.980469 22.628906 L 25.746094 22.628906 C 25.9375 22.628906 26.09375 22.472656 26.09375 22.277344 L 26.09375 21.613281 C 26.09375 21.421875 25.9375 21.261719 25.746094 21.261719 Z M 3.261719 72.414062 C 3.296875 72.808594 3.625 73.109375 4.015625 73.109375 L 16.734375 73.109375 C 17.128906 73.109375 17.457031 72.808594 17.492188 72.414062 L 18.828125 56.925781 L 1.925781 56.925781 Z M 18.828125 56.925781 Z M 33.210938 41.371094 L 33.703125 41.371094 C 34.082031 41.371094 34.386719 41.0625 34.386719 40.6875 L 34.386719 33.636719 L 32.527344 33.636719 L 32.527344 40.6875 C 32.527344 41.0625 32.832031 41.371094 33.210938 41.371094 Z M 95.203125 65.324219 C 95.203125 65.152344 95.0625 65.011719 94.890625 65.011719 C 94.71875 65.011719 94.578125 65.152344 94.578125 65.324219 C 94.578125 65.496094 94.71875 65.636719 94.890625 65.636719 C 95.0625 65.636719 95.203125 65.496094 95.203125 65.324219 Z M 94.742188 63.078125 C 94.914062 63.078125 95.054688 62.9375 95.054688 62.765625 C 95.054688 62.59375 94.914062 62.453125 94.742188 62.453125 C 94.570312 62.453125 94.429688 62.59375 94.429688 62.765625 C 94.429688 62.9375 94.570312 63.078125 94.742188 63.078125 Z M 92.972656 65.414062 C 92.972656 65.238281 92.835938 65.101562 92.664062 65.101562 C 92.492188 65.101562 92.351562 65.238281 92.351562 65.414062 C 92.351562 65.585938 92.492188 65.726562 92.664062 65.726562 C 92.835938 65.726562 92.972656 65.585938 92.972656 65.414062 Z M 92.292969 62.765625 C 92.292969 62.9375 92.429688 63.078125 92.601562 63.078125 C 92.777344 63.078125 92.914062 62.9375 92.914062 62.765625 C 92.914062 62.59375 92.777344 62.453125 92.601562 62.453125 C 92.429688 62.453125 92.292969 62.59375 92.292969 62.765625 Z M 92.070312 61.632812 L 94.878906 61.511719 C 95.007812 61.507812 95.109375 61.398438 95.105469 61.265625 C 95.101562 61.136719 94.980469 61.039062 94.859375 61.039062 L 92.050781 61.160156 C 91.921875 61.164062 91.820312 61.273438 91.824219 61.40625 C 91.832031 61.535156 91.933594 61.632812 92.058594 61.632812 C 92.0625 61.632812 92.066406 61.632812 92.070312 61.632812 Z M 91.738281 61.519531 L 91.695312 59.796875 L 61.75 60.542969 L 61.792969 62.265625 Z M 91.625 52.769531 C 91.628906 52.898438 91.734375 52.996094 91.859375 52.996094 C 91.863281 52.996094 91.867188 52.996094 91.871094 52.996094 L 94.679688 52.878906 C 94.808594 52.871094 94.910156 52.761719 94.90625 52.632812 C 94.898438 52.5 94.785156 52.402344 94.660156 52.40625 L 91.851562 52.523438 C 91.71875 52.53125 91.617188 52.640625 91.625 52.769531 Z M 91.65625 51.179688 C 91.660156 51.304688 91.765625 51.40625 91.890625 51.40625 C 91.894531 51.40625 91.894531 51.40625 91.898438 51.40625 L 94.707031 51.285156 C 94.839844 51.28125 94.941406 51.171875 94.933594 51.039062 C 94.929688 50.910156 94.808594 50.804688 94.6875 50.8125 L 91.878906 50.933594 C 91.75 50.9375 91.648438 51.046875 91.65625 51.179688 Z M 92.347656 48.742188 C 92.214844 48.636719 92.019531 48.660156 91.910156 48.796875 C 91.804688 48.933594 91.828125 49.128906 91.964844 49.234375 C 92.101562 49.34375 92.296875 49.316406 92.402344 49.183594 C 92.507812 49.046875 92.484375 48.851562 92.347656 48.742188 Z M 91.777344 46.714844 C 91.777344 46.886719 91.917969 47.027344 92.089844 47.027344 C 92.261719 47.027344 92.402344 46.886719 92.402344 46.714844 C 92.402344 46.542969 92.261719 46.402344 92.089844 46.402344 C 91.917969 46.402344 91.777344 46.542969 91.777344 46.714844 Z M 94.082031 46.847656 C 94.21875 46.953125 94.414062 46.929688 94.519531 46.792969 C 94.628906 46.660156 94.601562 46.460938 94.46875 46.355469 C 94.332031 46.25 94.136719 46.273438 94.03125 46.410156 C 93.921875 46.546875 93.949219 46.742188 94.082031 46.847656 Z M 94.386719 48.566406 C 94.214844 48.566406 94.074219 48.707031 94.074219 48.878906 C 94.074219 49.050781 94.214844 49.191406 94.386719 49.191406 C 94.558594 49.191406 94.699219 49.050781 94.699219 48.878906 C 94.699219 48.707031 94.558594 48.566406 94.386719 48.566406 Z M 94.996094 57.675781 C 94.996094 57.503906 94.855469 57.363281 94.683594 57.363281 C 94.511719 57.363281 94.371094 57.503906 94.371094 57.675781 C 94.371094 57.851562 94.511719 57.988281 94.683594 57.988281 C 94.855469 57.988281 94.996094 57.851562 94.996094 57.675781 Z M 94.566406 54.804688 C 94.738281 54.804688 94.878906 54.667969 94.878906 54.492188 C 94.878906 54.320312 94.738281 54.179688 94.566406 54.179688 C 94.394531 54.179688 94.253906 54.320312 94.253906 54.492188 C 94.253906 54.667969 94.394531 54.804688 94.566406 54.804688 Z M 92.335938 57.511719 C 92.164062 57.511719 92.023438 57.652344 92.023438 57.824219 C 92.023438 58 92.164062 58.136719 92.335938 58.136719 C 92.507812 58.136719 92.648438 58 92.648438 57.824219 C 92.648438 57.652344 92.507812 57.511719 92.335938 57.511719 Z M 92.558594 54.5 C 92.558594 54.328125 92.417969 54.1875 92.246094 54.1875 C 92.074219 54.1875 91.933594 54.328125 91.933594 54.5 C 91.933594 54.671875 92.074219 54.8125 92.246094 54.8125 C 92.417969 54.8125 92.558594 54.671875 92.558594 54.5 Z M 94.890625 59.449219 L 92.082031 59.570312 C 91.949219 59.574219 91.847656 59.683594 91.855469 59.8125 C 91.859375 59.941406 91.964844 60.039062 92.089844 60.039062 C 92.09375 60.039062 92.097656 60.039062 92.101562 60.039062 L 94.910156 59.921875 C 95.039062 59.917969 95.140625 59.804688 95.136719 59.675781 C 95.128906 59.542969 95.007812 59.441406 94.890625 59.449219 Z M 61.589844 66.058594 C 61.589844 65.886719 61.449219 65.746094 61.277344 65.746094 C 61.105469 65.746094 60.964844 65.886719 60.964844 66.058594 C 60.964844 66.230469 61.105469 66.371094 61.277344 66.371094 C 61.449219 66.371094 61.589844 66.230469 61.589844 66.058594 Z M 61.128906 63.8125 C 61.300781 63.8125 61.441406 63.671875 61.441406 63.5 C 61.441406 63.328125 61.300781 63.1875 61.128906 63.1875 C 60.957031 63.1875 60.816406 63.328125 60.816406 63.5 C 60.816406 63.671875 60.957031 63.8125 61.128906 63.8125 Z M 59.359375 66.148438 C 59.359375 65.976562 59.222656 65.835938 59.050781 65.835938 C 58.878906 65.835938 58.738281 65.976562 58.738281 66.148438 C 58.738281 66.320312 58.878906 66.460938 59.050781 66.460938 C 59.222656 66.460938 59.359375 66.320312 59.359375 66.148438 Z M 58.679688 63.5 C 58.679688 63.671875 58.816406 63.8125 58.988281 63.8125 C 59.160156 63.8125 59.300781 63.671875 59.300781 63.5 C 59.300781 63.328125 59.160156 63.1875 58.988281 63.1875 C 58.816406 63.1875 58.679688 63.328125 58.679688 63.5 Z M 58.457031 62.367188 L 61.265625 62.25 C 61.394531 62.242188 61.496094 62.132812 61.492188 62.003906 C 61.488281 61.871094 61.363281 61.769531 61.246094 61.777344 L 58.4375 61.898438 C 58.308594 61.902344 58.207031 62.011719 58.210938 62.140625 C 58.214844 62.269531 58.320312 62.367188 58.445312 62.367188 C 58.449219 62.367188 58.453125 62.367188 58.457031 62.367188 Z M 58.246094 53.734375 C 58.25 53.734375 58.253906 53.734375 58.257812 53.734375 L 61.066406 53.613281 C 61.195312 53.609375 61.296875 53.5 61.289062 53.367188 C 61.285156 53.238281 61.167969 53.136719 61.046875 53.140625 L 58.238281 53.261719 C 58.105469 53.265625 58.003906 53.375 58.011719 53.507812 C 58.015625 53.632812 58.121094 53.734375 58.246094 53.734375 Z M 58.039062 51.914062 C 58.046875 52.042969 58.148438 52.144531 58.277344 52.144531 C 58.28125 52.144531 58.28125 52.144531 58.285156 52.140625 L 61.09375 52.023438 C 61.226562 52.019531 61.324219 51.90625 61.320312 51.777344 C 61.316406 51.644531 61.199219 51.539062 61.074219 51.550781 L 58.265625 51.667969 C 58.136719 51.675781 58.035156 51.785156 58.039062 51.914062 Z M 58.734375 49.480469 C 58.601562 49.375 58.402344 49.398438 58.296875 49.535156 C 58.191406 49.667969 58.214844 49.867188 58.351562 49.972656 C 58.488281 50.078125 58.683594 50.054688 58.789062 49.917969 C 58.894531 49.78125 58.871094 49.585938 58.734375 49.480469 Z M 58.164062 47.449219 C 58.164062 47.625 58.304688 47.761719 58.476562 47.761719 C 58.648438 47.761719 58.789062 47.625 58.789062 47.449219 C 58.789062 47.277344 58.648438 47.136719 58.476562 47.136719 C 58.304688 47.136719 58.164062 47.277344 58.164062 47.449219 Z M 60.851562 47.09375 C 60.71875 46.988281 60.519531 47.011719 60.414062 47.148438 C 60.308594 47.28125 60.332031 47.480469 60.46875 47.585938 C 60.605469 47.691406 60.800781 47.667969 60.90625 47.53125 C 61.011719 47.394531 60.988281 47.199219 60.851562 47.09375 Z M 60.773438 49.300781 C 60.601562 49.300781 60.460938 49.441406 60.460938 49.613281 C 60.460938 49.789062 60.601562 49.925781 60.773438 49.925781 C 60.945312 49.925781 61.085938 49.789062 61.085938 49.613281 C 61.085938 49.441406 60.945312 49.300781 60.773438 49.300781 Z M 61.070312 58.101562 C 60.898438 58.101562 60.757812 58.242188 60.757812 58.414062 C 60.757812 58.585938 60.898438 58.726562 61.070312 58.726562 C 61.242188 58.726562 61.382812 58.585938 61.382812 58.414062 C 61.382812 58.242188 61.242188 58.101562 61.070312 58.101562 Z M 60.949219 55.542969 C 61.125 55.542969 61.261719 55.402344 61.261719 55.230469 C 61.261719 55.058594 61.125 54.917969 60.949219 54.917969 C 60.777344 54.917969 60.640625 55.058594 60.640625 55.230469 C 60.640625 55.402344 60.777344 55.542969 60.949219 55.542969 Z M 58.722656 58.25 C 58.550781 58.25 58.410156 58.390625 58.410156 58.5625 C 58.410156 58.734375 58.550781 58.875 58.722656 58.875 C 58.894531 58.875 59.035156 58.734375 59.035156 58.5625 C 59.035156 58.390625 58.894531 58.25 58.722656 58.25 Z M 58.945312 55.238281 C 58.945312 55.066406 58.804688 54.925781 58.632812 54.925781 C 58.460938 54.925781 58.320312 55.066406 58.320312 55.238281 C 58.320312 55.410156 58.460938 55.550781 58.632812 55.550781 C 58.804688 55.550781 58.945312 55.410156 58.945312 55.238281 Z M 61.277344 60.1875 L 58.464844 60.304688 C 58.335938 60.308594 58.234375 60.421875 58.242188 60.550781 C 58.246094 60.679688 58.351562 60.777344 58.476562 60.777344 C 58.480469 60.777344 58.484375 60.777344 58.488281 60.777344 L 61.296875 60.65625 C 61.425781 60.652344 61.527344 60.542969 61.523438 60.410156 C 61.515625 60.28125 61.398438 60.175781 61.277344 60.1875 Z M 74.652344 45.101562 L 75.722656 45.074219 C 75.492188 44.9375 75.265625 44.738281 75.097656 44.453125 C 74.953125 44.65625 74.804688 44.871094 74.652344 45.101562 Z M 97.265625 67.394531 L 87.308594 67.640625 L 85.320312 65.199219 C 85.320312 65.199219 84.667969 66.429688 83.695312 67.734375 L 56.382812 68.414062 L 56.234375 62.40625 L 58.136719 62.359375 L 58.09375 60.632812 L 56.191406 60.679688 L 56.019531 53.660156 L 57.917969 53.613281 L 57.875 51.890625 L 55.976562 51.9375 L 55.816406 45.570312 L 60.449219 45.457031 C 60.527344 45.386719 60.601562 45.3125 60.664062 45.238281 C 60.882812 44.992188 60.9375 45.15625 60.816406 45.445312 L 72.917969 45.144531 C 72.417969 44.671875 72.113281 44.054688 72.113281 43.371094 C 72.113281 41.902344 73.230469 41.285156 74.988281 41.285156 C 76.191406 41.285156 77.238281 41.441406 77.761719 42.09375 C 77.546875 42.171875 77.324219 42.285156 77.09375 42.433594 C 77.097656 42.480469 77.214844 43.527344 77.910156 44.257812 C 77.972656 44.324219 77.894531 44.429688 77.8125 44.386719 C 77.195312 44.050781 76.425781 43.46875 76.71875 42.742188 L 77.070312 42.449219 C 76.550781 42.785156 75.988281 43.308594 75.382812 44.078125 C 75.425781 44.160156 75.71875 44.648438 76.394531 45.058594 L 77.804688 45.023438 C 77.023438 45.183594 76.140625 45.40625 75.1875 45.519531 C 74.925781 45.550781 74.648438 45.558594 74.367188 45.546875 C 74.195312 45.542969 74.023438 45.53125 73.851562 45.519531 C 73.84375 45.515625 73.832031 45.515625 73.824219 45.515625 C 73.652344 45.5 73.480469 45.480469 73.308594 45.460938 C 73.308594 45.460938 73.304688 45.460938 73.304688 45.460938 C 72.3125 45.347656 71.335938 45.179688 70.617188 45.351562 C 68.953125 45.75 68.328125 48.382812 68.105469 50.652344 C 66.824219 50.988281 65.65625 51.347656 64.667969 51.71875 L 61.53125 51.796875 L 61.574219 53.5 C 61.128906 54.070312 61.269531 54.628906 62.191406 55.136719 C 67.675781 58.164062 87.253906 57.742188 90.710938 52.796875 L 91.523438 52.777344 L 91.480469 51.050781 L 91.230469 51.058594 C 91.019531 49.117188 87.226562 48.464844 82.40625 48.59375 C 81.773438 47.175781 81.054688 45.820312 80.410156 45.230469 C 80.285156 45.117188 80.144531 45.03125 79.992188 44.96875 L 85.910156 44.820312 C 85.570312 44.515625 85.25 44.089844 85.078125 43.53125 L 85.566406 43.113281 C 85.566406 43.113281 86.027344 44.097656 86.652344 44.804688 L 96.699219 44.554688 L 96.855469 50.917969 L 95.132812 50.960938 L 95.175781 52.683594 L 96.898438 52.640625 L 97.074219 59.660156 L 95.351562 59.703125 L 95.394531 61.429688 L 97.117188 61.386719 Z M 65.988281 43.300781 C 64.964844 43.414062 66.945312 44.238281 68.417969 43.101562 L 68.261719 42.476562 C 68.261719 42.476562 67.015625 43.1875 65.988281 43.300781 Z M 59.988281 43.878906 C 59.128906 44.386719 58.082031 44.25 58.082031 44.25 L 58.292969 44.671875 C 58.917969 45.109375 59.636719 44.507812 60.085938 44 C 60.148438 43.933594 60.066406 43.832031 59.988281 43.878906 Z M 57.460938 40.660156 C 57.460938 41.273438 57.707031 41.84375 58.125 42.296875 C 58.582031 41.488281 59.621094 41.21875 60.335938 41.433594 C 60.957031 41.617188 61.496094 42.300781 61.914062 43.054688 C 62.089844 42.976562 62.246094 42.878906 62.394531 42.769531 C 61.925781 41.746094 61.636719 40.679688 61.902344 39.878906 C 62.015625 39.542969 62.21875 39.207031 62.492188 38.917969 C 61.933594 38.648438 61.171875 38.574219 60.332031 38.574219 C 58.578125 38.574219 57.460938 39.191406 57.460938 40.660156 Z M 66.921875 39.554688 C 66.90625 39.585938 66.226562 40.863281 64.976562 41.433594 C 64.863281 41.488281 64.910156 41.660156 65.035156 41.648438 C 65.976562 41.539062 67.238281 41.195312 67.238281 40.132812 L 66.933594 39.570312 C 67.097656 39.804688 67.257812 40.066406 67.414062 40.359375 C 68.039062 39.859375 68.390625 39.09375 68.417969 38.257812 C 68.46875 36.539062 67.046875 36.207031 65.289062 36.207031 C 63.535156 36.207031 62.417969 36.824219 62.417969 38.292969 C 62.417969 38.503906 62.449219 38.710938 62.503906 38.90625 C 63.503906 37.855469 65.390625 37.394531 66.921875 39.554688 Z M 83.054688 40.4375 C 83.054688 38.96875 84.171875 38.351562 85.925781 38.351562 C 87.683594 38.351562 89.105469 38.683594 89.054688 40.398438 C 89.042969 40.730469 88.980469 41.046875 88.875 41.339844 C 88.703125 41.378906 88.523438 41.4375 88.339844 41.5 C 88.335938 41.550781 88.160156 42.976562 88.847656 44.160156 C 88.910156 44.269531 88.773438 44.382812 88.679688 44.300781 C 87.972656 43.667969 87.140625 42.660156 87.753906 41.789062 L 88.3125 41.511719 C 87.542969 41.785156 86.660156 42.28125 85.65625 43.066406 C 84.171875 42.847656 83.054688 41.75 83.054688 40.4375 "/>
<g clip-path="url(#clip2)" clip-rule="nonzero">
<path style=" stroke:none;fill-rule:nonzero;fill:rgb(12.548828%,39.99939%,28.239441%);fill-opacity:1;" d="M 74.273438 38.328125 C 74.480469 38.230469 75.148438 37.863281 75.300781 38.054688 C 75.597656 38.433594 75.285156 39.402344 76.128906 38.109375 C 76.304688 37.847656 76.605469 39.078125 76.792969 39.5 C 76.839844 39.601562 76.996094 39.570312 77 39.457031 C 77.027344 38.683594 76.828125 37.753906 76.042969 37.429688 C 76.402344 36.816406 77.65625 34.652344 77.550781 34.402344 C 77.421875 34.109375 76.929688 34.292969 76.929688 34.292969 C 76.285156 34.941406 75.878906 36.808594 75.773438 37.347656 C 75.097656 37.234375 74.5 37.800781 74.171875 38.199219 C 74.113281 38.269531 74.191406 38.367188 74.273438 38.328125 Z M 68.039062 36.414062 C 68.207031 36.257812 68.730469 35.703125 68.933594 35.839844 C 69.335938 36.109375 69.335938 37.125 69.738281 35.636719 C 69.824219 35.332031 70.488281 36.40625 70.800781 36.75 C 70.875 36.832031 71.015625 36.757812 70.984375 36.648438 C 70.765625 35.902344 70.292969 35.078125 69.445312 35.011719 C 69.597656 34.320312 70.125 31.875 69.945312 31.667969 C 69.734375 31.429688 69.324219 31.757812 69.324219 31.757812 C 68.910156 32.574219 69.097656 34.472656 69.164062 35.019531 C 68.488281 35.121094 68.09375 35.847656 67.902344 36.328125 C 67.871094 36.410156 67.976562 36.476562 68.039062 36.414062 Z M 18.890625 56.527344 L 1.882812 56.527344 L 2.171875 59.804688 L 18.574219 59.882812 Z M 32.273438 38.199219 L 34.792969 38.199219 C 34.9375 38.199219 35.058594 38.078125 35.058594 37.933594 L 35.058594 37.019531 C 35.058594 36.875 34.9375 36.753906 34.792969 36.753906 L 32.273438 36.753906 C 32.125 36.753906 32.007812 36.875 32.007812 37.019531 L 32.007812 37.933594 C 32.007812 38.078125 32.125 38.199219 32.273438 38.199219 Z M 34.480469 34.171875 L 32.429688 34.171875 L 32.429688 34.703125 L 34.480469 34.703125 Z M 92.007812 43.210938 C 92.007812 43.210938 100.445312 42.4375 100.65625 41.933594 C 100.871094 41.425781 100.398438 40.546875 100.175781 40.609375 C 99.949219 40.667969 96.816406 41.550781 96.816406 41.550781 L 98.214844 40.753906 C 98.214844 40.753906 98.527344 40.207031 98.210938 39.984375 C 97.925781 39.785156 93.359375 42.191406 92.492188 42.648438 C 93.472656 42.128906 99.328125 38.996094 99.335938 38.703125 C 99.34375 38.382812 99.410156 37.664062 98.703125 38 C 97.992188 38.335938 89.894531 43.320312 92.007812 43.210938 Z M 67.992188 42.464844 C 67.585938 43.898438 66.574219 41.59375 65.917969 43.144531 C 65.742188 43.554688 66.574219 44.339844 67.28125 45.285156 L 72.996094 45.144531 C 73.695312 43.988281 74.066406 42.703125 73.191406 41.753906 C 71.167969 39.550781 71.851562 43.261719 70.855469 42.722656 C 69.859375 42.183594 69.480469 36.890625 66.738281 37.886719 C 63.996094 38.882812 68.402344 41.03125 67.992188 42.464844 Z M 81.644531 44.929688 L 83.652344 44.878906 C 83.746094 44.789062 83.835938 44.699219 83.929688 44.605469 C 87.464844 41.113281 89.8125 40.800781 91.113281 41.589844 C 93.054688 40.375 96.609375 39.597656 94.402344 37.113281 C 91.546875 33.898438 86.554688 42.230469 84.890625 42.230469 C 84.019531 42.230469 84.777344 40.5625 85.101562 39.183594 C 85.378906 39.199219 85.648438 39.214844 85.667969 39.265625 C 85.707031 39.363281 85.320312 39.601562 85.367188 39.605469 C 85.421875 39.613281 85.710938 39.359375 86.015625 39.25 C 86.324219 39.140625 86.796875 39.535156 86.886719 39.53125 C 86.976562 39.523438 86.4375 39.210938 86.4375 39.058594 C 86.4375 38.90625 87.375 39.054688 87.394531 38.9375 C 87.414062 38.824219 86.410156 38.964844 86.339844 38.863281 C 86.269531 38.761719 86.710938 38.519531 86.625 38.511719 C 86.542969 38.507812 86.023438 38.792969 86.023438 38.792969 C 86 38.246094 86.316406 37.640625 86.457031 37.398438 C 86.488281 37.34375 86.453125 37.277344 86.394531 37.265625 L 86.226562 37.242188 C 86.191406 37.238281 86.15625 37.253906 86.136719 37.28125 C 85.84375 37.765625 85.925781 38.75 85.910156 38.835938 C 85.890625 38.925781 85.527344 38.628906 85.425781 38.671875 C 85.324219 38.714844 85.535156 38.882812 85.566406 39.023438 C 85.582031 39.082031 85.367188 39.089844 85.121094 39.082031 C 85.386719 37.875 85.273438 36.925781 83.347656 37.585938 C 80.671875 38.503906 81.042969 42.316406 81.644531 44.929688 Z M 62.941406 38.835938 C 64.605469 40.148438 60.863281 31.402344 60.476562 30.714844 C 60.089844 30.03125 59.734375 30.65625 59.554688 30.921875 C 59.390625 31.167969 62.375 37.117188 62.871094 38.101562 C 62.429688 37.230469 60.082031 32.621094 59.734375 32.621094 C 59.34375 32.621094 59.285156 33.246094 59.285156 33.246094 L 59.972656 34.703125 C 59.972656 34.703125 57.917969 32.171875 57.769531 31.996094 C 57.621094 31.816406 56.730469 32.261719 56.613281 32.796875 C 56.492188 33.332031 62.941406 38.835938 62.941406 38.835938 Z M 61.800781 39.160156 C 61.820312 39.046875 60.816406 39.183594 60.746094 39.082031 C 60.675781 38.980469 61.117188 38.738281 61.03125 38.734375 C 60.949219 38.726562 60.429688 39.015625 60.429688 39.015625 C 60.40625 38.464844 60.71875 37.859375 60.863281 37.617188 C 60.894531 37.5625 60.859375 37.496094 60.800781 37.488281 L 60.632812 37.464844 C 60.597656 37.460938 60.5625 37.472656 60.546875 37.503906 C 60.25 37.988281 60.332031 38.972656 60.316406 39.058594 C 60.296875 39.148438 59.933594 38.847656 59.832031 38.894531 C 59.730469 38.9375 59.941406 39.101562 59.972656 39.242188 C 60.003906 39.382812 58.84375 39.230469 58.878906 39.324219 C 58.917969 39.421875 60.035156 39.382812 60.074219 39.484375 C 60.113281 39.585938 59.722656 39.820312 59.773438 39.828125 C 59.828125 39.832031 60.117188 39.578125 60.421875 39.472656 C 60.726562 39.363281 61.203125 39.757812 61.292969 39.75 C 61.382812 39.746094 60.84375 39.433594 60.84375 39.28125 C 60.84375 39.128906 61.78125 39.273438 61.800781 39.160156 Z M 64.734375 37.460938 C 64.785156 37.46875 65.074219 37.214844 65.378906 37.105469 C 65.683594 37 66.160156 37.394531 66.25 37.386719 C 66.339844 37.378906 65.800781 37.066406 65.800781 36.914062 C 65.800781 36.761719 66.738281 36.910156 66.757812 36.796875 C 66.777344 36.679688 65.773438 36.820312 65.703125 36.71875 C 65.632812 36.617188 66.074219 36.375 65.988281 36.367188 C 65.90625 36.363281 65.386719 36.648438 65.386719 36.648438 C 65.363281 36.101562 65.679688 35.496094 65.820312 35.253906 C 65.851562 35.199219 65.816406 35.132812 65.757812 35.125 L 65.589844 35.101562 C 65.554688 35.09375 65.519531 35.109375 65.503906 35.136719 C 65.207031 35.621094 65.289062 36.605469 65.273438 36.695312 C 65.253906 36.78125 64.890625 36.484375 64.789062 36.527344 C 64.6875 36.574219 64.898438 36.738281 64.929688 36.878906 C 64.960938 37.019531 63.796875 36.867188 63.835938 36.960938 C 63.875 37.054688 64.992188 37.019531 65.03125 37.121094 C 65.070312 37.222656 64.683594 37.457031 64.734375 37.460938 Z M 74.429688 42.539062 C 74.480469 42.546875 74.773438 42.292969 75.078125 42.183594 C 75.382812 42.078125 75.859375 42.472656 75.945312 42.464844 C 76.035156 42.457031 75.496094 42.144531 75.496094 41.992188 C 75.496094 41.839844 76.4375 41.988281 76.457031 41.875 C 76.472656 41.757812 75.472656 41.898438 75.402344 41.796875 C 75.332031 41.695312 75.769531 41.453125 75.6875 41.445312 C 75.605469 41.441406 75.082031 41.726562 75.082031 41.726562 C 75.058594 41.179688 75.375 40.574219 75.515625 40.332031 C 75.546875 40.277344 75.515625 40.210938 75.453125 40.199219 L 75.285156 40.175781 C 75.25 40.171875 75.214844 40.1875 75.199219 40.214844 C 74.90625 40.699219 74.988281 41.683594 74.96875 41.773438 C 74.949219 41.859375 74.585938 41.5625 74.484375 41.605469 C 74.386719 41.652344 74.59375 41.816406 74.625 41.957031 C 74.65625 42.097656 73.496094 41.941406 73.535156 42.039062 C 73.570312 42.132812 74.6875 42.097656 74.726562 42.195312 C 74.765625 42.296875 74.378906 42.535156 74.429688 42.539062 Z M 80.625 35.652344 C 80.832031 35.554688 81.503906 35.1875 81.652344 35.378906 C 81.953125 35.757812 81.636719 36.726562 82.484375 35.433594 C 82.65625 35.167969 82.957031 36.402344 83.148438 36.820312 C 83.195312 36.925781 83.351562 36.894531 83.355469 36.78125 C 83.378906 36.007812 83.183594 35.078125 82.394531 34.75 C 82.757812 34.140625 84.011719 31.976562 83.902344 31.722656 C 83.777344 31.429688 83.285156 31.617188 83.285156 31.617188 C 82.636719 32.265625 82.234375 34.132812 82.128906 34.671875 C 81.453125 34.558594 80.851562 35.125 80.523438 35.523438 C 80.46875 35.59375 80.546875 35.6875 80.625 35.652344 Z M 55.746094 44.160156 C 55.691406 44.84375 56.308594 45.394531 56.734375 45.6875 C 56.808594 45.738281 56.898438 45.652344 56.851562 45.574219 C 56.738281 45.375 56.3125 44.738281 56.488281 44.570312 C 56.84375 44.242188 57.832031 44.46875 56.472656 43.738281 C 56.195312 43.589844 57.394531 43.183594 57.796875 42.957031 C 57.894531 42.902344 57.851562 42.75 57.738281 42.753906 C 56.964844 42.796875 56.058594 43.074219 55.800781 43.886719 C 55.160156 43.582031 52.898438 42.519531 52.660156 42.648438 C 52.378906 42.800781 52.605469 43.273438 52.605469 43.273438 C 53.308594 43.863281 55.199219 44.101562 55.746094 44.160156 Z M 51.257812 42.5625 C 50.957031 40.9375 50.460938 39.734375 49.867188 38.839844 C 49.828125 38.867188 49.785156 38.882812 49.734375 38.882812 C 49.730469 38.882812 49.726562 38.882812 49.71875 38.882812 L 47.023438 38.710938 Z M 47.894531 42.457031 L 47.894531 40.144531 L 44.207031 36.789062 C 44.097656 40.265625 46.019531 41.792969 47.894531 42.457031 Z M 49.546875 38.398438 C 47.769531 36.15625 45.335938 36.296875 44.507812 36.421875 L 46.464844 38.203125 Z M 48.367188 40.574219 L 48.367188 42.535156 C 48.367188 42.558594 48.363281 42.578125 48.355469 42.601562 C 49.453125 42.914062 50.472656 42.957031 50.980469 42.953125 Z M 104.300781 49.785156 C 104.835938 46.21875 100.953125 46.179688 100.953125 46.179688 C 101.257812 50.308594 104.300781 49.785156 104.300781 49.785156 Z M 46.441406 75.449219 C 50.574219 75.304688 50.171875 72.242188 50.171875 72.242188 C 46.632812 71.566406 46.441406 75.449219 46.441406 75.449219 Z M 109.695312 101.835938 C 109.695312 98.375 106.917969 95.421875 103.015625 94.28125 C 102.480469 90.597656 100.367188 86.777344 94.945312 84.019531 C 94.945312 84.019531 94.910156 83.996094 94.847656 83.960938 C 96.285156 92.410156 97.140625 101.125 97.140625 101.125 C 97.140625 101.125 97.738281 102.070312 97.980469 103.59375 C 98.199219 104.980469 97.101562 105.609375 96.625 105.8125 L 82.269531 105.769531 C 82.269531 105.765625 78.5625 105.753906 78.5625 105.753906 C 77.996094 103.851562 77.3125 101.492188 76.636719 98.976562 L 76.089844 99.105469 C 75.960938 99.136719 75.835938 99.054688 75.804688 98.929688 C 75.773438 98.800781 75.851562 98.675781 75.980469 98.644531 L 76.511719 98.519531 C 75.308594 94.003906 74.140625 89.035156 73.671875 85.265625 C 73.53125 84.152344 73.46875 83.074219 73.46875 82.039062 C 72.964844 82.289062 72.46875 82.566406 71.976562 82.878906 C 64.832031 87.433594 69.449219 93.125 69.449219 93.125 C 69.449219 93.125 64.601562 91.246094 61.023438 93.980469 C 58.4375 95.953125 58.484375 97.835938 58.714844 98.730469 C 56.363281 97.660156 53.988281 98.449219 53.988281 98.449219 C 53.988281 98.449219 55.285156 95.667969 52.136719 92.699219 C 48.984375 89.730469 44.722656 91.769531 44.722656 91.769531 C 44.722656 91.769531 48.785156 85.589844 42.5 80.644531 C 33.542969 73.59375 22.304688 81.878906 22.304688 81.878906 C 17.535156 84.875 15.675781 89.023438 15.203125 93.027344 C 11.777344 94.265625 9.335938 97.472656 9.335938 101.230469 C 9.335938 102.824219 9.179688 104.484375 10.445312 105.886719 C 10.460938 105.90625 34.503906 105.976562 49.824219 106.019531 C 49.84375 106.074219 49.855469 106.105469 49.855469 106.105469 C 49.855469 106.105469 108.554688 106.167969 108.578125 106.144531 C 110.019531 104.851562 109.695312 103.300781 109.695312 101.835938 Z M 7.613281 20.785156 C 7.667969 20.863281 7.75 20.914062 7.84375 20.929688 C 7.863281 20.933594 7.882812 20.933594 7.902344 20.933594 C 8.078125 20.933594 8.222656 20.8125 8.25 20.640625 C 8.511719 19.105469 10.539062 17.890625 10.558594 17.878906 C 10.640625 17.832031 10.695312 17.757812 10.722656 17.664062 C 10.746094 17.574219 10.734375 17.476562 10.683594 17.394531 C 10.621094 17.285156 10.503906 17.21875 10.378906 17.21875 C 10.316406 17.21875 10.253906 17.234375 10.203125 17.265625 C 10.105469 17.324219 7.867188 18.640625 7.550781 20.523438 C 7.535156 20.613281 7.558594 20.710938 7.613281 20.785156 Z M 6.167969 16.230469 L 6.175781 16.230469 C 6.371094 16.226562 6.523438 16.0625 6.519531 15.867188 L 6.402344 11.238281 C 6.398438 11.082031 6.289062 10.945312 6.132812 10.90625 L 6.128906 10.878906 L 6.042969 10.894531 C 6.042969 10.894531 6.039062 10.894531 6.039062 10.894531 C 6.039062 10.894531 6.015625 10.894531 6.015625 10.894531 L 6.011719 10.898438 L 5.910156 10.90625 L 5.910156 10.921875 C 5.777344 10.976562 5.691406 11.109375 5.695312 11.257812 L 5.8125 15.882812 C 5.816406 16.074219 5.976562 16.230469 6.167969 16.230469 Z M 7.234375 9.335938 L 7.273438 15.9375 C 7.273438 16.132812 7.433594 16.289062 7.628906 16.289062 L 7.632812 16.289062 C 7.726562 16.289062 7.816406 16.25 7.882812 16.183594 C 7.949219 16.117188 7.984375 16.027344 7.984375 15.933594 L 7.945312 9.332031 C 7.945312 9.164062 7.824219 9.027344 7.667969 8.988281 L 7.675781 8.941406 L 7.496094 8.996094 L 7.480469 8.996094 L 7.464844 9.003906 L 7.03125 9.183594 L 7.261719 9.210938 C 7.246094 9.25 7.234375 9.292969 7.234375 9.335938 Z M 9.644531 16.347656 L 9.675781 16.347656 C 9.859375 16.347656 10.015625 16.203125 10.03125 16.023438 C 10.109375 15.101562 10.277344 9.9375 10.285156 9.71875 C 10.289062 9.621094 10.253906 9.53125 10.1875 9.464844 C 10.125 9.394531 10.035156 9.355469 9.929688 9.351562 C 9.738281 9.351562 9.582031 9.5 9.574219 9.695312 L 9.574219 9.722656 C 9.546875 10.621094 9.394531 15.140625 9.324219 15.960938 C 9.308594 16.15625 9.453125 16.328125 9.644531 16.347656 Z M 20.285156 17.9375 C 20.304688 17.949219 22.332031 19.160156 22.589844 20.695312 C 22.621094 20.871094 22.765625 20.992188 22.941406 20.992188 C 22.960938 20.992188 22.980469 20.992188 23 20.988281 C 23.09375 20.972656 23.175781 20.921875 23.230469 20.84375 C 23.285156 20.765625 23.304688 20.671875 23.292969 20.578125 C 22.976562 18.699219 20.738281 17.378906 20.640625 17.324219 C 20.589844 17.292969 20.527344 17.277344 20.464844 17.277344 C 20.339844 17.277344 20.21875 17.34375 20.15625 17.453125 C 20.109375 17.535156 20.097656 17.632812 20.121094 17.722656 C 20.144531 17.816406 20.203125 17.890625 20.285156 17.9375 Z M 24.671875 16.289062 L 24.675781 16.289062 C 24.867188 16.289062 25.027344 16.132812 25.03125 15.941406 L 25.148438 11.316406 C 25.152344 11.171875 25.070312 11.046875 24.949219 10.992188 L 24.953125 10.964844 L 24.851562 10.957031 C 24.84375 10.957031 24.828125 10.957031 24.828125 10.957031 L 24.808594 10.949219 L 24.800781 10.949219 L 24.695312 10.933594 L 24.695312 10.96875 C 24.550781 11.011719 24.441406 11.140625 24.4375 11.296875 L 24.320312 15.925781 C 24.316406 16.121094 24.472656 16.285156 24.671875 16.289062 Z M 23.210938 16.347656 L 23.214844 16.347656 C 23.40625 16.347656 23.566406 16.1875 23.566406 15.992188 L 23.605469 9.394531 C 23.609375 9.257812 23.53125 9.136719 23.414062 9.078125 L 23.414062 9.074219 L 23.402344 9.070312 C 23.402344 9.070312 23.394531 9.066406 23.390625 9.066406 C 23.378906 9.0625 23.363281 9.054688 23.363281 9.054688 L 23.347656 9.054688 L 23.339844 9.050781 C 23.335938 9.050781 23.335938 9.050781 23.332031 9.050781 L 23.167969 9.011719 L 23.175781 9.046875 C 23.019531 9.082031 22.898438 9.222656 22.898438 9.390625 L 22.859375 15.992188 C 22.859375 16.085938 22.894531 16.175781 22.960938 16.242188 C 23.027344 16.308594 23.117188 16.347656 23.210938 16.347656 Z M 20.8125 16.082031 C 20.734375 15.160156 20.566406 9.996094 20.558594 9.777344 C 20.554688 9.679688 20.589844 9.589844 20.652344 9.523438 C 20.71875 9.453125 20.804688 9.414062 20.902344 9.410156 C 21.105469 9.410156 21.261719 9.558594 21.265625 9.753906 L 21.269531 9.78125 C 21.296875 10.679688 21.449219 15.199219 21.519531 16.019531 C 21.535156 16.214844 21.390625 16.386719 21.195312 16.402344 L 21.167969 16.40625 C 20.984375 16.40625 20.828125 16.261719 20.8125 16.082031 "/>
</g>
<path style=" stroke:none;fill-rule:nonzero;fill:rgb(96.469116%,51.368713%,41.958618%);fill-opacity:1;" d="M 75.925781 71.40625 C 73.667969 71.679688 71.363281 71.96875 69.363281 72.21875 C 67.023438 67.453125 62.753906 58.960938 61.375 56.226562 C 61.757812 55.453125 62.140625 54.488281 62.011719 53.878906 C 61.769531 52.738281 61.277344 50.796875 61.1875 50.148438 C 61.097656 49.5 60.199219 49.421875 59.933594 50.191406 C 59.664062 50.957031 59.792969 52.9375 59.792969 52.9375 C 59.792969 52.9375 57.070312 51.484375 56.441406 50.855469 L 55.859375 46.574219 C 55.859375 46.574219 54.390625 47.347656 54.578125 48.324219 C 54.769531 49.304688 54.457031 49.960938 54.269531 50.671875 C 54.082031 51.386719 54.082031 51.589844 54.320312 52.503906 C 54.558594 53.414062 53.910156 53.484375 54.101562 54.699219 C 54.238281 55.542969 55.535156 57.304688 57.578125 57.769531 C 60.816406 71.453125 62.917969 77.015625 63.539062 78.503906 C 64.097656 80.480469 65.828125 81.871094 67.820312 81.691406 C 70.757812 81.421875 74.6875 81.046875 78.464844 80.621094 C 77.695312 80.664062 77.230469 80.675781 77.230469 80.675781 C 77.535156 78.640625 76.292969 72.996094 75.925781 71.40625 Z M 85.078125 65.101562 C 84.304688 63.875 83.28125 62.15625 82.371094 60.300781 C 82.152344 59.851562 81.9375 59.390625 81.726562 58.929688 C 82.296875 57.765625 82.320312 55.835938 80.890625 55.324219 C 80.496094 55.183594 80.1875 55.175781 79.945312 55.242188 C 79.265625 54.003906 78.519531 52.945312 77.621094 52.292969 C 77.039062 52.28125 76.421875 52.285156 75.78125 52.304688 C 74.40625 52.351562 73.179688 52.515625 72.128906 52.730469 C 67.65625 55.148438 69.558594 58.242188 69.558594 58.242188 C 69.558594 58.242188 69.933594 59.117188 70.390625 60.328125 L 68.941406 60.363281 L 64.9375 60.464844 L 64.730469 60.875 C 64.851562 61.359375 65.015625 61.792969 65.210938 62.179688 L 66.203125 62.15625 L 71.039062 62.035156 C 72.25 64.933594 73.761719 66.273438 74.949219 66.226562 C 76.804688 66.152344 76.9375 65.945312 76.933594 65.882812 L 77.617188 67.882812 L 71.375 68.039062 C 72.769531 69.167969 74.222656 70.328125 75.574219 71.378906 C 76.0625 70.21875 76.441406 69.574219 76.441406 69.574219 L 77.894531 68.683594 L 78.535156 70.554688 C 79.285156 70.441406 80.226562 70.300781 81.390625 70.128906 C 83.226562 68.835938 84.863281 66.027344 85.238281 65.351562 C 85.1875 65.269531 85.132812 65.1875 85.078125 65.101562 Z M 68.402344 56.734375 C 67.894531 56.675781 67.398438 56.605469 66.921875 56.527344 C 67.398438 56.605469 67.894531 56.675781 68.402344 56.734375 "/>
<g clip-path="url(#clip3)" clip-rule="nonzero">
<path style=" stroke:none;fill-rule:nonzero;fill:rgb(7.839966%,12.159729%,20.779419%);fill-opacity:1;" d="M 29.769531 60.320312 L 26.984375 57.253906 C 26.796875 57.269531 26.609375 57.351562 26.476562 57.519531 L 23.875 60.800781 C 23.425781 61.367188 23.179688 62.066406 23.179688 62.789062 L 23.179688 73.503906 L 30.621094 73.503906 L 30.621094 62.796875 C 30.621094 61.898438 30.320312 61.027344 29.769531 60.320312 Z M 29.8125 58.691406 L 43.882812 58.691406 L 43.882812 57.570312 L 43.695312 57.351562 C 42.167969 57.351562 31.570312 57.324219 28.632812 57.34375 C 28.65625 57.363281 28.683594 57.382812 28.707031 57.410156 Z M 47.207031 62.21875 C 47.207031 61.78125 47.058594 61.351562 46.792969 61 L 43.488281 57.109375 C 43.40625 57.132812 43.332031 57.1875 43.277344 57.265625 L 40.753906 61.03125 C 40.527344 61.367188 40.410156 61.765625 40.414062 62.175781 L 40.429688 63.050781 L 47.207031 63.050781 Z M 20.097656 43.800781 C 20.09375 43.800781 20.089844 43.800781 20.085938 43.800781 C 19.953125 43.792969 19.855469 43.683594 19.859375 43.550781 L 20.03125 40.019531 C 20.039062 39.886719 20.148438 39.785156 20.28125 39.792969 C 20.410156 39.800781 20.511719 39.910156 20.503906 40.039062 L 20.332031 43.574219 C 20.324219 43.699219 20.222656 43.800781 20.097656 43.800781 Z M 20.167969 40.261719 C 20.136719 40.261719 20.109375 40.253906 20.082031 40.246094 L 9.007812 35.839844 C 8.886719 35.789062 8.828125 35.652344 8.875 35.53125 C 8.925781 35.410156 9.0625 35.351562 9.183594 35.398438 L 20.152344 39.761719 L 21.25 39.167969 C 21.363281 39.105469 21.507812 39.144531 21.570312 39.261719 C 21.632812 39.375 21.589844 39.519531 21.476562 39.582031 L 20.28125 40.234375 C 20.246094 40.25 20.207031 40.261719 20.167969 40.261719 Z M 1.570312 42.726562 C 1.5625 42.855469 1.664062 42.96875 1.792969 42.972656 C 1.796875 42.976562 1.800781 42.976562 1.804688 42.976562 C 1.929688 42.976562 2.035156 42.875 2.039062 42.75 L 2.222656 38.984375 L 1.757812 38.808594 Z M 4.554688 43.945312 C 4.550781 44.078125 4.648438 44.1875 4.78125 44.195312 C 4.785156 44.195312 4.789062 44.195312 4.792969 44.195312 C 4.917969 44.195312 5.019531 44.097656 5.027344 43.96875 L 5.214844 40.109375 L 4.75 39.9375 Z M 7.542969 45.167969 C 7.535156 45.296875 7.636719 45.40625 7.765625 45.414062 C 7.769531 45.414062 7.773438 45.414062 7.777344 45.414062 C 7.902344 45.414062 8.007812 45.316406 8.015625 45.1875 L 8.207031 41.238281 L 7.742188 41.0625 Z M 10.53125 46.386719 C 10.523438 46.515625 10.625 46.628906 10.753906 46.632812 C 10.757812 46.632812 10.761719 46.632812 10.765625 46.632812 C 10.890625 46.632812 10.996094 46.535156 11 46.410156 L 11.199219 42.367188 L 10.734375 42.191406 Z M 13.515625 47.605469 C 13.511719 47.738281 13.609375 47.847656 13.742188 47.855469 C 13.746094 47.855469 13.75 47.855469 13.753906 47.855469 C 13.878906 47.855469 13.980469 47.757812 13.988281 47.628906 L 14.191406 43.492188 L 13.726562 43.316406 Z M 16.503906 48.824219 C 16.496094 48.957031 16.597656 49.066406 16.726562 49.074219 C 16.730469 49.074219 16.734375 49.074219 16.738281 49.074219 C 16.863281 49.074219 16.96875 48.976562 16.976562 48.847656 L 17.183594 44.621094 L 16.71875 44.445312 Z M 19.710938 45.574219 L 19.492188 50.046875 C 19.484375 50.175781 19.585938 50.289062 19.714844 50.292969 C 19.71875 50.292969 19.722656 50.292969 19.726562 50.292969 C 19.851562 50.292969 19.957031 50.195312 19.960938 50.070312 L 20.175781 45.726562 C 20.128906 45.722656 20.085938 45.714844 20.042969 45.699219 Z M 72.40625 49.460938 C 72.296875 49.460938 72.195312 49.382812 72.175781 49.269531 C 72.148438 49.144531 72.230469 49.019531 72.355469 48.992188 C 74.453125 48.558594 77.808594 48.074219 81.886719 48.246094 C 82.019531 48.25 82.121094 48.359375 82.113281 48.492188 C 82.109375 48.621094 81.992188 48.730469 81.867188 48.71875 C 77.835938 48.550781 74.523438 49.027344 72.453125 49.453125 C 72.4375 49.457031 72.421875 49.460938 72.40625 49.460938 Z M 68.796875 50.453125 C 68.738281 50.453125 68.683594 50.433594 68.640625 50.394531 C 68.574219 50.335938 68.546875 50.246094 68.566406 50.160156 C 68.574219 50.136719 68.582031 50.09375 68.71875 50.015625 L 68.710938 49.996094 C 68.738281 49.988281 68.765625 49.980469 68.789062 49.980469 C 69.0625 49.847656 69.671875 49.636719 71.054688 49.289062 C 71.179688 49.257812 71.308594 49.335938 71.339844 49.460938 C 71.371094 49.585938 71.292969 49.714844 71.167969 49.746094 C 69.738281 50.105469 68.933594 50.417969 68.886719 50.4375 C 68.886719 50.4375 68.882812 50.4375 68.882812 50.4375 C 68.855469 50.449219 68.824219 50.453125 68.796875 50.453125 Z M 55.3125 52.292969 C 55.207031 52.292969 55.113281 52.226562 55.085938 52.121094 L 54.476562 49.964844 C 54.441406 49.839844 54.515625 49.707031 54.640625 49.671875 C 54.765625 49.636719 54.894531 49.710938 54.929688 49.835938 L 55.539062 51.992188 C 55.574219 52.117188 55.5 52.246094 55.375 52.28125 C 55.355469 52.289062 55.332031 52.292969 55.3125 52.292969 Z M 54.679688 53.789062 C 54.574219 53.789062 54.480469 53.71875 54.453125 53.617188 L 54.25 52.90625 C 54.210938 52.78125 54.285156 52.648438 54.410156 52.613281 C 54.535156 52.578125 54.667969 52.652344 54.703125 52.777344 L 54.90625 53.488281 C 54.941406 53.613281 54.867188 53.742188 54.742188 53.777344 C 54.722656 53.785156 54.699219 53.789062 54.679688 53.789062 Z M 73.414062 57.058594 C 73.351562 57.058594 73.289062 57.03125 73.242188 56.984375 C 73.152344 56.886719 73.15625 56.738281 73.253906 56.648438 C 73.46875 56.441406 73.753906 56.308594 74.050781 56.273438 C 74.347656 56.234375 74.65625 56.292969 74.917969 56.433594 C 75.03125 56.496094 75.074219 56.640625 75.011719 56.757812 C 74.949219 56.871094 74.804688 56.914062 74.691406 56.851562 C 74.515625 56.753906 74.308594 56.714844 74.109375 56.742188 C 73.910156 56.765625 73.722656 56.855469 73.574219 56.992188 C 73.53125 57.035156 73.472656 57.058594 73.414062 57.058594 Z M 71.996094 58.226562 C 71.933594 58.226562 71.867188 58.199219 71.820312 58.144531 C 71.667969 57.96875 71.519531 57.875 71.382812 57.886719 C 71.203125 57.890625 71.066406 58.058594 71.066406 58.058594 C 70.988281 58.164062 70.839844 58.183594 70.738281 58.101562 C 70.632812 58.023438 70.613281 57.878906 70.691406 57.773438 C 70.71875 57.738281 70.964844 57.425781 71.367188 57.414062 C 71.648438 57.40625 71.925781 57.546875 72.175781 57.835938 C 72.261719 57.933594 72.25 58.082031 72.152344 58.167969 C 72.109375 58.207031 72.054688 58.226562 71.996094 58.226562 Z M 73.960938 63.140625 C 73.84375 63.140625 73.742188 63.054688 73.726562 62.9375 C 73.710938 62.804688 73.800781 62.6875 73.929688 62.671875 C 73.941406 62.667969 75.285156 62.472656 76.546875 61.136719 C 76.636719 61.039062 76.789062 61.035156 76.882812 61.125 C 76.976562 61.214844 76.980469 61.363281 76.890625 61.460938 C 75.507812 62.929688 74.050781 63.132812 73.992188 63.140625 C 73.980469 63.140625 73.96875 63.140625 73.960938 63.140625 Z M 91.628906 72.546875 C 91.523438 72.546875 91.425781 72.476562 91.398438 72.367188 C 91.113281 71.210938 90.546875 70.394531 89.714844 69.949219 C 88.191406 69.125 86.253906 69.789062 86.234375 69.796875 C 86.113281 69.839844 85.980469 69.773438 85.933594 69.652344 C 85.890625 69.527344 85.957031 69.394531 86.078125 69.351562 C 86.164062 69.320312 88.226562 68.605469 89.9375 69.527344 C 90.890625 70.042969 91.539062 70.960938 91.855469 72.253906 C 91.886719 72.378906 91.8125 72.507812 91.683594 72.539062 C 91.664062 72.546875 91.648438 72.546875 91.628906 72.546875 Z M 88.546875 81.425781 C 88.492188 81.425781 88.441406 81.40625 88.398438 81.371094 L 86.3125 79.679688 C 86.3125 79.679688 86.308594 79.679688 86.308594 79.679688 C 83.132812 80.269531 79.347656 80.734375 79.121094 80.757812 C 78.988281 80.777344 78.871094 80.683594 78.855469 80.554688 C 78.839844 80.421875 78.933594 80.304688 79.0625 80.289062 C 79.140625 80.28125 86.933594 79.332031 89.570312 78.421875 C 89.691406 78.378906 89.828125 78.441406 89.871094 78.566406 C 89.910156 78.691406 89.847656 78.824219 89.722656 78.867188 C 89.039062 79.105469 88.035156 79.339844 86.914062 79.5625 L 88.695312 81.003906 C 88.796875 81.085938 88.8125 81.234375 88.730469 81.335938 C 88.683594 81.394531 88.617188 81.425781 88.546875 81.425781 Z M 49.601562 98.375 C 49.566406 98.375 49.53125 98.367188 49.496094 98.351562 C 49.382812 98.292969 49.332031 98.152344 49.390625 98.035156 C 50.394531 96.027344 48.214844 94.6875 48.121094 94.632812 C 48.011719 94.566406 47.972656 94.417969 48.042969 94.308594 C 48.109375 94.195312 48.253906 94.160156 48.367188 94.226562 C 48.390625 94.242188 51.011719 95.851562 49.816406 98.246094 C 49.773438 98.328125 49.691406 98.375 49.601562 98.375 Z M 13.945312 100.683594 C 13.839844 100.683594 13.742188 100.609375 13.714844 100.503906 C 13.703125 100.453125 13.429688 99.28125 14.128906 98.503906 C 14.554688 98.023438 15.238281 97.8125 16.164062 97.871094 C 16.019531 97.339844 15.847656 96.351562 16.359375 95.785156 C 16.746094 95.351562 17.425781 95.265625 18.371094 95.519531 C 18.496094 95.554688 18.570312 95.683594 18.539062 95.808594 C 18.503906 95.9375 18.371094 96.011719 18.246094 95.976562 C 17.488281 95.769531 16.96875 95.8125 16.710938 96.101562 C 16.285156 96.574219 16.570312 97.671875 16.71875 98.054688 L 16.859375 98.425781 L 16.46875 98.375 C 15.519531 98.253906 14.851562 98.402344 14.480469 98.820312 C 13.945312 99.414062 14.171875 100.382812 14.175781 100.390625 C 14.207031 100.519531 14.128906 100.644531 14 100.675781 C 13.980469 100.683594 13.964844 100.683594 13.945312 100.683594 Z M 69.859375 102.828125 C 69.835938 102.828125 69.8125 102.824219 69.785156 102.816406 C 69.144531 102.601562 68.742188 102.238281 68.59375 101.738281 C 68.277344 100.675781 69.261719 99.40625 69.304688 99.351562 C 69.386719 99.25 69.535156 99.234375 69.636719 99.3125 C 69.738281 99.394531 69.757812 99.542969 69.675781 99.644531 C 69.667969 99.65625 68.800781 100.777344 69.046875 101.601562 C 69.152344 101.949219 69.449219 102.203125 69.9375 102.367188 C 70.058594 102.40625 70.125 102.542969 70.085938 102.664062 C 70.050781 102.765625 69.960938 102.828125 69.859375 102.828125 Z M 29.382812 103.414062 C 28.863281 103.414062 28.339844 103.050781 27.824219 102.335938 C 27.75 102.230469 27.773438 102.082031 27.878906 102.003906 C 27.984375 101.929688 28.132812 101.953125 28.210938 102.058594 C 28.667969 102.699219 29.097656 102.996094 29.480469 102.933594 C 30.109375 102.835938 30.578125 101.800781 30.707031 101.414062 L 30.828125 101.035156 L 31.101562 101.324219 C 31.757812 102.015625 32.371094 102.320312 32.921875 102.234375 C 33.707031 102.109375 34.148438 101.214844 34.152344 101.207031 C 34.207031 101.089844 34.347656 101.039062 34.464844 101.09375 C 34.585938 101.152344 34.632812 101.292969 34.578125 101.410156 C 34.554688 101.457031 34.03125 102.535156 33 102.703125 C 32.363281 102.800781 31.699219 102.535156 31.019531 101.90625 C 30.796875 102.40625 30.308594 103.285156 29.554688 103.402344 C 29.496094 103.410156 29.441406 103.414062 29.382812 103.414062 Z M 53.390625 105.960938 C 53.386719 105.960938 53.386719 105.960938 53.382812 105.960938 C 53.25 105.953125 53.148438 105.84375 53.15625 105.714844 C 53.234375 103.734375 53.863281 102.253906 55.03125 101.304688 C 56.894531 99.789062 59.417969 100.195312 59.523438 100.214844 C 59.652344 100.234375 59.738281 100.359375 59.71875 100.488281 C 59.695312 100.617188 59.574219 100.699219 59.445312 100.679688 C 59.421875 100.675781 57.019531 100.292969 55.328125 101.671875 C 54.273438 102.53125 53.699219 103.898438 53.628906 105.730469 C 53.621094 105.859375 53.519531 105.960938 53.390625 105.960938 Z M 38.207031 64.90625 C 38.335938 64.90625 38.441406 65.011719 38.441406 65.140625 L 38.441406 70.855469 C 38.441406 70.988281 38.335938 71.09375 38.207031 71.09375 C 38.074219 71.09375 37.96875 70.988281 37.96875 70.855469 L 37.96875 65.140625 C 37.96875 65.011719 38.074219 64.90625 38.207031 64.90625 Z M 46.921875 64.390625 L 31.8125 64.292969 C 31.683594 64.292969 31.578125 64.1875 31.578125 64.054688 C 31.578125 63.925781 31.683594 63.820312 31.816406 63.820312 L 46.925781 63.917969 C 47.054688 63.917969 47.164062 64.023438 47.160156 64.15625 C 47.160156 64.285156 47.054688 64.390625 46.925781 64.390625 C 46.925781 64.390625 46.921875 64.390625 46.921875 64.390625 Z M 35.125 64.90625 C 35.253906 64.90625 35.359375 65.011719 35.359375 65.140625 L 35.359375 70.855469 C 35.359375 70.988281 35.253906 71.09375 35.125 71.09375 C 34.992188 71.09375 34.890625 70.988281 34.890625 70.855469 L 34.890625 65.140625 C 34.890625 65.011719 34.992188 64.90625 35.125 64.90625 Z M 41.289062 64.90625 C 41.417969 64.90625 41.523438 65.011719 41.523438 65.140625 L 41.523438 70.855469 C 41.523438 70.988281 41.417969 71.09375 41.289062 71.09375 C 41.15625 71.09375 41.050781 70.988281 41.050781 70.855469 L 41.050781 65.140625 C 41.050781 65.011719 41.15625 64.90625 41.289062 64.90625 Z M 47.316406 65.140625 L 47.316406 70.855469 C 47.316406 70.988281 47.210938 71.09375 47.078125 71.09375 C 46.949219 71.09375 46.84375 70.988281 46.84375 70.855469 L 46.84375 65.140625 C 46.84375 65.011719 46.949219 64.90625 47.078125 64.90625 C 47.210938 64.90625 47.316406 65.011719 47.316406 65.140625 Z M 47.0625 72.039062 C 47.0625 72.167969 46.957031 72.273438 46.824219 72.273438 L 31.714844 72.175781 C 31.585938 72.175781 31.480469 72.066406 31.480469 71.9375 C 31.480469 71.808594 31.585938 71.703125 31.714844 71.703125 C 31.71875 71.703125 31.71875 71.703125 31.71875 71.703125 L 46.828125 71.800781 C 46.957031 71.800781 47.0625 71.90625 47.0625 72.039062 Z M 31.730469 64.90625 C 31.859375 64.90625 31.96875 65.011719 31.96875 65.140625 L 31.96875 70.855469 C 31.96875 70.988281 31.859375 71.09375 31.730469 71.09375 C 31.601562 71.09375 31.496094 70.988281 31.496094 70.855469 L 31.496094 65.140625 C 31.496094 65.011719 31.601562 64.90625 31.730469 64.90625 Z M 44.367188 64.90625 C 44.5 64.90625 44.605469 65.011719 44.605469 65.140625 L 44.605469 70.855469 C 44.605469 70.988281 44.5 71.09375 44.367188 71.09375 C 44.238281 71.09375 44.132812 70.988281 44.132812 70.855469 L 44.132812 65.140625 C 44.132812 65.011719 44.238281 64.90625 44.367188 64.90625 Z M 49.648438 13.859375 C 50.066406 14.414062 49.988281 15.175781 49.480469 15.554688 C 49.386719 15.625 49.28125 15.671875 49.175781 15.707031 L 15.28125 36.347656 L 12.253906 35.210938 L 47.78125 13.632812 C 47.824219 13.585938 47.871094 13.535156 47.925781 13.496094 C 48.433594 13.117188 49.238281 13.300781 49.648438 13.859375 Z M 4.320312 23.363281 L 4.320312 22.726562 C 4.320312 22.527344 4.480469 22.363281 4.683594 22.363281 L 11.015625 22.363281 C 11.214844 22.363281 11.378906 22.527344 11.378906 22.726562 L 11.378906 23.363281 C 11.378906 23.566406 11.214844 23.730469 11.015625 23.730469 L 4.683594 23.730469 C 4.480469 23.730469 4.320312 23.566406 4.320312 23.363281 Z M 26.523438 22.785156 L 26.523438 23.421875 C 26.523438 23.625 26.363281 23.785156 26.160156 23.785156 L 19.828125 23.785156 C 19.628906 23.785156 19.464844 23.625 19.464844 23.421875 L 19.464844 22.785156 C 19.464844 22.582031 19.628906 22.421875 19.828125 22.421875 L 26.160156 22.421875 C 26.363281 22.421875 26.523438 22.582031 26.523438 22.785156 Z M 13.109375 62.5 L 13.109375 62.082031 C 13.109375 62.011719 13.054688 61.957031 12.984375 61.957031 L 7.453125 61.957031 C 7.382812 61.957031 7.328125 62.011719 7.328125 62.082031 L 7.328125 62.40625 C 3.167969 61.253906 1.9375 57.835938 1.578125 55.980469 C 1.597656 55.980469 1.617188 55.984375 1.640625 55.984375 L 19.085938 55.984375 C 18.703125 58.007812 17.417969 61.472656 13.109375 62.5 Z M 19.910156 54.09375 L 19.507812 54.09375 L 19.507812 54.070312 C 19.507812 53.851562 19.332031 53.675781 19.113281 53.675781 L 1.640625 53.675781 C 1.421875 53.675781 1.246094 53.851562 1.246094 54.070312 L 1.246094 54.132812 L 0.777344 54.132812 C 0.667969 54.132812 0.578125 54.222656 0.578125 54.332031 L 0.578125 55.316406 C 0.578125 55.425781 0.667969 55.515625 0.777344 55.515625 L 1.035156 55.515625 C 1.296875 57.273438 2.441406 61.589844 7.328125 62.890625 L 7.328125 63.425781 C 7.328125 63.496094 7.382812 63.554688 7.453125 63.554688 L 12.984375 63.554688 C 13.054688 63.554688 13.109375 63.496094 13.109375 63.425781 L 13.109375 62.980469 C 18.144531 61.824219 19.347656 57.453125 19.632812 55.476562 L 19.910156 55.476562 C 20.019531 55.476562 20.109375 55.390625 20.109375 55.277344 L 20.109375 54.292969 C 20.109375 54.183594 20.019531 54.09375 19.910156 54.09375 Z M 33.039062 51.363281 C 31.878906 50.628906 28.875 49.039062 28.875 44.863281 L 28.875 38.535156 C 28.875 38.140625 29.175781 37.816406 29.566406 37.785156 C 30.640625 37.699219 32.671875 37.550781 33.503906 37.550781 C 34.320312 37.550781 36.292969 37.699219 37.34375 37.78125 C 37.734375 37.816406 38.039062 38.140625 38.039062 38.53125 L 38.039062 44.832031 C 38.039062 48.742188 35.058594 50.527344 33.921875 51.335938 C 33.660156 51.523438 33.3125 51.535156 33.039062 51.363281 Z M 32.199219 33.171875 C 32.199219 33.039062 32.304688 32.933594 32.4375 32.933594 L 34.363281 32.933594 C 34.492188 32.933594 34.597656 33.039062 34.597656 33.171875 C 34.597656 33.300781 34.492188 33.40625 34.363281 33.40625 L 32.4375 33.40625 C 32.304688 33.40625 32.199219 33.300781 32.199219 33.171875 Z M 32.4375 31.769531 L 34.363281 31.769531 C 34.492188 31.769531 34.597656 31.875 34.597656 32.003906 C 34.597656 32.136719 34.492188 32.242188 34.363281 32.242188 L 32.4375 32.242188 C 32.304688 32.242188 32.199219 32.136719 32.199219 32.003906 C 32.199219 31.875 32.304688 31.769531 32.4375 31.769531 Z M 32.4375 30.601562 L 34.363281 30.601562 C 34.492188 30.601562 34.597656 30.707031 34.597656 30.839844 C 34.597656 30.96875 34.492188 31.074219 34.363281 31.074219 L 32.4375 31.074219 C 32.304688 31.074219 32.199219 30.96875 32.199219 30.839844 C 32.199219 30.707031 32.304688 30.601562 32.4375 30.601562 Z M 32.4375 29.433594 L 34.363281 29.433594 C 34.492188 29.433594 34.597656 29.542969 34.597656 29.671875 C 34.597656 29.804688 34.492188 29.910156 34.363281 29.910156 L 32.4375 29.910156 C 32.304688 29.910156 32.199219 29.804688 32.199219 29.671875 C 32.199219 29.542969 32.304688 29.433594 32.4375 29.433594 Z M 34.328125 34.375 C 34.707031 34.375 35.015625 34.066406 35.015625 33.6875 L 35.015625 29.277344 C 35.015625 28.898438 34.707031 28.59375 34.328125 28.59375 L 32.582031 28.59375 C 32.203125 28.59375 31.898438 28.898438 31.898438 29.277344 L 31.898438 33.6875 C 31.898438 34.066406 32.203125 34.375 32.582031 34.375 Z M 74.988281 66.207031 C 74.988281 66.207031 79.320312 65.0625 79.851562 62.882812 C 79.851562 62.882812 80.382812 65.902344 77.648438 68.109375 C 77.648438 68.109375 77.195312 66.777344 77.003906 66.152344 C 76.375 66.246094 74.988281 66.207031 74.988281 66.207031 Z M 81.8125 102.902344 C 81.792969 102.90625 81.773438 102.910156 81.753906 102.910156 C 81.648438 102.910156 81.550781 102.835938 81.527344 102.730469 L 80.378906 98.089844 L 76.089844 99.105469 C 75.960938 99.136719 75.835938 99.054688 75.804688 98.929688 C 75.773438 98.800781 75.851562 98.675781 75.980469 98.644531 L 80.496094 97.574219 C 80.625 97.542969 80.75 97.621094 80.78125 97.746094 L 81.984375 102.613281 C 82.015625 102.742188 81.9375 102.871094 81.8125 102.902344 Z M 76.816406 88.570312 C 76.699219 88.21875 76.808594 87.867188 77.058594 87.78125 C 77.3125 87.699219 77.609375 87.914062 77.726562 88.265625 C 77.84375 88.617188 77.734375 88.96875 77.484375 89.050781 C 77.230469 89.136719 76.933594 88.917969 76.816406 88.570312 Z M 96.175781 92.894531 C 96.175781 92.894531 95.761719 94.4375 95.523438 94.910156 C 94.660156 96.613281 92.769531 97.546875 90.902344 97.945312 C 88.277344 98.5 84.859375 98.539062 83.242188 95.710938 L 78.882812 86.21875 L 77.90625 86.507812 C 77.65625 84.433594 77.707031 82.488281 78.035156 80.671875 C 77.472656 80.730469 76.910156 80.792969 76.347656 80.851562 C 76.050781 82.65625 75.996094 84.691406 76.296875 86.984375 L 72.871094 87.996094 L 76.914062 105.75 L 82.269531 105.765625 C 82.261719 105.726562 82.257812 105.6875 82.246094 105.652344 C 82.214844 105.523438 82.292969 105.394531 82.421875 105.363281 C 82.546875 105.332031 82.675781 105.410156 82.707031 105.535156 C 82.726562 105.613281 82.738281 105.691406 82.75 105.769531 L 98.46875 105.820312 Z M 88.613281 67.214844 C 88.578125 67.230469 86.882812 68.109375 84.949219 69.617188 C 83.933594 69.761719 83.019531 69.890625 82.203125 70.011719 C 84.671875 67.605469 86.972656 66.503906 87.09375 66.457031 C 87.519531 66.285156 89.039062 67.046875 88.613281 67.214844 Z M 71.929688 58.980469 C 72.09375 59.3125 72.042969 59.675781 71.820312 59.785156 C 71.59375 59.894531 71.28125 59.710938 71.117188 59.375 C 70.953125 59.042969 71.003906 58.683594 71.230469 58.574219 C 71.453125 58.460938 71.765625 58.644531 71.929688 58.980469 Z M 75.226562 58.324219 C 75.003906 58.433594 74.6875 58.25 74.523438 57.917969 C 74.363281 57.582031 74.410156 57.222656 74.636719 57.113281 C 74.859375 57.003906 75.175781 57.1875 75.335938 57.519531 C 75.5 57.855469 75.453125 58.214844 75.226562 58.324219 Z M 72.730469 61.574219 C 72.398438 61.316406 72.769531 60.628906 73.042969 60.214844 C 73.144531 60.0625 73.375 60.066406 73.449219 60.222656 L 74.085938 61.527344 C 74.085938 61.527344 73.21875 61.949219 72.730469 61.574219 Z M 83.042969 61.28125 C 83.046875 61.261719 83.054688 61.238281 83.0625 61.214844 C 83.054688 61.238281 83.046875 61.261719 83.042969 61.28125 Z M 83.015625 61.363281 C 83.019531 61.347656 83.027344 61.328125 83.03125 61.3125 C 83.027344 61.328125 83.019531 61.347656 83.015625 61.363281 Z M 82.996094 61.421875 C 83 61.410156 83.003906 61.398438 83.007812 61.382812 C 83.003906 61.398438 83 61.410156 82.996094 61.421875 Z M 83.074219 61.183594 C 83.085938 61.148438 83.097656 61.109375 83.109375 61.066406 C 83.097656 61.109375 83.085938 61.148438 83.074219 61.183594 Z M 83.261719 52.890625 C 81.957031 52.621094 79.285156 52.191406 75.78125 52.304688 C 71.695312 52.4375 68.890625 53.652344 68.179688 53.996094 C 67.371094 56.550781 69.558594 58.128906 69.558594 58.128906 C 69.292969 56.613281 70.828125 54.992188 70.828125 54.992188 C 70.828125 54.992188 71.101562 56.101562 72.671875 55.566406 C 74.238281 55.03125 76.691406 52.5625 76.691406 52.5625 L 77.746094 55.441406 C 77.746094 55.441406 78.03125 56.335938 79.078125 57.089844 C 79.074219 57 79.074219 56.945312 79.074219 56.945312 C 79.074219 56.945312 78.984375 54.648438 80.890625 55.324219 C 82.542969 55.910156 82.253906 58.394531 81.425781 59.402344 C 82.269531 60.457031 82.976562 61.480469 82.976562 61.480469 C 82.976562 61.480469 82.980469 61.464844 82.988281 61.4375 C 82.980469 61.464844 82.976562 61.476562 82.976562 61.480469 C 83.019531 61.566406 83.066406 61.648438 83.113281 61.734375 L 91.738281 61.519531 L 91.695312 59.796875 L 90.902344 59.816406 L 90.925781 60.753906 L 83.140625 60.949219 C 83.132812 60.984375 83.121094 61.019531 83.113281 61.050781 C 83.460938 59.882812 84.277344 56.464844 83.261719 52.890625 Z M 83.355469 38.65625 C 83.480469 38.695312 83.550781 38.828125 83.511719 38.953125 C 83.503906 38.988281 82.484375 42.394531 83.679688 44.878906 L 83.164062 44.890625 C 82.023438 42.265625 83.015625 38.960938 83.0625 38.8125 C 83.101562 38.6875 83.230469 38.617188 83.355469 38.65625 Z M 89.277344 41.265625 C 88.980469 41.304688 88.664062 41.382812 88.320312 41.503906 C 89.949219 39.964844 91.765625 38.40625 93.003906 37.808594 C 93.121094 37.753906 93.261719 37.804688 93.316406 37.921875 C 93.375 38.039062 93.324219 38.179688 93.207031 38.238281 C 92.179688 38.730469 90.699219 39.953125 89.277344 41.265625 Z M 66.296875 43.503906 C 66.347656 43.382812 66.484375 43.324219 66.605469 43.375 C 67.625 43.78125 68.546875 44.425781 69.289062 45.234375 L 68.644531 45.25 C 68.007812 44.636719 67.25 44.144531 66.429688 43.8125 C 66.308594 43.765625 66.25 43.625 66.296875 43.503906 Z M 73.082031 43.03125 C 72.832031 43.808594 72.386719 44.542969 71.808594 45.171875 L 71.121094 45.191406 C 71.824219 44.542969 72.359375 43.746094 72.632812 42.886719 C 72.675781 42.765625 72.808594 42.695312 72.929688 42.734375 C 73.054688 42.777344 73.125 42.910156 73.082031 43.03125 Z M 68.105469 38.929688 C 69.03125 40.605469 69.914062 43.050781 70.105469 45.214844 L 69.632812 45.226562 C 69.445312 43.148438 68.589844 40.785156 67.691406 39.160156 C 67.625 39.046875 67.667969 38.902344 67.78125 38.839844 C 67.898438 38.777344 68.039062 38.816406 68.105469 38.929688 Z M 74.65625 45.101562 L 74.652344 45.101562 C 75.246094 44.195312 75.808594 43.519531 76.335938 43.03125 C 75.808594 43.519531 75.246094 44.195312 74.65625 45.101562 Z M 73.097656 41.65625 C 72.824219 41.367188 72.601562 41.199219 72.417969 41.117188 C 72.957031 39.988281 73.539062 38.960938 74.167969 38.296875 C 74.1875 38.328125 74.230469 38.347656 74.273438 38.328125 C 74.480469 38.230469 75.148438 37.863281 75.300781 38.054688 C 75.597656 38.433594 75.285156 39.402344 76.128906 38.109375 C 76.304688 37.847656 76.605469 39.078125 76.792969 39.5 C 76.816406 39.546875 76.863281 39.566406 76.90625 39.558594 C 76.964844 40.140625 76.96875 40.816406 76.933594 41.539062 C 76.398438 41.347656 75.722656 41.285156 74.988281 41.285156 C 74.222656 41.285156 73.582031 41.402344 73.097656 41.65625 Z M 76.984375 42.503906 C 77.980469 40.332031 79.128906 37.082031 80.519531 35.621094 C 80.542969 35.652344 80.582031 35.671875 80.625 35.652344 C 80.832031 35.554688 81.503906 35.1875 81.652344 35.378906 C 81.953125 35.757812 81.636719 36.726562 82.484375 35.433594 C 82.65625 35.167969 82.957031 36.402344 83.148438 36.820312 C 83.167969 36.871094 83.214844 36.890625 83.261719 36.882812 C 83.28125 37.109375 83.296875 37.351562 83.304688 37.605469 C 80.679688 38.550781 81.042969 42.332031 81.644531 44.929688 L 82.441406 44.910156 L 80.09375 44.964844 C 80.292969 44.660156 80.425781 44.34375 80.441406 44.039062 C 80.515625 42.804688 79.152344 41.023438 76.984375 42.503906 Z M 58.730469 45.5 L 56.835938 45.546875 C 56.703125 45.324219 56.320312 44.730469 56.488281 44.570312 C 56.84375 44.242188 57.832031 44.46875 56.472656 43.738281 C 56.195312 43.589844 57.394531 43.183594 57.796875 42.957031 C 57.84375 42.929688 57.859375 42.882812 57.847656 42.839844 C 57.875 42.832031 57.902344 42.828125 57.929688 42.824219 C 57.796875 43.480469 57.984375 44.367188 58.730469 45.5 Z M 62.34375 42.65625 C 62.808594 43.710938 63.476562 44.722656 63.9375 45.371094 L 62.894531 45.394531 C 62.789062 45.054688 62.34375 43.679688 61.660156 42.632812 C 61.886719 42.636719 62.113281 42.644531 62.34375 42.65625 Z M 63.160156 51.820312 L 63.175781 52.363281 C 62.621094 52.640625 62.175781 52.917969 61.859375 53.199219 C 61.757812 52.753906 61.640625 52.261719 61.535156 51.796875 Z M 90.753906 52.738281 C 91.058594 52.285156 91.226562 51.792969 91.238281 51.265625 C 91.238281 51.195312 91.234375 51.125 91.230469 51.058594 L 91.480469 51.050781 L 91.523438 52.777344 L 90.847656 52.792969 Z M 95.136719 51.023438 L 95.132812 50.960938 L 95.628906 50.949219 L 95.628906 51.011719 Z M 95.175781 52.609375 L 95.667969 52.597656 L 95.671875 52.671875 L 95.175781 52.683594 Z M 70.734375 61.257812 C 70.835938 61.53125 70.9375 61.789062 71.039062 62.035156 L 64.375 62.203125 C 64.246094 61.941406 64.117188 61.683594 63.988281 61.425781 Z M 95.375 60.644531 L 95.867188 60.632812 L 95.886719 61.417969 L 95.394531 61.429688 Z M 67.476562 37.765625 C 67.601562 37.265625 67.75 36.804688 67.933594 36.421875 C 67.960938 36.445312 68.007812 36.449219 68.039062 36.414062 C 68.207031 36.257812 68.730469 35.703125 68.933594 35.839844 C 69.335938 36.109375 69.335938 37.125 69.738281 35.636719 C 69.824219 35.332031 70.488281 36.40625 70.800781 36.75 C 70.835938 36.789062 70.886719 36.792969 70.925781 36.773438 C 71.414062 37.882812 71.804688 39.453125 72.101562 41.058594 C 71.40625 41.171875 71.597656 43.125 70.855469 42.722656 C 69.957031 42.234375 69.5625 37.882812 67.476562 37.765625 Z M 10.261719 17.371094 C 10.375 17.304688 10.515625 17.34375 10.582031 17.453125 C 10.648438 17.566406 10.609375 17.710938 10.496094 17.777344 C 10.476562 17.789062 8.40625 19.015625 8.136719 20.621094 C 8.117188 20.734375 8.015625 20.816406 7.902344 20.816406 C 7.890625 20.816406 7.875 20.816406 7.863281 20.8125 C 7.734375 20.792969 7.648438 20.667969 7.667969 20.542969 C 7.976562 18.714844 10.167969 17.421875 10.261719 17.371094 Z M 9.695312 9.699219 C 9.699219 9.570312 9.804688 9.46875 9.929688 9.46875 C 9.933594 9.46875 9.933594 9.46875 9.9375 9.46875 C 10.070312 9.472656 10.171875 9.582031 10.167969 9.714844 C 10.160156 9.933594 9.988281 15.097656 9.914062 16.011719 C 9.902344 16.136719 9.796875 16.230469 9.675781 16.230469 C 9.671875 16.230469 9.664062 16.230469 9.65625 16.230469 C 9.527344 16.21875 9.429688 16.101562 9.441406 15.972656 C 9.519531 15.070312 9.691406 9.75 9.695312 9.699219 Z M 4.539062 21.082031 C 4.535156 21.246094 4.628906 21.386719 4.765625 21.457031 C 4.808594 21.3125 4.941406 21.203125 5.097656 21.203125 L 10.859375 21.203125 C 11.054688 21.203125 11.210938 21.363281 11.210938 21.554688 L 11.257812 21.554688 C 11.257812 21.554688 15.253906 16.757812 14.605469 15.808594 C 13.957031 14.859375 11.363281 16.605469 11.363281 16.605469 C 11.363281 16.605469 12.808594 9.21875 9.867188 9.21875 C 9.867188 9.21875 9.820312 7.722656 8.820312 7.722656 C 7.828125 7.722656 7.675781 8.171875 7.527344 9.113281 C 7.546875 9.105469 7.566406 9.097656 7.589844 9.097656 C 7.71875 9.097656 7.824219 9.203125 7.824219 9.335938 L 7.863281 15.933594 C 7.867188 16.0625 7.761719 16.171875 7.628906 16.171875 C 7.5 16.171875 7.394531 16.066406 7.390625 15.9375 L 7.355469 9.335938 C 7.351562 9.238281 7.414062 9.152344 7.5 9.117188 C 7.296875 9.097656 6.03125 9.039062 6.03125 11.015625 C 6.035156 11.015625 6.039062 11.011719 6.042969 11.011719 C 6.042969 11.011719 6.046875 11.011719 6.050781 11.011719 C 6.175781 11.011719 6.28125 11.113281 6.285156 11.242188 L 6.402344 15.867188 C 6.40625 16 6.300781 16.109375 6.171875 16.113281 C 6.171875 16.113281 6.167969 16.113281 6.167969 16.113281 C 6.039062 16.113281 5.933594 16.007812 5.929688 15.882812 L 5.8125 11.253906 C 5.808594 11.128906 5.902344 11.027344 6.027344 11.015625 C 5.945312 10.984375 4.191406 10.335938 4.433594 13.214844 C 4.640625 15.660156 4.570312 19.769531 4.539062 21.082031 Z M 20.261719 17.511719 C 20.324219 17.398438 20.46875 17.363281 20.582031 17.425781 C 20.675781 17.480469 22.867188 18.773438 23.175781 20.601562 C 23.195312 20.726562 23.109375 20.851562 22.980469 20.871094 C 22.96875 20.875 22.953125 20.875 22.941406 20.875 C 22.828125 20.875 22.726562 20.792969 22.707031 20.675781 C 22.4375 19.070312 20.367188 17.847656 20.34375 17.835938 C 20.234375 17.769531 20.195312 17.625 20.261719 17.511719 Z M 20.90625 9.527344 C 20.90625 9.527344 20.910156 9.527344 20.914062 9.527344 C 21.039062 9.527344 21.144531 9.628906 21.148438 9.757812 C 21.152344 9.808594 21.324219 15.128906 21.402344 16.03125 C 21.414062 16.160156 21.316406 16.277344 21.1875 16.285156 C 21.179688 16.285156 21.171875 16.289062 21.167969 16.289062 C 21.042969 16.289062 20.941406 16.195312 20.929688 16.070312 C 20.851562 15.15625 20.683594 9.992188 20.675781 9.773438 C 20.671875 9.640625 20.773438 9.53125 20.90625 9.527344 Z M 19.628906 21.613281 C 19.628906 21.421875 19.789062 21.261719 19.980469 21.261719 L 25.746094 21.261719 C 25.902344 21.261719 26.035156 21.371094 26.078125 21.515625 C 26.214844 21.445312 26.308594 21.304688 26.304688 21.140625 C 26.273438 19.824219 26.203125 15.71875 26.410156 13.269531 C 26.652344 10.394531 24.898438 11.042969 24.816406 11.074219 C 24.9375 11.085938 25.035156 11.1875 25.03125 11.3125 L 24.914062 15.9375 C 24.910156 16.070312 24.804688 16.171875 24.675781 16.171875 C 24.675781 16.171875 24.671875 16.171875 24.671875 16.171875 C 24.539062 16.167969 24.4375 16.058594 24.441406 15.925781 L 24.558594 11.300781 C 24.5625 11.171875 24.664062 11.070312 24.792969 11.070312 C 24.796875 11.070312 24.796875 11.070312 24.800781 11.070312 C 24.804688 11.070312 24.808594 11.074219 24.8125 11.074219 C 24.8125 9.097656 23.546875 9.15625 23.34375 9.175781 C 23.429688 9.210938 23.492188 9.296875 23.488281 9.394531 L 23.449219 15.992188 C 23.449219 16.125 23.34375 16.230469 23.214844 16.230469 C 23.214844 16.230469 23.214844 16.230469 23.210938 16.230469 C 23.082031 16.230469 22.976562 16.121094 22.976562 15.992188 L 23.015625 9.390625 C 23.015625 9.261719 23.125 9.15625 23.253906 9.15625 C 23.277344 9.15625 23.296875 9.164062 23.316406 9.167969 C 23.167969 8.226562 23.015625 7.78125 22.019531 7.78125 C 21.023438 7.78125 20.976562 9.277344 20.976562 9.277344 C 18.03125 9.277344 19.476562 16.664062 19.476562 16.664062 C 19.476562 16.664062 16.886719 14.917969 16.238281 15.867188 C 15.589844 16.816406 19.585938 21.613281 19.585938 21.613281 L 19.628906 21.613281 "/>
</g>
</g>
</svg>
