<?xml version="1.0" encoding="UTF-8"?>
<svg xmlns="http://www.w3.org/2000/svg" xmlns:xlink="http://www.w3.org/1999/xlink" width="112.5pt" height="112.499997pt" viewBox="0 0 112.5 112.499997" version="1.2">
<defs>
<clipPath id="clip1">
  <path d="M 0 0 L 112.003906 0 L 112.003906 112.003906 L 0 112.003906 Z M 0 0 "/>
</clipPath>
</defs>
<g id="surface1">
<g clip-path="url(#clip1)" clip-rule="nonzero">
<path style=" stroke:none;fill-rule:nonzero;fill:rgb(30.589294%,66.668701%,89.019775%);fill-opacity:1;" d="M 112.507812 56.261719 C 112.507812 25.195312 87.324219 0.0117188 56.261719 0.0117188 C 25.195312 0.0117188 0.0117188 25.195312 0.0117188 56.261719 C 0.0117188 87.324219 25.195312 112.507812 56.261719 112.507812 C 87.324219 112.507812 112.507812 87.324219 112.507812 56.261719 "/>
</g>
<path style=" stroke:none;fill-rule:nonzero;fill:rgb(100%,100%,100%);fill-opacity:1;" d="M 70.210938 44.488281 C 69.855469 45.3125 69.46875 45.96875 69.035156 46.5 C 68.277344 47.433594 67.1875 48.195312 65.804688 48.769531 C 64.371094 49.363281 62.855469 49.664062 61.300781 49.664062 C 60.191406 49.664062 59.089844 49.511719 58.015625 49.203125 C 58.464844 44.902344 59.097656 42.183594 64.066406 40.871094 C 66.808594 40.144531 69.054688 39.128906 70.773438 37.847656 C 68.457031 41.109375 66.804688 42.898438 62.832031 45.359375 C 62.640625 45.480469 62.582031 45.730469 62.699219 45.921875 C 62.777344 46.046875 62.910156 46.117188 63.046875 46.117188 C 63.121094 46.117188 63.195312 46.097656 63.261719 46.054688 C 67.195312 43.617188 68.980469 41.738281 71.210938 38.636719 C 71.273438 40.398438 71.078125 42.5 70.210938 44.488281 Z M 46.816406 47.761719 C 45.085938 46.863281 43.761719 45.753906 42.875 44.457031 C 42.371094 43.71875 41.941406 42.820312 41.570312 41.714844 C 40.5625 38.734375 40.648438 35.671875 41.023438 33.265625 C 41.042969 33.300781 41.054688 33.335938 41.078125 33.371094 C 43.765625 37.953125 45.808594 40.625 50.808594 44.339844 C 50.882812 44.394531 50.96875 44.421875 51.054688 44.421875 C 51.179688 44.421875 51.300781 44.363281 51.382812 44.257812 C 51.515625 44.074219 51.476562 43.820312 51.296875 43.683594 C 46.429688 40.070312 44.503906 37.582031 41.863281 33.097656 C 43.910156 34.878906 46.636719 36.386719 50.007812 37.589844 C 56.351562 39.855469 56.847656 43.476562 56.949219 49.15625 C 53.515625 49.851562 49.894531 49.351562 46.816406 47.761719 Z M 71.863281 36.703125 C 71.84375 36.554688 71.738281 36.425781 71.597656 36.375 C 71.453125 36.324219 71.292969 36.355469 71.179688 36.460938 C 69.476562 38.027344 67.011719 39.246094 63.855469 40.082031 C 59.640625 41.195312 58.242188 43.453125 57.636719 46.117188 C 57.300781 42.269531 55.992188 38.859375 50.28125 36.820312 C 46.300781 35.398438 43.253906 33.558594 41.222656 31.339844 C 41.121094 31.230469 40.964844 31.183594 40.816406 31.222656 C 40.667969 31.261719 40.558594 31.378906 40.523438 31.527344 C 39.929688 34.167969 39.492188 38.125 40.796875 41.976562 C 41.195312 43.15625 41.652344 44.117188 42.199219 44.917969 C 43.164062 46.324219 44.589844 47.527344 46.441406 48.484375 C 48.71875 49.664062 51.277344 50.285156 53.851562 50.285156 C 55.054688 50.285156 56.265625 50.148438 57.449219 49.886719 C 57.449219 49.886719 57.449219 49.886719 57.453125 49.886719 C 58.703125 50.28125 60 50.480469 61.300781 50.480469 C 62.964844 50.480469 64.585938 50.160156 66.117188 49.523438 C 67.628906 48.898438 68.824219 48.054688 69.667969 47.019531 C 70.148438 46.429688 70.570312 45.707031 70.960938 44.816406 C 72.226562 41.902344 72.152344 38.796875 71.863281 36.703125 "/>
<path style=" stroke:none;fill-rule:nonzero;fill:rgb(100%,100%,100%);fill-opacity:1;" d="M 37.742188 79.835938 L 74.78125 79.835938 C 74.160156 73.875 66.089844 69.140625 56.261719 69.140625 C 46.429688 69.140625 38.359375 73.875 37.742188 79.835938 Z M 75.558594 81.3125 L 36.964844 81.3125 C 36.554688 81.3125 36.226562 80.980469 36.226562 80.574219 C 36.226562 73.457031 45.214844 67.664062 56.261719 67.664062 C 67.308594 67.664062 76.296875 73.457031 76.296875 80.574219 C 76.296875 80.980469 75.964844 81.3125 75.558594 81.3125 "/>
<path style=" stroke:none;fill-rule:nonzero;fill:rgb(100%,100%,100%);fill-opacity:1;" d="M 57.835938 69.0625 L 56.707031 68.113281 C 58.46875 66.019531 58.15625 62.894531 57.8125 61.21875 C 57.59375 60.152344 57.269531 59.074219 56.960938 58.03125 C 56.523438 56.578125 56.078125 55.074219 55.875 53.519531 C 55.597656 51.410156 56.09375 49.769531 57.269531 48.90625 L 58.144531 50.09375 C 57.171875 50.8125 57.222656 52.429688 57.339844 53.328125 C 57.527344 54.765625 57.9375 56.148438 58.375 57.609375 C 58.695312 58.683594 59.027344 59.792969 59.257812 60.921875 C 59.945312 64.269531 59.441406 67.160156 57.835938 69.0625 "/>
</g>
</svg>
